<svg width="18" height="18" xmlns="http://www.w3.org/2000/svg"><g fill-rule="nonzero" fill="none"><path fill="none" d="M0 18h18V0H0z"/><path d="M9 6.14a2.86 2.86 0 100 5.72 2.86 2.86 0 000-5.72m0 6.66a3.8 3.8 0 110-7.61 3.8 3.8 0 010 7.6M9 4.66a.47.47 0 01-.47-.47v-.74a.47.47 0 01.94 0v.74c0 .26-.21.47-.47.47M12.4 6.07a.47.47 0 01-.33-.8l.52-.53a.47.47 0 11.67.67l-.53.52c-.09.1-.21.14-.33.14M14.55 9.47h-.74a.47.47 0 010-.94h.74a.47.47 0 110 .94M12.92 13.4a.47.47 0 01-.33-.14l-.52-.53a.47.47 0 11.66-.66l.53.52a.47.47 0 01-.34.8M9 15.02a.47.47 0 01-.47-.47v-.74a.47.47 0 01.94 0v.74c0 .26-.21.47-.47.47M5.08 13.4a.47.47 0 01-.33-.8l.52-.53a.47.47 0 01.66 0c.19.18.19.48 0 .66l-.52.53c-.1.09-.21.13-.33.13M4.2 9.47h-.75a.47.47 0 010-.94h.74a.47.47 0 110 .94M5.6 6.07a.47.47 0 01-.33-.14l-.52-.52a.47.47 0 010-.66.47.47 0 01.66 0l.52.52a.47.47 0 01-.33.8" fill="#767676"/></g></svg>