<svg xmlns="http://www.w3.org/2000/svg" width="18" height="18" viewBox="0 0 18 18" fill="none">
<path fill-rule="evenodd" clip-rule="evenodd" d="M9.70729 8.9998L14.7823 3.9248C14.9783 3.7288 14.9783 3.4128 14.7823 3.2178C14.5873 3.0218 14.2703 3.0218 14.0753 3.2178L9.00029 8.2928L3.92529 3.2178C3.72929 3.0218 3.41329 3.0218 3.21829 3.2178C3.02229 3.4128 3.02229 3.7288 3.21829 3.9248L8.29329 8.9998L3.21829 14.0748C3.02229 14.2708 3.02229 14.5868 3.21829 14.7818C3.31529 14.8798 3.44329 14.9288 3.57129 14.9288C3.69929 14.9288 3.82729 14.8798 3.92529 14.7818L9.00029 9.7068L14.0753 14.7818C14.1733 14.8798 14.3013 14.9288 14.4293 14.9288C14.5573 14.9288 14.6853 14.8798 14.7823 14.7818C14.9783 14.5868 14.9783 14.2708 14.7823 14.0748L9.70729 8.9998Z" fill="#3B3B3B"/>
</svg>