<svg width="50" height="12" fill="none" xmlns="http://www.w3.org/2000/svg"><path d="M0 2C0 .8954.8954 0 2 0h44.7406c1.4544 0 2.4225 1.5032 1.8208 2.8274l-3.6352 8A2 2 0 0143.1054 12H2c-1.1046 0-2-.8954-2-2V2z" fill="#903E38"/><path d="M7.8877 6.768c-.0472.3933-.1905.7423-.4297 1.047-.2392.302-.5508.5351-.9346.6992-.3839.1614-.7983.2382-1.2434.2304-.4005-.0078-.7496-.0937-1.0473-.2578-.2976-.1667-.5326-.4062-.7051-.7187-.1697-.3151-.2656-.6771-.2879-1.086-.0195-.3203.0153-.7187.1043-1.1953.0918-.4765.2531-.8997.484-1.2695.2337-.3698.5104-.6628.8303-.879.4506-.302.9652-.4478 1.5438-.4374.6287.0104 1.1265.1927 1.4937.5469.37.3515.573.8411.6092 1.4687l-1.2184-.0039c0-.3594-.0764-.6224-.2294-.789-.153-.1667-.3908-.2553-.7135-.2657-.4173-.013-.7608.1263-1.0306.418-.267.2916-.4464.7174-.5382 1.2773-.089.5443-.128.9518-.1169 1.2227.014.3437.096.5976.2462.7617.1502.1615.3602.246.63.2539.3728.013.6704-.069.893-.246.2252-.1798.374-.4363.4464-.7696l1.2141-.0078zM11.2938 8.6665c-.0361-.1068-.0514-.2344-.0459-.3828-.3393.3177-.7232.4714-1.1516.461-.395-.0053-.7232-.125-.9847-.3595-.2586-.237-.3796-.5286-.363-.875.0195-.4609.2254-.8138.6176-1.0585.395-.2474.9235-.3711 1.5855-.3711l.5507.0078.0584-.254a.8278.8278 0 00.0126-.246c-.0139-.1224-.064-.2175-.1502-.2852-.0835-.0703-.1948-.1068-.3338-.1094-.1836-.0052-.3394.0378-.4673.129-.128.0885-.2101.2174-.2462.3867l-1.1808.0039c.0195-.4037.217-.7305.5925-.9805.3783-.2526.8442-.3763 1.3977-.371.5118.0103.9124.1536 1.2017.4296.2893.2734.4103.6263.363 1.0586l-.3463 2.0234-.0209.25c-.0056.185.0181.3412.0709.4688l-.0041.0742h-1.1558zm-.9054-.7773c.3394.0104.6356-.1276.8887-.4141l.1461-.7305-.4089-.0039c-.434.0104-.7469.1341-.9388.3711-.0696.086-.1127.1914-.1294.3164-.0222.1406.0084.2526.0918.336.0863.0807.2031.1224.3505.125zM16.6192 5.4985c-.1614-.026-.2935-.039-.3964-.039-.42-.0104-.7524.1367-.9972.4414l-.5216 2.7656h-1.1766l.7844-4.2266 1.1057-.0039-.1085.5157c.2838-.3985.6342-.5977 1.0515-.5977.1168 0 .2531.0182.4089.0547l-.1502 1.0898zM19.0155 8.7446c-.395-.0026-.7455-.0924-1.0514-.2695-.3032-.1797-.5299-.4245-.6801-.7344-.1502-.3125-.2086-.6562-.1753-1.0312l.0126-.1563c.0417-.4114.1696-.789.3838-1.1328.2142-.3437.4896-.608.8261-.793.3366-.1875.7094-.276 1.1182-.2656.5814.0104 1.0209.211 1.3185.6016.3004.388.4145.8802.3422 1.4765l-.0668.4805H18.277c-.0111.2735.0598.4922.2128.6563.153.164.3616.2487.6259.2539.4283.0104.8038-.1446 1.1265-.4649l.5382.625c-.1696.2396-.4144.4271-.7343.5625-.3199.1328-.6634.1966-1.0306.1914zm.3755-3.4726c-.2169-.0052-.4103.0586-.5799.1914-.1669.1328-.3171.3633-.4506.6914h1.6188l.0251-.1016c.0167-.1041.0181-.2031.0041-.2969-.0278-.151-.0959-.2682-.2044-.3515-.1085-.086-.2462-.1302-.4131-.1328zM25.8902 6.6626l-.3755 2.0039h-1.2225l1.0556-5.6875 2.1279.004c.6565 0 1.1725.1705 1.548.5116.3755.3412.5396.7865.4923 1.336-.0445.5573-.2934 1.0026-.7468 1.3359-.4506.3333-1.0264.5-1.7274.5l-1.1516-.0039zm.1711-.9492l1.0181.0078c.3282 0 .6008-.0794.8177-.2383.217-.1588.3464-.3737.3881-.6445.0417-.2709-.0056-.487-.1419-.6485-.1335-.1614-.3324-.2473-.5966-.2578l-1.1516-.0039-.3338 1.7852zM31.2072 8.6665h-1.1849l1.114-6h1.1808l-1.1099 6zM35.1766 8.6665c-.0362-.1068-.0515-.2344-.0459-.3828-.3394.3177-.7232.4714-1.1516.461-.395-.0053-.7232-.125-.9847-.3595-.2587-.237-.3797-.5286-.363-.875.0195-.4609.2253-.8138.6175-1.0585.395-.2474.9235-.3711 1.5855-.3711l.5508.0078.0584-.254a.8243.8243 0 00.0125-.246c-.0139-.1224-.064-.2175-.1502-.2852-.0834-.0703-.1947-.1068-.3338-.1094-.1836-.0052-.3393.0378-.4673.129-.1279.0885-.21.2174-.2462.3867l-1.1807.0039c.0194-.4037.2169-.7305.5924-.9805.3783-.2526.8443-.3763 1.3978-.371.5118.0103.9124.1536 1.2016.4296.2893.2734.4103.6263.363 1.0586l-.3463 2.0234-.0208.25c-.0056.185.018.3412.0709.4688l-.0042.0742h-1.1557zm-.9054-.7773c.3393.0104.6356-.1276.8887-.4141l.146-.7305-.4089-.0039c-.4339.0104-.7468.1341-.9388.3711-.0695.086-.1126.1914-.1293.3164-.0223.1406.0083.2526.0918.336.0862.0807.203.1224.3505.125zM39.2711 4.436l-.1002.5c.3617-.3932.7997-.5846 1.3143-.5742.4256.0078.74.1537.943.4375.2031.2839.2768.6771.2211 1.1797l-.4756 2.6875h-1.1766l.484-2.6992c.0139-.1016.0167-.194.0083-.2774-.0361-.2656-.2142-.4023-.534-.4101-.3088-.0104-.5856.1237-.8304.4023l-.5632 2.9844h-1.1766l.7844-4.2266 1.1015-.0039z" fill="#fff"/></svg>
