<svg xmlns="http://www.w3.org/2000/svg" width="104" height="104" viewBox="0 0 104 104" fill="none">
<path d="M73.616 83.9998H18.3047V16.4414L63.4007 16.4418V26.6571H72.8536L73.616 83.9998Z" fill="#FFF9F1"/>
<path d="M38.48 71.5207C38.48 71.2449 38.3704 70.9804 38.1754 70.7853C37.9803 70.5903 37.7158 70.4807 37.44 70.4807H26C25.7241 70.4807 25.4596 70.5903 25.2646 70.7853C25.0695 70.9804 24.96 71.2449 24.96 71.5207C24.96 71.7965 25.0695 72.0611 25.2646 72.2561C25.4596 72.4511 25.7241 72.5607 26 72.5607H37.44C37.7158 72.5607 37.9803 72.4511 38.1754 72.2561C38.3704 72.0611 38.48 71.7965 38.48 71.5207Z" fill="#999797"/>
<path d="M26.2495 76.96C25.9736 76.96 25.7091 77.0695 25.5141 77.2646C25.319 77.4596 25.2095 77.7241 25.2095 78C25.2095 78.2758 25.319 78.5403 25.5141 78.7354C25.7091 78.9304 25.9736 79.04 26.2495 79.04H34.1015C34.3773 79.04 34.6418 78.9304 34.8369 78.7354C35.0319 78.5403 35.1415 78.2758 35.1415 78C35.1415 77.7241 35.0319 77.4596 34.8369 77.2646C34.6418 77.0695 34.3773 76.96 34.1015 76.96H26.2495Z" fill="#999797"/>
<path d="M74.0065 26.5097C74.0065 26.5097 74.0065 26.4161 74.0065 26.3745V26.0001L63.8665 15.1321H17.7529V84.9057H50.7529C51.0288 84.9057 51.2933 84.7961 51.4883 84.6011C51.6834 84.406 51.7929 84.1415 51.7929 83.8657C51.7929 83.5899 51.6834 83.3253 51.4883 83.1303C51.2933 82.9352 51.0288 82.8257 50.7529 82.8257H19.8329V17.2121H62.4001L62.7121 25.1577C62.6815 25.7815 62.894 26.3929 63.3049 26.8633C63.5199 27.0921 63.7817 27.2718 64.0725 27.3903C64.3632 27.5087 64.6761 27.5631 64.9897 27.5497H71.8953V55.0345C71.8953 55.3103 72.0049 55.5748 72.1999 55.7699C72.395 55.9649 72.6595 56.0745 72.9353 56.0745C73.2112 56.0745 73.4757 55.9649 73.6707 55.7699C73.8658 55.5748 73.9753 55.3103 73.9753 55.0345V26.6553C73.9753 26.6033 74.0065 26.5617 74.0065 26.5097ZM64.8337 25.4697C64.8043 25.4039 64.7867 25.3335 64.7817 25.2617V25.1993L64.5425 18.9593L70.6369 25.5113H64.9897C64.8857 25.4697 64.8337 25.4489 64.8337 25.4593V25.4697Z" fill="#999797"/>
<path d="M60.625 87.0884C70.8423 87.0884 79.125 78.8056 79.125 68.5884C79.125 58.3711 70.8423 50.0884 60.625 50.0884C50.4077 50.0884 42.125 58.3711 42.125 68.5884C42.125 78.8056 50.4077 87.0884 60.625 87.0884Z" fill="#208376"/>
<path d="M60.9874 48.9185C56.8842 48.9252 52.8814 50.1873 49.5164 52.5353C46.1515 54.8834 43.5856 58.2048 42.1634 62.0537L41.581 63.9985C41.151 65.6313 40.9308 67.3123 40.9258 69.0009C40.9258 69.1777 40.9258 69.3441 40.9258 69.5209L41.0874 71.5864C41.0874 71.5864 41.0922 71.4643 41.0922 71.6009C41.0922 71.6009 41.8313 77.4267 45.6833 81.9704C48.1787 84.9137 51.4695 87.0754 55.1617 88.1965C58.854 89.3177 62.7912 89.3508 66.5018 88.2919C70.2124 87.233 73.5391 85.127 76.0836 82.2261C78.628 79.3251 80.2824 75.7523 80.8485 71.9353C81.4146 68.1183 80.8685 64.219 79.2756 60.7045C77.6827 57.1899 75.1104 54.2089 71.8669 52.1186C68.6234 50.0283 64.8461 48.9172 60.9874 48.9185ZM60.9874 87.0033C57.4268 87.0033 53.9463 85.9474 50.9858 83.9693C48.0253 81.9912 45.7179 79.1796 44.3553 75.8901C42.9928 72.6006 42.6363 68.9809 43.3309 65.4888C44.0255 61.9966 45.7401 58.7889 48.2578 56.2712C50.7754 53.7536 53.9832 52.039 57.4753 51.3444C60.9674 50.6497 64.5871 51.0063 67.8766 52.3688C71.1661 53.7314 73.9777 56.0388 75.9558 58.9993C77.934 61.9597 78.9898 65.4403 78.9898 69.0009C78.9815 73.7729 77.0822 78.347 73.7079 81.7214C70.3336 85.0957 65.7594 86.995 60.9874 87.0033Z" fill="#208376"/>
<path d="M57.2502 76.1792C57.0285 76.1804 56.8087 76.1379 56.6035 76.054C56.3983 75.9701 56.2116 75.8466 56.0542 75.6904L51.4054 71.1976C51.2951 71.1066 51.2047 70.9937 51.1399 70.8661C51.0752 70.7385 51.0375 70.599 51.0291 70.4561C51.0208 70.3133 51.042 70.1703 51.0914 70.036C51.1409 69.9018 51.2175 69.7792 51.3165 69.6759C51.4155 69.5726 51.5347 69.4908 51.6667 69.4357C51.7988 69.3806 51.9408 69.3533 52.0838 69.3556C52.2269 69.3578 52.3679 69.3896 52.4981 69.4489C52.6284 69.5081 52.745 69.5936 52.8406 69.7L57.271 73.964L69.2206 62.1288C69.4208 61.9597 69.6774 61.8725 69.9391 61.8844C70.2008 61.8963 70.4484 62.0066 70.6323 62.1931C70.8163 62.3797 70.923 62.6288 70.9312 62.8907C70.9394 63.1526 70.8485 63.4079 70.6766 63.6056L58.467 75.68C58.1432 76.0004 57.7058 76.1799 57.2502 76.1792V76.1792Z" fill="#E7F7E5"/>
<path d="M38.6256 39.9984L44.0024 34.7256C44.1448 34.5247 44.2113 34.2799 44.1902 34.0346C44.169 33.7893 44.0615 33.5595 43.8868 33.386C43.712 33.2125 43.4814 33.1066 43.236 33.0872C42.9905 33.0678 42.7462 33.1361 42.5464 33.28L37.1592 38.48L32.9992 34.32H34.1744C35.6693 34.32 37.1031 33.7261 38.1602 32.669C39.2173 31.6119 39.8112 30.1782 39.8112 28.6832C39.8112 27.1882 39.2173 25.7545 38.1602 24.6974C37.1031 23.6403 35.6693 23.0464 34.1744 23.0464H27.7992C27.5493 23.0464 27.302 23.0961 27.0715 23.1926C26.8411 23.2891 26.6322 23.4306 26.457 23.6087C26.2817 23.7868 26.1437 23.998 26.051 24.23C25.9583 24.462 25.9126 24.7102 25.9168 24.96V41.8184C25.9168 42.0942 26.0263 42.3587 26.2214 42.5538C26.4164 42.7488 26.6809 42.8584 26.9568 42.8584C27.2326 42.8584 27.4971 42.7488 27.6922 42.5538C27.8872 42.3587 27.9968 42.0942 27.9968 41.8184V34.32H30.0144L35.672 39.988L30.2328 45.3232C30.0391 45.518 29.9303 45.7816 29.9303 46.0564C29.9303 46.3311 30.0391 46.5947 30.2328 46.7896C30.3291 46.8879 30.4439 46.966 30.5707 47.0196C30.6974 47.0731 30.8336 47.101 30.9712 47.1016C31.244 47.1004 31.5055 46.9921 31.6992 46.8L37.1488 41.4648L42.4112 46.8C42.5074 46.897 42.6219 46.974 42.748 47.0268C42.874 47.0795 43.0092 47.1069 43.1459 47.1074C43.2825 47.1078 43.4179 47.0814 43.5444 47.0296C43.6708 46.9777 43.7858 46.9015 43.8828 46.8052C43.9797 46.7089 44.0568 46.5945 44.1095 46.4684C44.1623 46.3423 44.1897 46.2071 44.1901 46.0705C44.1906 45.9338 44.1642 45.7984 44.1123 45.672C44.0605 45.5455 43.9842 45.4306 43.888 45.3336L38.6256 39.9984ZM27.9968 25.116H34.1328C34.5998 25.116 35.0624 25.208 35.4939 25.3867C35.9254 25.5655 36.3175 25.8275 36.6478 26.1578C36.9781 26.488 37.2401 26.8801 37.4188 27.3117C37.5976 27.7432 37.6896 28.2057 37.6896 28.6728C37.6896 29.1399 37.5976 29.6024 37.4188 30.0339C37.2401 30.4654 36.9781 30.8575 36.6478 31.1878C36.3175 31.5181 35.9254 31.7801 35.4939 31.9588C35.0624 32.1376 34.5998 32.2296 34.1328 32.2296H27.9968V25.116Z" fill="#999797"/>
</svg>