<svg xmlns="http://www.w3.org/2000/svg" width="18" height="18" viewBox="0 0 18 18" fill="none">
<rect width="18" height="18" fill="white"/>
<path fill-rule="evenodd" clip-rule="evenodd" d="M2.97808 4.94531V6.96831C3.74208 7.34131 4.24908 8.13831 4.24908 9.00131C4.24908 9.86531 3.74208 10.6613 2.95508 11.0303L2.97808 13.0013H14.9991V11.0243C14.2351 10.6433 13.7461 9.86931 13.7461 9.00131C13.7461 8.13331 14.2351 7.35931 15.0211 6.98131L14.9991 6.97731V4.94531H2.97808ZM14.9995 14.0013H2.97852C2.42652 14.0013 1.97852 13.5523 1.97852 13.0013V11.0333C1.97852 10.6383 2.19552 10.2813 2.53152 10.1243C2.97452 9.91731 3.24952 9.48631 3.24952 9.00131C3.24952 8.51631 2.97452 8.08631 2.53052 7.87731C2.19552 7.72031 1.97852 7.36331 1.97852 6.96831V4.94531C1.97852 4.39331 2.42652 3.94531 2.97852 3.94531H14.9995C15.5515 3.94531 15.9995 4.39331 15.9995 4.94531V6.97731C15.9995 7.36931 15.7865 7.72431 15.4545 7.88331C15.0175 8.09231 14.7465 8.52131 14.7465 9.00131C14.7465 9.48131 15.0175 9.91031 15.4555 10.1193C15.7865 10.2783 15.9995 10.6333 15.9995 11.0243V13.0013C15.9995 13.5523 15.5515 14.0013 14.9995 14.0013V14.0013Z" fill="#3B3B3B"/>
<path fill-rule="evenodd" clip-rule="evenodd" d="M6.64891 7.31078C6.44791 7.31078 6.28491 7.47478 6.28491 7.67578C6.28491 7.87678 6.44791 8.04078 6.64891 8.04078C6.84991 8.04078 7.01391 7.87678 7.01391 7.67578C7.01391 7.47478 6.84991 7.31078 6.64891 7.31078M6.64916 9.0425C5.89716 9.0425 5.28516 8.4305 5.28516 7.6775C5.28516 6.9245 5.89716 6.3125 6.64916 6.3125C7.40216 6.3125 8.01416 6.9245 8.01416 7.6775C8.01416 8.4305 7.40216 9.0425 6.64916 9.0425" fill="#3B3B3B"/>
<path fill-rule="evenodd" clip-rule="evenodd" d="M11.3506 9.948C11.1496 9.948 10.9856 10.111 10.9856 10.312C10.9856 10.513 11.1496 10.677 11.3506 10.677C11.5516 10.677 11.7156 10.513 11.7156 10.312C11.7156 10.111 11.5516 9.948 11.3506 9.948M11.3504 11.6782C10.5974 11.6782 9.98535 11.0662 9.98535 10.3132C9.98535 9.56122 10.5974 8.94922 11.3504 8.94922C12.1034 8.94922 12.7154 9.56122 12.7154 10.3132C12.7154 11.0662 12.1034 11.6782 11.3504 11.6782" fill="#3B3B3B"/>
<path fill-rule="evenodd" clip-rule="evenodd" d="M7.21314 11.2853C7.08514 11.2853 6.95714 11.2363 6.85914 11.1393C6.66414 10.9433 6.66414 10.6273 6.85914 10.4313L10.4381 6.85328C10.6331 6.65828 10.9491 6.65828 11.1451 6.85328C11.3401 7.04928 11.3401 7.36528 11.1451 7.56028L7.56714 11.1393C7.46914 11.2363 7.34114 11.2853 7.21314 11.2853" fill="#3B3B3B"/>
</svg>