<svg width="24" height="24" viewBox="0 0 24 24" fill="none" xmlns="http://www.w3.org/2000/svg">
<path fill-rule="evenodd" clip-rule="evenodd" d="M16.7572 20.0637H7.15052L6.00919 6.49973H8.67319H15.3159H17.8985L16.7572 20.0637ZM9.33987 5.16642H14.6492V3.93576H9.33987V5.16642ZM19.4159 5.16645H15.9826V3.93578C15.9826 3.20111 15.3839 2.60245 14.6492 2.60245H9.33989C8.60389 2.60245 8.00656 3.20111 8.00656 3.93578V5.16645H4.58656C4.21856 5.16645 3.91989 5.46511 3.91989 5.83311C3.91989 6.20245 4.21856 6.49978 4.58656 6.49978H4.67189L5.82256 20.1744C5.87856 20.8611 6.46256 21.3971 7.15056 21.3971H16.7572C17.4559 21.3971 18.0279 20.8718 18.0866 20.1758L19.2359 6.49978H19.4159C19.7839 6.49978 20.0826 6.20245 20.0826 5.83311C20.0826 5.46511 19.7839 5.16645 19.4159 5.16645Z" fill="#FF6F61"/>
<path fill-rule="evenodd" clip-rule="evenodd" d="M9.51493 10.164C9.14693 10.164 8.84827 10.4627 8.84827 10.8307V15.384C8.84827 15.752 9.14693 16.0507 9.51493 16.0507C9.88293 16.0507 10.1816 15.752 10.1816 15.384V10.8307C10.1816 10.4627 9.88293 10.164 9.51493 10.164Z" fill="#FF6F61"/>
<path fill-rule="evenodd" clip-rule="evenodd" d="M14.4733 10.164C14.1053 10.164 13.8067 10.4627 13.8067 10.8307V15.384C13.8067 15.752 14.1053 16.0507 14.4733 16.0507C14.8413 16.0507 15.14 15.752 15.14 15.384V10.8307C15.14 10.4627 14.8413 10.164 14.4733 10.164Z" fill="#FF6F61"/>
</svg>
