<svg xmlns="http://www.w3.org/2000/svg" width="104" height="104" fill="none"><mask id="a" style="mask-type:alpha" maskUnits="userSpaceOnUse" x="13" y="15" width="79" height="79"><path d="M91.796 54.121c0 21.584-17.498 39.082-39.082 39.082-21.585 0-39.082-17.498-39.082-39.082s17.497-39.082 39.082-39.082c21.584 0 39.082 17.498 39.082 39.082Z" fill="#C4C4C4"/></mask><g mask="url(#a)"><path d="M13.249 14.408h78.547v70.969H13.249V14.407Z" fill="#EFEFEF"/></g><path fill-rule="evenodd" clip-rule="evenodd" d="M26.819 86.852a4.18 4.18 0 1 0 0 8.36 4.18 4.18 0 0 0 0-8.36Zm0-.7a4.88 4.88 0 1 0 0 9.76 4.88 4.88 0 0 0 0-9.76ZM68.704 86.852a4.18 4.18 0 1 0 0 8.36 4.18 4.18 0 0 0 0-8.36Zm-3.45.73a4.88 4.88 0 1 1 6.9 6.9 4.88 4.88 0 0 1-6.9-6.9Z" fill="#847E89"/><path d="m19.583 37.643-8.981 5.132h76.77L80.1 37.643H19.583Z" fill="#F8F8F8"/><path fill-rule="evenodd" clip-rule="evenodd" d="M19.41 37.34a.35.35 0 0 1 .173-.047h60.518a.35.35 0 0 1 .202.064l7.27 5.132a.35.35 0 0 1-.201.636h-76.77a.35.35 0 0 1-.174-.654l8.982-5.132Zm.266.653-7.756 4.432h74.349l-6.28-4.432H19.677Z" fill="#847E89"/><path d="M87.279 43.059H10.7l7.136 30.546h62.082" fill="#fff"/><path fill-rule="evenodd" clip-rule="evenodd" d="M10.425 42.84a.35.35 0 0 1 .275-.133h76.578a.35.35 0 1 1 0 .7H11.141l6.972 29.846h61.805a.35.35 0 1 1 0 .7H17.835a.35.35 0 0 1-.34-.27l-7.136-30.546a.35.35 0 0 1 .066-.297Z" fill="#847E89"/><path d="m25.053 68.328-7.31 5.132H80.23l-5.918-5.132h-49.26Z" fill="#F8F8F8"/><path fill-rule="evenodd" clip-rule="evenodd" d="M24.852 68.042a.35.35 0 0 1 .201-.064h49.26a.35.35 0 0 1 .23.086l5.917 5.132a.35.35 0 0 1-.229.615H17.743a.35.35 0 0 1-.201-.637l7.31-5.132Zm.312.636-6.314 4.433h60.443l-5.11-4.433h-49.02Z" fill="#847E89"/><path fill-rule="evenodd" clip-rule="evenodd" d="M22.152 70.066h54.436v.5H22.152v-.5Z" fill="#C8C8C8"/><path d="m25.206 79.297-5.614 5.874h52.93l-4.544-5.874H25.206Z" fill="#fff"/><path fill-rule="evenodd" clip-rule="evenodd" d="M25.025 79.124a.25.25 0 0 1 .18-.077h42.773a.25.25 0 0 1 .198.097l4.544 5.874a.25.25 0 0 1-.198.403h-52.93a.25.25 0 0 1-.18-.423l5.613-5.874Zm.288.423-5.136 5.374h51.836l-4.158-5.374H25.312Z" fill="#C8C8C8"/><path fill-rule="evenodd" clip-rule="evenodd" d="M83.826 29.233a1.65 1.65 0 0 0-1.614 1.306l-10.25 48.1a1.35 1.35 0 0 1-1.32 1.068H25.367a.35.35 0 1 1 0-.7H70.64a.65.65 0 0 0 .636-.514l10.25-48.1a2.35 2.35 0 0 1 2.299-1.86h2.036a.35.35 0 1 1 0 .7h-2.036Z" fill="#847E89"/><path fill-rule="evenodd" clip-rule="evenodd" d="M90.124 29.401a2.35 2.35 0 0 1 2.294-1.842h2.407a.35.35 0 1 1 0 .7h-2.407a1.65 1.65 0 0 0-1.61 1.293l-3.75 16.958-.001.003-8.599 37.265a2.51 2.51 0 0 1-2.446 1.948H20.006a.35.35 0 0 1 0-.7h56.006a1.811 1.811 0 0 0 1.764-1.405l8.598-37.262v-.004l3.75-16.954ZM24.798 68.322l-5.55-30.778.689-.124 5.55 30.778-.689.124Z" fill="#847E89"/><path fill-rule="evenodd" clip-rule="evenodd" d="M12.556 50.239a.35.35 0 0 1 .35-.35h72.918a.35.35 0 1 1 0 .7H12.906a.35.35 0 0 1-.35-.35Z" fill="#847E89"/><path fill-rule="evenodd" clip-rule="evenodd" d="m78.171 73.41 6.473-30.162.489.105-6.473 30.162-.489-.105Zm-56.606.1L15.78 43.348l.491-.095 5.785 30.162-.491.095Zm51.713-.088 4.89-30.161.494.08-4.89 30.161-.494-.08Zm-47.7.064-2.891-30.162.498-.047 2.89 30.162-.497.047Zm42.63-.047 2.844-30.162.498.047-2.845 30.162-.498-.047Zm-37.144.039L29.25 43.316l.499-.03 1.814 30.162-.5.03Zm31.91-.03 1.766-30.162.499.03-1.767 30.161-.499-.03Zm-25.276.026-1.377-30.162.5-.023 1.377 30.162-.5.023Zm19.054-.022 1.24-30.162.499.02-1.24 30.163-.5-.02Zm-12.856.016-.69-30.162.5-.011.69 30.162-.5.011Zm6.335-.01.437-30.161.5.007-.437 30.162-.5-.007Z" fill="#C8C8C8"/><path d="M30.373 91.03a3.554 3.554 0 1 1-7.108 0 3.554 3.554 0 0 1 7.108 0ZM72.257 91.03a3.554 3.554 0 1 1-7.108 0 3.554 3.554 0 0 1 7.108 0Z" fill="#FDCF95"/><path d="M13.56 16.445c1.806-.381 2.74.156 3.562.692-.496.852-1.172 1.69-2.978 2.071-1.806.382-3.4.072-3.562-.691-.16-.763 1.173-1.69 2.979-2.072Z" fill="#fff"/><path fill-rule="evenodd" clip-rule="evenodd" d="M11.784 19.095c.613.119 1.435.103 2.319-.083.878-.185 1.468-.479 1.896-.82.373-.296.632-.636.852-.993-.358-.226-.733-.434-1.193-.56-.528-.144-1.18-.184-2.056.001-.883.186-1.642.505-2.154.861-.256.179-.443.36-.555.532-.11.171-.14.318-.115.442.026.123.113.246.284.357.172.112.416.203.723.263Zm-.94.072c-.23-.15-.403-.352-.457-.61-.055-.258.022-.512.171-.742.15-.229.38-.446.662-.642.566-.394 1.377-.73 2.3-.924.93-.197 1.647-.159 2.243.004.594.163 1.054.446 1.468.715l.16.104-.096.165c-.254.436-.562.882-1.046 1.268-.485.386-1.136.703-2.064.898-.922.195-1.8.216-2.477.084-.338-.065-.635-.17-.864-.32Z" fill="#847E89"/><path d="M18.296 12.57c-.576 1.754-.144 2.74.299 3.616.902-.4 1.808-.98 2.384-2.734.576-1.753.443-3.372-.298-3.615-.741-.244-1.809.98-2.385 2.734Z" fill="#fff"/><path fill-rule="evenodd" clip-rule="evenodd" d="M21.125 11.095c.052.622-.053 1.438-.335 2.295-.28.853-.636 1.408-1.022 1.796a3.714 3.714 0 0 1-1.08.739c-.186-.381-.352-.777-.426-1.248-.086-.54-.055-1.193.225-2.043.282-.858.68-1.577 1.091-2.047.205-.236.407-.4.59-.493.181-.092.331-.106.451-.067.12.04.232.14.324.321.092.183.156.436.182.747Zm.175-.927c-.123-.245-.306-.439-.556-.52-.25-.083-.512-.035-.757.089-.244.123-.484.328-.71.587-.453.52-.876 1.29-1.17 2.185-.297.903-.337 1.62-.24 2.23.096.608.327 1.097.55 1.538l.085.17.174-.077c.462-.205.94-.462 1.376-.902.437-.44.822-1.052 1.118-1.953.294-.896.41-1.766.354-2.453-.029-.343-.1-.65-.224-.894Z" fill="#847E89"/><path fill-rule="evenodd" clip-rule="evenodd" d="M17.57 16.169a1.423 1.423 0 1 0 1.82 2.187 1.423 1.423 0 0 0-1.82-2.187Zm-.49 2.26a1.823 1.823 0 1 1 2.802-2.333 1.823 1.823 0 0 1-2.803 2.333Z" fill="#847E89"/><path d="M19.47 16.44c.443.533.37 1.327-.165 1.772a1.258 1.258 0 0 1-1.773-.16 1.258 1.258 0 0 1 .165-1.772 1.258 1.258 0 0 1 1.772.16Z" fill="#FDCF95"/><path d="M62.28 20.696c.856.995.841 1.76.79 2.457-.703-.017-1.457-.151-2.313-1.146-.857-.995-1.211-2.095-.79-2.458.42-.361 1.455.152 2.312 1.147Z" fill="#fff"/><path fill-rule="evenodd" clip-rule="evenodd" d="M60.025 20.495c.135.421.426.928.845 1.414.416.483.8.75 1.159.9.308.128.605.174.9.189.018-.298.018-.6-.06-.926-.09-.377-.289-.796-.704-1.278-.418-.486-.876-.85-1.273-1.046a1.46 1.46 0 0 0-.519-.162c-.143-.011-.243.02-.31.077-.065.057-.111.151-.122.294-.01.145.016.327.084.538Zm-.383-.56c.015-.196.082-.375.226-.499.144-.124.332-.164.527-.15.196.015.41.084.63.193.44.219.93.61 1.367 1.119.442.513.665.975.768 1.404.103.427.085.812.059 1.162l-.011.143-.143-.004c-.36-.009-.744-.047-1.152-.218-.408-.17-.83-.468-1.27-.98-.439-.51-.753-1.05-.904-1.518a1.756 1.756 0 0 1-.097-.652Z" fill="#847E89"/><path d="M65.315 20.924c-.959.897-1.026 1.66-1.05 2.358.7.058 1.464.006 2.423-.891.959-.898 1.428-1.954 1.05-2.359-.38-.405-1.465-.006-2.423.892Z" fill="#fff"/><path fill-rule="evenodd" clip-rule="evenodd" d="M67.577 20.967c-.18.404-.523.877-.992 1.315-.465.436-.876.66-1.248.77-.32.095-.62.108-.916.091.014-.298.046-.598.16-.914.13-.365.372-.76.836-1.195.468-.438.963-.75 1.378-.903.208-.076.39-.11.534-.106.143.005.239.047.299.11.06.064.095.163.09.306a1.46 1.46 0 0 1-.14.526Zm.44-.516c.007-.196-.04-.382-.17-.52-.13-.14-.312-.2-.509-.206a1.755 1.755 0 0 0-.647.125c-.461.17-.989.506-1.479.965-.494.463-.765.898-.914 1.313-.148.414-.17.799-.182 1.15l-.005.143.142.011c.358.03.746.033 1.17-.092.424-.126.874-.377 1.367-.84.49-.458.861-.962 1.061-1.412.1-.224.16-.441.167-.637Z" fill="#847E89"/><path fill-rule="evenodd" clip-rule="evenodd" d="M63.824 23.11a1.005 1.005 0 1 0-.734 1.87 1.005 1.005 0 0 0 .734-1.87Zm-1.582.458a1.305 1.305 0 1 1 2.43.953 1.305 1.305 0 0 1-2.43-.953Z" fill="#847E89"/><path d="M64.31 24.378a.895.895 0 0 1-1.67-.655c.18-.46.7-.686 1.161-.505.461.18.689.7.508 1.16Z" fill="#FDCF95"/><path d="M82.432 87.431c-1.287-.261-1.745-.876-2.13-1.458.565-.416 1.243-.772 2.53-.51 1.287.26 2.24.913 2.13 1.457-.11.544-1.243.773-2.53.511Z" fill="#fff"/><path fill-rule="evenodd" clip-rule="evenodd" d="M84.336 86.209c-.365-.25-.905-.472-1.534-.6-.625-.127-1.092-.102-1.467 0a2.626 2.626 0 0 0-.828.401c.169.247.354.486.616.695.302.243.715.453 1.339.58.628.127 1.212.133 1.646.046.218-.044.39-.11.51-.19s.18-.165.197-.25c.017-.086-.004-.189-.083-.309a1.462 1.462 0 0 0-.396-.373Zm.646.208c.108.163.165.346.127.533-.038.186-.161.333-.325.441a1.755 1.755 0 0 1-.616.234c-.482.097-1.108.087-1.766-.047-.664-.135-1.123-.363-1.467-.638-.343-.275-.564-.59-.758-.884l-.079-.119.115-.084c.29-.214.617-.42 1.044-.534.427-.116.943-.139 1.605-.004.658.134 1.238.369 1.644.646.202.14.368.293.476.456Z" fill="#847E89"/><path d="M81.046 89.048c-.448-1.234-1.123-1.596-1.755-1.892-.329.62-.581 1.343-.133 2.578.448 1.234 1.234 2.081 1.755 1.892.522-.19.581-1.343.133-2.578Z" fill="#fff"/><path fill-rule="evenodd" clip-rule="evenodd" d="M80.118 91.113c-.301-.325-.6-.826-.82-1.43-.217-.599-.261-1.064-.216-1.45.039-.332.145-.613.276-.878.269.13.532.278.778.506.284.264.553.642.77 1.24.218.603.31 1.18.288 1.621a1.464 1.464 0 0 1-.113.533c-.06.13-.137.201-.219.231-.082.03-.186.024-.317-.037a1.463 1.463 0 0 1-.427-.336Zm.3.608c.178.083.367.112.546.047.18-.065.306-.208.389-.386.083-.178.128-.399.14-.644.026-.491-.076-1.108-.306-1.74-.23-.636-.524-1.057-.847-1.357-.322-.298-.667-.47-.986-.62l-.129-.06-.067.126c-.168.317-.323.672-.374 1.111-.052.44.002.953.233 1.588.229.631.547 1.17.88 1.53.168.18.344.322.521.405Z" fill="#847E89"/><path fill-rule="evenodd" clip-rule="evenodd" d="M79.824 86.41a1.005 1.005 0 1 0-1.77-.95 1.005 1.005 0 0 0 1.77.95Zm-.269-1.624a1.305 1.305 0 1 1-1.233 2.3 1.305 1.305 0 0 1 1.233-2.3Z" fill="#847E89"/><path d="M78.506 86.743a.895.895 0 0 1-.364-1.212.895.895 0 1 1 .364 1.212Z" fill="#FDCF95"/><path fill-rule="evenodd" clip-rule="evenodd" d="M61.764 26.762c-.475.15-1.026.37-1.609.666l-.226-.446c.605-.308 1.182-.54 1.686-.697l.15.477Zm-4.459 2.675c-.806.775-1.523 1.708-2.023 2.805l-.455-.208c.53-1.164 1.288-2.146 2.132-2.957l.346.36Zm-2.756 6.168a9.67 9.67 0 0 0 .149 1.733l-.493.086c-.11-.635-.16-1.242-.156-1.823l.5.004ZM36.128 18.34a5.48 5.48 0 0 1 2.413-2.181l.213.452a4.98 4.98 0 0 0-2.195 1.982l-.43-.253Zm-14.485 3.04a9.323 9.323 0 0 1-.794-1.23l.442-.235c.186.351.436.747.751 1.164l-.4.301Zm20.115-5.721c.587.09 1.128.285 1.567.59.4.276.754.594 1.052.944l-.38.325a4.99 4.99 0 0 0-.956-.858c-.365-.253-.831-.427-1.358-.507l.075-.494Zm-15.697 9.445a13.902 13.902 0 0 1-2.407-1.622l.32-.383a13.39 13.39 0 0 0 2.322 1.564l-.235.441Zm9.732-.45c-.355-1.18-.504-2.238-.49-3.18l.5.007c-.014.884.127 1.891.469 3.028l-.48.144Zm9.636-4.845c.02.883-.269 1.796-.927 2.66l-.398-.303c.596-.782.843-1.586.825-2.346l.5-.011Zm-13.82 6.899a14.567 14.567 0 0 1-2.856-.517l.138-.48c.851.244 1.77.419 2.758.498l-.04.499Zm10.791-2.42c-.695.424-1.521.816-2.49 1.166l-.17-.47c.942-.34 1.737-.72 2.4-1.123l.26.427Zm-6.46 2.192c-.489.087-.968.152-1.435.198l-.048-.498c.454-.044.92-.108 1.396-.192.46-.082.9-.171 1.32-.266l.111.488c-.428.096-.876.187-1.343.27Zm2.674 3.864a27.92 27.92 0 0 1-1.608-2.733l.445-.227c.43.842.952 1.736 1.58 2.683l-.417.277Zm2.865 3.806c-.352-.42-.685-.832-1.002-1.237l.393-.308c.314.4.644.808.992 1.224l-.383.32Z" fill="#847E89"/></svg>