<svg width="18" height="18" xmlns="http://www.w3.org/2000/svg"><g fill-rule="nonzero" fill="none"><path fill="none" d="M0 18h18V0H0z"/><path d="M9 6.14a.5.5 0 01-.5-.5v-.66a.5.5 0 011 0v.66a.5.5 0 01-.5.5M6.65 10.77h-1a3.4 3.4 0 016.7 0h-5.7zm8.84 0h-2.15A4.38 4.38 0 009 6.87c-2.25 0-4.1 1.71-4.34 3.9H2.5a.5.5 0 000 1h12.98a.5.5 0 000-1zM5.02 7.79a.5.5 0 01-.35-.15l-.39-.38a.5.5 0 010-.71c.2-.2.51-.2.71 0l.39.38a.5.5 0 01-.36.86M13.04 7.72a.5.5 0 01-.35-.85l.38-.39c.2-.2.52-.2.71 0 .2.2.2.51 0 .71l-.39.39a.5.5 0 01-.35.14M11 13.52H7a.5.5 0 010-1h4a.5.5 0 010 1" fill="#767676"/></g></svg>