<svg width="18" height="18" viewBox="0 0 18 18" fill="none" xmlns="http://www.w3.org/2000/svg">
<rect width="18" height="18" fill="white"/>
<path fill-rule="evenodd" clip-rule="evenodd" d="M0 18H18V0H0V18Z" fill="black" fill-opacity="0.01"/>
<path fill-rule="evenodd" clip-rule="evenodd" d="M8.99987 2.94312C5.65987 2.94312 2.94287 5.66012 2.94287 9.00012C2.94287 12.3391 5.65987 15.0561 8.99987 15.0561C12.3399 15.0561 15.0569 12.3391 15.0569 9.00012C15.0569 5.66012 12.3399 2.94312 8.99987 2.94312ZM8.99987 16.0561C5.10887 16.0561 1.94287 12.8901 1.94287 9.00012C1.94287 5.10912 5.10887 1.94312 8.99987 1.94312C12.8909 1.94312 16.0569 5.10912 16.0569 9.00012C16.0569 12.8901 12.8909 16.0561 8.99987 16.0561Z" fill="#767676"/>
<path fill-rule="evenodd" clip-rule="evenodd" d="M9.00009 13.652C8.59609 13.652 8.26709 13.326 8.26709 12.925C8.26709 12.525 8.59609 12.199 9.00009 12.199C9.40509 12.199 9.73409 12.525 9.73409 12.925C9.73409 13.326 9.40509 13.652 9.00009 13.652Z" fill="#767676"/>
<path fill-rule="evenodd" clip-rule="evenodd" d="M9 11.5895C8.724 11.5895 8.5 11.3655 8.5 11.0895V10.3315C8.5 9.41952 9.154 8.52652 9.802 8.11552C10.365 7.75952 10.618 7.10152 10.447 6.44052C10.32 5.94552 9.902 5.52752 9.408 5.40152C8.927 5.27652 8.457 5.36852 8.082 5.66052C7.712 5.94752 7.5 6.37952 7.5 6.84752C7.5 7.12352 7.276 7.34752 7 7.34752C6.724 7.34752 6.5 7.12352 6.5 6.84752C6.5 6.06852 6.854 5.34752 7.47 4.87052C8.087 4.39152 8.884 4.23152 9.658 4.43252C10.507 4.65152 11.197 5.34152 11.416 6.19052C11.693 7.26352 11.259 8.37652 10.337 8.96052C9.884 9.24752 9.5 9.87652 9.5 10.3315V11.0895C9.5 11.3655 9.276 11.5895 9 11.5895Z" fill="#767676"/>
</svg>
