<svg width="18" height="18" xmlns="http://www.w3.org/2000/svg"><g fill="none" fill-rule="evenodd"><path fill="none" d="M0 18h18V0H0z"/><path d="M9 7.27a.5.5 0 01.5.5v4.625a.5.5 0 01-1 0V7.77a.5.5 0 01.5-.5M9 5.106a.73.73 0 01.733.726.73.73 0 01-.733.726.73.73 0 01-.734-.726A.73.73 0 019 5.106" fill="#767676"/><path d="M9 15.049a6.056 6.056 0 006.05-6.05A6.056 6.056 0 009 2.952 6.057 6.057 0 002.95 9 6.057 6.057 0 009 15.049M9 1.95A7.057 7.057 0 0116.05 9 7.057 7.057 0 019 16.049c-3.888 0-7.05-3.162-7.05-7.05 0-3.886 3.162-7.048 7.05-7.048" fill="#767676"/></g></svg>