<svg xmlns="http://www.w3.org/2000/svg" width="24" height="24"><g fill="none" fill-rule="evenodd"><g fill="#FF6F61"><path d="M12 0c.3 0 .45.15.45.45V4.5c0 .3-.15.45-.45.45-.3 0-.45-.15-.45-.45V.45c0-.3.15-.45.45-.45M9.6 5.4c-.3.15-.45 0-.6-.3l-.75-1.95c0-.15 0-.45.3-.6.3-.15.45 0 .6.3L9.9 4.8c.15.15 0 .45-.3.6M7.5 6.6c-.15.15-.45.15-.75 0l-1.2-1.65c-.3-.15-.15-.45 0-.6.15-.15.45-.15.75.15L7.65 6c0 .15 0 .45-.15.6M5.85 8.55c0 .15-.3.3-.6.15L3.6 7.65c-.3-.15-.45-.45-.3-.6.15-.15.45-.3.75-.15L5.7 7.95c.3 0 .45.3.15.6M5.1 10.8c0 .3-.3.45-.6.45l-1.95-.45c-.3 0-.45-.3-.45-.6s.3-.45.6-.45l1.95.3c.3.15.6.45.45.75M5.1 13.2c0 .3-.15.45-.45.6l-1.95.3c-.3 0-.45-.15-.6-.45 0-.3.15-.45.45-.6l1.95-.3c.3 0 .6.15.6.45M5.85 15.45c.15.15.15.45-.15.75l-1.65 1.05c-.15.15-.45.15-.75-.15-.15-.3-.15-.45.15-.75L5.1 15.3c.45-.15.75 0 .75.15M7.5 17.4c.15.15.15.45.15.75l-1.35 1.5c-.15.15-.45.15-.75.15-.15-.15-.15-.45-.15-.75l1.35-1.5c.3-.45.6-.45.75-.15M9.6 18.6c.3.15.45.45.3.6L9.15 21c-.15.3-.45.45-.6.3-.3-.15-.45-.45-.3-.6L9 18.9c.15-.3.3-.45.6-.3M12 18.9c.3 0 .45.15.45.45v1.95c0 .3-.15.45-.45.45-.3 0-.45-.15-.45-.45v-1.8c0-.3.15-.6.45-.6M14.4 18.6c.3-.15.45 0 .6.3l.75 1.95c.15.3 0 .45-.3.6-.3.15-.45 0-.6-.3l-.75-1.95c-.15-.3 0-.6.3-.6M16.5 17.4c.15-.15.45-.15.75.15l1.35 1.5c.15.15.15.45-.15.75-.15.15-.45.15-.75-.15l-1.35-1.5c0-.3 0-.75.15-.75M18.15 15.45c.15-.15.45-.3.75-.15l1.65 1.05c.15.15.3.45.15.75s-.45.3-.75.15L18.3 16.2c-.3-.3-.45-.6-.15-.75M18.9 13.2c0-.3.3-.45.6-.45l1.95.3c.3 0 .45.3.45.6s-.3.45-.6.45l-1.95-.3c-.3-.15-.6-.3-.45-.6M18.9 10.8c0-.3.15-.45.45-.6l1.95-.3c.3 0 .45.15.6.45 0 .3-.15.45-.45.6l-1.95.15c-.3 0-.6 0-.6-.3M18.15 8.55C18 8.4 18 8.1 18.3 7.8l1.65-1.05c.15-.15.45-.15.75.15.15.15.15.45-.15.75L18.9 8.7c-.45.15-.75 0-.75-.15M16.5 6.6c-.15-.15-.15-.45-.15-.75l1.35-1.5c.15-.15.45-.15.75-.15.15.15.15.45.15.75l-1.35 1.5c-.3.3-.6.3-.75.15M14.4 5.4c-.3-.15-.45-.45-.3-.6l.75-1.95c.15-.3.45-.45.6-.3.3.15.45.45.3.6L15 5.1c-.15.3-.3.45-.6.3"/></g><path d="M0 0h24v24H0z"/></g><animateTransform attributeName="transform" begin="0s" dur="10s" type="rotate" from="0" to="360" repeatCount="indefinite"/></svg>
