<svg width="18" height="18" xmlns="http://www.w3.org/2000/svg"><g fill-rule="nonzero" fill="none"><path fill="none" d="M0 18h18V0H0z"/><path d="M9.08 5.14a.5.5 0 00.5-.5v-.86a.5.5 0 10-1 0v.86c0 .27.22.5.5.5M13.23 7.18a.5.5 0 00.35-.15l.61-.62a.5.5 0 00-.7-.7l-.62.61a.5.5 0 00.36.86M2.65 10.84h.85a.5.5 0 100-1h-.85a.5.5 0 000 1M4.53 6.98a.5.5 0 10.7-.71l-.6-.6a.5.5 0 00-.7.7l.6.6z" fill="#767676"/><path d="M8.92 10.01a2.48 2.48 0 00-3.07-.35 3.39 3.39 0 016.71.35l-1.9 1.74L8.91 10zm6.97-2.38a.5.5 0 00-.7-.03l-1.75 1.6a4.4 4.4 0 00-8.65 1.02v.28l-2.64 2.22a.5.5 0 00-.05.7c.17.22.49.24.7.07l3.38-2.86c.6-.5 1.48-.46 2.03.09l3.85 3.85a.5.5 0 00.7 0 .5.5 0 000-.7l-1.4-1.41 2.03-1.86.06-.05 2.41-2.21a.5.5 0 00.03-.7z" fill="#767676"/></g></svg>