<svg width="216" height="216" viewBox="0 0 216 216" fill="none" xmlns="http://www.w3.org/2000/svg">
<path d="M58.4208 182.808C65.4768 182.736 72.5328 182.635 79.5888 182.534C104.011 182.189 128.434 181.8 152.856 181.843C173.03 167.069 186.134 143.222 186.134 116.294C186.134 71.4672 149.789 35.1216 104.962 35.1216C60.1344 35.1216 23.8032 71.4672 23.8032 116.294C23.8032 143.813 37.4832 168.134 58.4208 182.808Z" fill="#FEE6E1"/>
<path d="M59.1406 51.8256H90.259V90.8064H60.0046C60.0046 90.792 59.1406 51.5376 59.1406 51.8256Z" fill="white"/>
<path d="M60.6675 53.9712H87.1635V87.7248H61.9203C61.9203 87.7248 60.7539 54.0576 60.6675 53.9712Z" fill="#FBC9BC"/>
<path d="M36.4466 159.437C36.5618 159.437 36.6338 159.336 36.6194 159.235C36.5474 158.645 36.5618 156.787 38.909 153.662C41.717 149.918 43.301 138.629 41.0546 129.456C41.0114 129.269 40.7378 129.269 40.6946 129.47C40.3634 131.314 39.4418 135.763 37.9442 138.269C36.1298 141.293 36.029 157.378 36.0146 159.264C36.0146 159.365 36.101 159.451 36.2018 159.451H36.4466V159.437Z" fill="#6BA697"/>
<path d="M35.7842 157.406C35.7698 157.406 35.7698 157.406 35.7554 157.421V157.421C35.7554 157.565 35.7554 157.709 35.7554 157.838C35.957 157.882 36.1442 157.925 36.3458 157.968C36.3458 157.666 36.3602 157.306 36.3602 156.931C36.245 157.147 36.029 157.349 35.7842 157.406Z" fill="#372A3E"/>
<path d="M30.456 159.437C30.3552 159.451 30.2688 159.379 30.2832 159.278C30.3696 158.429 30.528 154.973 28.008 152.741C25.2432 150.293 21.024 146.664 20.088 138.211C20.0736 138.053 20.304 137.981 20.3616 138.139C20.8512 139.306 21.5568 140.386 22.464 141.264C23.7456 142.488 25.5024 143.006 26.8848 144.072C28.1232 145.037 29.1888 146.246 30.0672 147.542C32.0976 150.523 33.1776 154.267 32.2848 157.838C32.184 158.256 32.04 158.688 31.8816 159.091C31.8672 159.134 31.824 159.178 31.7808 159.178L30.456 159.437Z" fill="#6BA697"/>
<path d="M31.3489 158.861C31.2769 158.846 31.2337 158.76 31.2481 158.702C31.5361 157.738 33.2353 151.603 30.8881 146.002C28.3681 140.026 23.7025 140.213 22.6081 124.848C22.5937 124.69 22.8097 124.646 22.8673 124.79C23.4865 126.475 24.2497 128.117 25.2289 129.614C25.7905 130.464 26.4385 131.299 27.2305 131.962C28.4545 132.984 29.9233 133.474 31.0033 134.712C31.9537 135.806 32.7169 137.074 33.3361 138.384C34.9057 141.682 35.6113 145.426 35.3809 149.069C35.2657 150.754 34.9489 152.424 34.4161 154.022L32.5297 159.048C32.5009 159.106 32.4433 159.149 32.3713 159.134L31.3489 158.861Z" fill="#6BA697"/>
<path d="M34.5744 152.467C34.4592 152.957 34.3152 153.432 34.1568 153.907L32.7168 157.752C32.9328 157.709 33.1632 157.68 33.3792 157.665L34.5456 154.541C34.56 153.849 34.5744 153.158 34.5744 152.467Z" fill="#372A3E"/>
<path d="M33.4656 158.832C33.4656 158.515 36.0288 150.811 33.4656 144.072C30.9024 137.333 28.3392 136.368 31.536 122.889C34.7472 109.411 34.7472 112.622 34.7472 112.622C34.1856 114.177 34.3584 115.992 34.4736 117.619C34.7616 121.766 35.6688 125.885 37.224 129.744C38.2752 132.336 39.4272 134.337 39.6144 137.203C39.7872 139.925 39.4992 142.704 38.9232 145.353C37.9584 149.846 35.3952 159.149 35.3952 159.149L33.4656 158.832Z" fill="#6BA697"/>
<path d="M141.912 103.954C141.912 103.954 143.842 97.5312 149.933 94.6512C149.933 94.6512 150.581 87.5952 157.637 85.3488L191.967 84.384C191.967 84.384 197.424 84.7008 195.495 93.0528C195.495 93.0528 193.565 96.8976 191.002 100.757L164.693 145.037L142.229 122.573L141.912 103.954Z" fill="white"/>
<path d="M43.0849 157.838H25.7617V178.92L30.5713 179.006H48.2257L43.0849 157.838Z" fill="white"/>
<path d="M104.371 115.186C104.371 115.502 110.145 123.811 110.145 123.811H151.214C151.214 123.811 156.341 123.206 154.425 119.03C152.496 114.854 142.257 93.9888 121.262 92.3904L108.547 98.496L104.371 115.186Z" fill="white"/>
<path d="M113.17 96.1488C113.803 95.8032 114.422 95.4432 115.056 95.0832C115.085 95.0544 115.099 95.0112 115.128 94.9824L112.896 96.048C112.997 96.0624 113.083 96.1056 113.17 96.1488Z" fill="#372A3E"/>
<path d="M41.4146 122.328L41.4866 180.029L50.4722 180.691V173.952L97.6322 176.457V182.534L106.258 183.225L115.287 182.462V176.457L157.954 172.915L157.939 179.049C157.939 179.179 158.055 179.294 158.184 179.28L165.499 178.805L165.341 123.206C165.341 123.206 136.181 123.077 106.33 123.523C106.287 123.523 106.229 123.523 106.186 123.523C73.0514 122.846 69.4946 122.889 41.4146 122.328Z" fill="white"/>
<path d="M57.7153 183.096C57.7153 183.096 62.9137 177.538 68.1121 177.754H71.3233C71.3233 177.754 75.8161 178.07 80.3089 182.88C80.3089 182.88 74.8225 184.32 69.3073 184.32C61.9633 184.32 58.3201 183.211 57.7153 183.096Z" fill="white"/>
<path fill-rule="evenodd" clip-rule="evenodd" d="M77.0832 51.4944L74.952 48.9024C74.7792 48.6864 74.52 48.5568 74.2464 48.5568C73.9728 48.5424 73.7136 48.6432 73.512 48.8448L70.8912 51.5088H59.1696H59.1264H58.8096V52.1568H58.824C58.8655 53.9136 59.0631 62.8169 59.2589 71.6374L59.2589 71.6375C59.4708 81.1803 59.6805 90.6262 59.688 90.8208V91.1376H90.576V51.4944H77.0832ZM73.7568 49.0752C73.8864 48.9456 74.0592 48.888 74.232 48.888C74.4048 48.9024 74.5776 48.9744 74.6784 49.1184L76.6224 51.4944H71.3808L73.7568 49.0752ZM60.3216 90.4752H89.928V52.1568H59.4576L59.4864 53.496C59.5025 54.0944 59.5187 54.8381 59.5374 55.699C59.5521 56.3712 59.5682 57.1149 59.5872 57.9168C59.6276 59.6197 59.6711 61.5931 59.7178 63.7092C59.7709 66.1203 59.8282 68.7166 59.8896 71.3088C60.0054 76.3147 60.1165 81.3207 60.1982 85.0044C60.2588 87.7315 60.3032 89.734 60.3216 90.4752Z" fill="#372A3E"/>
<path d="M86.4722 57.2257H76.0034C75.9026 57.2257 75.8306 57.1537 75.8306 57.0529C75.8306 56.9521 75.9026 56.8801 76.0034 56.8801H86.4722C86.573 56.8801 86.645 56.9521 86.645 57.0529C86.645 57.1537 86.573 57.2257 86.4722 57.2257Z" fill="#372A3E"/>
<path d="M86.4722 58.9823H76.0034C75.9026 58.9823 75.8306 58.9103 75.8306 58.8095C75.8306 58.7087 75.9026 58.6367 76.0034 58.6367H86.4722C86.573 58.6367 86.645 58.7087 86.645 58.8095C86.645 58.9103 86.573 58.9823 86.4722 58.9823Z" fill="#372A3E"/>
<path d="M86.4722 61.0128H76.0034C75.9026 61.0128 75.8306 60.9408 75.8306 60.84C75.8306 60.7392 75.9026 60.6672 76.0034 60.6672H86.4722C86.573 60.6672 86.645 60.7392 86.645 60.84C86.645 60.9408 86.573 61.0128 86.4722 61.0128Z" fill="#372A3E"/>
<path d="M186.192 105.451C186.149 105.451 186.105 105.437 186.062 105.408C185.961 105.336 185.933 105.206 186.005 105.106C188.568 101.39 194.947 91.3104 193.694 89.3088C193.32 88.7184 192.873 88.4016 192.355 88.3584C191.203 88.2576 190.008 89.5104 189.878 89.6544L185.4 96.696C185.328 96.7968 185.198 96.8256 185.097 96.768C184.997 96.7104 184.968 96.5664 185.025 96.4656L189.533 89.3952L189.547 89.3808C189.605 89.3232 190.958 87.8112 192.398 87.9264C193.061 87.984 193.622 88.3728 194.069 89.0928C194.789 90.2448 193.723 93.2544 190.829 98.3088C188.726 101.966 186.393 105.35 186.365 105.379C186.321 105.422 186.264 105.451 186.192 105.451Z" fill="#372A3E"/>
<rect x="54" y="133.474" width="29.8368" height="6.4224" fill="white"/>
<path d="M67.795 139.882V178.387H71.0062V139.882C71.0062 139.882 67.4782 139.882 67.795 139.882Z" fill="white"/>
<path d="M114.005 95.9327L115.934 102.024C115.934 102.024 122.026 101.059 122.674 97.8479L122.602 97.5743C122.76 96.9263 122.53 96.2351 122.213 95.6303C121.781 94.7951 121.464 93.6287 121.075 93.0383C120.413 92.0879 114.005 95.9327 114.005 95.9327Z" fill="white"/>
<path d="M117.058 101.577C116.726 101.664 116.438 101.721 116.237 101.765C116.266 101.851 116.28 101.894 116.251 101.909C116.496 101.894 116.784 101.75 117.058 101.577Z" fill="#372A3E"/>
<path d="M108.547 75.0816C108.547 75.0816 106.301 77.6448 106.618 81.8208C106.934 85.9968 107.266 92.4048 111.744 95.9328C116.222 99.4608 120.413 96.2496 122.328 91.44C124.258 86.6304 123.293 77.9616 123.293 77.9616C123.293 77.9616 121.046 73.4688 116.87 73.4688C112.709 73.4688 108.547 75.0816 108.547 75.0816Z" fill="white"/>
<path d="M105.984 85.3488C105.984 85.3488 104.055 85.032 104.386 87.2784C104.717 89.5248 106.949 90.4896 107.597 89.5248C108.245 88.56 105.984 85.3488 105.984 85.3488Z" fill="white"/>
<path d="M123.451 85.0032C123.552 84.6864 123.754 84.4128 124.056 84.2544C124.575 83.952 125.381 83.8224 125.741 85.4496C126.303 87.9552 123.754 89.8416 123.163 88.6464C122.717 87.7248 123.207 85.824 123.451 85.0032Z" fill="white"/>
<path d="M123.682 85.3343C123.754 85.0751 123.926 84.8591 124.157 84.7295C124.574 84.4847 125.222 84.3839 125.51 85.6943C125.957 87.7103 123.912 89.2223 123.437 88.2719C123.091 87.5231 123.48 85.9967 123.682 85.3343Z" fill="#FFCCA9"/>
<path d="M106.301 86.1265C106.171 85.9249 105.955 85.7665 105.725 85.7089C105.293 85.6081 104.688 85.6657 104.76 86.9041C104.861 88.8049 107.05 89.6401 107.237 88.6753C107.381 87.9121 106.647 86.6593 106.301 86.1265Z" fill="#FFCCA9"/>
<path d="M122.487 95.8896C122.443 95.8896 122.443 95.7744 122.4 95.7744C122.285 95.7744 122.184 95.7888 122.069 95.7888C121.421 96.6384 120.615 98.1216 118.123 99.36C114.279 100.325 112.061 99.1296 112.061 99.1296C112.061 99.1296 112.45 102.125 113.386 105.826C113.4 105.883 113.674 105.768 113.688 105.826C115.2 111.845 117.432 120.067 118.815 122.227L127.152 120.298C127.152 120.298 125.583 111.744 124.229 104.573C124.2 104.458 123.898 104.026 123.941 103.925C124.128 103.594 125.007 103.68 124.906 103.277C124.056 100.21 122.775 97.2144 122.487 95.8896Z" fill="#F48567"/>
<path fill-rule="evenodd" clip-rule="evenodd" d="M88.3872 75.0959C88.3872 75.1967 88.3152 75.2687 88.2144 75.2687H85.7808V79.2863H88.2288C88.3296 79.2863 88.4016 79.3583 88.4016 79.4591C88.4016 79.5599 88.3296 79.6319 88.2288 79.6319H85.7808V83.0735H88.2288C88.3296 83.0735 88.4016 83.1455 88.4016 83.2463C88.4016 83.3471 88.3296 83.4191 88.2288 83.4191H85.7808V84.7007C85.7808 84.8015 85.7088 84.8735 85.608 84.8735C85.5072 84.8735 85.4352 84.8015 85.4352 84.7007V83.4191H81.4176V84.7007C81.4176 84.8015 81.3456 84.8735 81.2448 84.8735C81.144 84.8735 81.072 84.8015 81.072 84.7007V83.4191H77.04V84.7007C77.04 84.8015 76.968 84.8735 76.8672 84.8735C76.7664 84.8735 76.6944 84.8015 76.6944 84.7007V83.4191H72.6768V84.7007C72.6768 84.8015 72.6048 84.8735 72.504 84.8735C72.4032 84.8735 72.3312 84.8015 72.3312 84.7007V83.4191H68.3136V84.7007C68.3136 84.8015 68.2416 84.8735 68.1408 84.8735C68.04 84.8735 67.968 84.8015 67.968 84.7007V83.4191H63.9504V84.7007C63.9504 84.8015 63.8784 84.8735 63.7776 84.8735C63.6768 84.8735 63.6048 84.8015 63.6048 84.7007V83.4191H61.4448C61.344 83.4191 61.272 83.3471 61.272 83.2463C61.272 83.1455 61.344 83.0735 61.4448 83.0735H63.6048V79.6319H61.4448C61.344 79.6319 61.272 79.5599 61.272 79.4591C61.272 79.3583 61.344 79.2863 61.4448 79.2863H63.6048V75.2687H61.4448C61.344 75.2687 61.272 75.1967 61.272 75.0959C61.272 74.9951 61.344 74.9231 61.4448 74.9231H63.6048V70.9055H61.4448C61.344 70.9055 61.272 70.8335 61.272 70.7327C61.272 70.6319 61.344 70.5599 61.4448 70.5599H63.6048V66.0815C63.6048 65.9807 63.6768 65.9087 63.7776 65.9087C63.8784 65.9087 63.9504 65.9807 63.9504 66.0815V70.5599H67.968V66.0815C67.968 65.9807 68.04 65.9087 68.1408 65.9087C68.2416 65.9087 68.3136 65.9807 68.3136 66.0815V70.5599H72.3312V66.0815C72.3312 65.9807 72.4032 65.9087 72.504 65.9087C72.6048 65.9087 72.6768 65.9807 72.6768 66.0815V70.5599H76.6944V66.0815C76.6944 65.9807 76.7664 65.9087 76.8672 65.9087C76.968 65.9087 77.04 65.9807 77.04 66.0815V70.5599H81.0576V66.0815C81.0576 65.9807 81.1296 65.9087 81.2304 65.9087C81.3312 65.9087 81.4032 65.9807 81.4032 66.0815V70.5599H85.4208V66.0815C85.4208 65.9807 85.4928 65.9087 85.5936 65.9087C85.6944 65.9087 85.7664 65.9807 85.7664 66.0815V70.5599H88.2144C88.3152 70.5599 88.3872 70.6319 88.3872 70.7327C88.3872 70.8335 88.3152 70.9055 88.2144 70.9055H85.7664V74.9231H88.2144C88.3152 74.9231 88.3872 74.9951 88.3872 75.0959ZM85.4352 74.9231V70.9055H81.4176V74.9231H85.4352ZM81.072 70.9055V74.9231H77.0544V70.9055H81.072ZM76.7088 75.2687H72.6912V79.2863H76.7088V75.2687ZM72.3456 79.2863H68.328V75.2687H72.3456V79.2863ZM81.072 75.2687H77.0544V79.2863H81.072V75.2687ZM76.7088 70.9055V74.9231H72.6912V70.9055H76.7088ZM72.3456 74.9231V70.9055H68.328V74.9231H72.3456ZM63.9648 70.9055H67.9824V74.9231H63.9648V70.9055ZM67.9824 75.2687H63.9648V79.2863H67.9824V75.2687ZM63.9648 83.0591V79.6319H67.9824V83.0735H63.9648V83.0591ZM68.328 79.6319V83.0591V83.0735H72.3456V79.6319H68.328ZM72.6912 83.0591V79.6319H76.7088V83.0735H72.6912V83.0591ZM77.0544 79.6319V83.0591V83.0735H81.072V79.6319H77.0544ZM85.4352 83.0591H81.4176V79.6319H85.4352V83.0591ZM81.4176 79.2863H85.4352V75.2687H81.4176V79.2863Z" fill="#372A3E"/>
<path d="M127.469 118.397V123.206H111.6C111.6 123.206 110.722 122.659 113.069 121.565C115.416 120.47 123.624 118.397 127.469 118.397Z" fill="white"/>
<path d="M114.005 75.7152C114.005 75.7152 120.096 74.4336 121.378 77.6448C122.659 80.856 122.659 88.2288 121.695 91.1232C120.73 94.0176 117.85 97.5456 114.639 96.5808C111.427 95.616 109.512 93.0528 108.547 89.5248C107.698 86.3856 107.338 80.9712 108.403 78.0048C108.619 77.3856 109.123 76.896 109.757 76.68C110.664 76.3632 112.205 75.9168 114.005 75.7152Z" fill="#FFCCA9"/>
<path d="M113.357 88.2288C113.357 88.2288 114.639 90.4752 116.885 88.2288C116.885 88.2288 119.448 90.1584 119.448 91.44C119.448 92.7216 110.535 92.3904 110.463 91.7568C110.333 90.4896 113.357 88.2288 113.357 88.2288Z" fill="#282039"/>
<path d="M109.44 81.216C109.354 81.216 109.267 81.1728 109.224 81.1152C109.123 80.9856 109.152 80.8128 109.267 80.712C109.282 80.6976 110.794 79.4736 111.096 78.2928C111.139 78.1344 111.283 78.048 111.442 78.0912C111.6 78.1344 111.687 78.2784 111.643 78.4368C111.298 79.8048 109.685 81.1008 109.613 81.1584C109.555 81.2016 109.498 81.216 109.44 81.216Z" fill="#372A3E"/>
<path d="M119.448 80.8129C119.405 80.8129 119.362 80.7985 119.318 80.7841C118.008 80.1361 116.424 78.5521 116.352 78.4801C116.237 78.3649 116.237 78.1921 116.352 78.0769C116.467 77.9617 116.64 77.9617 116.755 78.0769C116.77 78.0913 118.339 79.6609 119.563 80.2657C119.707 80.3377 119.765 80.5105 119.693 80.6545C119.664 80.7553 119.563 80.8129 119.448 80.8129Z" fill="#372A3E"/>
<path d="M126.835 119.304V122.328C126.835 122.457 126.734 122.616 126.605 122.616L113.169 122.789C112.91 122.789 112.838 122.371 113.083 122.27C115.113 121.493 120.081 119.52 126.576 119.059C126.705 119.059 126.835 119.16 126.835 119.304Z" fill="#FFCCA9"/>
<path d="M121.378 94.3201L121.795 95.4433C121.795 95.4433 119.448 99.4465 115.603 99.1297L115.287 97.8481C115.287 97.8625 119.131 97.5313 121.378 94.3201Z" fill="#FFCCA9"/>
<rect x="56.2896" y="134.597" width="25.2576" height="4.176" fill="#FBC9BC"/>
<path d="M109.555 96.0481C109.555 96.0481 105.163 97.7185 100.843 102.355C98.5104 104.846 86.5872 118.267 86.0832 120.96C85.6656 123.163 86.0832 128.016 91.8576 127.382C97.632 126.734 113.99 109.094 113.99 109.094" fill="white"/>
<path d="M110.808 106.762C112.622 104.99 115.819 99.9217 115.877 98.7409C115.934 97.4593 113.731 96.0625 110.635 94.9969C108.187 94.1617 106.992 89.3377 106.041 88.9633C105.091 88.5889 104.357 90.8065 105.782 94.7377C107.208 98.6545 110.016 100.397 110.016 100.397L107.654 103.349" fill="white"/>
<path d="M74.4626 114.725L73.541 104.342L75.3842 104.04L76.6082 114.725" fill="white"/>
<path d="M71.4385 114.725H80.5105V122.515H75.0097L71.4385 114.725Z" fill="white"/>
<path d="M73.8432 122.573C73.7712 122.573 73.6992 122.53 73.6704 122.458L69.3936 112.536C69.3504 112.45 69.3936 112.335 69.4944 112.291C69.5808 112.248 69.696 112.291 69.7392 112.392L74.016 122.314C74.0592 122.4 74.016 122.515 73.9152 122.559C73.8864 122.573 73.8576 122.573 73.8432 122.573Z" fill="#372A3E"/>
<path d="M70.0129 111.485L75.0097 122.587L65.6353 122.558" fill="white"/>
<path d="M48.6866 122.069L53.6114 111.24C53.6546 111.125 53.7698 111.053 53.8994 111.053H69.7394C69.9554 111.053 70.1138 111.269 70.0274 111.47L67.4066 122.688C67.3634 122.803 67.2482 122.875 67.1186 122.89L48.9746 122.501C48.7586 122.515 48.6002 122.285 48.6866 122.069Z" fill="white"/>
<path d="M64.08 115.258H54.3024C54.1872 115.258 54.0864 115.157 54.0864 115.042C54.0864 114.926 54.1872 114.826 54.3024 114.826H64.08C64.1952 114.826 64.296 114.926 64.296 115.042C64.296 115.157 64.1952 115.258 64.08 115.258Z" fill="#372A3E"/>
<path d="M62.8564 117.389H53.0788C52.9636 117.389 52.8628 117.288 52.8628 117.173C52.8628 117.058 52.9636 116.957 53.0788 116.957H62.8564C62.9716 116.957 63.0724 117.058 63.0724 117.173C63.0724 117.288 62.9716 117.389 62.8564 117.389Z" fill="#372A3E"/>
<path d="M61.6323 119.534H51.8547C51.7395 119.534 51.6387 119.434 51.6387 119.318C51.6387 119.203 51.7395 119.102 51.8547 119.102H61.6323C61.7475 119.102 61.8483 119.203 61.8483 119.318C61.8483 119.434 61.7619 119.534 61.6323 119.534Z" fill="#372A3E"/>
<path d="M27.3457 161.784V171.504L27.5185 177.278H39.8161V162.187L27.3457 161.784Z" fill="#FBC9BC"/>
<path d="M166.392 169.272C166.335 169.272 166.291 169.257 166.248 169.214C166.162 169.128 166.147 168.998 166.234 168.897C166.306 168.825 173.045 161.51 176.501 154.31C176.559 154.195 176.688 154.152 176.789 154.209C176.904 154.267 176.947 154.397 176.89 154.497C173.405 161.769 166.608 169.128 166.551 169.2C166.507 169.243 166.45 169.272 166.392 169.272Z" fill="#372A3E"/>
<path d="M171.965 158.414C171.922 158.414 171.864 158.4 171.821 158.371C171.72 158.299 171.706 158.155 171.792 158.069C171.806 158.04 173.664 155.765 175.003 152.842C175.061 152.726 175.19 152.683 175.291 152.741C175.406 152.798 175.45 152.928 175.392 153.029C174.024 156.01 172.138 158.328 172.123 158.342C172.08 158.386 172.022 158.414 171.965 158.414Z" fill="#372A3E"/>
<path d="M32.3425 81.1007C32.3137 81.1007 32.2849 81.1007 32.2561 81.0863C32.1409 81.0431 32.0977 80.9135 32.1409 80.7983C34.8193 74.3327 39.5425 68.2127 39.5857 68.1551C39.6577 68.0543 39.8017 68.0399 39.8881 68.1119C39.9889 68.1839 40.0033 68.3279 39.9313 68.4143C39.8881 68.4719 35.1937 74.5487 32.5441 80.9567C32.5153 81.0431 32.4289 81.1007 32.3425 81.1007Z" fill="#372A3E"/>
<path d="M143.179 87.2498L139.104 91.037Z" fill="white"/>
<path d="M139.104 91.2528C139.047 91.2528 138.989 91.224 138.946 91.1808C138.859 91.0944 138.874 90.9504 138.96 90.864L143.035 87.0768C143.122 86.9904 143.266 87.0048 143.352 87.0912C143.439 87.1776 143.424 87.3216 143.338 87.408L139.263 91.1952C139.219 91.2384 139.162 91.2528 139.104 91.2528Z" fill="#372A3E"/>
<path d="M140.328 87.3503L136.814 90.6767Z" fill="white"/>
<path d="M136.814 90.8928C136.757 90.8928 136.699 90.864 136.656 90.8208C136.569 90.7344 136.569 90.5904 136.67 90.504L140.198 87.1776C140.285 87.0912 140.429 87.0912 140.515 87.192C140.601 87.2784 140.601 87.4224 140.501 87.5088L136.973 90.8352C136.915 90.8784 136.857 90.8928 136.814 90.8928Z" fill="#372A3E"/>
<path d="M66.859 68.155L65.5918 69.3358Z" fill="white"/>
<path d="M65.5919 69.4079C65.5775 69.4079 65.5487 69.3935 65.5343 69.3791C65.5055 69.3503 65.5055 69.3071 65.5343 69.2783L66.8015 68.0975C66.8303 68.0687 66.8735 68.0687 66.9023 68.0975C66.9311 68.1263 66.9311 68.1695 66.9023 68.1983L65.6351 69.3791C65.6351 69.3935 65.6063 69.4079 65.5919 69.4079Z" fill="#372A3E"/>
<path d="M65.9662 68.1838L64.8862 69.2206Z" fill="white"/>
<path d="M64.8863 69.2927C64.8719 69.2927 64.8431 69.2783 64.8287 69.2639C64.7999 69.2351 64.7999 69.1919 64.8287 69.1631L65.9231 68.1263C65.9519 68.0975 65.9951 68.0975 66.0239 68.1263C66.0527 68.1551 66.0527 68.1983 66.0239 68.2271L64.9295 69.2639C64.9151 69.2783 64.9007 69.2927 64.8863 69.2927Z" fill="#372A3E"/>
<path d="M70.963 68.155L69.6958 69.3358Z" fill="white"/>
<path d="M69.6959 69.4079C69.6815 69.4079 69.6527 69.3935 69.6383 69.3791C69.6095 69.3503 69.6095 69.3071 69.6383 69.2783L70.9055 68.0975C70.9343 68.0687 70.9775 68.0687 71.0063 68.0975C71.0351 68.1263 71.0351 68.1695 71.0063 68.1983L69.7391 69.3791C69.7247 69.3935 69.7103 69.4079 69.6959 69.4079Z" fill="#372A3E"/>
<path d="M70.0705 68.1838L68.9761 69.2206Z" fill="white"/>
<path d="M68.9762 69.2927C68.9618 69.2927 68.933 69.2783 68.9186 69.2639C68.8898 69.2351 68.8898 69.1919 68.9186 69.1631L70.013 68.1263C70.0418 68.0975 70.085 68.0975 70.1138 68.1263C70.1426 68.1551 70.1426 68.1983 70.1138 68.2271L69.0194 69.2639C69.0194 69.2783 69.005 69.2927 68.9762 69.2927Z" fill="#372A3E"/>
<path d="M75.4415 68.155L74.1743 69.3358Z" fill="white"/>
<path d="M74.1744 69.4079C74.16 69.4079 74.1312 69.3935 74.1168 69.3791C74.088 69.3503 74.088 69.3071 74.1168 69.2783L75.384 68.0975C75.4128 68.0687 75.456 68.0687 75.4848 68.0975C75.5136 68.1263 75.5136 68.1695 75.4848 68.1983L74.2176 69.3791C74.2176 69.3935 74.2032 69.4079 74.1744 69.4079Z" fill="#372A3E"/>
<path d="M74.5632 68.1838L73.4688 69.2206Z" fill="white"/>
<path d="M73.4688 69.2927C73.4544 69.2927 73.4256 69.2783 73.4112 69.2639C73.3824 69.2351 73.3824 69.1919 73.4112 69.1631L74.5056 68.1263C74.5344 68.0975 74.5776 68.0975 74.6064 68.1263C74.6352 68.1551 74.6352 68.1983 74.6064 68.2271L73.512 69.2639C73.4976 69.2783 73.4832 69.2927 73.4688 69.2927Z" fill="#372A3E"/>
<path d="M79.9779 68.155L78.7251 69.3358Z" fill="white"/>
<path d="M78.7252 69.4079C78.7108 69.4079 78.682 69.3935 78.6676 69.3791C78.6388 69.3503 78.6388 69.3071 78.6676 69.2783L79.9348 68.0975C79.9636 68.0687 80.0068 68.0687 80.0356 68.0975C80.0644 68.1263 80.0644 68.1695 80.0356 68.1983L78.7684 69.3791C78.754 69.3935 78.7396 69.4079 78.7252 69.4079Z" fill="#372A3E"/>
<path d="M79.0993 68.1838L78.0049 69.2206Z" fill="white"/>
<path d="M78.005 69.2927C77.9906 69.2927 77.9618 69.2783 77.9474 69.2639C77.9186 69.2351 77.9186 69.1919 77.9474 69.1631L79.0418 68.1263C79.0706 68.0975 79.1138 68.0975 79.1426 68.1263C79.1714 68.1551 79.1714 68.1983 79.1426 68.2271L78.0482 69.2639C78.0482 69.2783 78.0194 69.2927 78.005 69.2927Z" fill="#372A3E"/>
<path d="M84.4703 68.155L83.2031 69.3358Z" fill="white"/>
<path d="M83.2032 69.4079C83.1888 69.4079 83.16 69.3935 83.1456 69.3791C83.1168 69.3503 83.1168 69.3071 83.1456 69.2783L84.4128 68.0975C84.4416 68.0687 84.4848 68.0687 84.5136 68.0975C84.5424 68.1263 84.5424 68.1695 84.5136 68.1983L83.2464 69.3791C83.2464 69.3935 83.2176 69.4079 83.2032 69.4079Z" fill="#372A3E"/>
<path d="M83.5776 68.1838L82.4976 69.2206Z" fill="white"/>
<path d="M82.4977 69.2927C82.4833 69.2927 82.4545 69.2783 82.4401 69.2639C82.4113 69.2351 82.4113 69.1919 82.4401 69.1631L83.5345 68.1263C83.5633 68.0975 83.6065 68.0975 83.6353 68.1263C83.6641 68.1551 83.6641 68.1983 83.6353 68.2271L82.5409 69.2639C82.5265 69.2783 82.5121 69.2927 82.4977 69.2927Z" fill="#372A3E"/>
<path d="M79.9779 72.6768L78.7251 73.8576Z" fill="white"/>
<path d="M78.7252 73.9297C78.7108 73.9297 78.682 73.9153 78.6676 73.9009C78.6388 73.8721 78.6388 73.8289 78.6676 73.8001L79.9348 72.6193C79.9636 72.5905 80.0068 72.5905 80.0356 72.6193C80.0644 72.6481 80.0644 72.6913 80.0356 72.7201L78.7684 73.9009C78.754 73.9153 78.7396 73.9297 78.7252 73.9297Z" fill="#372A3E"/>
<path d="M79.0993 72.7056L78.0049 73.7424Z" fill="white"/>
<path d="M78.005 73.8145C77.9906 73.8145 77.9618 73.8001 77.9474 73.7857C77.9186 73.7569 77.9186 73.7137 77.9474 73.6849L79.0418 72.6481C79.0706 72.6193 79.1138 72.6193 79.1426 72.6481C79.1714 72.6769 79.1714 72.7201 79.1426 72.7489L78.0482 73.7857C78.0482 73.8001 78.0194 73.8145 78.005 73.8145Z" fill="#372A3E"/>
<path d="M79.9779 76.4639L78.7251 77.6447Z" fill="white"/>
<path d="M78.7252 77.7168C78.7108 77.7168 78.682 77.7024 78.6676 77.688C78.6388 77.6592 78.6388 77.616 78.6676 77.5872L79.9348 76.4064C79.9636 76.3776 80.0068 76.3776 80.0356 76.4064C80.0644 76.4352 80.0644 76.4784 80.0356 76.5072L78.7684 77.688C78.754 77.7024 78.7396 77.7168 78.7252 77.7168Z" fill="#372A3E"/>
<path d="M79.0993 76.4927L78.0049 77.5295Z" fill="white"/>
<path d="M78.005 77.6016C77.9906 77.6016 77.9618 77.5872 77.9474 77.5728C77.9186 77.544 77.9186 77.5008 77.9474 77.472L79.0418 76.4352C79.0706 76.4064 79.1138 76.4064 79.1426 76.4352C79.1714 76.464 79.1714 76.5072 79.1426 76.536L78.0482 77.5728C78.0482 77.6016 78.0194 77.6016 78.005 77.6016Z" fill="#372A3E"/>
<path d="M79.9779 80.9856L78.7251 82.1664Z" fill="white"/>
<path d="M78.7252 82.2385C78.7108 82.2385 78.682 82.2241 78.6676 82.2097C78.6388 82.1809 78.6388 82.1377 78.6676 82.1089L79.9348 80.9281C79.9636 80.8993 80.0068 80.8993 80.0356 80.9281C80.0644 80.9569 80.0644 81.0001 80.0356 81.0289L78.7684 82.2241C78.754 82.2241 78.7396 82.2385 78.7252 82.2385Z" fill="#372A3E"/>
<path d="M79.0993 81.0144L78.0049 82.0512Z" fill="white"/>
<path d="M78.005 82.1233C77.9906 82.1233 77.9618 82.1089 77.9474 82.0945C77.9186 82.0657 77.9186 82.0225 77.9474 81.9937L79.0418 80.9569C79.0706 80.9281 79.1138 80.9281 79.1426 80.9569C79.1714 80.9857 79.1714 81.0289 79.1426 81.0577L78.0482 82.0945C78.0482 82.1233 78.0194 82.1233 78.005 82.1233Z" fill="#372A3E"/>
<path d="M75.6432 72.6768L74.376 73.8576Z" fill="white"/>
<path d="M74.3761 73.9297C74.3617 73.9297 74.3329 73.9153 74.3185 73.9009C74.2897 73.8721 74.2897 73.8289 74.3185 73.8001L75.5857 72.6193C75.6145 72.5905 75.6577 72.5905 75.6865 72.6193C75.7153 72.6481 75.7153 72.6913 75.6865 72.7201L74.4193 73.9009C74.4193 73.9153 74.4049 73.9297 74.3761 73.9297Z" fill="#372A3E"/>
<path d="M74.7648 72.7056L73.6704 73.7424Z" fill="white"/>
<path d="M73.6705 73.8145C73.6561 73.8145 73.6273 73.8001 73.6129 73.7857C73.5841 73.7569 73.5841 73.7137 73.6129 73.6849L74.7073 72.6481C74.7361 72.6193 74.7793 72.6193 74.8081 72.6481C74.8369 72.6769 74.8369 72.7201 74.8081 72.7489L73.7137 73.7857C73.6993 73.8001 73.6849 73.8145 73.6705 73.8145Z" fill="#372A3E"/>
<path d="M75.6432 76.4639L74.376 77.6447Z" fill="white"/>
<path d="M74.3761 77.7168C74.3617 77.7168 74.3329 77.7024 74.3185 77.688C74.2897 77.6592 74.2897 77.616 74.3185 77.5872L75.5857 76.4064C75.6145 76.3776 75.6577 76.3776 75.6865 76.4064C75.7153 76.4352 75.7153 76.4784 75.6865 76.5072L74.4193 77.688C74.4193 77.7024 74.4049 77.7168 74.3761 77.7168Z" fill="#372A3E"/>
<path d="M74.7648 76.4927L73.6704 77.5295Z" fill="white"/>
<path d="M73.6705 77.6016C73.6561 77.6016 73.6273 77.5872 73.6129 77.5728C73.5841 77.544 73.5841 77.5008 73.6129 77.472L74.7073 76.4352C74.7361 76.4064 74.7793 76.4064 74.8081 76.4352C74.8369 76.464 74.8369 76.5072 74.8081 76.536L73.7137 77.5728C73.6993 77.6016 73.6849 77.6016 73.6705 77.6016Z" fill="#372A3E"/>
<path d="M75.6432 80.9856L74.376 82.1664Z" fill="white"/>
<path d="M74.3761 82.2385C74.3617 82.2385 74.3329 82.2241 74.3185 82.2097C74.2897 82.1809 74.2897 82.1377 74.3185 82.1089L75.5857 80.9281C75.6145 80.8993 75.6577 80.8993 75.6865 80.9281C75.7153 80.9569 75.7153 81.0001 75.6865 81.0289L74.4193 82.2097C74.4193 82.2241 74.4049 82.2385 74.3761 82.2385Z" fill="#372A3E"/>
<path d="M74.7648 81.0144L73.6704 82.0512Z" fill="white"/>
<path d="M73.6705 82.1233C73.6561 82.1233 73.6273 82.1089 73.6129 82.0945C73.5841 82.0657 73.5841 82.0225 73.6129 81.9937L74.7073 80.9569C74.7361 80.9281 74.7793 80.9281 74.8081 80.9569C74.8369 80.9857 74.8369 81.0289 74.8081 81.0577L73.7137 82.0945C73.6993 82.1233 73.6849 82.1233 73.6705 82.1233Z" fill="#372A3E"/>
<path d="M71.3663 72.6768L70.0991 73.8576Z" fill="white"/>
<path d="M70.0992 73.9297C70.0848 73.9297 70.056 73.9153 70.0416 73.9009C70.0128 73.8721 70.0128 73.8289 70.0416 73.8001L71.3088 72.6193C71.3376 72.5905 71.3808 72.5905 71.4096 72.6193C71.4384 72.6481 71.4384 72.6913 71.4096 72.7201L70.1424 73.9009C70.128 73.9153 70.1136 73.9297 70.0992 73.9297Z" fill="#372A3E"/>
<path d="M70.4733 72.7056L69.3789 73.7424Z" fill="white"/>
<path d="M69.379 73.8145C69.3646 73.8145 69.3358 73.8001 69.3214 73.7857C69.2926 73.7569 69.2926 73.7137 69.3214 73.6849L70.4158 72.6481C70.4446 72.6193 70.4878 72.6193 70.5166 72.6481C70.5454 72.6769 70.5454 72.7201 70.5166 72.7489L69.4222 73.7857C69.4222 73.8001 69.4078 73.8145 69.379 73.8145Z" fill="#372A3E"/>
<path d="M71.3663 76.4639L70.0991 77.6447Z" fill="white"/>
<path d="M70.0992 77.7168C70.0848 77.7168 70.056 77.7024 70.0416 77.688C70.0128 77.6592 70.0128 77.616 70.0416 77.5872L71.3088 76.4064C71.3376 76.3776 71.3808 76.3776 71.4096 76.4064C71.4384 76.4352 71.4384 76.4784 71.4096 76.5072L70.1424 77.688C70.128 77.7024 70.1136 77.7168 70.0992 77.7168Z" fill="#372A3E"/>
<path d="M70.4733 76.4927L69.3789 77.5295Z" fill="white"/>
<path d="M69.379 77.6016C69.3646 77.6016 69.3358 77.5872 69.3214 77.5728C69.2926 77.544 69.2926 77.5008 69.3214 77.472L70.4158 76.4352C70.4446 76.4064 70.4878 76.4064 70.5166 76.4352C70.5454 76.464 70.5454 76.5072 70.5166 76.536L69.4222 77.5728C69.4222 77.6016 69.4078 77.6016 69.379 77.6016Z" fill="#372A3E"/>
<path d="M71.3663 80.9856L70.0991 82.1664Z" fill="white"/>
<path d="M70.0992 82.2385C70.0848 82.2385 70.056 82.2241 70.0416 82.2097C70.0128 82.1809 70.0128 82.1377 70.0416 82.1089L71.3088 80.9281C71.3376 80.8993 71.3808 80.8993 71.4096 80.9281C71.4384 80.9569 71.4384 81.0001 71.4096 81.0289L70.1424 82.2097C70.128 82.2241 70.1136 82.2385 70.0992 82.2385Z" fill="#372A3E"/>
<path d="M70.4733 81.0144L69.3789 82.0512Z" fill="white"/>
<path d="M69.379 82.1233C69.3646 82.1233 69.3358 82.1089 69.3214 82.0945C69.2926 82.0657 69.2926 82.0225 69.3214 81.9937L70.4158 80.9569C70.4446 80.9281 70.4878 80.9281 70.5166 80.9569C70.5454 80.9857 70.5454 81.0289 70.5166 81.0577L69.4222 82.0945C69.4222 82.1233 69.4078 82.1233 69.379 82.1233Z" fill="#372A3E"/>
<path d="M67.0179 72.6768L65.7651 73.8576Z" fill="white"/>
<path d="M65.7652 73.9297C65.7508 73.9297 65.722 73.9153 65.7076 73.9009C65.6788 73.8721 65.6788 73.8289 65.7076 73.8001L66.9748 72.6193C67.0036 72.5905 67.0468 72.5905 67.0756 72.6193C67.1044 72.6481 67.1044 72.6913 67.0756 72.7201L65.8084 73.9009C65.794 73.9153 65.7796 73.9297 65.7652 73.9297Z" fill="#372A3E"/>
<path d="M66.1393 72.7056L65.0449 73.7424Z" fill="white"/>
<path d="M65.045 73.8145C65.0306 73.8145 65.0018 73.8001 64.9874 73.7857C64.9586 73.7569 64.9586 73.7137 64.9874 73.6849L66.0818 72.6481C66.1106 72.6193 66.1538 72.6193 66.1826 72.6481C66.2114 72.6769 66.2114 72.7201 66.1826 72.7489L65.0882 73.7857C65.0738 73.8001 65.0594 73.8145 65.045 73.8145Z" fill="#372A3E"/>
<path d="M67.0179 76.4639L65.7651 77.6447Z" fill="white"/>
<path d="M65.7652 77.7168C65.7508 77.7168 65.722 77.7024 65.7076 77.688C65.6788 77.6592 65.6788 77.616 65.7076 77.5872L66.9748 76.4064C67.0036 76.3776 67.0468 76.3776 67.0756 76.4064C67.1044 76.4352 67.1044 76.4784 67.0756 76.5072L65.8084 77.688C65.794 77.7024 65.7796 77.7168 65.7652 77.7168Z" fill="#372A3E"/>
<path d="M66.1393 76.4927L65.0449 77.5295Z" fill="white"/>
<path d="M65.045 77.6016C65.0306 77.6016 65.0018 77.5872 64.9874 77.5728C64.9586 77.544 64.9586 77.5008 64.9874 77.472L66.0818 76.4352C66.1106 76.4064 66.1538 76.4064 66.1826 76.4352C66.2114 76.464 66.2114 76.5072 66.1826 76.536L65.0882 77.5728C65.0738 77.6016 65.0594 77.6016 65.045 77.6016Z" fill="#372A3E"/>
<path d="M67.0179 80.9856L65.7651 82.1664Z" fill="white"/>
<path d="M65.7652 82.2385C65.7508 82.2385 65.722 82.2241 65.7076 82.2097C65.6788 82.1809 65.6788 82.1377 65.7076 82.1089L66.9748 80.9281C67.0036 80.8993 67.0468 80.8993 67.0756 80.9281C67.1044 80.9569 67.1044 81.0001 67.0756 81.0289L65.8084 82.2241C65.794 82.2241 65.7796 82.2385 65.7652 82.2385Z" fill="#372A3E"/>
<path d="M66.1393 81.0144L65.0449 82.0512Z" fill="white"/>
<path d="M65.045 82.1233C65.0306 82.1233 65.0018 82.1089 64.9874 82.0945C64.9586 82.0657 64.9586 82.0225 64.9874 81.9937L66.0818 80.9569C66.1106 80.9281 66.1538 80.9281 66.1826 80.9569C66.2114 80.9857 66.2114 81.0289 66.1826 81.0577L65.0882 82.0945C65.0738 82.1233 65.0594 82.1233 65.045 82.1233Z" fill="#372A3E"/>
<path d="M84.5279 72.6768L83.2607 73.8576Z" fill="white"/>
<path d="M83.2608 73.9297C83.2464 73.9297 83.2176 73.9153 83.2032 73.9009C83.1744 73.8721 83.1744 73.8289 83.2032 73.8001L84.4704 72.6193C84.4992 72.5905 84.5424 72.5905 84.5712 72.6193C84.6 72.6481 84.6 72.6913 84.5712 72.7201L83.304 73.9009C83.2896 73.9153 83.2752 73.9297 83.2608 73.9297Z" fill="#372A3E"/>
<path d="M83.6349 72.7056L82.5405 73.7424Z" fill="white"/>
<path d="M82.5406 73.8145C82.5262 73.8145 82.4974 73.8001 82.483 73.7857C82.4542 73.7569 82.4542 73.7137 82.483 73.6849L83.5774 72.6481C83.6062 72.6193 83.6494 72.6193 83.6782 72.6481C83.707 72.6769 83.707 72.7201 83.6782 72.7489L82.5838 73.7857C82.5838 73.8001 82.5694 73.8145 82.5406 73.8145Z" fill="#372A3E"/>
<path d="M84.5279 76.4639L83.2607 77.6447Z" fill="white"/>
<path d="M83.2608 77.7168C83.2464 77.7168 83.2176 77.7024 83.2032 77.688C83.1744 77.6592 83.1744 77.616 83.2032 77.5872L84.4704 76.4064C84.4992 76.3776 84.5424 76.3776 84.5712 76.4064C84.6 76.4352 84.6 76.4784 84.5712 76.5072L83.304 77.688C83.2896 77.7024 83.2752 77.7168 83.2608 77.7168Z" fill="#372A3E"/>
<path d="M83.6349 76.4927L82.5405 77.5295Z" fill="white"/>
<path d="M82.5406 77.6016C82.5262 77.6016 82.4974 77.5872 82.483 77.5728C82.4542 77.544 82.4542 77.5008 82.483 77.472L83.5774 76.4352C83.6062 76.4064 83.6494 76.4064 83.6782 76.4352C83.707 76.464 83.707 76.5072 83.6782 76.536L82.5838 77.5728C82.5838 77.6016 82.5694 77.6016 82.5406 77.6016Z" fill="#372A3E"/>
<path fill-rule="evenodd" clip-rule="evenodd" d="M62.165 63.9216V54.8496H73.5698V63.9216H62.165ZM73.2098 59.3136V55.2096H62.5106V58.8672C62.8274 58.896 65.693 59.256 68.2994 61.1856L68.3282 61.1568C68.4434 61.0704 71.2226 59.2704 73.2098 59.3136ZM62.5106 59.1552C63.0578 59.2128 67.565 59.8464 70.2722 63.576H62.5106V59.1552ZM70.5746 63.5184C70.589 63.5328 70.6034 63.5472 70.6034 63.576V63.5904H73.2098V59.616C71.453 59.5584 68.8898 61.1424 68.5298 61.3728C69.2642 61.9488 69.9698 62.6544 70.5746 63.5184Z" fill="#372A3E"/>
<circle cx="74.2176" cy="49.5215" r="0.72" fill="#372A3E"/>
<path fill-rule="evenodd" clip-rule="evenodd" d="M191.981 84.0672C192.053 84.0672 193.867 84.1968 195.105 85.8528C196.315 87.4656 196.546 89.8992 195.811 93.096L195.797 93.1392L195.782 93.168C195.768 93.2112 193.824 97.0848 191.275 100.901L165.715 143.914L165.816 179.107L158.328 179.597V179.582L153.446 179.51V173.621L115.589 176.76V182.765L106.243 183.557H106.214L97.3007 182.837V176.774L71.2943 175.392V177.48H71.3231H71.3375C71.5247 177.494 76.0031 177.869 80.5247 182.707L80.8703 183.082L80.3807 183.211L80.3755 183.213C80.1753 183.263 74.7202 184.651 69.3071 184.651C64.9007 184.651 61.0559 184.262 57.9167 183.485L57.8802 183.476C57.8623 183.472 57.8452 183.468 57.8289 183.464L57.7982 183.458L57.7441 183.446L57.7439 183.446C57.7101 183.439 57.6814 183.433 57.6575 183.427L57.1391 183.312L57.4991 182.923L57.5191 182.903C57.6973 182.718 58.9442 181.424 60.7967 180.13C62.4671 178.963 64.9439 177.61 67.4927 177.494V175.234L55.4687 174.6L55.4399 181.123H50.3711V181.051L41.2271 180.374V179.352H32.2559L32.2271 179.381L32.1983 179.352H30.6575L25.5455 179.251V157.565H30.0671C29.9375 156.182 29.4479 154.354 27.9071 152.986L27.7631 152.87L27.7448 152.854C24.9798 150.392 20.8059 146.674 19.8852 138.269C19.8719 138.053 20.0015 137.851 20.2175 137.794C20.4335 137.75 20.6495 137.851 20.7359 138.053C21.2255 139.219 21.9311 140.27 22.7663 141.077C23.4431 141.739 24.2639 142.186 25.1423 142.646C25.8335 143.006 26.5247 143.381 27.1583 143.87C28.3535 144.792 29.4479 145.973 30.4127 147.398C30.9311 148.147 31.3631 148.925 31.7231 149.717C31.5503 148.536 31.2335 147.326 30.7295 146.131C29.9663 144.331 29.0159 143.107 28.0079 141.811L27.9946 141.794C25.7514 138.904 23.1968 135.612 22.4351 124.891C22.4207 124.675 22.5503 124.488 22.7663 124.445C22.9823 124.402 23.1839 124.517 23.2559 124.718C23.9327 126.576 24.6959 128.146 25.5887 129.485C26.2367 130.478 26.8559 131.198 27.5327 131.76C28.0081 132.152 28.5378 132.475 29.0428 132.784L29.0879 132.811C29.3471 132.97 29.6063 133.128 29.8655 133.301C29.8223 130.824 30.2255 127.598 31.3631 122.846C33.8975 112.205 34.3871 112.09 34.6751 112.032C34.8047 112.003 34.9343 112.046 35.0207 112.162C35.1215 112.291 35.1647 112.608 35.1215 112.752C34.6175 114.134 34.7183 115.718 34.8335 117.259L34.8623 117.634C35.1647 121.853 36.0719 125.899 37.5983 129.658C37.7279 129.974 37.8576 130.276 37.9846 130.572L37.9847 130.572L37.9847 130.572L37.9847 130.572L37.9848 130.573L37.9848 130.573L37.9848 130.573L37.9849 130.573L37.9849 130.573L37.9849 130.573L37.985 130.573L37.985 130.573L37.985 130.573L37.9851 130.573L37.9851 130.573L37.9852 130.573L37.9852 130.574L37.9852 130.574L37.9853 130.574L37.9853 130.574L37.9853 130.574L37.9854 130.574L37.9854 130.574L37.9854 130.574L37.9855 130.574L37.9855 130.574L37.9855 130.574L37.9856 130.574L37.9856 130.574L37.9856 130.575L37.9857 130.575L37.9857 130.575L37.9857 130.575L37.9858 130.575L37.9858 130.575L37.9858 130.575L37.9859 130.575L37.9859 130.575L37.9859 130.575L37.986 130.575L37.986 130.575L37.986 130.576L37.9861 130.576L37.9861 130.576L37.9861 130.576L37.9862 130.576L37.9862 130.576L37.9862 130.576L37.9863 130.576L37.9863 130.576L37.9864 130.576C38.0846 130.805 38.1812 131.031 38.2751 131.256C38.6927 132.221 39.0959 133.157 39.4127 134.15C39.9599 132.278 40.3199 130.435 40.5071 129.427C40.5359 129.211 40.7231 129.038 40.9535 129.038C41.0399 129.024 41.1119 129.053 41.1839 129.082L41.1695 122.011H41.5007C43.4524 122.056 45.2803 122.093 47.0123 122.127L47.0167 122.127L48.4271 122.155C48.4271 122.098 48.4415 122.026 48.4703 121.968L53.3951 111.139C53.4959 110.909 53.7119 110.765 53.9711 110.765H55.9295C55.9439 110.606 55.9727 110.448 56.0303 110.275C56.2751 109.555 56.8223 108.979 57.6719 108.576C58.0463 108.389 58.4639 108.346 58.8527 108.418C59.3711 108.518 59.9759 108.878 60.2495 109.872C60.5375 109.325 61.0271 108.893 61.7183 108.562C62.0927 108.374 62.5103 108.331 62.8991 108.403C63.4031 108.504 63.9935 108.85 64.2671 109.771C64.5551 109.282 65.0303 108.864 65.6783 108.562C66.0527 108.374 66.4703 108.331 66.8591 108.403C67.5215 108.533 68.2991 109.051 68.3855 110.75H69.7823C69.9839 110.75 70.1855 110.851 70.3007 111.024C70.4159 111.182 70.4447 111.398 70.3727 111.586L70.3439 111.686L71.5823 114.451H74.1743L73.2671 104.112L75.6719 103.709L76.7951 113.558L78.6959 107.683C78.8687 107.15 79.4591 106.891 79.9631 107.107C80.4095 107.309 80.6399 107.813 80.4815 108.274L78.4223 114.451H80.8271V122.731C82.3679 122.76 83.9807 122.789 85.6943 122.818C85.6367 122.141 85.6943 121.478 85.7951 120.917C86.3423 118.037 98.8703 104.04 100.642 102.154C102.802 99.8496 104.962 98.2656 106.603 97.2576C106.186 96.5664 105.797 95.7888 105.465 94.896C104.443 92.0592 104.501 90.0432 105.034 89.1504C104.63 88.6896 104.328 88.0848 104.213 87.3216C104.098 86.544 104.242 85.9536 104.616 85.5792C104.676 85.507 104.756 85.4549 104.832 85.4061C104.846 85.3966 104.861 85.3871 104.875 85.3776C104.285 84.2256 102.384 80.1216 103.752 77.6592C105.365 74.7648 106.963 74.7648 106.963 74.7648C106.963 74.7648 106.329 71.568 113.702 68.6736C121.09 65.7936 123.969 69.0048 122.688 74.1312C122.688 74.1312 125.885 75.4128 126.533 77.6592C127.051 79.5024 126.504 82.3968 125.582 84.456C125.726 84.7008 125.856 85.0176 125.942 85.4208C126.36 87.264 125.179 88.7904 124.2 89.136C124.041 89.1936 123.897 89.2224 123.768 89.2224C123.624 89.2224 123.509 89.1936 123.394 89.136C123.206 90.072 122.976 90.8928 122.688 91.5984L122.429 92.2032C129.787 93.024 136.512 96.2352 142.488 101.779C143.553 99.6624 145.67 96.48 149.429 94.5648C149.472 94.4928 149.53 94.4496 149.616 94.4496H149.645C149.717 93.9168 149.976 92.4192 150.854 90.7056C151.833 88.776 153.778 86.2416 157.536 85.0464L157.579 85.032H157.622L191.966 84.0672H191.981ZM37.1231 157.536H41.1263L41.1119 149.342C40.5647 151.258 39.9023 152.827 39.1391 153.835C37.9727 155.405 37.3967 156.643 37.1231 157.536ZM40.8959 130.032L40.8959 130.032C40.9679 130.349 41.0399 130.666 41.0975 130.982L41.1119 146.794C40.5503 149.717 39.7007 152.107 38.6783 153.475C37.3967 155.189 36.7919 156.542 36.5183 157.522H36.1439C36.9359 154.613 38.5055 148.694 39.2111 145.411C39.8303 142.502 40.0751 139.738 39.9023 137.174C39.8591 136.454 39.7583 135.792 39.5999 135.158C40.2191 133.286 40.6511 131.299 40.8959 130.032ZM34.1135 114.221C33.6671 115.632 32.9471 118.224 31.8239 122.962C29.2319 133.834 30.3983 136.411 32.3279 140.674C32.7599 141.624 33.2495 142.704 33.7247 143.971C35.1503 147.73 35.2655 152.294 34.0559 157.536H35.5103C36.2879 154.699 37.9007 148.637 38.6207 145.296C39.2399 142.445 39.4703 139.723 39.3119 137.218C39.1679 135.014 38.4623 133.373 37.6271 131.458C37.5395 131.247 37.4496 131.035 37.3583 130.819C37.2243 130.503 37.0873 130.179 36.9503 129.845C35.4095 126.014 34.4735 121.91 34.1855 117.634L34.1567 117.274C34.0847 116.309 34.0127 115.243 34.1135 114.221ZM31.1759 145.886C30.3839 144.014 29.4191 142.762 28.3823 141.437C26.1503 138.571 23.8463 135.605 23.0111 125.928C23.6015 127.382 24.2639 128.664 24.9983 129.787C25.6895 130.824 26.3375 131.587 27.0575 132.192C27.5759 132.624 28.1375 132.97 28.6847 133.301C29.0735 133.531 29.4479 133.762 29.7935 134.021C29.9649 136.849 30.7878 138.671 31.7847 140.878L31.8095 140.933C31.8618 141.049 31.9144 141.166 31.9674 141.283L31.9684 141.286C32.3677 142.171 32.7854 143.096 33.1919 144.202C34.5887 147.888 34.6895 152.366 33.4799 157.55H31.8671C32.3999 155.189 33.0623 150.394 31.1759 145.886ZM28.0655 152.395L28.2095 152.51C29.9087 154.022 30.4271 156.038 30.5855 157.522H31.2767C31.5647 156.283 31.9103 154.253 31.8383 151.92C31.4207 150.466 30.7583 149.04 29.8367 147.686C28.9007 146.318 27.8495 145.181 26.7119 144.288C26.1215 143.842 25.4447 143.467 24.7823 143.122L24.7746 143.117C23.913 142.658 23.0233 142.183 22.2767 141.466C21.5855 140.803 20.9807 139.997 20.5055 139.09C21.5996 146.648 25.4716 150.09 28.0636 152.394L28.0655 152.395ZM26.0639 158.141H41.1263V160.214H26.0639V158.141ZM41.1263 160.589H26.0639V172.886L30.3263 177.034L35.0351 172.584L38.2751 176.861L41.1407 174.226L41.1263 160.589ZM26.0639 178.618V176.054L28.6415 178.675L26.0639 178.618ZM29.1887 178.675L30.5855 178.704V178.69H31.5071L26.0783 173.419V175.507L29.1887 178.675ZM32.0543 178.704L30.6143 177.307L35.0063 173.16L36.4319 175.046L32.2991 178.718L32.0543 178.704ZM35.2079 176.616L32.8607 178.704H36.8495L35.2079 176.616ZM37.3247 178.704L35.4815 176.371L36.6335 175.334L39.1823 178.704H37.3247ZM41.1551 174.744L38.5199 177.178L39.5855 178.603L41.1551 177.048V174.744ZM40.0175 178.704L41.1551 177.581V178.704H40.0175ZM150.249 94.8672L150.077 94.9392C146.174 96.7824 144.014 100.138 143.006 102.197C143.071 102.254 143.132 102.316 143.193 102.377L143.194 102.377L143.194 102.377C143.255 102.438 143.316 102.499 143.381 102.557C145.598 102.6 156.038 102.859 165.384 103.709C165.513 103.723 165.6 103.838 165.585 103.954C165.571 104.069 165.485 104.155 165.369 104.155H165.355C156.557 103.363 146.808 103.09 143.856 103.018L143.856 103.018C144.331 103.507 144.806 103.997 145.281 104.515C147.571 107.006 149.443 109.598 150.955 111.946L151.113 111.948C152.547 111.966 158.916 112.047 162.533 112.723C162.648 112.752 162.734 112.867 162.705 112.982C162.691 113.083 162.59 113.155 162.49 113.155H162.446C158.962 112.507 152.856 112.406 151.229 112.392C152.87 115.027 154.037 117.331 154.757 118.886C155.333 120.125 155.376 121.205 154.872 122.098C154.699 122.4 154.483 122.659 154.238 122.875C157.086 122.875 159.483 122.881 161.313 122.885H161.315H161.316H161.316H161.317H161.318H161.318H161.319H161.319H161.32H161.32H161.321H161.321H161.321H161.321H161.322C162.449 122.888 163.361 122.89 164.03 122.89C165.038 120.744 167.242 116.856 170.467 115.56C170.582 114.278 171.374 108.346 176.558 105.336C176.601 104.731 176.803 102.888 177.609 100.814C178.891 97.5744 181.094 95.3424 183.989 94.3632L183.989 94.3614L183.989 94.3613C184.351 93.1325 186.208 86.8165 190.325 84.7584L157.723 85.6656C151.747 87.5808 150.523 93.1248 150.321 94.4064C153.403 94.3344 166.118 94.0608 171.158 94.6224C171.273 94.6368 171.36 94.752 171.345 94.8672C171.331 94.9824 171.245 95.0688 171.129 95.0688H171.101C166.046 94.5072 153.216 94.7808 150.249 94.8528V94.8672ZM124.2 93.0816C124.992 93.2112 125.784 93.384 126.576 93.5712C127.354 93.7728 128.131 93.9888 128.909 94.248C129.672 94.5072 130.435 94.7808 131.184 95.0976C131.933 95.4144 132.681 95.76 133.416 96.12C134.15 96.4944 134.885 96.8976 135.59 97.3296C136.31 97.7616 137.03 98.2224 137.721 98.712C138.427 99.2016 139.118 99.7344 139.795 100.267C140.486 100.829 141.163 101.405 141.811 101.995C142.531 102.658 143.237 103.334 143.913 104.04C144.057 104.191 144.198 104.342 144.338 104.494C144.479 104.645 144.619 104.796 144.763 104.947C149.717 110.376 152.77 116.179 154.137 119.146C154.627 120.197 154.67 121.075 154.281 121.766C154.008 122.256 153.561 122.602 153.072 122.861C146.491 122.861 137.736 122.89 128.074 122.962L127.785 116.395C129.692 116.207 134.166 115.694 138.323 115.216L139.219 115.114C139.262 115.128 139.305 115.142 139.349 115.142C139.421 115.142 139.478 115.114 139.536 115.07C141.353 114.856 143.05 114.654 144.373 114.496C145.986 114.304 147.042 114.178 147.081 114.178C147.24 114.163 147.355 114.019 147.341 113.846C147.326 113.688 147.168 113.573 147.009 113.587C146.938 113.602 143.467 114.019 139.421 114.494L133.142 107.597C133.027 107.482 132.854 107.467 132.725 107.582C132.609 107.698 132.595 107.87 132.71 108L134.28 109.728L133.142 109.642C133.013 109.627 132.912 109.728 132.912 109.843C132.897 109.958 132.998 110.074 133.114 110.074L134.726 110.203L138.715 114.581C137.641 114.703 136.542 114.832 135.465 114.958L135.463 114.958C134.259 115.099 133.084 115.237 132.005 115.358C131.962 111.931 131.457 111.557 131.285 111.442C131.17 111.355 131.054 111.341 130.982 111.355C129.326 111.355 128.088 110.995 128.088 110.693C128.088 110.362 128.736 109.598 129.254 108.994C130.09 108.029 130.867 107.107 130.637 106.43C130.291 105.408 126.979 99.2736 125.165 96.1056C124.2 94.4352 123.494 93.4704 123.005 92.9088C123.552 92.9808 124.114 93.0672 124.2 93.0816ZM130.075 106.603C129.773 105.696 126.633 99.8352 124.646 96.3936C123.293 94.032 122.457 93.1392 122.097 92.8224C121.939 93.1248 121.766 93.4272 121.593 93.7152C121.637 93.816 121.676 93.9169 121.716 94.0177C121.756 94.1185 121.795 94.2192 121.838 94.32C121.997 94.7376 122.169 95.184 122.357 95.544C122.4 95.616 122.443 95.7024 122.472 95.7744C122.515 95.832 122.558 95.904 122.602 96.0192L125.136 103.738L124.963 103.81C124.747 103.882 124.459 103.925 124.113 103.925L126.893 118.037C127.022 118.022 127.137 118.022 127.253 118.022L127.152 115.862L127.425 115.834C128.217 115.762 129.658 115.618 131.4 115.416C131.371 112.637 131.04 112.046 130.953 111.931C130.09 111.931 127.483 111.83 127.483 110.678C127.483 110.131 128.088 109.426 128.793 108.605C129.355 107.957 130.19 106.963 130.075 106.603ZM121.363 120.773L121.324 120.775C120.845 120.807 116.7 121.083 115.661 122.371C115.546 122.515 115.473 122.674 115.43 122.832H111.801C111.873 122.702 112.147 122.371 113.198 121.882C115.546 120.787 123.249 118.858 127.094 118.742V122.832H115.79C115.819 122.746 115.862 122.674 115.92 122.602C116.323 122.112 117.374 121.694 118.987 121.406C120.225 121.19 121.349 121.133 121.363 121.133C121.464 121.133 121.536 121.046 121.536 120.946C121.55 120.845 121.478 120.773 121.363 120.773ZM110.469 123.156C110.682 123.152 110.894 123.149 111.11 123.149C111.081 123.062 111.067 122.962 111.053 122.846C111.081 122.314 111.672 121.795 112.896 121.234C112.993 121.179 113.107 121.133 113.231 121.083L113.283 121.062L113.327 121.044L113.357 121.032C112.205 119.938 109.296 117.043 109.382 116.107C109.44 115.546 109.541 114.667 109.627 114.034L109.542 114.118C108.499 115.147 107.347 116.283 106.128 117.432L110.059 122.99L109.829 123.163C110.045 123.163 110.257 123.16 110.469 123.156ZM115.949 97.776C116.294 97.7472 116.64 97.704 116.985 97.6032C118.642 97.1568 120.168 95.9328 121.363 94.1184L121.493 94.464C121.637 94.8384 121.795 95.2272 121.953 95.5728C121.882 95.616 121.81 95.6736 121.766 95.7312C121.698 95.8114 121.638 95.8916 121.573 95.9791L121.521 96.048C120.513 97.344 119.002 99.2736 116.035 99.504C116.15 99.1872 116.222 98.9424 116.237 98.7696C116.251 98.424 116.136 98.0928 115.949 97.776ZM121.892 96.169C121.867 96.2022 121.84 96.2376 121.81 96.2784L121.805 96.2838C120.725 97.6662 119.098 99.749 115.848 99.8928C115.301 101.117 114.235 102.917 113.112 104.501C113.227 104.947 113.371 105.336 113.515 105.653L116.899 101.779C116.957 101.693 117.072 101.635 117.187 101.621C117.302 101.606 117.418 101.65 117.518 101.722C118.31 102.355 123.134 103.853 124.661 103.507L122.371 96.5088C122.371 96.5232 122.357 96.5232 122.357 96.5232C122.313 96.336 122.242 96.1632 122.155 95.9616H122.141C122.112 95.9472 122.069 95.9472 122.025 95.9904C121.979 96.0555 121.939 96.1086 121.892 96.169ZM117.806 105.998C118.109 107.294 118.454 108.763 118.829 110.275C118.613 110.376 118.469 110.578 118.469 110.837C118.469 111.182 118.742 111.456 119.088 111.456H119.117C119.506 112.982 119.909 114.48 120.283 115.762C120.11 115.877 119.981 116.078 119.981 116.309C119.981 116.669 120.269 116.957 120.629 116.957H120.643C120.902 117.763 121.147 118.426 121.378 118.872C120.168 119.117 118.958 119.405 117.806 119.693C116.827 117.331 114.077 106.646 113.875 105.854L116.971 102.312C117.04 102.636 117.155 103.159 117.304 103.834C117.373 104.149 117.45 104.498 117.533 104.875C117.345 104.976 117.201 105.178 117.201 105.408C117.216 105.71 117.475 105.984 117.806 105.998ZM121.277 116.266C121.277 116.525 121.133 116.726 120.931 116.842C121.205 117.677 121.464 118.354 121.694 118.786C123.451 118.44 125.165 118.166 126.533 118.08L123.753 103.997V103.925C121.622 103.795 118.037 102.629 117.288 102.024C117.273 102.01 117.259 102.01 117.245 102.01C117.237 102.01 117.234 102.013 117.23 102.017C117.229 102.018 117.228 102.019 117.227 102.02L117.224 102.022C117.222 102.023 117.219 102.024 117.216 102.024C117.288 102.37 117.504 103.392 117.821 104.774C118.166 104.774 118.44 105.048 118.44 105.394C118.44 105.638 118.296 105.84 118.094 105.941L118.111 106.013L118.111 106.015L118.112 106.015L118.113 106.019L118.113 106.02C118.411 107.297 118.75 108.75 119.117 110.218C119.433 110.232 119.693 110.491 119.693 110.822C119.693 111.038 119.563 111.24 119.39 111.341C119.779 112.867 120.182 114.365 120.557 115.632C120.585 115.618 120.6 115.618 120.629 115.618C120.989 115.618 121.277 115.906 121.277 116.266ZM113.328 106.099L113.457 106.33L113.587 106.186C113.619 106.308 113.659 106.46 113.706 106.639L113.707 106.641L113.707 106.642C113.81 107.033 113.948 107.552 114.105 108.173C113.573 107.381 112.882 106.589 112.133 105.84C112.363 105.552 112.608 105.235 112.853 104.904C112.982 105.379 113.141 105.797 113.328 106.099ZM117.446 119.765C116.77 118.08 115.358 112.939 114.422 109.397L111.801 111.859C111.546 112.123 111.27 112.402 110.981 112.694L110.979 112.697C110.716 112.964 110.441 113.242 110.16 113.53L110.13 113.763C110.048 114.399 109.906 115.494 109.843 116.165C109.785 116.755 112.09 119.218 113.832 120.874C114.768 120.528 116.035 120.139 117.446 119.765ZM122.933 85.5216L122.918 86.4C122.817 86.9904 122.76 87.5952 122.832 88.1136C122.645 89.2656 122.385 90.36 122.011 91.296C120.83 94.248 118.886 96.336 116.798 96.8976C116.323 97.0272 115.833 97.0704 115.358 97.0416C114.206 95.976 112.205 95.1552 110.995 94.7376C108.763 92.4192 107.856 89.1936 107.424 86.2128L109.325 85.3632C109.425 85.7664 109.656 86.4576 110.16 87.0048C110.606 87.48 111.211 87.7536 111.859 87.7536H111.974C112.665 87.7248 113.299 87.3792 113.702 86.832C114.062 86.3424 114.249 85.7376 114.249 85.0176V85.0032C114.725 84.9888 115.2 84.9744 115.689 84.96C115.689 84.9696 115.688 84.9792 115.686 84.9888C115.683 85.008 115.68 85.0272 115.689 85.0464C115.689 85.0752 116.035 87.6384 118.267 87.8256H118.382C118.541 87.8256 118.685 87.7968 118.829 87.7536C119.376 87.5664 120.614 86.9616 120.672 85.1472L122.947 85.4784C122.933 85.5072 122.933 85.5216 122.933 85.5216ZM109.919 85.2395L109.8 85.248C109.886 85.5936 110.088 86.2128 110.52 86.6592C110.894 87.0624 111.413 87.2784 111.945 87.2496C112.478 87.2352 112.968 86.9616 113.299 86.5296C113.486 86.2704 113.616 85.968 113.688 85.608C113.702 85.4064 113.717 85.2048 113.731 85.0176C112.066 85.0853 110.593 85.1911 109.919 85.2395ZM116.165 84.96C117.662 84.9456 119.117 84.96 120.168 85.0896C120.139 86.5728 119.217 87.1056 118.656 87.2928C118.541 87.336 118.411 87.3504 118.281 87.336C117.533 87.2784 116.942 86.8752 116.553 86.1408C116.251 85.5648 116.165 85.0032 116.165 85.0032V84.96ZM123.192 87.4224C123.177 87.4224 123.177 87.4368 123.177 87.4368C123.163 87.912 123.206 88.3008 123.322 88.5744C123.48 88.8912 123.811 88.8624 124.042 88.776C124.877 88.4736 125.899 87.1344 125.539 85.4928C125.395 84.8448 125.165 84.4416 124.877 84.312C124.862 84.3048 124.844 84.3012 124.826 84.2976C124.808 84.294 124.79 84.2904 124.776 84.2832C124.234 84.4211 124.124 84.9634 123.988 85.6287L123.988 85.6288C123.925 85.936 123.857 86.2695 123.739 86.6016C123.739 86.6088 123.736 86.616 123.732 86.6232C123.728 86.6304 123.725 86.6376 123.725 86.6448V86.7168C123.718 86.7312 123.707 86.7456 123.696 86.7599L123.696 86.76L123.696 86.7601C123.685 86.7745 123.674 86.7889 123.667 86.8032V86.8176C123.494 87.2064 123.322 87.3648 123.192 87.4224ZM108.547 76.032C109.195 75.384 117.533 74.4336 119.131 74.7504C120.729 75.0672 121.694 76.3488 121.694 76.3488C122.918 77.976 122.976 82.0512 122.933 84.9744L120.441 84.6144C119.707 84.5136 118.742 84.456 117.705 84.4416C118.109 84.3552 118.382 83.8224 118.31 83.232C118.224 82.6128 117.806 82.1664 117.374 82.224C116.942 82.2816 116.64 82.8288 116.726 83.4336C116.798 83.952 117.101 84.3408 117.446 84.4272C116.366 84.4128 115.214 84.4416 114.134 84.4848C114.12 83.2752 113.875 82.4256 113.861 82.3824C113.832 82.2816 113.731 82.224 113.63 82.2528C113.529 82.2816 113.472 82.3824 113.501 82.4832C113.501 82.4847 113.503 82.4945 113.508 82.5121L113.508 82.5129C113.548 82.6719 113.747 83.4521 113.76 84.4992C112.781 84.5424 111.873 84.5856 111.153 84.6288C111.513 84.4848 111.744 83.9952 111.672 83.448C111.585 82.8288 111.168 82.3824 110.736 82.44C110.304 82.4976 110.001 83.0448 110.088 83.6496C110.16 84.168 110.462 84.5712 110.822 84.6432C110.4 84.6676 110.06 84.692 109.828 84.7086L109.828 84.7086L109.827 84.7087L109.827 84.7087L109.826 84.7087L109.826 84.7087C109.649 84.7215 109.535 84.7296 109.497 84.7296H109.454L107.352 85.6656C107.309 85.2912 107.265 84.9312 107.222 84.5712C107.064 79.5024 107.942 76.6368 108.547 76.032ZM104.846 85.824C104.558 86.0976 104.457 86.5728 104.558 87.2352C104.659 87.8832 104.918 88.416 105.235 88.8048C105.494 88.5744 105.826 88.5024 106.157 88.632C106.52 88.7751 106.74 89.2378 107.1 89.9944C107.211 90.2278 107.336 90.4891 107.481 90.7776C107.585 90.9696 107.863 91.4268 108.14 91.883L108.14 91.8833L108.14 91.8836C108.403 92.3166 108.665 92.7487 108.777 92.952C108.446 92.2464 107.669 90.4608 107.438 89.7264C107.417 89.6545 107.395 89.5861 107.374 89.5178C107.352 89.4493 107.33 89.3809 107.309 89.3088C107.294 89.2656 107.179 88.8768 107.193 88.8768C107.381 88.7904 107.438 88.5888 107.41 88.4016L107.404 88.3631L107.393 88.2914L107.393 88.2898C107.353 88.0257 107.303 87.6858 107.165 87.4224C106.978 87.4656 106.574 87.2784 105.725 85.6944L105.48 85.536C105.264 85.5648 105.034 85.6368 104.846 85.824ZM106.113 94.6224C105.005 91.584 105.278 89.784 105.71 89.3664C105.797 89.2944 105.84 89.2944 105.912 89.3088C106.142 89.3952 106.603 90.3024 106.963 91.0224C107.813 92.6928 108.95 94.2192 110.577 95.1408C111.027 95.394 111.458 95.6316 111.866 95.8563C114.035 97.0501 115.539 97.8781 115.502 98.7264C115.459 99.5616 113.357 103.104 111.585 105.322C110.563 104.386 109.469 103.536 108.489 102.859L110.534 100.296L110.189 100.08C110.188 100.079 110.182 100.075 110.17 100.067L110.169 100.067L110.169 100.067C109.999 99.951 108.737 99.0971 107.539 97.3872C107.546 97.3872 107.55 97.3836 107.553 97.38C107.556 97.3776 107.558 97.3752 107.562 97.3738C107.564 97.3732 107.566 97.3728 107.568 97.3728L107.568 97.3728L107.568 97.3727C107.525 97.3296 107.496 97.3008 107.467 97.2576C107.366 97.1136 107.28 96.984 107.193 96.84H107.179C106.805 96.2208 106.416 95.472 106.113 94.6224ZM106.92 97.776C105.307 98.7696 103.176 100.325 101.073 102.571C98.2799 105.581 90.3311 114.638 87.4511 119.016L105.869 101.347L106.229 101.506C106.661 101.707 107.237 102.038 107.899 102.47L109.483 100.483C108.95 100.094 107.913 99.216 106.92 97.776ZM86.3999 121.018C86.3999 120.983 86.4089 120.958 86.4198 120.928L86.4201 120.927C86.4229 120.919 86.4258 120.911 86.4287 120.902L105.912 102.226C106.01 102.369 106.128 102.567 106.267 102.802L106.267 102.803L106.268 102.803L106.268 102.804C106.66 103.464 107.23 104.424 108.058 105.336C109.857 107.323 111.787 108.475 113.486 109.152C113.083 109.584 112.219 110.491 111.067 111.672L99.7775 122.242C96.1343 125.222 93.4271 126.878 91.8143 127.051C89.8703 127.267 88.4159 126.864 87.4799 125.842C86.2703 124.531 86.1407 122.414 86.3999 121.018ZM75.1247 104.371L73.8575 104.587L74.7359 114.437H76.2767L75.1247 104.371ZM80.2079 115.027V116.654H72.6335L71.8847 115.027H80.2079ZM73.8287 119.232L74.6063 120.931H80.2079V119.232H73.8287ZM80.2079 121.363V122.213H75.1967L74.8079 121.363H80.2079ZM72.8495 117.086L73.6271 118.786H80.2079V117.086H72.8495ZM70.1711 112.277L74.7215 122.4L67.8095 122.386L70.1711 112.277ZM65.8079 108.936C65.0591 109.282 64.5983 109.771 64.3967 110.376L64.3888 110.409C64.3842 110.429 64.3797 110.449 64.3751 110.47L64.3751 110.47L64.3751 110.47C64.3679 110.502 64.3607 110.534 64.3535 110.563C64.3535 110.592 64.3571 110.621 64.3607 110.65C64.3643 110.678 64.3679 110.707 64.3679 110.736H67.8959C67.8239 109.627 67.4207 108.965 66.7151 108.821C66.4127 108.763 66.0959 108.806 65.8079 108.936ZM60.4223 110.376C60.6239 109.771 61.0847 109.282 61.8335 108.936C62.1215 108.806 62.4383 108.763 62.7407 108.821C63.4031 108.95 63.8063 109.555 63.9071 110.534L63.9008 110.565L63.9008 110.565C63.8888 110.624 63.8783 110.675 63.8783 110.736H60.3503C60.3647 110.621 60.3935 110.491 60.4223 110.376ZM57.7871 108.936C57.0383 109.282 56.5775 109.771 56.3759 110.376C56.3471 110.491 56.3183 110.621 56.3039 110.736H59.8751C59.8031 109.627 59.3999 108.965 58.6943 108.821C58.3919 108.763 58.0751 108.806 57.7871 108.936ZM53.8991 111.384H55.8575C55.9267 112.076 56.2088 112.622 56.2434 112.689L56.2463 112.694C56.2895 112.766 56.3615 112.81 56.4335 112.81C56.4623 112.81 56.5055 112.795 56.5343 112.781C56.6351 112.723 56.6783 112.594 56.6207 112.478C56.6207 112.478 56.3615 112.003 56.2895 111.384H59.8895C59.9587 112.076 60.2408 112.622 60.2754 112.689L60.2783 112.694C60.3215 112.766 60.3935 112.81 60.4655 112.81C60.4943 112.81 60.5375 112.795 60.5663 112.781C60.6671 112.723 60.7103 112.594 60.6527 112.478C60.6527 112.478 60.3935 112.003 60.3215 111.384H63.8495C63.9187 112.076 64.2008 112.622 64.2354 112.689L64.2383 112.694C64.2815 112.766 64.3535 112.81 64.4255 112.81C64.4543 112.81 64.4975 112.795 64.5263 112.781C64.6271 112.723 64.6703 112.594 64.6127 112.478C64.6127 112.478 64.3535 112.003 64.2815 111.384H69.6671L67.1039 122.371H65.5919C65.5343 122.371 65.4767 122.4 65.4479 122.443C64.1204 122.419 62.7625 122.395 61.3513 122.37L61.3353 122.37L61.3153 122.369L61.3138 122.369L61.2984 122.369C57.6725 122.304 53.6937 122.234 48.9743 122.141L53.8991 111.384ZM79.7183 182.722C75.5855 178.517 71.5247 178.07 71.3087 178.056V178.69H67.4927V178.056C63.4751 178.243 59.5295 181.757 58.3199 182.923C61.3583 183.658 65.0591 184.018 69.3071 184.018C73.7567 184.018 78.2351 183.067 79.7183 182.722ZM68.1551 141.653H70.7039V142.258H68.0975V141.638C68.1119 141.653 68.1407 141.653 68.1551 141.653ZM68.0975 140.184V141.379C68.1119 141.365 68.1407 141.365 68.1551 141.365H70.7039V140.184H68.0975ZM70.7039 142.992V178.085H68.0975V142.992H70.7039ZM54.3023 133.776V139.579V139.594H83.5343V133.776H54.3023ZM105.998 182.894L97.9487 182.246V176.155L71.2943 174.744V140.184H84.1247V133.157H53.6975V140.184H67.4927V174.528L50.1407 173.606V180.331L41.8031 179.712L41.7311 122.645C43.6452 122.689 45.4513 122.724 47.1557 122.757L47.1569 122.757C47.696 122.768 48.225 122.778 48.7439 122.789C48.8159 122.818 48.8879 122.832 48.9599 122.832L67.1183 123.221C67.2335 123.221 67.3343 123.192 67.4351 123.134C67.7519 123.142 68.0688 123.145 68.3856 123.149C68.7024 123.152 69.0191 123.156 69.3359 123.163C70.7932 123.189 72.2593 123.214 73.7682 123.241L73.7722 123.241L73.8167 123.242C77.3931 123.304 81.2114 123.37 85.7231 123.451C85.8815 124.474 86.2703 125.496 87.0047 126.288C87.9119 127.267 89.1935 127.757 90.8495 127.757C91.1807 127.757 91.5263 127.742 91.8863 127.699C93.4415 127.526 95.8175 126.187 98.9855 123.71L100.306 123.736L100.308 123.736C102.108 123.771 104.002 123.808 105.998 123.854V182.894ZM99.8495 123.091C101.837 123.134 103.939 123.178 106.185 123.221H106.329L109.497 123.178L105.725 117.85C105.595 117.979 105.465 118.109 105.321 118.238C103.493 119.938 101.808 121.421 100.296 122.674L99.8495 123.091ZM158.342 178.963V172.57L157.205 172.67L114.955 176.17V182.174L108.936 182.693V169.373C108.936 169.214 108.806 169.085 108.648 169.085C108.49 169.085 108.36 169.214 108.36 169.373V182.75L106.589 182.894V123.854C134.323 123.451 161.741 123.523 165.009 123.538L165.067 143.741L165.038 143.784C165.046 143.806 165.049 143.824 165.053 143.842C165.056 143.86 165.06 143.878 165.067 143.899L165.168 178.502L158.342 178.963ZM195.159 93.0008C195.173 92.9745 195.184 92.9534 195.192 92.9376C195.869 89.9424 195.667 87.6816 194.63 86.256C193.982 85.392 193.161 85.0032 192.6 84.8448C192.557 84.8736 192.514 84.888 192.47 84.888C187.121 85.4809 184.787 94.3061 184.67 94.7499C184.668 94.7589 184.666 94.7644 184.665 94.7664L184.608 94.9536L184.421 95.0112C177.696 97.1424 177.293 105.494 177.293 105.581L177.278 105.782L177.091 105.883C171.576 108.95 171.187 115.776 171.187 115.848L171.173 116.093L170.942 116.179C168.005 117.216 165.902 120.758 164.851 122.904H165.355H165.672V123.221L165.73 142.661L190.742 100.57C193.036 97.1157 194.839 93.622 195.159 93.0008Z" fill="#372A3E"/>
<path d="M107.525 103.68C107.525 103.68 107.856 104.414 108.432 105.106C109.123 105.941 110.189 106.531 110.189 106.531C110.189 106.531 114.408 102.211 114.696 98.928C114.754 98.2656 114.206 97.6608 113.674 97.3008C112.392 96.4368 110.981 95.832 109.613 95.1408C108.432 94.536 107.755 93.384 107.309 92.2176C106.546 90.2016 106.214 89.424 105.797 90.3456C105.466 91.0656 105.552 92.232 105.725 92.952C106.056 94.3344 106.402 95.5152 107.266 96.6528C107.971 97.5888 108.893 98.64 109.786 99.36C110.16 99.6624 110.678 99.8928 110.477 100.224C110.275 100.57 109.973 101.146 109.714 101.434C109.598 101.549 107.525 103.68 107.525 103.68Z" fill="#FFCCA9"/>
</svg>
