<svg width="300" height="300" xmlns="http://www.w3.org/2000/svg"><g fill="none" fill-rule="evenodd"><path d="M0 0h300v300H0z"/><g fill-rule="nonzero"><g transform="translate(27.8 48.6)"><path d="M53.34 205.3c9.8-.1 19.6-.24 29.4-.38 33.92-.48 67.84-1.02 101.76-.96 28.02-20.52 46.22-53.64 46.22-91.04C230.72 50.66 180.24.18 117.98.18S5.26 50.66 5.26 112.92c0 38.22 19 72 48.08 92.38z" fill="#FEE6E1"/><path d="M54.34 23.38h43.22v54.14H55.54c0-.02-1.2-54.54-1.2-54.14z" fill="#FFF"/><path d="M56.46 26.36h36.8v46.88H58.2s-1.62-46.76-1.74-46.88z" fill="#FBC9BC"/><path d="M22.82 172.84c.16 0 .26-.14.24-.28-.1-.82-.08-3.4 3.18-7.74 3.9-5.2 6.1-20.88 2.98-33.62-.06-.26-.44-.26-.5.02-.46 2.56-1.74 8.74-3.82 12.22-2.52 4.2-2.66 26.54-2.68 29.16 0 .14.12.26.26.26h.34v-.02z" fill="#6BA697"/><path d="M21.9 170.02c-.02 0-.02 0-.04.02v.58c.28.06.54.12.82.18 0-.42.02-.92.02-1.44-.16.3-.46.58-.8.66z" fill="#372A3E"/><path d="M14.5 172.84c-.14.02-.26-.08-.24-.22.12-1.18.34-5.98-3.16-9.08-3.84-3.4-9.7-8.44-11-20.18-.02-.22.3-.32.38-.1.68 1.62 1.66 3.12 2.92 4.34 1.78 1.7 4.22 2.42 6.14 3.9 1.72 1.34 3.2 3.02 4.42 4.82 2.82 4.14 4.32 9.34 3.08 14.3-.14.58-.34 1.18-.56 1.74-.02.06-.08.12-.14.12l-1.84.36z" fill="#6BA697"/><path d="M15.74 172.04c-.1-.02-.16-.14-.14-.22.4-1.34 2.76-9.86-.5-17.64-3.5-8.3-9.98-8.04-11.5-29.38-.02-.22.28-.28.36-.08.86 2.34 1.92 4.62 3.28 6.7.78 1.18 1.68 2.34 2.78 3.26 1.7 1.42 3.74 2.1 5.24 3.82 1.32 1.52 2.38 3.28 3.24 5.1 2.18 4.58 3.16 9.78 2.84 14.84-.16 2.34-.6 4.66-1.34 6.88l-2.62 6.98c-.04.08-.12.14-.22.12l-1.42-.38z" fill="#6BA697"/><path d="M20.22 163.16c-.16.68-.36 1.34-.58 2l-2 5.34c.3-.06.62-.1.92-.12l1.62-4.34c.02-.96.04-1.92.04-2.88z" fill="#372A3E"/><path d="M18.68 172c0-.44 3.56-11.14 0-20.5s-7.12-10.7-2.68-29.42c4.46-18.72 4.46-14.26 4.46-14.26-.78 2.16-.54 4.68-.38 6.94.4 5.76 1.66 11.48 3.82 16.84 1.46 3.6 3.06 6.38 3.32 10.36.24 3.78-.16 7.64-.96 11.32-1.34 6.24-4.9 19.16-4.9 19.16l-2.68-.44z" fill="#6BA697"/><path d="M169.3 95.78s2.68-8.92 11.14-12.92c0 0 .9-9.8 10.7-12.92l47.68-1.34s7.58.44 4.9 12.04c0 0-2.68 5.34-6.24 10.7l-36.54 61.5-31.2-31.2-.44-25.86zM32.04 170.62H7.98v29.28l6.68.12h24.52z" fill="#FFF"/><path d="M117.16 111.38c0 .44 8.02 11.98 8.02 11.98h57.04s7.12-.84 4.46-6.64c-2.68-5.8-16.9-34.78-46.06-37l-17.66 8.48-5.8 23.18z" fill="#FFF"/><path d="M129.38 84.94c.88-.48 1.74-.98 2.62-1.48.04-.04.06-.1.1-.14L129 84.8c.14.02.26.08.38.14z" fill="#372A3E"/><path d="M29.72 121.3l.1 80.14 12.48.92V193l65.5 3.48v8.44l11.98.96 12.54-1.06v-8.34l59.26-4.92-.02 8.52c0 .18.16.34.34.32l10.16-.66-.22-77.22s-40.5-.18-81.96.44h-.2c-46.02-.94-50.96-.88-89.96-1.66z" fill="#FFF"/><path d="M52.36 205.7s7.22-7.72 14.44-7.42h4.46s6.24.44 12.48 7.12c0 0-7.62 2-15.28 2-10.2 0-15.26-1.54-16.1-1.7z" fill="#FFF"/><path d="M79.26 22.92l-2.96-3.6c-.24-.3-.6-.48-.98-.48-.38-.02-.74.12-1.02.4l-3.64 3.7H53.88v.9h.02c.12 5.08 1.18 53.18 1.2 53.7v.44H98V22.92H79.26zm-4.62-3.36c.18-.18.42-.26.66-.26.24.02.48.12.62.32l2.7 3.3h-7.28l3.3-3.36zm22.46 57.5H55.98c-.06-2.42-.32-14.52-.6-26.62-.16-6.76-.3-13.54-.42-18.6-.06-2.54-.1-4.66-.14-6.14l-.04-1.86H97.1v53.22z" fill="#372A3E"/><path d="M92.3 30.88H77.76c-.14 0-.24-.1-.24-.24 0-.14.1-.24.24-.24H92.3c.14 0 .24.1.24.24 0 .14-.1.24-.24.24zM92.3 33.32H77.76c-.14 0-.24-.1-.24-.24 0-.14.1-.24.24-.24H92.3c.14 0 .24.1.24.24 0 .14-.1.24-.24.24zM92.3 36.14H77.76c-.14 0-.24-.1-.24-.24 0-.14.1-.24.24-.24H92.3c.14 0 .24.1.24.24 0 .14-.1.24-.24.24zM230.8 97.86c-.06 0-.12-.02-.18-.06-.14-.1-.18-.28-.08-.42 3.56-5.16 12.42-19.16 10.68-21.94-.52-.82-1.14-1.26-1.86-1.32-1.6-.14-3.26 1.6-3.44 1.8l-6.22 9.78c-.1.14-.28.18-.42.1-.14-.08-.18-.28-.1-.42l6.26-9.82.02-.02c.08-.08 1.96-2.18 3.96-2.02.92.08 1.7.62 2.32 1.62 1 1.6-.48 5.78-4.5 12.8-2.92 5.08-6.16 9.78-6.2 9.82-.06.06-.14.1-.24.1z" fill="#372A3E"/><path fill="#FFF" d="M47.2 136.78h41.44v8.92H47.2z"/><path d="M66.36 145.68v53.48h4.46v-53.48h-4.46zM130.54 84.64l2.68 8.46s8.46-1.34 9.36-5.8l-.1-.38c.22-.9-.1-1.86-.54-2.7-.6-1.16-1.04-2.78-1.58-3.6-.92-1.32-9.82 4.02-9.82 4.02z" fill="#FFF"/><path d="M134.78 92.48c-.46.12-.86.2-1.14.26.04.12.06.18.02.2.34-.02.74-.22 1.12-.46z" fill="#372A3E"/><path d="M122.96 55.68s-3.12 3.56-2.68 9.36c.44 5.8.9 14.7 7.12 19.6 6.22 4.9 12.04.44 14.7-6.24 2.68-6.68 1.34-18.72 1.34-18.72s-3.12-6.24-8.92-6.24c-5.78 0-11.56 2.24-11.56 2.24z" fill="#FFF"/><path d="M119.4 69.94s-2.68-.44-2.22 2.68c.46 3.12 3.56 4.46 4.46 3.12.9-1.34-2.24-5.8-2.24-5.8zM143.66 69.46c.14-.44.42-.82.84-1.04.72-.42 1.84-.6 2.34 1.66.78 3.48-2.76 6.1-3.58 4.44-.62-1.28.06-3.92.4-5.06z" fill="#FFF"/><path d="M143.98 69.92c.1-.36.34-.66.66-.84.58-.34 1.48-.48 1.88 1.34.62 2.8-2.22 4.9-2.88 3.58-.48-1.04.06-3.16.34-4.08zM119.84 71.02c-.18-.28-.48-.5-.8-.58-.6-.14-1.44-.06-1.34 1.66.14 2.64 3.18 3.8 3.44 2.46.2-1.06-.82-2.8-1.3-3.54z" fill="#FFCCA9"/><path d="M142.32 84.58c-.06 0-.06-.16-.12-.16-.16 0-.3.02-.46.02-.9 1.18-2.02 3.24-5.48 4.96-5.34 1.34-8.42-.32-8.42-.32s.54 4.16 1.84 9.3c.02.08.4-.08.42 0 2.1 8.36 5.2 19.78 7.12 22.78l11.58-2.68s-2.18-11.88-4.06-21.84c-.04-.16-.46-.76-.4-.9.26-.46 1.48-.34 1.34-.9-1.18-4.26-2.96-8.42-3.36-10.26z" fill="#F48567"/><path d="M94.72 55.94c.14 0 .24-.1.24-.24 0-.14-.1-.24-.24-.24h-3.4v-5.58h3.4c.14 0 .24-.1.24-.24 0-.14-.1-.24-.24-.24h-3.4v-6.22c0-.14-.1-.24-.24-.24-.14 0-.24.1-.24.24v6.22h-5.58v-6.22c0-.14-.1-.24-.24-.24-.14 0-.24.1-.24.24v6.22H79.2v-6.22c0-.14-.1-.24-.24-.24-.14 0-.24.1-.24.24v6.22h-5.58v-6.22c0-.14-.1-.24-.24-.24-.14 0-.24.1-.24.24v6.22h-5.58v-6.22c0-.14-.1-.24-.24-.24-.14 0-.24.1-.24.24v6.22h-5.58v-6.22c0-.14-.1-.24-.24-.24-.14 0-.24.1-.24.24v6.22h-3c-.14 0-.24.1-.24.24 0 .14.1.24.24.24h3v5.58h-3c-.14 0-.24.1-.24.24 0 .14.1.24.24.24h3v5.58h-3c-.14 0-.24.1-.24.24 0 .14.1.24.24.24h3v4.78h-3c-.14 0-.24.1-.24.24 0 .14.1.24.24.24h3v1.78c0 .14.1.24.24.24.14 0 .24-.1.24-.24v-1.78h5.58v1.78c0 .14.1.24.24.24.14 0 .24-.1.24-.24v-1.78h5.58v1.78c0 .14.1.24.24.24.14 0 .24-.1.24-.24v-1.78h5.58v1.78c0 .14.1.24.24.24.14 0 .24-.1.24-.24v-1.78h5.6v1.78c0 .14.1.24.24.24.14 0 .24-.1.24-.24v-1.78h5.58v1.78c0 .14.1.24.24.24.14 0 .24-.1.24-.24v-1.78h3.4c.14 0 .24-.1.24-.24 0-.14-.1-.24-.24-.24h-3.4V62h3.4c.14 0 .24-.1.24-.24 0-.14-.1-.24-.24-.24h-3.4v-5.58h3.38zm-3.86-6.06v5.58h-5.58v-5.58h5.58zm-6.06 0v5.58h-5.58v-5.58h5.58zm-11.64 6.06h5.58v5.58h-5.58v-5.58zm-.48 5.58H67.1v-5.58h5.58v5.58zm6.54-5.58h5.58v5.58h-5.58v-5.58zm-.48-6.06v5.58h-5.58v-5.58h5.58zm-6.06 0v5.58H67.1v-5.58h5.58zm-11.64 0h5.58v5.58h-5.58v-5.58zm0 6.06h5.58v5.58h-5.58v-5.58zm0 10.82V62h5.58v4.78h-5.58v-.02zm6.06 0V62h5.58v4.78H67.1v-.02zm6.06 0V62h5.58v4.78h-5.58v-.02zm6.06 0V62h5.58v4.78h-5.58v-.02zm11.64 0h-5.58V62h5.58v4.76zm0-5.24h-5.58v-5.58h5.58v5.58z" fill="#372A3E"/><path d="M149.24 115.84v6.68H127.2s-1.22-.76 2.04-2.28c3.26-1.52 14.66-4.4 20-4.4z" fill="#FFF"/><path d="M130.54 56.56s8.46-1.78 10.24 2.68c1.78 4.46 1.78 14.7.44 18.72s-5.34 8.92-9.8 7.58c-4.46-1.34-7.12-4.9-8.46-9.8-1.18-4.36-1.68-11.88-.2-16 .3-.86 1-1.54 1.88-1.84 1.26-.44 3.4-1.06 5.9-1.34z" fill="#FFCCA9"/><path d="M129.64 73.94s1.78 3.12 4.9 0c0 0 3.56 2.68 3.56 4.46 0 1.78-12.38 1.32-12.48.44-.18-1.76 4.02-4.9 4.02-4.9z" fill="#282039"/><path d="M124.2 64.2c-.12 0-.24-.06-.3-.14-.14-.18-.1-.42.06-.56.02-.02 2.12-1.72 2.54-3.36.06-.22.26-.34.48-.28.22.06.34.26.28.48-.48 1.9-2.72 3.7-2.82 3.78-.08.06-.16.08-.24.08zM138.1 63.64c-.06 0-.12-.02-.18-.04-1.82-.9-4.02-3.1-4.12-3.2-.16-.16-.16-.4 0-.56.16-.16.4-.16.56 0 .02.02 2.2 2.2 3.9 3.04.2.1.28.34.18.54-.04.14-.18.22-.34.22z" fill="#372A3E"/><path d="M148.36 117.1v4.2c0 .18-.14.4-.32.4l-18.66.24c-.36 0-.46-.58-.12-.72 2.82-1.08 9.72-3.82 18.74-4.46.18 0 .36.14.36.34zM140.78 82.4l.58 1.56s-3.26 5.56-8.6 5.12l-.44-1.78c0 .02 5.34-.44 8.46-4.9z" fill="#FFCCA9"/><path fill="#FBC9BC" d="M50.38 138.34h35.08v5.8H50.38z"/><path d="M124.36 84.8s-6.1 2.32-12.1 8.76c-3.24 3.46-19.8 22.1-20.5 25.84-.58 3.06 0 9.8 8.02 8.92 8.02-.9 30.74-25.4 30.74-25.4" fill="#FFF"/><path d="M126.1 99.68c2.52-2.46 6.96-9.5 7.04-11.14.08-1.78-2.98-3.72-7.28-5.2-3.4-1.16-5.06-7.86-6.38-8.38-1.32-.52-2.34 2.56-.36 8.02 1.98 5.44 5.88 7.86 5.88 7.86l-3.28 4.1M75.62 110.74l-1.28-14.42 2.56-.42 1.7 14.84M71.42 110.74h12.6v10.82h-7.64z" fill="#FFF"/><path d="M74.76 121.64c-.1 0-.2-.06-.24-.16l-5.94-13.78c-.06-.12 0-.28.14-.34.12-.06.28 0 .34.14L75 121.28c.06.12 0 .28-.14.34-.04.02-.08.02-.1.02z" fill="#372A3E"/><path fill="#FFF" d="M69.44 106.24l6.94 15.42-13.02-.04"/><path d="M39.82 120.94l6.84-15.04c.06-.16.22-.26.4-.26h22c.3 0 .52.3.4.58l-3.64 15.58c-.06.16-.22.26-.4.28l-25.2-.54c-.3.02-.52-.3-.4-.6z" fill="#FFF"/><path d="M61.2 111.48H47.62c-.16 0-.3-.14-.3-.3 0-.16.14-.3.3-.3H61.2c.16 0 .3.14.3.3 0 .16-.14.3-.3.3zM59.5 114.44H45.92c-.16 0-.3-.14-.3-.3 0-.16.14-.3.3-.3H59.5c.16 0 .3.14.3.3 0 .16-.14.3-.3.3zM57.8 117.42H44.22c-.16 0-.3-.14-.3-.3 0-.16.14-.3.3-.3H57.8c.16 0 .3.14.3.3 0 .16-.12.3-.3.3z" fill="#372A3E"/><path fill="#FBC9BC" d="M10.18 176.1v13.5l.24 8.02H27.5v-20.96z"/><path d="M203.3 186.5c-.08 0-.14-.02-.2-.08-.12-.12-.14-.3-.02-.44.1-.1 9.46-10.26 14.26-20.26.08-.16.26-.22.4-.14.16.08.22.26.14.4-4.84 10.1-14.28 20.32-14.36 20.42-.06.06-.14.1-.22.1zM211.04 171.42c-.06 0-.14-.02-.2-.06-.14-.1-.16-.3-.04-.42.02-.04 2.6-3.2 4.46-7.26.08-.16.26-.22.4-.14.16.08.22.26.14.4-1.9 4.14-4.52 7.36-4.54 7.38-.06.06-.14.1-.22.1zM17.12 64.04c-.04 0-.08 0-.12-.02-.16-.06-.22-.24-.16-.4 3.72-8.98 10.28-17.48 10.34-17.56.1-.14.3-.16.42-.06.14.1.16.3.06.42-.06.08-6.58 8.52-10.26 17.42-.04.12-.16.2-.28.2z" fill="#372A3E"/><path fill="#FFF" d="M171.06 72.58l-5.66 5.26"/><path d="M165.4 78.14c-.08 0-.16-.04-.22-.1-.12-.12-.1-.32.02-.44l5.66-5.26c.12-.12.32-.1.44.02.12.12.1.32-.02.44l-5.66 5.26c-.06.06-.14.08-.22.08z" fill="#372A3E"/><path fill="#FFF" d="M167.1 72.72l-4.88 4.62"/><path d="M162.22 77.64c-.08 0-.16-.04-.22-.1-.12-.12-.12-.32.02-.44l4.9-4.62c.12-.12.32-.12.44.02.12.12.12.32-.02.44l-4.9 4.62c-.08.06-.16.08-.22.08z" fill="#372A3E"/><path fill="#FFF" d="M65.06 46.06L63.3 47.7"/><path d="M63.3 47.8c-.02 0-.06-.02-.08-.04-.04-.04-.04-.1 0-.14l1.76-1.64c.04-.04.1-.04.14 0 .04.04.04.1 0 .14l-1.76 1.64c0 .02-.04.04-.06.04z" fill="#372A3E"/><path fill="#FFF" d="M63.82 46.1l-1.5 1.44"/><path d="M62.32 47.64c-.02 0-.06-.02-.08-.04-.04-.04-.04-.1 0-.14l1.52-1.44c.04-.04.1-.04.14 0 .04.04.04.1 0 .14l-1.52 1.44c-.02.02-.04.04-.06.04z" fill="#372A3E"/><path fill="#FFF" d="M70.76 46.06L69 47.7"/><path d="M69 47.8c-.02 0-.06-.02-.08-.04-.04-.04-.04-.1 0-.14l1.76-1.64c.04-.04.1-.04.14 0 .04.04.04.1 0 .14l-1.76 1.64c-.02.02-.04.04-.06.04z" fill="#372A3E"/><path fill="#FFF" d="M69.52 46.1L68 47.54"/><path d="M68 47.64c-.02 0-.06-.02-.08-.04-.04-.04-.04-.1 0-.14l1.52-1.44c.04-.04.1-.04.14 0 .04.04.04.1 0 .14l-1.52 1.44c0 .02-.02.04-.06.04z" fill="#372A3E"/><path fill="#FFF" d="M76.98 46.06l-1.76 1.64"/><path d="M75.22 47.8c-.02 0-.06-.02-.08-.04-.04-.04-.04-.1 0-.14l1.76-1.64c.04-.04.1-.04.14 0 .04.04.04.1 0 .14l-1.76 1.64c0 .02-.02.04-.06.04z" fill="#372A3E"/><path fill="#FFF" d="M75.76 46.1l-1.52 1.44"/><path d="M74.24 47.64c-.02 0-.06-.02-.08-.04-.04-.04-.04-.1 0-.14l1.52-1.44c.04-.04.1-.04.14 0 .04.04.04.1 0 .14L74.3 47.6c-.02.02-.04.04-.06.04z" fill="#372A3E"/><g><path fill="#FFF" d="M83.28 46.06l-1.74 1.64"/><path d="M81.54 47.8c-.02 0-.06-.02-.08-.04-.04-.04-.04-.1 0-.14l1.76-1.64c.04-.04.1-.04.14 0 .04.04.04.1 0 .14l-1.76 1.64c-.02.02-.04.04-.06.04z" fill="#372A3E"/><g><path fill="#FFF" d="M82.06 46.1l-1.52 1.44"/><path d="M80.54 47.64c-.02 0-.06-.02-.08-.04-.04-.04-.04-.1 0-.14l1.52-1.44c.04-.04.1-.04.14 0 .04.04.04.1 0 .14L80.6 47.6c0 .02-.04.04-.06.04z" fill="#372A3E"/></g></g><g><path fill="#FFF" d="M89.52 46.06l-1.76 1.64"/><path d="M87.76 47.8c-.02 0-.06-.02-.08-.04-.04-.04-.04-.1 0-.14l1.76-1.64c.04-.04.1-.04.14 0 .04.04.04.1 0 .14l-1.76 1.64c0 .02-.04.04-.06.04z" fill="#372A3E"/><g><path fill="#FFF" d="M88.28 46.1l-1.5 1.44"/><path d="M86.78 47.64c-.02 0-.06-.02-.08-.04-.04-.04-.04-.1 0-.14l1.52-1.44c.04-.04.1-.04.14 0 .04.04.04.1 0 .14l-1.52 1.44c-.02.02-.04.04-.06.04z" fill="#372A3E"/></g></g><g><path fill="#FFF" d="M83.28 52.34l-1.74 1.64"/><path d="M81.54 54.08c-.02 0-.06-.02-.08-.04-.04-.04-.04-.1 0-.14l1.76-1.64c.04-.04.1-.04.14 0 .04.04.04.1 0 .14l-1.76 1.64c-.02.02-.04.04-.06.04z" fill="#372A3E"/><g><path fill="#FFF" d="M82.06 52.38l-1.52 1.44"/><path d="M80.54 53.92c-.02 0-.06-.02-.08-.04-.04-.04-.04-.1 0-.14l1.52-1.44c.04-.04.1-.04.14 0 .04.04.04.1 0 .14l-1.52 1.44c0 .02-.04.04-.06.04z" fill="#372A3E"/></g></g><g><path fill="#FFF" d="M83.28 57.6l-1.74 1.64"/><path d="M81.54 59.34c-.02 0-.06-.02-.08-.04-.04-.04-.04-.1 0-.14l1.76-1.64c.04-.04.1-.04.14 0 .04.04.04.1 0 .14L81.6 59.3c-.02.02-.04.04-.06.04z" fill="#372A3E"/><g><path fill="#FFF" d="M82.06 57.64l-1.52 1.44"/><path d="M80.54 59.18c-.02 0-.06-.02-.08-.04-.04-.04-.04-.1 0-.14l1.52-1.44c.04-.04.1-.04.14 0 .04.04.04.1 0 .14l-1.52 1.44c0 .04-.04.04-.06.04z" fill="#372A3E"/></g></g><g><path fill="#FFF" d="M83.28 63.88l-1.74 1.64"/><path d="M81.54 65.62c-.02 0-.06-.02-.08-.04-.04-.04-.04-.1 0-.14l1.76-1.64c.04-.04.1-.04.14 0 .04.04.04.1 0 .14L81.6 65.6c-.02 0-.04.02-.06.02z" fill="#372A3E"/><g><path fill="#FFF" d="M82.06 63.92l-1.52 1.44"/><path d="M80.54 65.46c-.02 0-.06-.02-.08-.04-.04-.04-.04-.1 0-.14l1.52-1.44c.04-.04.1-.04.14 0 .04.04.04.1 0 .14l-1.52 1.44c0 .04-.04.04-.06.04z" fill="#372A3E"/></g></g><g><path fill="#FFF" d="M77.26 52.34l-1.76 1.64"/><path d="M75.5 54.08c-.02 0-.06-.02-.08-.04-.04-.04-.04-.1 0-.14l1.76-1.64c.04-.04.1-.04.14 0 .04.04.04.1 0 .14l-1.76 1.64c0 .02-.02.04-.06.04z" fill="#372A3E"/><g><path fill="#FFF" d="M76.04 52.38l-1.52 1.44"/><path d="M74.52 53.92c-.02 0-.06-.02-.08-.04-.04-.04-.04-.1 0-.14l1.52-1.44c.04-.04.1-.04.14 0 .04.04.04.1 0 .14l-1.52 1.44c-.02.02-.04.04-.06.04z" fill="#372A3E"/></g></g><g><path fill="#FFF" d="M77.26 57.6l-1.76 1.64"/><path d="M75.5 59.34c-.02 0-.06-.02-.08-.04-.04-.04-.04-.1 0-.14l1.76-1.64c.04-.04.1-.04.14 0 .04.04.04.1 0 .14l-1.76 1.64c0 .02-.02.04-.06.04z" fill="#372A3E"/><g><path fill="#FFF" d="M76.04 57.64l-1.52 1.44"/><path d="M74.52 59.18c-.02 0-.06-.02-.08-.04-.04-.04-.04-.1 0-.14l1.52-1.44c.04-.04.1-.04.14 0 .04.04.04.1 0 .14l-1.52 1.44c-.02.04-.04.04-.06.04z" fill="#372A3E"/></g></g><g><path fill="#FFF" d="M77.26 63.88l-1.76 1.64"/><path d="M75.5 65.62c-.02 0-.06-.02-.08-.04-.04-.04-.04-.1 0-.14l1.76-1.64c.04-.04.1-.04.14 0 .04.04.04.1 0 .14l-1.76 1.64c0 .02-.02.04-.06.04z" fill="#372A3E"/><g><path fill="#FFF" d="M76.04 63.92l-1.52 1.44"/><path d="M74.52 65.46c-.02 0-.06-.02-.08-.04-.04-.04-.04-.1 0-.14l1.52-1.44c.04-.04.1-.04.14 0 .04.04.04.1 0 .14l-1.52 1.44c-.02.04-.04.04-.06.04z" fill="#372A3E"/></g></g><g><path fill="#FFF" d="M71.32 52.34l-1.76 1.64"/><path d="M69.56 54.08c-.02 0-.06-.02-.08-.04-.04-.04-.04-.1 0-.14l1.76-1.64c.04-.04.1-.04.14 0 .04.04.04.1 0 .14l-1.76 1.64c-.02.02-.04.04-.06.04z" fill="#372A3E"/><g><path fill="#FFF" d="M70.08 52.38l-1.52 1.44"/><path d="M68.56 53.92c-.02 0-.06-.02-.08-.04-.04-.04-.04-.1 0-.14L70 52.3c.04-.04.1-.04.14 0 .04.04.04.1 0 .14l-1.52 1.44c0 .02-.02.04-.06.04z" fill="#372A3E"/></g></g><g><path fill="#FFF" d="M71.32 57.6l-1.76 1.64"/><path d="M69.56 59.34c-.02 0-.06-.02-.08-.04-.04-.04-.04-.1 0-.14l1.76-1.64c.04-.04.1-.04.14 0 .04.04.04.1 0 .14l-1.76 1.64c-.02.02-.04.04-.06.04z" fill="#372A3E"/><g><path fill="#FFF" d="M70.08 57.64l-1.52 1.44"/><path d="M68.56 59.18c-.02 0-.06-.02-.08-.04-.04-.04-.04-.1 0-.14L70 57.56c.04-.04.1-.04.14 0 .04.04.04.1 0 .14l-1.52 1.44c0 .04-.02.04-.06.04z" fill="#372A3E"/></g></g><g><path fill="#FFF" d="M71.32 63.88l-1.76 1.64"/><path d="M69.56 65.62c-.02 0-.06-.02-.08-.04-.04-.04-.04-.1 0-.14l1.76-1.64c.04-.04.1-.04.14 0 .04.04.04.1 0 .14l-1.76 1.64c-.02.02-.04.04-.06.04z" fill="#372A3E"/><g><path fill="#FFF" d="M70.08 63.92l-1.52 1.44"/><path d="M68.56 65.46c-.02 0-.06-.02-.08-.04-.04-.04-.04-.1 0-.14L70 63.84c.04-.04.1-.04.14 0 .04.04.04.1 0 .14l-1.52 1.44c0 .04-.02.04-.06.04z" fill="#372A3E"/></g></g><g><path fill="#FFF" d="M65.28 52.34l-1.74 1.64"/><path d="M63.54 54.08c-.02 0-.06-.02-.08-.04-.04-.04-.04-.1 0-.14l1.76-1.64c.04-.04.1-.04.14 0 .04.04.04.1 0 .14l-1.76 1.64c-.02.02-.04.04-.06.04z" fill="#372A3E"/><g><path fill="#FFF" d="M64.06 52.38l-1.52 1.44"/><path d="M62.54 53.92c-.02 0-.06-.02-.08-.04-.04-.04-.04-.1 0-.14l1.52-1.44c.04-.04.1-.04.14 0 .04.04.04.1 0 .14l-1.52 1.44c-.02.02-.04.04-.06.04z" fill="#372A3E"/></g></g><g><path fill="#FFF" d="M65.28 57.6l-1.74 1.64"/><path d="M63.54 59.34c-.02 0-.06-.02-.08-.04-.04-.04-.04-.1 0-.14l1.76-1.64c.04-.04.1-.04.14 0 .04.04.04.1 0 .14L63.6 59.3c-.02.02-.04.04-.06.04z" fill="#372A3E"/><g><path fill="#FFF" d="M64.06 57.64l-1.52 1.44"/><path d="M62.54 59.18c-.02 0-.06-.02-.08-.04-.04-.04-.04-.1 0-.14l1.52-1.44c.04-.04.1-.04.14 0 .04.04.04.1 0 .14l-1.52 1.44c-.02.04-.04.04-.06.04z" fill="#372A3E"/></g></g><g><path fill="#FFF" d="M65.28 63.88l-1.74 1.64"/><path d="M63.54 65.62c-.02 0-.06-.02-.08-.04-.04-.04-.04-.1 0-.14l1.76-1.64c.04-.04.1-.04.14 0 .04.04.04.1 0 .14L63.6 65.6c-.02 0-.04.02-.06.02z" fill="#372A3E"/><g><path fill="#FFF" d="M64.06 63.92l-1.52 1.44"/><path d="M62.54 65.46c-.02 0-.06-.02-.08-.04-.04-.04-.04-.1 0-.14l1.52-1.44c.04-.04.1-.04.14 0 .04.04.04.1 0 .14l-1.52 1.44c-.02.04-.04.04-.06.04z" fill="#372A3E"/></g></g><g><path fill="#FFF" d="M89.6 52.34l-1.76 1.64"/><path d="M87.84 54.08c-.02 0-.06-.02-.08-.04-.04-.04-.04-.1 0-.14l1.76-1.64c.04-.04.1-.04.14 0 .04.04.04.1 0 .14l-1.76 1.64c-.02.02-.04.04-.06.04z" fill="#372A3E"/><g><path fill="#FFF" d="M88.36 52.38l-1.52 1.44"/><path d="M86.84 53.92c-.02 0-.06-.02-.08-.04-.04-.04-.04-.1 0-.14l1.52-1.44c.04-.04.1-.04.14 0 .04.04.04.1 0 .14l-1.52 1.44c0 .02-.02.04-.06.04z" fill="#372A3E"/></g></g><g><path fill="#FFF" d="M89.6 57.6l-1.76 1.64"/><path d="M87.84 59.34c-.02 0-.06-.02-.08-.04-.04-.04-.04-.1 0-.14l1.76-1.64c.04-.04.1-.04.14 0 .04.04.04.1 0 .14L87.9 59.3c-.02.02-.04.04-.06.04z" fill="#372A3E"/><g><path fill="#FFF" d="M88.36 57.64l-1.52 1.44"/><path d="M86.84 59.18c-.02 0-.06-.02-.08-.04-.04-.04-.04-.1 0-.14l1.52-1.44c.04-.04.1-.04.14 0 .04.04.04.1 0 .14l-1.52 1.44c0 .04-.02.04-.06.04z" fill="#372A3E"/></g></g><path fill="#FFF" d="M66.46 149.5h4.04"/><path d="M58.54 27.58v12.6h15.84v-12.6H58.54zm15.34.48v5.72c-2.76-.06-6.62 2.44-6.78 2.56l-.04.04c-3.62-2.68-7.6-3.18-8.04-3.22v-5.08h14.86v-.02zm-14.86 5.5c.76.08 7.02.96 10.78 6.14H59.02v-6.14zm11.24 6.14c0-.04-.02-.06-.04-.08-.84-1.2-1.82-2.18-2.84-2.98.5-.32 4.06-2.52 6.5-2.44v5.52h-3.62v-.02z" fill="#372A3E"/><circle fill="#372A3E" cx="75.28" cy="20.18" r="1"/></g><path d="M270.98 119.24c-1.72-2.3-4.24-2.48-4.34-2.48h-.02l-47.7 1.34h-.06l-.06.02c-5.22 1.66-7.92 5.18-9.28 7.86-1.22 2.38-1.58 4.46-1.68 5.2h-.04c-.12 0-.2.06-.26.16-5.22 2.66-8.16 7.08-9.64 10.02-8.3-7.7-17.64-12.16-27.86-13.3l.36-.84c.4-.98.72-2.12.98-3.42.16.08.32.12.52.12.18 0 .38-.04.6-.12 1.36-.48 3-2.6 2.42-5.16-.12-.56-.3-1-.5-1.34 1.28-2.86 2.04-6.88 1.32-9.44-.9-3.12-5.34-4.9-5.34-4.9 1.78-7.12-2.22-11.58-12.48-7.58-10.24 4.02-9.36 8.46-9.36 8.46s-2.22 0-4.46 4.02c-1.9 3.42.74 9.12 1.56 10.72-.12.08-.26.16-.36.28-.52.52-.72 1.34-.56 2.42.16 1.06.58 1.9 1.14 2.54-.74 1.24-.82 4.04.6 7.98.46 1.24 1 2.32 1.58 3.28-2.28 1.4-5.28 3.6-8.28 6.8-2.46 2.62-19.86 22.06-20.62 26.06-.14.78-.22 1.7-.14 2.64-2.38-.04-4.62-.08-6.76-.12v-11.5h-3.34l2.86-8.58c.22-.64-.1-1.34-.72-1.62-.7-.3-1.52.06-1.76.8l-2.64 8.16-1.56-13.68-3.34.56 1.26 14.36h-3.6l-1.72-3.84.04-.14c.1-.26.06-.56-.1-.78-.16-.24-.44-.38-.72-.38h-1.94c-.12-2.36-1.2-3.08-2.12-3.26-.54-.1-1.12-.04-1.64.22-.9.42-1.56 1-1.96 1.68-.38-1.28-1.2-1.76-1.9-1.9-.54-.1-1.12-.04-1.64.22-.96.46-1.64 1.06-2.04 1.82-.38-1.38-1.22-1.88-1.94-2.02-.54-.1-1.12-.04-1.64.22-1.18.56-1.94 1.36-2.28 2.36-.08.24-.12.46-.14.68h-2.72c-.36 0-.66.2-.8.52l-6.84 15.04c-.04.08-.06.18-.06.26-2.98-.06-6.16-.12-9.62-.2h-.46l.02 9.82c-.1-.04-.2-.08-.32-.06-.32 0-.58.24-.62.54-.26 1.4-.76 3.96-1.52 6.56-.44-1.38-1-2.68-1.58-4.02-.3-.72-.62-1.44-.94-2.22-2.12-5.22-3.38-10.84-3.8-16.7l-.04-.52c-.16-2.14-.3-4.34.4-6.26.06-.2 0-.64-.14-.82-.12-.16-.3-.22-.48-.18-.4.08-1.08.24-4.6 15.02-1.58 6.6-2.14 11.08-2.08 14.52-.36-.24-.72-.46-1.08-.68-.72-.44-1.48-.9-2.16-1.46-.94-.78-1.8-1.78-2.7-3.16-1.24-1.86-2.3-4.04-3.24-6.62-.1-.28-.38-.44-.68-.38-.3.06-.48.32-.46.62 1.06 14.92 4.62 19.48 7.74 23.5 1.4 1.8 2.72 3.5 3.78 6 .7 1.66 1.14 3.34 1.38 4.98-.5-1.1-1.1-2.18-1.82-3.22-1.34-1.98-2.86-3.62-4.52-4.9-.88-.68-1.84-1.2-2.8-1.7-1.22-.64-2.36-1.26-3.3-2.18-1.16-1.12-2.14-2.58-2.82-4.2-.12-.28-.42-.42-.72-.36-.3.08-.48.36-.4615.66C28.9 203.74 34.72 208.9 38.56 212.32l.2.16c2.14 1.9 2.82 4.44 3 6.36h-6.28v30.12l7.1.14h2.14l.04.04.04-.04h12.46v1.42l12.7.94v.1H77l.04-9.06 16.7.88v3.14c-3.54.16-6.98 2.04-9.3 3.66-2.72 1.9-4.5 3.8-4.58 3.88l-.5.54.72.16c.08.02.2.04.36.08 4.36 1.08 9.7 1.62 15.82 1.62 7.62 0 15.3-1.98 15.38-2l.68-.18-.48-.52c-6.28-6.72-12.5-7.24-12.76-7.26h-.06v-2.9l36.12 1.92v8.42l12.38 1h.04l12.98-1.1v-8.34l52.58-4.36v8.18l6.78.1v.02l10.4-.68-.14-48.88 35.5-59.74c3.54-5.3 6.24-10.68 6.26-10.74l.02-.04.02-.06c1.02-4.44.7-7.82-.98-10.06zM57.12 218.8h-5.56c.38-1.24 1.18-2.96 2.8-5.14 1.06-1.4 1.98-3.58 2.74-6.24l.02 11.38zm-.32-38.2c.1.44.2.88.28 1.32l.02 21.96c-.78 4.06-1.96 7.38-3.38 9.28-1.78 2.38-2.62 4.26-3 5.62h-.52c1.1-4.04 3.28-12.26 4.26-16.82.86-4.04 1.2-7.88.96-11.44-.06-1-.2-1.92-.42-2.8.86-2.6 1.46-5.36 1.8-7.12zm-12.6-9.82c1.56-6.58 2.56-10.18 3.18-12.14-.14 1.42-.04 2.9.06 4.24l.04.5c.4 5.94 1.7 11.64 3.84 16.96.32.78.64 1.52.94 2.24 1.16 2.66 2.14 4.94 2.34 8 .22 3.48-.1 7.26-.96 11.22-1 4.64-3.24 13.06-4.32 17H47.3c1.68-7.28 1.52-13.62-.46-18.84-.66-1.76-1.34-3.26-1.94-4.58-2.68-5.92-4.3-9.5-.7-24.6zm-.9 31.84c-1.1-2.6-2.44-4.34-3.88-6.18-3.1-3.98-6.3-8.1-7.46-21.54.82 2.02 1.74 3.8 2.76 5.36.96 1.44 1.86 2.5 2.86 3.34.72.6 1.5 1.08 2.26 1.54.54.32 1.06.64 1.54 1 .24 3.96 1.4 6.5 2.8 9.6.62 1.38 1.28 2.8 1.92 4.54 1.94 5.12 2.08 11.34.4 18.54h-2.24c.74-3.28 1.66-9.94-.96-16.2zm-4.12 9.2l-.2-.16c-3.6-3.2-8.98-7.98-10.5-18.48.66 1.26 1.5 2.38 2.46 3.3 1.04 1 2.28 1.66 3.48 2.3.92.48 1.86 1 2.68 1.62 1.58 1.24 3.04 2.82 4.34 4.72 1.28 1.88 2.2 3.86 2.78 5.88.1 3.24-.38 6.06-.78 7.78h-.96c-.22-2.06-.94-4.86-3.3-6.96zm-2.98 7.82h20.92v2.88H36.2v-2.88zm0 3.4h20.92l.02 18.94-3.98 3.66-4.5-5.94-6.54 6.18-5.92-5.76v-17.08zm0 25.04v-3.56l3.58 3.64-3.58-.08zm6.28.12l-1.94-.04-4.32-4.4v-2.9l7.54 7.32h-1.28v.02zm2.04 0l-2-1.94 6.1-5.76 1.98 2.62-5.74 5.1-.34-.02zm1.12 0l3.26-2.9 2.28 2.9h-5.54zm6.2 0l-2.56-3.24 1.6-1.44 3.54 4.68h-2.58zm1.66-2.12l3.66-3.38v3.2l-2.18 2.16-1.48-1.98zm2.08 2.12l1.58-1.56v1.56h-1.58zm152.86-116.34l.24-.1v-.02c4.12-.1 21.94-.48 28.96.3h.04c.16 0 .28-.12.3-.28.02-.16-.1-.32-.26-.34-7-.78-24.66-.4-28.94-.3.28-1.78 1.98-9.48 10.28-12.14l45.28-1.26c-5.72 2.86-8.3 11.64-8.8 13.34-4.02 1.36-7.08 4.46-8.86 8.96-1.12 2.88-1.4 5.44-1.46 6.28-7.2 4.18-8.3 12.42-8.46 14.2-4.48 1.8-7.54 7.2-8.94 10.18-2.44 0-7.2-.02-13.6-.02.34-.3.64-.66.88-1.08.7-1.24.64-2.74-.16-4.46-1-2.16-2.62-5.36-4.9-9.02 2.26.02 10.74.16 15.58 1.06h.06c.14 0 .28-.1.3-.24.04-.16-.08-.32-.24-.36-5.24-.98-14.64-1.06-16.08-1.08-2.1-3.26-4.7-6.86-7.88-10.32-.66-.72-1.32-1.4-1.98-2.08 4.1.1 17.64.48 29.86 1.58h.02c.16 0 .28-.12.3-.28.02-.16-.1-.32-.28-.34-12.98-1.18-27.48-1.54-30.56-1.6-.18-.16-.34-.34-.52-.5 1.4-2.86 4.4-7.52 9.82-10.08zm-35.94-2.58c1.1.18 2.2.42 3.3.68 1.08.28 2.16.58 3.24.94 1.06.36 2.12.74 3.16 1.18 1.04.44 2.08.92 3.1 1.42 1.02.52 2.04 1.08 3.02 1.68 1 .6 2 1.24 2.96 1.92.98.68 1.94 1.42 2.88 2.16.96.78 1.9 1.58 2.8 2.4 1 .92 1.98 1.86 2.92 2.84.4.42.78.84 1.18 1.26 6.88 7.54 11.12 15.6 13.02 19.72.68 1.46.74 2.68.2 3.64-.38.68-1 1.16-1.68 1.52-9.14 0-21.3.04-34.72.14l-.4-9.12c2.84-.28 9.78-1.08 15.88-1.78.06.02.12.04.18.04.1 0 .18-.04.26-.1 5.6-.66 10.38-1.24 10.48-1.24.22-.02.38-.22.36-.46-.02-.22-.24-.38-.46-.36-.1.02-4.92.6-10.54 1.26l-8.72-9.58c-.16-.16-.4-.18-.58-.02-.16.16-.18.4-.02.58l2.18 2.4-1.58-.12c-.18-.02-.32.12-.32.28-.02.16.12.32.28.32l2.24.18 5.54 6.08c-3.16.36-6.48.76-9.32 1.08-.06-4.76-.76-5.28-1-5.44-.16-.12-.32-.14-.42-.12-2.3 0-4.02-.5-4.02-.92 0-.46.9-1.52 1.62-2.36 1.16-1.34 2.24-2.62 1.92-3.56-.48-1.42-5.08-9.94-7.6-14.34-1.34-2.32-2.32-3.66-3-4.44.76.1 1.54.22 1.66.24zm.62 4.6c2.76 4.78 7.12 12.92 7.54 14.18.16.5-1 1.88-1.78 2.78-.98 1.14-1.82 2.12-1.82 2.88 0 1.6 3.62 1.74 4.82 1.74.12.16.58.98.62 4.84-2.42.28-4.42.48-5.52.58l-.38.04.14 3c-.16 0-.32 0-.5.02l-3.86-19.6c.48 0 .88-.06 1.18-.16l.24-.1-3.52-10.72c-.06-.16-.12-.26-.18-.34-.04-.1-.1-.22-.16-.32-.26-.5-.5-1.12-.72-1.7-.12-.28-.22-.56-.34-.84.24-.4.48-.82.7-1.24.5.44 1.66 1.68 3.54 4.96zm-4.56 33.86c-.26.02-6.42.36-7.92 2.22-.16.2-.26.42-.32.64h-5.04c.1-.18.48-.64 1.94-1.32 3.26-1.52 13.96-4.2 19.3-4.36v5.68h-15.7c.04-.12.1-.22.18-.32.56-.68 2.02-1.26 4.26-1.66 1.72-.3 3.28-.38 3.3-.38.14 0 .24-.12.24-.26.02-.14-.08-.24-.24-.24zm-14.24 3.3c-.6 0-1.18.02-1.78.02l.32-.24-5.46-7.72c1.74-1.64 3.38-3.26 4.86-4.72-.12.88-.26 2.1-.34 2.88-.12 1.3 3.92 5.32 5.52 6.84-.24.1-.46.18-.64.28-1.7.78-2.52 1.5-2.56 2.24.02.16.04.3.08.42zm6.72-35.24c.48-.04.96-.1 1.44-.24 2.3-.62 4.42-2.32 6.08-4.84l.18.48c.2.52.42 1.06.64 1.54-.1.06-.2.14-.26.22-.12.14-.22.28-.34.44-1.4 1.8-3.5 4.48-7.62 4.8.16-.44.26-.78.28-1.02.02-.48-.14-.94-.4-1.38zm8.14-2.08c.12-.16.2-.26.3-.4.06-.06.12-.06.16-.04h.02c.12.28.22.52.28.78 0 0 .02 0 .02-.02l3.18 9.72c-2.12.48-8.82-1.6-9.92-2.48-.14-.1-.3-.16-.46-.14-.16.02-.32.1-.4.22l-4.7 5.38c-.2-.44-.4-.98-.56-1.6 1.56-2.2 3.04-4.7 3.8-6.4 4.52-.2 6.78-3.1 8.28-5.02zm-5.56 13.5c.42 1.8.9 3.84 1.42 5.94-.3.14-.5.42-.5.78 0 .48.38.86.86.86h.04c.54 2.12 1.1 4.2 1.62 5.98-.24.16-.42.44-.42.76 0 .5.4.9.9.9h.02c.36 1.12.7 2.04 1.02 2.66-1.68.34-3.36.74-4.96 1.14-1.36-3.28-5.18-18.12-5.46-19.22l4.3-4.92c.14.66.42 1.92.78 3.56-.26.14-.46.42-.46.74.02.42.38.8.84.82zm4.34 15.06c.28-.16.48-.44.48-.8 0-.5-.4-.9-.9-.9-.04 0-.06 0-.1.02-.52-1.76-1.08-3.84-1.62-5.96.24-.14.42-.42.42-.72 0-.46-.36-.82-.8-.84-.52-2.08-1-4.14-1.42-5.94.28-.14.48-.42.48-.76 0-.48-.38-.86-.86-.86-.44-1.92-.74-3.34-.84-3.82.02 0 .02-.02.04-.02s.04 0 .06.02c1.04.84 6.02 2.46 8.98 2.64v.1l3.86 19.56c-1.9.12-4.28.5-6.72.98-.32-.6-.68-1.54-1.06-2.7zm-10.56-14.92l.18.32.18-.2c.14.54.4 1.5.72 2.76-.74-1.1-1.7-2.2-2.74-3.24.32-.4.66-.84 1-1.3.18.66.4 1.24.66 1.66zm1.52 4.58c1.3 4.92 3.26 12.06 4.2 14.4-1.96.52-3.72 1.06-5.02 1.54-2.42-2.3-5.62-5.72-5.54-6.54.1-1.06.34-2.88.44-3.66.82-.84 1.6-1.62 2.28-2.32l3.64-3.42zm11.82-33.16l-.02 1.22c-.14.82-.22 1.66-.12 2.38-.26 1.6-.62 3.12-1.14 4.42-1.64 4.1-4.34 7-7.24 7.78-.66.18-1.34.24-2 .2-1.6-1.48-4.38-2.62-6.06-3.2-3.1-3.22-4.36-7.7-4.96-11.84l2.64-1.18c.14.56.46 1.52 1.16 2.28.62.66 1.46 1.04 2.36 1.04h.16c.96-.04 1.84-.52 2.4-1.28.5-.68.76-1.52.76-2.52v-.02c.66-.02 1.32-.04 2-.06 0 .04-.02.08 0 .12 0 .04.48 3.6 3.58 3.86h.16c.22 0 .42-.04.62-.1.76-.26 2.48-1.1 2.56-3.62l3.16.46c-.02.04-.02.06-.02.06zm-18.24-.38c.84-.06 3-.22 5.46-.32-.02.26-.04.54-.06.82-.1.5-.28.92-.54 1.28-.46.6-1.14.98-1.88 1-.74.04-1.46-.26-1.98-.82-.6-.62-.88-1.48-1-1.96zm8.84-.4c2.08-.02 4.1 0 5.56.18-.04 2.06-1.32 2.8-2.1 3.06-.16.06-.34.08-.52.06-1.04-.08-1.86-.64-2.4-1.66-.42-.8-.54-1.58-.54-1.58V118zm9.74 3.44s0-.02.02-.02c.18-.08.42-.3.66-.84v-.02c.02-.04.06-.08.08-.12v-.1c0-.02.02-.04.02-.06.52-1.46.34-2.94 1.44-3.22.04.02.1.02.14.04.4.18.72.74.92 1.64.5 2.28-.92 4.14-2.08 4.56-.32.12-.78.16-1-.28-.16-.38-.22-.92-.2-1.58zm-20.32-15.84c.9-.9 12.48-2.22 14.7-1.78 2.22.44 3.56 2.22 3.56 2.22 1.7 2.26 1.78 7.92 1.72 11.98l-3.46-.5c-1.02-.14-2.36-.22-3.8-.24.56-.12.94-.86.84-1.68-.12-.86-.7-1.48-1.3-1.4-.6.08-1.02.84-.9 1.68.1.72.52 1.26 1 1.38-1.5-.02-3.1.02-4.6.08-.02-1.68-.36-2.86-.38-2.92-.04-.14-.18-.22-.32-.18-.14.04-.22.18-.18.32 0 .02.34 1.18.36 2.8-1.36.06-2.62.12-3.62.18.5-.2.82-.88.72-1.64-.12-.86-.7-1.48-1.3-1.4-.6.08-1.02.84-.9 1.68.1.72.52 1.28 1.02 1.38-1.04.06-1.72.12-1.84.12h-.06l-2.92 1.3c-.06-.52-.12-1.02-.18-1.52-.22-7.04 1-11.02 1.84-11.86zm-5.54 15.56c-.14-.92 0-1.58.4-1.96.26-.26.58-.36.88-.4l.34.22c1.18 2.2 1.74 2.46 2 2.4.22.42.28.98.34 1.36.04.26-.04.54-.3.66-.02 0 .14.54.16.6.06.2.12.38.18.58.32 1.02 1.4 3.5 1.86 4.48-.32-.58-1.52-2.5-1.8-3.02-.86-1.7-1.18-2.72-1.84-2.98-.46-.18-.92-.08-1.28.24-.44-.54-.8-1.28-.94-2.18zm2.16 10.26c-1.54-4.22-1.16-6.72-.56-7.3.12-.1.18-.1.28-.08.32.12.96 1.38 1.46 2.38 1.18 2.32 2.76 4.44 5.02 5.72 3.94 2.22 6.9 3.58 6.84 4.98-.06 1.16-2.98 6.08-5.44 9.16-1.42-1.3-2.94-2.48-4.3-3.42l2.84-3.56-.48-.3c-.02-.02-1.9-1.2-3.68-3.74.02 0 .02-.02.04-.02-.06-.06-.1-.1-.14-.16-.14-.2-.26-.38-.38-.58h-.02c-.52-.86-1.06-1.9-1.48-3.08zm-7 11.04c2.92-3.12 5.88-5.28 8.12-6.66 1.38 2 2.82 3.22 3.56 3.76l-2.2 2.76c-.92-.6-1.72-1.06-2.32-1.34l-.5-.22-25.58 24.54c4-6.08 15.04-18.66 18.92-22.84zM120 168.08c0-.06.02-.1.04-.16l27.06-25.94c.52.76 1.42 2.6 2.98 4.32 2.5 2.76 5.18 4.36 7.54 5.3-.56.6-1.76 1.86-3.36 3.5l-15.68 14.68c-5.06 4.14-8.82 6.44-11.06 6.68-2.7.3-4.72-.26-6.02-1.68-1.68-1.82-1.86-4.76-1.5-6.7zm-17.42-22.82l1.76-.3 1.6 13.98h-2.14l-1.22-13.68zm8.82 14.5v2.26h-10.52l-1.04-2.26h11.56zm-7.78 8.2l-1.08-2.36h8.86v2.36h-7.78zm7.78.6v1.18h-6.96l-.54-1.18h7.5zm-9.14-3.58l-1.08-2.36h10.22v2.36h-9.14zm-4.8-9.04l6.32 14.06-9.6-.02 3.28-14.04zm-8.02-2.64c.28-.84.92-1.52 1.96-2 .4-.18.84-.24 1.26-.16.98.2 1.54 1.12 1.64 2.66h-4.9c0-.08-.02-.16-.02-.24.02-.08.04-.18.06-.26zm-5.52 0c.28-.84.92-1.52 1.96-2 .4-.18.84-.24 1.26-.16.92.18 1.48 1.02 1.62 2.38-.02.1-.04.18-.04.28h-4.9c.02-.16.06-.34.1-.5zm-5.62 0c.28-.84.92-1.52 1.96-2 .4-.18.84-.24 1.26-.16.98.2 1.54 1.12 1.64 2.66H78.2c.02-.16.06-.34.1-.5zm-3.44 1.4h2.72c.1 1 .52 1.78.54 1.82.06.1.16.16.26.16.04 0 .1-.02.14-.04.14-.08.2-.26.12-.42 0 0-.36-.66-.46-1.52h5c.1 1 .52 1.78.54 1.82.06.1.16.16.26.16.04 0 .1-.02.14-.04.14-.08.2-.26.12-.42 0 0-.36-.66-.46-1.52h4.9c.1 1 .52 1.78.54 1.82.06.1.16.16.26.16.04 0 .1-.02.14-.04.14-.08.2-.26.12-.42 0 0-.36-.66-.46-1.52h7.48l-3.56 15.26h-2.1c-.08 0-.16.04-.2.1-6.6-.12-13.74-.24-22.88-.42l6.84-14.94zm24.18 92.6c.3.02 5.94.64 11.68 6.48-2.06.48-8.28 1.8-14.46 1.8-5.9 0-11.04-.5-15.26-1.52 1.68-1.62 7.16-6.5 12.74-6.76v.88h5.3v-.88zm-4.38-50.56h3.54v.84h-3.62v-.86c.02.02.06.02.08.02zm-.08-.38v-1.66h3.62v1.64h-3.54c-.02 0-.06 0-.08.02zm3.62 2.24v48.74h-3.62V198.6h3.62zm-22.78-4.74v-8.06h40.6v8.08h-40.6v-.02zm71.8 60.16l-11.18-.9v-8.46l-37.02-1.96v-48h17.82v-9.76H74.58v9.76h19.16v47.7l-24.1-1.28v9.34l-11.58-.86-.1-79.26c3.5.08 6.74.14 9.74.2.1.04.2.06.3.06l25.22.54c.16 0 .3-.04.44-.12.88.02 1.76.02 2.64.04 6.84.12 13.82.24 22.76.4.22 1.42.76 2.84 1.78 3.94 1.26 1.36 3.04 2.04 5.34 2.04.46 0 .94-.02 1.44-.08 2.16-.24 5.46-2.1 9.86-5.54 3.04.06 6.28.12 9.74.2v82zm.26-82.88c-3.12-.06-6.04-.12-8.8-.18l.62-.58c2.1-1.74 4.44-3.8 6.98-6.16.2-.18.38-.36.56-.54l5.24 7.4-4.4.06h-.2zm72.44 77.42v-8.88l-1.58.14-58.68 4.86v8.34l-8.36.72v-18.5c0-.22-.18-.4-.4-.4-.22 0-.4.18-.4.4v18.58l-2.46.2v-82c38.52-.56 76.6-.4596 81.14-.44l.08 28.06-.04.06c.02.06.02.1.04.16l.14 48.06-9.48.64zm51.18-119.48c-.28.54-2.86 5.6-6.18 10.6l-34.74 58.46-.08-27v-.44h-1.14c1.46-2.98 4.38-7.9 8.46-9.34l.32-.12.02-.34c0-.1.54-9.58 8.2-13.84l.26-.14.02-.28c0-.12.56-11.72 9.9-14.68l.26-.08.08-.26c.04-.14 3.26-12.88 10.84-13.72.06 0 .12-.02.18-.06.78.22 1.92.76 2.82 1.96 1.44 1.98 1.72 5.12.78 9.28z" fill="#372A3E"/><path d="M149.34 144s.46 1.02 1.26 1.98c.96 1.16 2.44 1.98 2.44 1.98s5.86-6 6.26-10.56c.08-.92-.68-1.76-1.42-2.26-1.78-1.2-3.74-2.04-5.64-3-1.64-.84-2.58-2.44-3.2-4.06-1.06-2.8-1.52-3.88-2.1-2.6-.46 1-.34 2.62-.1 3.62.46 1.92.94 3.56 2.14 5.14.98 1.3 2.26 2.76 3.5 3.76.52.42 1.24.74.96 1.2-.28.48-.7 1.28-1.06 1.68-.16.16-3.04 3.12-3.04 3.12z" fill="#FFCCA9"/></g></g></svg>