<svg width="216" height="216" fill="none" xmlns="http://www.w3.org/2000/svg"><circle cx="110.117" cy="103.62" r="74.261" fill="#F9DED9"/><path d="m148.277 105.941 5.256-1.455-2.203-3.009m-87.279-5.329 19.8-12.082 1.685 11.405-15.768 9.735c-.014.014-6.063-9.39-5.717-9.058Z" fill="#fff"/><path d="m137.03 94.591-7.977 11.967-2.88-12.125c-.26.072-.548.028-.864-.116-.303-.13-.461-.518-.461-.82-.015-.447.029-.879.072-1.325.029-.346.129-.835-.029-1.152-.288-.576-1.195-.691-1.742-.806-1.829-.36-3.644-.706-5.444-1.167-3.96-1.037-7.747-2.592-11.707-3.6a.816.816 0 0 1-.518-.346l-4.003-.964 5.328 17.741-4.234 19.944 23.918 5.068 13.954 1.455 3.989-18.663 8.568-8.726-15.97-6.365Z" fill="#fff"/><path d="m105.725 85.55-.087-.13c-.158 0-.302-.015-.461-.015h-.028l.576.144Z" fill="#3B3B3B"/><path fill="#fff" d="M96.48 124.859h36.605v23.933H96.48zm2.318 23.934h36.691v31.896H98.798zM60.696 93.137l12.082 6.71L85.19 92.13l12.744 3.355-7.718 6.034 10.411 16.776-33.897 20.808-16.114-26.165-11.074-5.04 21.154-14.76ZM30.485 176.93v-31.996l14.112.878h21.456v32.818l-21.514.244-14.054-1.944Z"/><path d="M92.563 125.352H53.64v31.204l12.485-.216c-.173 3.269.057 23.04.057 23.04h24.754s.288-22.651.288-23.472l1.34-.028v-30.528Zm47.995 52.528v-36.763h26.525l17.093-2.578v35.107l-17.28 4.781-26.338-.547ZM126.792 61.918s1.008 5.04 1.339 7.042c.288 1.685-.331 4.032 1.008 3.686 1.339-.33 1.685-1.008 2.679 0 .993 1.008 4.363 3.355 7.718-.677l2.347 2.348 2.679-4.363s-1.685-1.008-2.016-2.016c-.332-1.008-3.356-9.735-7.388-9.735-4.003.029-8.697 2.045-8.366 3.715Z" fill="#fff"/><path d="M151.56 178.4s-7.042 2.779-7.042 4.882c0 2.088 12.759.691 13.09 0 .331-.691-.331-5.227-.331-5.227l-5.717.345Zm22.55-1.5s-7.041 2.779-7.041 4.882c0 2.088 12.758.691 13.089 0 .332-.691-.331-5.227-.331-5.227l-5.717.345Zm-59.011-52.228h.576v24.163h-.576z" fill="#3B3B3B"/><path d="M127.469 62.594s1.339 6.379 1.339 7.387 0 2.347 1.008 1.685c1.008-.677 2.016 0 2.678.677.677.676 3.356 2.678 6.711-1.008l.331-.677 2.678 3.024 2.016-3.356-1.339-1.007s-2.678.676-4.694-2.348c0 0 .677-2.347-.331-3.355s-1.008 2.678-1.008 2.678-1.34.677-2.016-.676c-.677-1.34-1.685-3.687-4.695-2.679.015-.014-1.67.331-2.678-.345Z" fill="#FFCCA9"/><path d="M128.808 64.811a.184.184 0 0 1-.144-.058c-.072-.072-.072-.201 0-.288.014-.014 1.123-1.094 2.578-.374.1.043.144.173.086.274-.058.1-.173.144-.274.086-1.195-.605-2.116.288-2.116.302a.183.183 0 0 1-.13.058Z" fill="#3B3B3B"/><ellipse cx="130.516" cy="66.501" rx=".504" ry="1.008" transform="rotate(-32.737 130.516 66.501)" fill="#3B3B3B"/><path d="M132.84 71.522a.164.164 0 0 1-.115-.043.203.203 0 0 1-.043-.274c.014-.014 1.123-1.454 2.923-.734.101.043.158.158.115.26-.043.1-.158.158-.259.114-1.512-.604-2.419.562-2.448.605a.3.3 0 0 1-.173.072Zm1.008 1.008c-.029 0-.058 0-.086-.014a.195.195 0 0 1-.087-.274c.144-.288.663-.749 1.584-.432.101.029.159.144.13.26-.029.1-.144.158-.259.129-.836-.274-1.095.23-1.095.23a.245.245 0 0 1-.187.101Z" fill="#3B3B3B"/><path d="M133.848 90.445s-13.09-4.032-16.445-5.37c0 0-2.347-2.348-6.033-2.68-3.687-.33-8.05 1.686-6.711 2.68 1.339 1.007 11.751 4.362 11.751 4.362s13.089 7.719 17.452 7.388c0 0 2.016-1.008 3.356-3.025l-3.37-3.355Z" fill="#fff"/><path d="m133.848 91.453-17.122-5.703s-3.024-2.347-5.371-2.347c-1.958 0-3.686-.23-4.795.475a.68.68 0 0 0-.043 1.123c.201.159.461.303.806.418.447.144 4.45 1.296 8.395 3.024 4.983 2.189 10.066 5.04 10.066 5.04s4.363 2.016 7.387 2.347c0 0 1.685-.677 2.347-1.339l-1.67-3.038Z" fill="#FFCCA9"/><path d="M144.59 68.974c-.446-.173-8.049 15.768-11.404 21.14 0 0 3.024 5.37 3.686 6.71 0 0 4.363-4.364 6.034-7.042 0 0 15.105 21.139 19.123 24.494 0 0 13.752-14.428 14.429-16.444 0 0-19.124-23.832-31.868-28.858Z" fill="#fff"/><path d="m144.706 70.716-10.008 18.706a.775.775 0 0 0-.015.69l1.685 3.385a.756.756 0 0 0 1.224.187l4.824-4.925a.765.765 0 0 1 1.166.072c2.52 3.514 13.997 18.835 18.49 23.112a.767.767 0 0 0 1.008.043c2.146-1.742 8.899-9.057 11.995-14.155.159-.259.101-.59-.086-.806-2.592-3.197-21.687-24.97-29.578-26.698-.273-.072-.561.13-.705.389Z" fill="#E78470"/><path d="M101.261 151.832v26.165h31.925v-25.776l-12.946-.072.043 6.278-8.078-.072v-6.422l-10.944-.101Zm-28.843 7.242v16.431h15.508v-16.258c.015 0-15.321.014-15.508-.173ZM55.7 127.684v15.35h12.297v10.138h21.686v-13.004l-4.91-.057.057-5.112 4.868-.274v-6.523c-.015.014-33.999-.346-33.999-.518Z" fill="#F8C4B9"/><path d="M171.691 131.628c-.029 0-.057 0-.072-.015-.072-.043-.086-.129-.043-.201.072-.116 7.258-12.039 9.187-20.175.015-.072.101-.129.173-.101.072.015.13.101.101.173-1.93 8.165-9.144 20.131-9.216 20.261a.216.216 0 0 1-.13.058Z" fill="#F9CCAB"/><path d="M43.488 137.287c-.072 0-.158-.043-.187-.115-7.244-14.155-7.488-28.656-7.488-28.8 0-.115.1-.216.216-.216.115 0 .216.101.216.216 0 .144.245 14.559 7.445 28.613.057.101.014.23-.101.288-.03.014-.058.014-.101.014Zm134.784-62.929a.218.218 0 0 1-.202-.144c-3.34-10.224-11.692-19.181-11.779-19.268a.209.209 0 0 1 .015-.302.208.208 0 0 1 .302.014c.086.087 8.496 9.116 11.88 19.426.043.115-.029.23-.144.274h-.072ZM46.54 138.036a.226.226 0 0 1-.186-.116c-2.103-3.801-4.493-10.31-4.508-10.382-.043-.115.015-.23.13-.274.115-.043.23.015.274.13.028.072 2.39 6.538 4.492 10.325.058.101.015.23-.086.288-.043.014-.086.029-.115.029Z" fill="#3B3B3B"/><path fill-rule="evenodd" clip-rule="evenodd" d="m180.288 138.771 4.248-.648h.029v35.813L180 175.203v1.57l-6.134.518-.011-.072-.013-.079c-.012-.074-.026-.153-.034-.238l-6.854 1.901h-.058l-26.698-.561v-37.484h16.373c1.824-10.237 4.704-23.155 5.339-26.003v-.003l.032-.144-.115-.086c-1.598-1.34-4.881-5.386-8.294-9.821l-5.112 1.411-3.687 3.758-4.032 18.879-7.257-.749v20.419h2.39v32.616H98.424v-31.896H96.12v-24.653h17.251l-11.232-2.376 4.291-20.217-5.486-18.26 3.154.764c0-.029 0-.043.014-.072.346-.893 2.002-1.512 2.693-1.743 1.497-.49 3.168-.69 4.593-.561 3.514.317 5.818 2.361 6.207 2.736 2.851 1.137 12.312 4.09 15.379 5.04 1.728-2.808 4.493-8.18 6.926-12.931.303-.578.6-1.155.887-1.714v-.001l.001-.001v-.001l.48-.933-1.699-1.7c-1.195 1.34-2.52 2.046-3.917 2.103-1.67.072-3.196-.82-4.075-1.699-.561-.562-.749-.49-1.382-.23l-.079.03c-.244.096-.536.21-.886.3-.36.087-.648.03-.878-.143-.49-.375-.49-1.224-.49-2.218 0-.561 0-1.123-.086-1.627-.303-1.786-1.138-6.02-1.311-6.883-.691-.375-1.627-.98-2.361-1.901-1.354-1.685.331-4.694 2.678-5.371 0 0 .677 0 1.685-1.34 1.008-1.353 3.701-1.684 5.04-.676 0 0 3.024-2.016 5.702 0 2.679 2.001 2.347 3.686 2.347 3.686s3.356 1.008 2.679 5.371a96.614 96.614 0 0 1-1.167 6.264c.216.346.576.677.922.95.23-.345.418-.56.691-.46 5.328 2.102 12.341 7.618 20.837 16.387 6.307 6.523 11.131 12.514 11.174 12.571l.116.144-.058.173c-.043.144-.158.346-.317.59 4.738 5.257 5.357 13.882 4.378 27.505-.245 3.254-.403 7.747-.533 12.729Zm-29.606 38.966c.46-2.534 3.398-19.123 4.636-29.073.26-2.031.648-4.493 1.109-7.186h-15.523v36.058l9.778.201Zm-11.16-106.286-.26.302c-1.137 1.353-2.361 2.073-3.657 2.145-1.858.087-3.269-1.224-3.528-1.497-.475-.475-.864-.634-1.239-.634-.316 0-.604.115-.921.245l-.031.013c-.237.097-.502.207-.833.29a1.891 1.891 0 0 0-.035.006c-.081.014-.174.031-.224-.007-.216-.172-.216-.993-.216-1.655 0-.577 0-1.181-.087-1.743-.259-1.555-.921-4.94-1.209-6.38l.187.073c.921.151 1.843.023 2.7-.097 1.017-.141 1.944-.27 2.671.097.749.378 1.188 1.068 1.602 1.72.327.515.639 1.006 1.076 1.304 1.008.677 1.008-.331 1.008-1.34 0-1.007.677-2.678 1.685-1.339 1.008 1.34.331 3.687.331 3.687 1.181 2.06 3.644 2.318 4.234 2.347.274.302.576.576.864.792l-.145.257c-.176.31-.384.68-.618 1.125l-.366.698c-.273.52-.574 1.09-.887 1.707l-2.102-2.116Zm-29.016 11.275c-2.765 0-5.458 1.167-5.732 1.872l-.002.006c-.014.043-.034.101.103.225.115.086.303.187.562.317.374-.39 1.814-1.556 5.313-1.153.101.015.188.101.173.217-.014.1-.101.187-.216.172-3.053-.345-4.435.547-4.881.936a36.25 36.25 0 0 0 1.687.69h.001l.04.016c.403-.302 1.454-.706 4.089-.374.115 0 .187.1.173.215 0 .116-.101.188-.216.173-2.102-.273-3.096-.043-3.557.159 2.794 1.05 6.639 2.332 8.482 2.923l.043.014.029.015c.129.086 12.888 7.574 17.165 7.344l.056-.034c.276-.163 1.013-.6 1.787-1.32a304.99 304.99 0 0 0-2.52-4.536c-2.722-.835-12.903-4.017-15.797-5.17l-.072-.028-.058-.058c-.014-.014-2.304-2.26-5.817-2.578a8.33 8.33 0 0 0-.835-.043Zm25.099 13.335-6.408 9.604-2.506-10.512c2.664 1.152 5.213 2.03 6.855 2.03.1 0 .216 0 .302-.014h.072l.058-.028c.086-.015.777-.375 1.627-1.08Zm-31.363-10.872-2.261-.547 5.083 16.948 21.528 4.623-2.722-11.42c-4.536-2.044-9.1-4.708-9.633-5.025l-.091-.03c-1.255-.41-10.403-3.398-11.717-4.376a.727.727 0 0 1-.145-.129 1.659 1.659 0 0 0-.042-.044Zm-1.268 36.373 4.119-19.368 21.398 4.594-2.952 17.726h-8.712l-13.853-2.952Zm-6.134 3.658v23.213h35.885V125.22H96.84Zm38.29 23.933v31.176H99.158v-31.176h13.709v7.503h6.783v-7.503h15.48Zm4.996-21.182 3.946-18.447.072-.072-14.904-2.534-.259.389-2.866 17.193h7.33v2.78l6.681.691Zm4.508-19.022-15.048-2.564 6.681-10.022c.13.245.231.446.303.59l.201.404.317-.317c.058-.058.634-.634 1.426-1.469l11.635 4.651c.158.216.32.432.482.648.162.216.324.432.483.648a.11.11 0 0 0 .028.072l.303.403-6.811 6.956Zm-1.714-18.605c-.994 1.469-2.606 3.298-3.874 4.666l10.282 4.118a764.847 764.847 0 0 1-6.407-8.783h-.001v-.001Zm6.106 15.163 2.851-2.909 1.281 1.757-4.132 1.152Zm9.115 72.375 8.712.187.144-.058h-.216v-36.547h-.159c-1.08 2.419-2.044 4.853-2.577 6.84-1.527 5.717-5.271 26.078-5.904 29.578Zm8.813-37.123c2.246-4.925 4.809-9.504 4.809-9.504s.101 3.585.259 8.755l-4.968.749h-.1Zm.403.677v36.504l6.35-1.772c-.648-6.048-1.296-24.148-1.656-35.438l-4.694.706Zm7.531-41.861-7.128 8.092a446.876 446.876 0 0 1-5.746 6.149c-1.857-1.67-5.63-6.437-9.316-11.289-.555-.639-1.011-1.27-1.518-1.971-.19-.263-.387-.536-.599-.823a.526.526 0 0 1-.101-.144 732.01 732.01 0 0 1-6.775-9.247c-.188-.26-.331-.46-.425-.588l2.549-3.067c.029.014.057.014.072.014.029 0 .043 0 .072-.014.72-.188 2.765-.59 3.528-.346.158.043.317-.029.36-.187.043-.144-.029-.317-.187-.36-.792-.26-2.42.014-3.298.201l1.742-2.088a.28.28 0 0 0-.043-.403.28.28 0 0 0-.403.043l-4.723 5.732-.058-.087-.259.418c-1.382 2.203-4.651 5.63-5.688 6.667-.808-1.532-2.788-5.072-3.347-6.07v-.002l-.051-.091c1.653-2.678 4.213-7.65 6.561-12.21l.379-.736.297-.576c1.702-3.31 3.375-6.563 3.865-7.257 11.995 4.881 29.794 26.51 31.435 28.54-.173.36-.59.95-1.195 1.7Zm5.083 74.865 3.845-1.066v-34.416l-3.542.533c-.317 13.017-.317 29.045-.303 34.949Z" fill="#3B3B3B"/><path d="M61.344 87.06a.185.185 0 0 1-.144-.058l-5.213-4.867a.223.223 0 0 1-.014-.303.223.223 0 0 1 .302-.014l5.213 4.867a.223.223 0 0 1 .014.302.231.231 0 0 1-.158.073Zm2.952-.476a.185.185 0 0 1-.144-.058l-4.522-4.262a.223.223 0 0 1-.014-.303.223.223 0 0 1 .302-.014l4.522 4.262a.223.223 0 0 1 .014.303.231.231 0 0 1-.158.072Zm48.384-8.339c-.115 0-.216-.086-.216-.201l-.259-7.488c0-.115.086-.216.201-.216.115 0 .216.086.216.201l.259 7.488c.029.116-.072.216-.201.216.014 0 .014 0 0 0Zm2.995 1.642c-.115 0-.216-.086-.216-.201l-.259-5.026c0-.115.086-.216.202-.23.115 0 .216.086.23.201l.259 5.026c0 .13-.086.23-.216.23Z" fill="#3B3B3B"/><path d="m151.848 102.844-2.347 2.318 3.24-.878-.893-1.44Z" fill="#FFCCA9"/><path d="M150.955 181.021c-.043 0-.086-.029-.115-.058-.533-.806-1.858-1.123-1.872-1.123-.072-.015-.13-.101-.101-.173.015-.072.101-.13.173-.101.058.015 1.454.346 2.045 1.253.043.072.029.158-.043.202-.029-.015-.058 0-.087 0Zm22.767-.993a.132.132 0 0 1-.116-.057c-.993-1.195-2.275-1.296-2.289-1.296a.138.138 0 0 1-.13-.159c0-.072.072-.129.159-.129.057 0 1.425.115 2.491 1.397.057.057.043.158-.015.201a.152.152 0 0 1-.1.043Z" fill="#F8C4B9"/><path d="M70.229 157.766h-4.004c-.086 0-.143-.058-.143-.144 0-.087.057-.144.144-.144h4.003c.086 0 .144.057.144.144a.145.145 0 0 1-.144.144Z" fill="#3B3B3B"/><path d="M114.48 156.584a.222.222 0 0 1-.216-.216v-7.257c0-.116.101-.216.216-.216.115 0 .216.1.216.216v7.257c0 .13-.086.216-.216.216Zm-66.773 7.544a.222.222 0 0 1-.216-.216v-4.766c0-.116.101-.216.216-.216.115 0 .216.1.216.216v4.766c0 .115-.1.216-.216.216Zm44.741-27.288h-5.645c-.086 0-.144-.058-.144-.144s.058-.144.144-.144h5.645c.086 0 .144.058.144.144s-.058.144-.144.144Z" fill="#F9CCAB"/><path fill-rule="evenodd" clip-rule="evenodd" d="m101.117 118.423-10.426-16.805 8.035-6.293-13.392-3.528-1.224-8.309-19.094 11.65-4.363-2.42-21.83 15.25 11.548 5.256 7.243 11.779H53.28v20.477h-8.683l-14.472-.907v32.688l14.357 1.987h.028l21.312-.245v.749h25.474v-.36c.006-.362.048-3.848.1-8.029v-.079c.073-5.956.163-13.284.188-15.004l.994-.014h.36v-31.277h-2.506l10.397-6.379.288-.187ZM85.262 92.517l11.895 3.124-7.114 5.573-16.272-1.57 11.477-7.127h.014Zm-.619-.49-1.08-7.373-17.827 10.872 7.013 3.888 11.894-7.387Zm-44.366 15.798 8.481-5.919 3.543 1.296 4.032-2.678-3.384-1.54 7.761-5.43 11.405 6.337-21.441 12.671-10.397-4.737Zm32.371-7.575-21.571 12.744 7.387 11.995h27.389L72.648 100.25Zm-6.955 78.034-21.14.245-13.708-1.901v-31.305l13.507.849c0 .008-.004.018-.007.029a.116.116 0 0 0-.007.029v32.011c0 .13.1.231.23.231s.23-.101.23-.231v-14.184l4.68-.101v-4.838h-4.68v-12.931h9.072a.523.523 0 0 1 .13.057v-.057h11.693v32.097Zm.85.735H90.59c.014-1.335.074-6.177.134-11.088.062-5.101.125-10.278.14-11.679l-.187.002-.661.009c-1.762.022-5.218.066-8.944.09v3.384h-4.55v-3.355c-2.564.014-4.695.014-6.322 0-2.174-.015-3.211-.043-3.73-.087-.043.735-.057 2.65-.057 5.184v.634c.014 4.838.072 11.621.13 16.906Zm25.66-53.309v9.691h-5.745v4.32h5.745v15.811l-.619.015v-.015h-.36c-9.288.115-23.27.231-24.797.043v-10.108H54V125.71h4.06l.015.014.015-.014h34.113Zm-5.976-.721h2.808l11.074-6.811-10.167-16.402-16.69-1.598 13.177 24.696-.202.115Z" fill="#3B3B3B"/><path d="M77.962 159.824c-.087 0-.144-.058-.144-.144v-3.298c0-.086.057-.144.144-.144.086 0 .144.058.144.144v3.298a.136.136 0 0 1-.144.144Z" fill="#F9CCAB"/><path d="M132.898 180.889c-.087 0-.144-.057-.144-.144v-8.956c0-.087.057-.144.144-.144.086 0 .144.057.144.144v8.956a.145.145 0 0 1-.144.144ZM89.107 65.36c-1.512-3.038-1.8-5.025-1.224-7.084.547-1.958 1.872-3.168 3.053-4.234.993-.907 1.843-1.684 2.246-2.865.663-1.944.303-4.234-.921-5.846-.677-.879-1.872-1.901-3.83-1.772-2.261.144-4.249 1.325-5.156 3.096-.547 1.051-.922 2.722.346 4.767l-4.104 1.584c-1.83-2.952-1.743-5.501-.245-8.41 1.627-3.168 5.04-5.285 8.87-5.53 1.584-.1 3.068.188 4.436.85a8.924 8.924 0 0 1 3.24 2.678c1.036 1.354 1.728 2.996 2.03 4.752a10.754 10.754 0 0 1-.418 5.285c-.777 2.29-2.275 3.644-3.485 4.752-.95.879-1.555 1.44-1.742 2.131-.26.908.1 2.348 1.051 4.263l-4.147 1.584Z" fill="#3B3B3B"/><circle cx="93.168" cy="68.645" r="2.794" fill="#3B3B3B"/><path d="M97.646 55.597a.206.206 0 0 1-.144-.057.209.209 0 0 1-.014-.303c3.283-3.7 1.123-9.403 1.109-9.46-.043-.101.014-.231.115-.274.1-.043.23.014.274.115.028.058 2.26 6.005-1.181 9.893a.199.199 0 0 1-.159.086Z" fill="#3B3B3B"/><path d="M54.778 101.346c-.015 0-.044 0-.058-.014l-3.226-1.527c-.072-.028-.1-.115-.072-.187.03-.072.116-.1.188-.072l3.225 1.527c.072.028.101.115.072.187-.029.057-.072.086-.13.086Z" fill="#F9CCAB"/><path d="M176.328 177.434c-1.44 0-2.462-.245-2.477-.259-.072-.014-.129-.101-.101-.173.015-.072.101-.129.173-.101.029.015 2.995.735 5.976-.345.072-.029.159.014.187.086.029.072-.014.159-.086.187-1.31.461-2.606.605-3.672.605Zm-22.395 1.524c-1.44 0-2.462-.245-2.477-.259-.072-.015-.129-.101-.101-.173.015-.072.101-.13.173-.101.029.014 2.995.734 5.976-.346.072-.028.159.015.187.087.029.072-.014.158-.086.187-1.31.461-2.606.605-3.672.605Z" fill="#F8C4B9"/></svg>