<svg width="760" height="9" viewBox="0 0 760 9" fill="none" xmlns="http://www.w3.org/2000/svg">
<path fill-rule="evenodd" clip-rule="evenodd" d="M0 8.00098L8.06642 0L16.1328 8.00098H0ZM489.897 8.43777L490.235 8.10266L482.066 0L474 8.00098H489.897V8.43777ZM473.867 8.00098L465.801 0L457.734 8.00098H473.867ZM457.5 8.00098L449.434 0L441.367 8.00098H457.5ZM441.133 8.00098L433.066 0L425.117 7.88473L417.168 0L409.102 8.00098H441.133ZM408.867 8.00098L400.801 0L392.734 8.00098H408.867ZM392.5 8.00098L384.434 0L376.367 8.00098H392.5ZM376.133 8.00098L368.066 0L360 8.00098H376.133ZM359.797 8.00098L351.73 0L343.664 8.00098H359.797ZM343.43 8.00098L335.363 0L327.297 8.00098H343.43ZM327.063 8.00098L318.996 0L310.93 8.00098H327.063ZM310.695 8.00098L302.629 0L294.562 8.00098H310.695ZM294.328 8.00098L286.262 0.000116733L278.195 8.00098H294.328ZM277.965 8.00098L269.898 0.000116733L261.832 8.00098H277.965ZM261.598 8.00098L253.531 0.000116733L245.465 8.00098H261.598ZM245.23 8.00098L237.164 0.000116733L229.098 8.00098H245.23ZM228.867 8.00098L220.801 0.000116733L212.734 8.00098H228.867ZM212.5 8.00098L204.434 0.000116733L196.367 8.00098H212.5ZM196.133 8.00098L188.066 0.000116733L180 8.00098H196.133ZM179.797 8.00098L171.73 0L163.664 8.00098H179.797ZM163.43 8.00098L155.363 0L147.297 8.00098H163.43ZM147.063 8.00098L138.996 0L130.93 8.00098H147.063ZM130.695 8.00098L122.629 0L114.562 8.00098H130.695ZM114.328 8.00098L106.262 0L98.1953 8.00098H114.328ZM97.9649 8.00098L89.8985 0L81.832 8.00098H97.9649ZM81.5977 8.00098L73.5313 0L65.4648 8.00098H81.5977ZM65.2305 8.00098L57.1641 0L49.0977 8.00098H65.2305ZM48.8672 8.00098L40.8008 0L32.7344 8.00098H48.8672ZM32.5 8.00098L24.4336 0L16.3672 8.00098H32.5Z" fill="white"/>
</svg>
