<svg width="48" height="48" viewBox="0 0 48 48" fill="none" xmlns="http://www.w3.org/2000/svg">
<path fill-rule="evenodd" clip-rule="evenodd" d="M25.1093 0.910251C24.7349 -0.303417 23.0169 -0.303417 22.6425 0.910251C22.3076 1.99575 20.835 2.15052 20.2817 1.15838C19.6632 0.0490793 17.9827 0.406262 17.8688 1.67126C17.7669 2.80266 16.3587 3.26023 15.6113 2.40479C14.7755 1.44834 13.2061 2.1471 13.3577 3.40814C13.4933 4.536 12.2109 5.27636 11.302 4.59502C10.2857 3.83323 8.89581 4.84301 9.30626 6.04498C9.67336 7.12001 8.57298 8.1108 7.54221 7.63333C6.38973 7.09949 5.2402 8.37618 5.89158 9.46654C6.47418 10.4418 5.60384 11.6397 4.49632 11.3869C3.25804 11.1044 2.39906 12.5922 3.26291 13.5233C4.03553 14.3561 3.43327 15.7088 2.29742 15.6918C1.02745 15.6729 0.496569 17.3068 1.53513 18.0379C2.46401 18.6918 2.15615 20.1402 1.0416 20.3598C-0.204561 20.6053 -0.384138 22.3139 0.783741 22.8131C1.82829 23.2596 1.82829 24.7403 0.783741 25.1869C-0.384138 25.6861 -0.204561 27.3946 1.0416 27.6402C2.15615 27.8598 2.46401 29.3081 1.53513 29.9621C0.496569 30.6932 1.02745 32.3271 2.29742 32.3081C3.43327 32.2912 4.03553 33.6439 3.26291 34.4767C2.39906 35.4078 3.25804 36.8956 4.49632 36.613C5.60384 36.3603 6.47418 37.5582 5.89158 38.5334C5.2402 39.6238 6.38973 40.9005 7.54221 40.3666C8.57298 39.8892 9.67336 40.88 9.30626 41.955C8.89581 43.157 10.2857 44.1667 11.302 43.4049C12.2109 42.7236 13.4933 43.464 13.3577 44.5918C13.2061 45.8529 14.7755 46.5516 15.6113 45.5952C16.3587 44.7397 17.7669 45.1973 17.8688 46.3287C17.9827 47.5937 19.6632 47.9509 20.2817 46.8416C20.835 45.8494 22.3076 46.0042 22.6425 47.0897C23.0169 48.3034 24.7349 48.3034 25.1093 47.0897C25.4442 46.0042 26.9168 45.8494 27.4701 46.8416C28.0887 47.9509 29.7691 47.5937 29.883 46.3287C29.9849 45.1973 31.3931 44.7397 32.1406 45.5952C32.9763 46.5516 34.5457 45.8529 34.3941 44.5918C34.2586 43.464 35.5409 42.7236 36.4499 43.4049C37.4662 44.1667 38.856 43.157 38.4456 41.955C38.0785 40.88 39.1788 39.8892 40.2096 40.3666C41.3621 40.9005 42.5116 39.6238 41.8602 38.5334C41.2776 37.5582 42.148 36.3603 43.2555 36.613C44.4938 36.8956 45.3528 35.4078 44.4889 34.4767C43.7163 33.6439 44.3186 32.2912 45.4544 32.3081C46.7244 32.3271 47.2553 30.6932 46.2167 29.9621C45.2878 29.3081 45.5957 27.8598 46.7102 27.6402C47.9564 27.3946 48.136 25.6861 46.9681 25.1869C45.9235 24.7403 45.9235 23.2596 46.9681 22.8131C48.136 22.3139 47.9564 20.6053 46.7102 20.3598C45.5957 20.1402 45.2878 18.6918 46.2167 18.0379C47.2553 17.3068 46.7244 15.6729 45.4544 15.6918C44.3186 15.7088 43.7163 14.3561 44.4889 13.5233C45.3528 12.5922 44.4938 11.1044 43.2555 11.3869C42.148 11.6397 41.2776 10.4418 41.8602 9.46654C42.5116 8.37618 41.3621 7.09949 40.2096 7.63333C39.1788 8.1108 38.0785 7.12001 38.4456 6.04498C38.856 4.84301 37.4662 3.83323 36.4499 4.59502C35.5409 5.27636 34.2586 4.536 34.3941 3.40814C34.5457 2.1471 32.9763 1.44834 32.1406 2.40479C31.3931 3.26023 29.9849 2.80266 29.883 1.67126C29.7691 0.406262 28.0887 0.0490793 27.4701 1.15838C26.9168 2.15052 25.4442 1.99575 25.1093 0.910251ZM19.1214 29.6305C19.565 30.0758 20.1535 30.3208 20.7774 30.3208H20.7916C21.4207 30.3155 22.011 30.0633 22.4529 29.6127L32.1045 19.7179C32.5658 19.2548 32.5676 18.5001 32.1081 18.0333C31.6468 17.563 30.9027 17.563 30.4414 18.028L20.7756 27.937L17.301 24.4677C16.8397 24.0045 16.0939 24.0081 15.6361 24.4748C15.1784 24.947 15.1837 25.7016 15.6467 26.163L19.1214 29.6305Z" fill="white"/>
</svg>
