<svg xmlns="http://www.w3.org/2000/svg" width="98" height="60" viewBox="0 0 98 60" fill="none">
  <path opacity="0.8" fill-rule="evenodd" clip-rule="evenodd" d="M19.9141 11.1486C20.9137 8.00458 21.8439 6.04708 22.7033 5.27533C25.0832 3.13933 28.3737 4.30183 29.0733 4.46833C31.5308 5.05483 30.7317 1.19533 32.8403 0.410829C34.2454 -0.111921 35.4011 0.527079 36.3079 2.32783C37.1108 0.647829 38.3343 -0.121671 39.9784 0.0155795C42.445 0.223329 43.3082 8.51158 46.6975 6.69733C50.0875 4.88233 54.2435 4.46758 56.0188 7.16458C56.4025 7.74808 56.5495 6.84283 59.1593 3.75208C61.7691 0.660579 64.3714 -0.701421 69.7101 1.09858C72.1375 1.91608 74.1337 4.13233 75.7009 7.74658C75.7009 12.9051 79.5154 15.9591 87.1428 16.9063C98.5854 18.3276 89.7036 30.5668 75.7009 34.1511C61.6975 37.7361 29.4577 39.6711 11.9625 30.6141C0.298974 24.5773 2.9495 18.0883 19.9133 11.1486H19.9141Z" fill="url(#paint0_linear_1673_36929)"/>
  <path d="M48.6053 56.7326C60.2574 56.7326 69.7032 54.5574 69.7032 51.8741C69.7032 49.1908 60.2574 47.0156 48.6053 47.0156C36.9533 47.0156 27.5074 49.1908 27.5074 51.8741C27.5074 54.5574 36.9533 56.7326 48.6053 56.7326Z" fill="url(#paint1_linear_1673_36929)"/>
  <path opacity="0.675" fill-rule="evenodd" clip-rule="evenodd" d="M84.2246 57.9356C68.3614 61.8941 14.2149 57.3664 8.45177 55.2986C5.64671 54.2914 3.11831 52.3976 0.867321 49.6166C0.615386 49.3057 0.457028 48.9301 0.410548 48.5334C0.364069 48.1367 0.431363 47.735 0.604656 47.3747C0.777949 47.0145 1.05017 46.7103 1.38985 46.4975C1.72954 46.2846 2.12283 46.1717 2.52428 46.1719H97.1425C99.1063 51.3754 94.8003 55.2964 84.2246 57.9356Z" fill="url(#paint2_linear_1673_36929)"/>
  <path d="M64.795 38.8515L57.5799 30.4575C57.4093 30.2572 57.1972 30.096 56.9582 29.9846C56.7193 29.8733 56.459 29.8146 56.1951 29.8125H40.6809C40.1487 29.8125 39.6429 30.0555 39.2961 30.4575L32.0811 38.8515V43.4595H64.795V38.8515Z" fill="url(#paint3_linear_1673_36929)"/>
  <path d="M62.7505 43.6282L56.4356 36.3172C56.2829 36.1446 56.0947 36.0067 55.8837 35.9129C55.6727 35.8191 55.4439 35.7715 55.2128 35.7735H41.6632C41.1981 35.7735 40.7435 35.9655 40.4405 36.3172L34.1255 43.6282V47.6437H62.7505V43.6282Z" fill="url(#paint4_linear_1673_36929)"/>
  <path d="M64.795 48.7369C64.795 49.3767 64.5055 49.9519 64.0486 50.3374L63.9559 50.4124C63.5937 50.6856 63.1515 50.8331 62.697 50.8324H34.1798C33.9219 50.8324 33.6754 50.7859 33.4478 50.7004L33.3347 50.6554C32.9616 50.4903 32.6447 50.2211 32.4222 49.8805C32.1997 49.5399 32.0812 49.1424 32.0811 48.7362V38.8984H40.0183C40.895 38.8984 41.6014 39.6162 41.6014 40.4869V40.4982C41.6014 41.3697 42.316 42.0724 43.1927 42.0724H53.6833C54.1047 42.072 54.5088 41.9055 54.807 41.6093C55.1053 41.3132 55.2734 40.9114 55.2746 40.4922C55.2746 39.6177 55.9817 38.8984 56.8577 38.8984H64.7957L64.795 48.7369Z" fill="url(#paint5_linear_1673_36929)"/>
  <defs>
    <linearGradient id="paint0_linear_1673_36929" x1="50.664" y1="27.7125" x2="50.664" y2="-6.55011" gradientUnits="userSpaceOnUse">
      <stop stop-color="#DEDEDE" stop-opacity="0"/>
      <stop offset="1" stop-color="#A9A9A9" stop-opacity="0.3"/>
    </linearGradient>
    <linearGradient id="paint1_linear_1673_36929" x1="46.4069" y1="56.7326" x2="46.4069" y2="47.0156" gradientUnits="userSpaceOnUse">
      <stop stop-color="white" stop-opacity="0"/>
      <stop offset="1" stop-color="#96A1C5" stop-opacity="0.373"/>
    </linearGradient>
    <linearGradient id="paint2_linear_1673_36929" x1="49" y1="59.5057" x2="49" y2="43.5485" gradientUnits="userSpaceOnUse">
      <stop stop-color="white" stop-opacity="0"/>
      <stop offset="1" stop-color="#919191" stop-opacity="0.15"/>
    </linearGradient>
    <linearGradient id="paint3_linear_1673_36929" x1="48.438" y1="29.8125" x2="48.438" y2="35.9468" gradientUnits="userSpaceOnUse">
      <stop stop-color="#5389F5"/>
      <stop offset="1" stop-color="#416FDC"/>
    </linearGradient>
    <linearGradient id="paint4_linear_1673_36929" x1="52.258" y1="47.6437" x2="52.258" y2="35.1424" gradientUnits="userSpaceOnUse">
      <stop stop-color="#DCE9FF"/>
      <stop offset="1" stop-color="#B6CFFF"/>
    </linearGradient>
    <linearGradient id="paint5_linear_1673_36929" x1="48.4384" y1="38.8984" x2="48.4384" y2="50.8324" gradientUnits="userSpaceOnUse">
      <stop stop-color="#7CA5F7"/>
      <stop offset="1" stop-color="#C4D6FC"/>
    </linearGradient>
  </defs>
</svg>