<svg xmlns="http://www.w3.org/2000/svg" xmlns:xlink="http://www.w3.org/1999/xlink" width="600" zoomAndPan="magnify" viewBox="0 0 450 74.999997" height="100" preserveAspectRatio="xMidYMid meet" version="1.0"><defs><g/><clipPath id="id1"><path d="M 307 7 L 313 7 L 313 30 L 307 30 Z M 307 7 " clip-rule="nonzero"/></clipPath><clipPath id="id2"><path d="M 321.980469 18.859375 L 310.3125 30.527344 L 298.648438 18.859375 L 310.3125 7.191406 Z M 321.980469 18.859375 " clip-rule="nonzero"/></clipPath><clipPath id="id3"><path d="M 323.074219 17.765625 L 310.347656 30.492188 L 297.621094 17.765625 L 310.347656 5.035156 Z M 323.074219 17.765625 " clip-rule="nonzero"/></clipPath><clipPath id="id4"><path d="M 117.238281 0 L 138 0 L 138 21 L 117.238281 21 Z M 117.238281 0 " clip-rule="nonzero"/></clipPath><clipPath id="id5"><path d="M 117.238281 14 L 144.625 14 L 144.625 32.578125 L 117.238281 32.578125 Z M 117.238281 14 " clip-rule="nonzero"/></clipPath></defs><g fill="#000000" fill-opacity="1"><g transform="translate(115.193028, 64.799994)"><g><path d="M 27.671875 -15.0625 C 27.671875 -10.238281 26.34375 -6.519531 23.6875 -3.90625 C 21.03125 -1.300781 17.296875 0 12.484375 0 L 3.125 0 L 3.125 -28.90625 L 13.125 -28.90625 C 17.769531 -28.90625 21.351562 -27.71875 23.875 -25.34375 C 26.40625 -22.976562 27.671875 -19.550781 27.671875 -15.0625 Z M 19.5625 -14.796875 C 19.5625 -17.441406 19.035156 -19.40625 17.984375 -20.6875 C 16.929688 -21.96875 15.335938 -22.609375 13.203125 -22.609375 L 10.9375 -22.609375 L 10.9375 -6.40625 L 12.671875 -6.40625 C 15.046875 -6.40625 16.785156 -7.09375 17.890625 -8.46875 C 19.003906 -9.851562 19.5625 -11.960938 19.5625 -14.796875 Z M 19.5625 -14.796875 "/></g></g></g><g fill="#000000" fill-opacity="1"><g transform="translate(149.653938, 64.799994)"><g><path d="M 10.4375 0 L 2.703125 0 L 2.703125 -22.40625 L 10.4375 -22.40625 Z M 2.515625 -27.984375 C 2.515625 -29.140625 2.835938 -30 3.484375 -30.5625 C 4.128906 -31.132812 5.171875 -31.421875 6.609375 -31.421875 C 8.046875 -31.421875 9.09375 -31.128906 9.75 -30.546875 C 10.40625 -29.972656 10.734375 -29.117188 10.734375 -27.984375 C 10.734375 -25.710938 9.359375 -24.578125 6.609375 -24.578125 C 3.878906 -24.578125 2.515625 -25.710938 2.515625 -27.984375 Z M 2.515625 -27.984375 "/></g></g></g><g fill="#000000" fill-opacity="1"><g transform="translate(167.562847, 64.799994)"><g><path d="M 17.28125 0 L 15.796875 -2.96875 L 15.640625 -2.96875 C 14.597656 -1.675781 13.535156 -0.789062 12.453125 -0.3125 C 11.378906 0.15625 9.984375 0.390625 8.265625 0.390625 C 6.160156 0.390625 4.5 -0.238281 3.28125 -1.5 C 2.070312 -2.769531 1.46875 -4.550781 1.46875 -6.84375 C 1.46875 -9.226562 2.296875 -11.003906 3.953125 -12.171875 C 5.617188 -13.335938 8.023438 -13.992188 11.171875 -14.140625 L 14.90625 -14.265625 L 14.90625 -14.578125 C 14.90625 -16.421875 14 -17.34375 12.1875 -17.34375 C 10.550781 -17.34375 8.472656 -16.789062 5.953125 -15.6875 L 3.71875 -20.78125 C 6.332031 -22.125 9.628906 -22.796875 13.609375 -22.796875 C 16.484375 -22.796875 18.707031 -22.082031 20.28125 -20.65625 C 21.851562 -19.238281 22.640625 -17.25 22.640625 -14.6875 L 22.640625 0 Z M 11.546875 -5.0625 C 12.484375 -5.0625 13.285156 -5.359375 13.953125 -5.953125 C 14.617188 -6.546875 14.953125 -7.316406 14.953125 -8.265625 L 14.953125 -10 L 13.171875 -9.921875 C 10.628906 -9.828125 9.359375 -8.894531 9.359375 -7.125 C 9.359375 -5.75 10.085938 -5.0625 11.546875 -5.0625 Z M 11.546875 -5.0625 "/></g></g></g><g fill="#000000" fill-opacity="1"><g transform="translate(197.534744, 64.799994)"><g><path d="M 23.8125 -22.40625 L 23.8125 -18.671875 L 20.75 -17.546875 C 21.164062 -16.773438 21.375 -15.882812 21.375 -14.875 C 21.375 -12.457031 20.523438 -10.582031 18.828125 -9.25 C 17.140625 -7.914062 14.613281 -7.25 11.25 -7.25 C 10.414062 -7.25 9.757812 -7.304688 9.28125 -7.421875 C 9.09375 -7.078125 9 -6.753906 9 -6.453125 C 9 -6.066406 9.304688 -5.769531 9.921875 -5.5625 C 10.546875 -5.363281 11.359375 -5.265625 12.359375 -5.265625 L 16.078125 -5.265625 C 21.097656 -5.265625 23.609375 -3.144531 23.609375 1.09375 C 23.609375 3.820312 22.441406 5.941406 20.109375 7.453125 C 17.785156 8.972656 14.523438 9.734375 10.328125 9.734375 C 7.148438 9.734375 4.695312 9.203125 2.96875 8.140625 C 1.25 7.078125 0.390625 5.550781 0.390625 3.5625 C 0.390625 0.882812 2.050781 -0.84375 5.375 -1.625 C 4.6875 -1.914062 4.085938 -2.382812 3.578125 -3.03125 C 3.078125 -3.675781 2.828125 -4.3125 2.828125 -4.9375 C 2.828125 -5.632812 3.015625 -6.25 3.390625 -6.78125 C 3.773438 -7.320312 4.578125 -7.960938 5.796875 -8.703125 C 4.628906 -9.210938 3.710938 -10.015625 3.046875 -11.109375 C 2.390625 -12.203125 2.0625 -13.535156 2.0625 -15.109375 C 2.0625 -17.546875 2.890625 -19.4375 4.546875 -20.78125 C 6.210938 -22.125 8.585938 -22.796875 11.671875 -22.796875 C 12.078125 -22.796875 12.78125 -22.75 13.78125 -22.65625 C 14.78125 -22.570312 15.519531 -22.488281 16 -22.40625 Z M 6.921875 2.78125 C 6.921875 3.414062 7.265625 3.925781 7.953125 4.3125 C 8.640625 4.707031 9.554688 4.90625 10.703125 4.90625 C 12.566406 4.90625 14.0625 4.671875 15.1875 4.203125 C 16.320312 3.734375 16.890625 3.128906 16.890625 2.390625 C 16.890625 1.796875 16.546875 1.375 15.859375 1.125 C 15.171875 0.882812 14.1875 0.765625 12.90625 0.765625 L 9.890625 0.765625 C 9.054688 0.765625 8.351562 0.957031 7.78125 1.34375 C 7.207031 1.738281 6.921875 2.21875 6.921875 2.78125 Z M 9.359375 -15.0625 C 9.359375 -12.769531 10.15625 -11.625 11.75 -11.625 C 12.488281 -11.625 13.054688 -11.90625 13.453125 -12.46875 C 13.859375 -13.039062 14.0625 -13.894531 14.0625 -15.03125 C 14.0625 -17.351562 13.289062 -18.515625 11.75 -18.515625 C 10.15625 -18.515625 9.359375 -17.363281 9.359375 -15.0625 Z M 9.359375 -15.0625 "/></g></g></g><g fill="#000000" fill-opacity="1"><g transform="translate(226.814501, 64.799994)"><g><path d="M 16.8125 0 L 16.8125 -12.21875 C 16.8125 -13.707031 16.597656 -14.832031 16.171875 -15.59375 C 15.742188 -16.351562 15.050781 -16.734375 14.09375 -16.734375 C 12.789062 -16.734375 11.847656 -16.210938 11.265625 -15.171875 C 10.691406 -14.128906 10.40625 -12.34375 10.40625 -9.8125 L 10.40625 0 L 2.671875 0 L 2.671875 -22.40625 L 8.5 -22.40625 L 9.46875 -19.640625 L 9.921875 -19.640625 C 10.585938 -20.691406 11.503906 -21.476562 12.671875 -22 C 13.835938 -22.53125 15.175781 -22.796875 16.6875 -22.796875 C 19.164062 -22.796875 21.09375 -22.078125 22.46875 -20.640625 C 23.851562 -19.203125 24.546875 -17.179688 24.546875 -14.578125 L 24.546875 0 Z M 16.8125 0 "/></g></g></g><g fill="#000000" fill-opacity="1"><g transform="translate(258.684829, 64.799994)"><g><path d="M 24.0625 -11.25 C 24.0625 -7.582031 23.078125 -4.722656 21.109375 -2.671875 C 19.140625 -0.628906 16.378906 0.390625 12.828125 0.390625 C 9.429688 0.390625 6.726562 -0.65625 4.71875 -2.75 C 2.707031 -4.84375 1.703125 -7.675781 1.703125 -11.25 C 1.703125 -14.90625 2.6875 -17.742188 4.65625 -19.765625 C 6.625 -21.785156 9.390625 -22.796875 12.953125 -22.796875 C 15.148438 -22.796875 17.09375 -22.328125 18.78125 -21.390625 C 20.46875 -20.460938 21.769531 -19.125 22.6875 -17.375 C 23.601562 -15.625 24.0625 -13.582031 24.0625 -11.25 Z M 9.546875 -11.25 C 9.546875 -9.320312 9.800781 -7.851562 10.3125 -6.84375 C 10.832031 -5.84375 11.695312 -5.34375 12.90625 -5.34375 C 14.113281 -5.34375 14.960938 -5.84375 15.453125 -6.84375 C 15.953125 -7.851562 16.203125 -9.320312 16.203125 -11.25 C 16.203125 -13.164062 15.945312 -14.609375 15.4375 -15.578125 C 14.9375 -16.554688 14.082031 -17.046875 12.875 -17.046875 C 11.6875 -17.046875 10.832031 -16.5625 10.3125 -15.59375 C 9.800781 -14.625 9.546875 -13.175781 9.546875 -11.25 Z M 9.546875 -11.25 "/></g></g></g><g fill="#000000" fill-opacity="1"><g transform="translate(289.230207, 64.799994)"><g><path d="M 19.96875 -6.875 C 19.96875 -4.476562 19.148438 -2.664062 17.515625 -1.4375 C 15.878906 -0.21875 13.535156 0.390625 10.484375 0.390625 C 8.816406 0.390625 7.367188 0.300781 6.140625 0.125 C 4.921875 -0.0507812 3.671875 -0.375 2.390625 -0.84375 L 2.390625 -7.046875 C 3.585938 -6.515625 4.898438 -6.078125 6.328125 -5.734375 C 7.765625 -5.390625 9.046875 -5.21875 10.171875 -5.21875 C 11.835938 -5.21875 12.671875 -5.601562 12.671875 -6.375 C 12.671875 -6.769531 12.4375 -7.117188 11.96875 -7.421875 C 11.5 -7.734375 10.140625 -8.335938 7.890625 -9.234375 C 5.835938 -10.078125 4.398438 -11.035156 3.578125 -12.109375 C 2.765625 -13.179688 2.359375 -14.546875 2.359375 -16.203125 C 2.359375 -18.285156 3.160156 -19.90625 4.765625 -21.0625 C 6.367188 -22.21875 8.644531 -22.796875 11.59375 -22.796875 C 13.0625 -22.796875 14.445312 -22.632812 15.75 -22.3125 C 17.050781 -21.988281 18.398438 -21.519531 19.796875 -20.90625 L 17.703125 -15.921875 C 16.671875 -16.378906 15.582031 -16.769531 14.4375 -17.09375 C 13.289062 -17.414062 12.351562 -17.578125 11.625 -17.578125 C 10.363281 -17.578125 9.734375 -17.269531 9.734375 -16.65625 C 9.734375 -16.269531 9.953125 -15.941406 10.390625 -15.671875 C 10.828125 -15.398438 12.101562 -14.847656 14.21875 -14.015625 C 15.789062 -13.367188 16.960938 -12.734375 17.734375 -12.109375 C 18.503906 -11.492188 19.066406 -10.769531 19.421875 -9.9375 C 19.785156 -9.101562 19.96875 -8.082031 19.96875 -6.875 Z M 19.96875 -6.875 "/></g></g></g><g fill="#000000" fill-opacity="1"><g transform="translate(315.563426, 64.799994)"><g><path d="M 13.640625 -5.71875 C 14.679688 -5.71875 15.925781 -5.972656 17.375 -6.484375 L 17.375 -0.84375 C 16.34375 -0.394531 15.351562 -0.078125 14.40625 0.109375 C 13.46875 0.296875 12.363281 0.390625 11.09375 0.390625 C 8.5 0.390625 6.625 -0.242188 5.46875 -1.515625 C 4.320312 -2.785156 3.75 -4.738281 3.75 -7.375 L 3.75 -16.609375 L 1.046875 -16.609375 L 1.046875 -19.75 L 4.484375 -22.1875 L 6.484375 -26.890625 L 11.546875 -26.890625 L 11.546875 -22.40625 L 17.046875 -22.40625 L 17.046875 -16.609375 L 11.546875 -16.609375 L 11.546875 -7.890625 C 11.546875 -6.441406 12.242188 -5.71875 13.640625 -5.71875 Z M 13.640625 -5.71875 "/></g></g></g><g fill="#000000" fill-opacity="1"><g transform="translate(338.930337, 64.799994)"><g><path d="M 10.4375 0 L 2.703125 0 L 2.703125 -22.40625 L 10.4375 -22.40625 Z M 2.515625 -27.984375 C 2.515625 -29.140625 2.835938 -30 3.484375 -30.5625 C 4.128906 -31.132812 5.171875 -31.421875 6.609375 -31.421875 C 8.046875 -31.421875 9.09375 -31.128906 9.75 -30.546875 C 10.40625 -29.972656 10.734375 -29.117188 10.734375 -27.984375 C 10.734375 -25.710938 9.359375 -24.578125 6.609375 -24.578125 C 3.878906 -24.578125 2.515625 -25.710938 2.515625 -27.984375 Z M 2.515625 -27.984375 "/></g></g></g><g fill="#000000" fill-opacity="1"><g transform="translate(356.839241, 64.799994)"><g><path d="M 12.875 0.390625 C 9.207031 0.390625 6.425781 -0.59375 4.53125 -2.5625 C 2.644531 -4.539062 1.703125 -7.382812 1.703125 -11.09375 C 1.703125 -14.8125 2.722656 -17.691406 4.765625 -19.734375 C 6.804688 -21.773438 9.710938 -22.796875 13.484375 -22.796875 C 16.078125 -22.796875 18.523438 -22.226562 20.828125 -21.09375 L 18.546875 -15.390625 C 17.609375 -15.796875 16.742188 -16.117188 15.953125 -16.359375 C 15.160156 -16.609375 14.335938 -16.734375 13.484375 -16.734375 C 12.234375 -16.734375 11.265625 -16.242188 10.578125 -15.265625 C 9.890625 -14.285156 9.546875 -12.910156 9.546875 -11.140625 C 9.546875 -7.546875 10.875 -5.75 13.53125 -5.75 C 15.789062 -5.75 17.960938 -6.410156 20.046875 -7.734375 L 20.046875 -1.578125 C 18.054688 -0.265625 15.664062 0.390625 12.875 0.390625 Z M 12.875 0.390625 "/></g></g></g><g fill="#000000" fill-opacity="1"><g transform="translate(383.409764, 64.799994)"><g><path d="M 19.96875 -6.875 C 19.96875 -4.476562 19.148438 -2.664062 17.515625 -1.4375 C 15.878906 -0.21875 13.535156 0.390625 10.484375 0.390625 C 8.816406 0.390625 7.367188 0.300781 6.140625 0.125 C 4.921875 -0.0507812 3.671875 -0.375 2.390625 -0.84375 L 2.390625 -7.046875 C 3.585938 -6.515625 4.898438 -6.078125 6.328125 -5.734375 C 7.765625 -5.390625 9.046875 -5.21875 10.171875 -5.21875 C 11.835938 -5.21875 12.671875 -5.601562 12.671875 -6.375 C 12.671875 -6.769531 12.4375 -7.117188 11.96875 -7.421875 C 11.5 -7.734375 10.140625 -8.335938 7.890625 -9.234375 C 5.835938 -10.078125 4.398438 -11.035156 3.578125 -12.109375 C 2.765625 -13.179688 2.359375 -14.546875 2.359375 -16.203125 C 2.359375 -18.285156 3.160156 -19.90625 4.765625 -21.0625 C 6.367188 -22.21875 8.644531 -22.796875 11.59375 -22.796875 C 13.0625 -22.796875 14.445312 -22.632812 15.75 -22.3125 C 17.050781 -21.988281 18.398438 -21.519531 19.796875 -20.90625 L 17.703125 -15.921875 C 16.671875 -16.378906 15.582031 -16.769531 14.4375 -17.09375 C 13.289062 -17.414062 12.351562 -17.578125 11.625 -17.578125 C 10.363281 -17.578125 9.734375 -17.269531 9.734375 -16.65625 C 9.734375 -16.269531 9.953125 -15.941406 10.390625 -15.671875 C 10.828125 -15.398438 12.101562 -14.847656 14.21875 -14.015625 C 15.789062 -13.367188 16.960938 -12.734375 17.734375 -12.109375 C 18.503906 -11.492188 19.066406 -10.769531 19.421875 -9.9375 C 19.785156 -9.101562 19.96875 -8.082031 19.96875 -6.875 Z M 19.96875 -6.875 "/></g></g></g><g fill="#000000" fill-opacity="1"><g transform="translate(248.935184, 30.158947)"><g><path d="M 12.21875 0 L 11.390625 -3.171875 L 5.890625 -3.171875 L 5.03125 0 L 0 0 L 5.53125 -17.015625 L 11.640625 -17.015625 L 17.234375 0 Z M 10.4375 -6.9375 L 9.71875 -9.71875 C 9.539062 -10.332031 9.328125 -11.128906 9.078125 -12.109375 C 8.835938 -13.085938 8.679688 -13.789062 8.609375 -14.21875 C 8.535156 -13.820312 8.394531 -13.171875 8.1875 -12.265625 C 7.988281 -11.367188 7.539062 -9.59375 6.84375 -6.9375 Z M 10.4375 -6.9375 "/></g></g></g><g fill="#000000" fill-opacity="1"><g transform="translate(267.071749, 30.158947)"><g><path d="M 5.640625 0.234375 C 4.703125 0.234375 3.882812 -0.03125 3.1875 -0.5625 C 2.488281 -1.101562 1.945312 -1.890625 1.5625 -2.921875 C 1.1875 -3.953125 1 -5.160156 1 -6.546875 C 1 -8.679688 1.425781 -10.347656 2.28125 -11.546875 C 3.132812 -12.753906 4.3125 -13.359375 5.8125 -13.359375 C 6.550781 -13.359375 7.195312 -13.210938 7.75 -12.921875 C 8.300781 -12.628906 8.804688 -12.132812 9.265625 -11.4375 L 9.359375 -11.4375 C 9.203125 -12.46875 9.125 -13.492188 9.125 -14.515625 L 9.125 -18.03125 L 13.703125 -18.03125 L 13.703125 0 L 10.28125 0 L 9.3125 -1.65625 L 9.125 -1.65625 C 8.351562 -0.394531 7.191406 0.234375 5.640625 0.234375 Z M 7.5 -3.34375 C 8.226562 -3.34375 8.738281 -3.570312 9.03125 -4.03125 C 9.332031 -4.488281 9.492188 -5.191406 9.515625 -6.140625 L 9.515625 -6.5 C 9.515625 -7.65625 9.347656 -8.476562 9.015625 -8.96875 C 8.679688 -9.46875 8.160156 -9.71875 7.453125 -9.71875 C 6.859375 -9.71875 6.394531 -9.4375 6.0625 -8.875 C 5.738281 -8.3125 5.578125 -7.515625 5.578125 -6.484375 C 5.578125 -5.460938 5.742188 -4.679688 6.078125 -4.140625 C 6.410156 -3.609375 6.882812 -3.34375 7.5 -3.34375 Z M 7.5 -3.34375 "/></g></g></g><g fill="#000000" fill-opacity="1"><g transform="translate(283.237996, 30.158947)"><g><path d="M 17.6875 0 L 17.6875 -7.140625 C 17.6875 -8.023438 17.5625 -8.6875 17.3125 -9.125 C 17.070312 -9.570312 16.691406 -9.796875 16.171875 -9.796875 C 15.472656 -9.796875 14.960938 -9.5 14.640625 -8.90625 C 14.316406 -8.3125 14.15625 -7.382812 14.15625 -6.125 L 14.15625 0 L 9.609375 0 L 9.609375 -7.140625 C 9.609375 -8.023438 9.488281 -8.6875 9.25 -9.125 C 9.019531 -9.570312 8.648438 -9.796875 8.140625 -9.796875 C 7.421875 -9.796875 6.898438 -9.476562 6.578125 -8.84375 C 6.253906 -8.21875 6.09375 -7.1875 6.09375 -5.75 L 6.09375 0 L 1.5625 0 L 1.5625 -13.125 L 4.984375 -13.125 L 5.546875 -11.515625 L 5.8125 -11.515625 C 6.164062 -12.109375 6.671875 -12.5625 7.328125 -12.875 C 7.992188 -13.195312 8.742188 -13.359375 9.578125 -13.359375 C 11.472656 -13.359375 12.804688 -12.785156 13.578125 -11.640625 L 13.9375 -11.640625 C 14.300781 -12.179688 14.8125 -12.601562 15.46875 -12.90625 C 16.132812 -13.207031 16.863281 -13.359375 17.65625 -13.359375 C 19.207031 -13.359375 20.351562 -12.957031 21.09375 -12.15625 C 21.84375 -11.363281 22.21875 -10.160156 22.21875 -8.546875 L 22.21875 0 Z M 17.6875 0 "/></g></g></g><g fill="#000000" fill-opacity="1"><g transform="translate(307.876611, 30.158947)"><g/></g></g><g fill="#000000" fill-opacity="1"><g transform="translate(314.944624, 30.158947)"><g><path d="M 9.84375 0 L 9.84375 -7.15625 C 9.84375 -8.03125 9.71875 -8.6875 9.46875 -9.125 C 9.21875 -9.570312 8.816406 -9.796875 8.265625 -9.796875 C 7.492188 -9.796875 6.9375 -9.488281 6.59375 -8.875 C 6.257812 -8.269531 6.09375 -7.226562 6.09375 -5.75 L 6.09375 0 L 1.5625 0 L 1.5625 -13.125 L 4.984375 -13.125 L 5.546875 -11.515625 L 5.8125 -11.515625 C 6.195312 -12.128906 6.734375 -12.585938 7.421875 -12.890625 C 8.109375 -13.203125 8.894531 -13.359375 9.78125 -13.359375 C 11.226562 -13.359375 12.351562 -12.9375 13.15625 -12.09375 C 13.96875 -11.25 14.375 -10.066406 14.375 -8.546875 L 14.375 0 Z M 9.84375 0 "/></g></g></g><g clip-path="url(#id1)"><g clip-path="url(#id2)"><g clip-path="url(#id3)"><path fill="#04a4ef" d="M 309.675781 29.167969 L 309.675781 29.398438 L 310.960938 29.417969 L 310.960938 29.1875 L 311.613281 29.1875 L 311.613281 28.539062 L 310.882812 28.539062 L 310.882812 25.625 L 312.992188 25.625 L 312.992188 24.472656 L 311.460938 24.472656 C 311.460938 24.433594 311.480469 24.414062 311.460938 24.398438 L 311.441406 14.296875 C 311.441406 13.875 311.191406 13.507812 310.808594 13.355469 L 310.808594 11.9375 L 310.425781 11.9375 L 310.40625 5.09375 L 310.195312 5.226562 L 310.195312 11.9375 L 309.8125 11.9375 L 309.8125 13.316406 C 309.445312 13.488281 309.179688 13.835938 309.179688 14.257812 L 309.199219 24.359375 C 309.199219 24.398438 309.199219 24.398438 309.199219 24.433594 L 307.664062 24.433594 L 307.664062 25.585938 L 309.773438 25.625 L 309.773438 28.539062 L 309.042969 28.539062 L 309.042969 29.1875 Z M 309.675781 29.167969 " fill-opacity="1" fill-rule="nonzero"/></g></g></g><g clip-path="url(#id4)"><path fill="#04a4ef" d="M 120.691406 -0.269531 C 120.796875 -0.203125 121.382812 0.351562 121.992188 0.953125 L 123.09375 2.050781 L 123.59375 1.574219 C 124.136719 1.050781 124.351562 0.9375 124.65625 1 C 124.8125 1.027344 126.128906 2.292969 130.476562 6.582031 C 133.570312 9.632812 136.140625 12.210938 136.191406 12.308594 C 136.246094 12.402344 136.285156 12.589844 136.285156 12.71875 C 136.285156 12.925781 136.226562 13.015625 135.75 13.496094 L 135.214844 14.039062 L 136.394531 15.210938 C 137.046875 15.855469 137.613281 16.464844 137.652344 16.570312 C 137.691406 16.671875 137.703125 16.832031 137.683594 16.929688 C 137.65625 17.039062 137.085938 17.652344 136.070312 18.65625 C 134.597656 20.105469 134.476562 20.214844 134.257812 20.214844 C 133.941406 20.214844 133.707031 20.035156 132.476562 18.804688 L 131.433594 17.765625 L 130.945312 18.25 C 130.390625 18.792969 130.183594 18.898438 129.878906 18.796875 C 129.746094 18.757812 129.273438 18.339844 128.613281 17.683594 C 127.574219 16.640625 127.558594 16.628906 127.558594 16.34375 C 127.558594 16.085938 127.597656 16.015625 127.957031 15.609375 C 129.851562 13.453125 129.8125 10.296875 127.859375 8.257812 C 126.734375 7.078125 125.398438 6.5 123.789062 6.5 C 122.410156 6.5 121.234375 6.929688 120.164062 7.824219 C 119.949219 8.003906 119.707031 8.191406 119.625 8.238281 C 119.363281 8.371094 119.089844 8.261719 118.691406 7.863281 C 118.082031 7.253906 118.101562 7.027344 118.824219 6.292969 L 119.320312 5.785156 L 118.171875 4.644531 C 117.542969 4.019531 116.996094 3.441406 116.957031 3.363281 C 116.914062 3.285156 116.882812 3.113281 116.882812 2.984375 C 116.882812 2.75 116.960938 2.660156 118.363281 1.265625 C 119.183594 0.453125 119.925781 -0.25 120.023438 -0.300781 C 120.261719 -0.421875 120.457031 -0.417969 120.691406 -0.269531 Z M 120.691406 -0.269531 " fill-opacity="1" fill-rule="nonzero"/></g><path fill="#04a4ef" d="M 124.695312 7.953125 C 126.1875 8.269531 127.5 9.539062 127.847656 11.007812 C 127.90625 11.238281 127.949219 11.667969 127.949219 11.972656 C 127.949219 13.125 127.574219 14.019531 126.746094 14.84375 C 125.710938 15.878906 124.375 16.28125 122.957031 15.988281 C 121.40625 15.675781 120.191406 14.527344 119.773438 12.996094 C 119.628906 12.460938 119.625 11.488281 119.765625 10.960938 C 120.339844 8.8125 122.507812 7.484375 124.695312 7.953125 Z M 124.695312 7.953125 " fill-opacity="1" fill-rule="nonzero"/><g clip-path="url(#id5)"><path fill="#04a4ef" d="M 118.699219 14.4375 C 118.789062 14.476562 119.03125 14.746094 119.234375 15.035156 C 119.902344 15.972656 120.671875 16.574219 121.777344 17.039062 C 122.078125 17.160156 122.378906 17.324219 122.449219 17.386719 C 122.605469 17.535156 122.617188 17.871094 122.496094 18.625 C 122.242188 20.234375 122.636719 22.011719 123.601562 23.542969 C 124.050781 24.265625 125.132812 25.363281 125.835938 25.816406 C 126.746094 26.402344 127.714844 26.78125 128.796875 26.980469 C 129.335938 27.085938 130.945312 27.078125 131.65625 26.980469 C 132.839844 26.8125 134.050781 26.421875 134.820312 25.957031 L 135.210938 25.71875 L 133.191406 25.6875 C 132.078125 25.667969 131.128906 25.628906 131.070312 25.601562 C 131.019531 25.578125 130.921875 25.46875 130.859375 25.371094 C 130.761719 25.210938 130.75 24.980469 130.75 23.644531 C 130.75 22.242188 130.761719 22.09375 130.882812 21.90625 C 130.960938 21.773438 131.089844 21.675781 131.25 21.628906 C 131.429688 21.578125 133.367188 21.566406 137.867188 21.578125 L 144.238281 21.597656 L 144.429688 21.8125 L 144.617188 22.015625 L 144.617188 25.3125 L 144.429688 25.5 L 144.238281 25.6875 L 142.242188 25.6875 L 141.929688 26.285156 C 141.433594 27.21875 140.820312 28.03125 139.917969 28.917969 L 139.082031 29.738281 L 139.082031 32.140625 L 138.863281 32.359375 L 138.640625 32.578125 L 118.691406 32.578125 L 118.472656 32.359375 L 118.25 32.140625 L 118.25 29.878906 C 118.25 27.417969 118.261719 27.335938 118.609375 27.179688 C 118.699219 27.136719 118.894531 27.105469 119.03125 27.105469 C 119.175781 27.105469 119.292969 27.089844 119.292969 27.078125 C 119.292969 27.070312 119.160156 26.859375 119 26.613281 C 118.550781 25.945312 117.90625 24.644531 117.632812 23.882812 C 117.113281 22.402344 116.882812 21.058594 116.882812 19.484375 C 116.882812 18.011719 117.132812 16.601562 117.621094 15.222656 C 117.789062 14.746094 117.867188 14.617188 118.050781 14.503906 C 118.296875 14.335938 118.472656 14.320312 118.699219 14.4375 Z M 118.699219 14.4375 " fill-opacity="1" fill-rule="nonzero"/></g><g fill="#000000" fill-opacity="1"><g transform="translate(153.486851, 30.195737)"><g><path d="M 16.21875 -16.921875 L 16.21875 -6.734375 C 16.21875 -4.523438 15.585938 -2.8125 14.328125 -1.59375 C 13.078125 -0.375 11.269531 0.234375 8.90625 0.234375 C 6.601562 0.234375 4.832031 -0.351562 3.59375 -1.53125 C 2.351562 -2.71875 1.734375 -4.414062 1.734375 -6.625 L 1.734375 -16.921875 L 6.328125 -16.921875 L 6.328125 -6.984375 C 6.328125 -5.796875 6.550781 -4.929688 7 -4.390625 C 7.445312 -3.847656 8.109375 -3.578125 8.984375 -3.578125 C 9.910156 -3.578125 10.582031 -3.84375 11 -4.375 C 11.425781 -4.914062 11.640625 -5.796875 11.640625 -7.015625 L 11.640625 -16.921875 Z M 16.21875 -16.921875 "/></g></g></g><g fill="#000000" fill-opacity="1"><g transform="translate(171.420313, 30.195737)"><g><path d="M 9.84375 0 L 9.84375 -7.15625 C 9.84375 -8.019531 9.710938 -8.675781 9.453125 -9.125 C 9.203125 -9.570312 8.800781 -9.796875 8.25 -9.796875 C 7.488281 -9.796875 6.9375 -9.488281 6.59375 -8.875 C 6.257812 -8.269531 6.09375 -7.222656 6.09375 -5.734375 L 6.09375 0 L 1.5625 0 L 1.5625 -13.109375 L 4.984375 -13.109375 L 5.546875 -11.5 L 5.8125 -11.5 C 6.195312 -12.113281 6.726562 -12.570312 7.40625 -12.875 C 8.09375 -13.1875 8.878906 -13.34375 9.765625 -13.34375 C 11.210938 -13.34375 12.335938 -12.921875 13.140625 -12.078125 C 13.953125 -11.242188 14.359375 -10.0625 14.359375 -8.53125 L 14.359375 0 Z M 9.84375 0 "/></g></g></g><g fill="#000000" fill-opacity="1"><g transform="translate(187.29432, 30.195737)"><g><path d="M 6.109375 0 L 1.578125 0 L 1.578125 -13.109375 L 6.109375 -13.109375 Z M 1.46875 -16.375 C 1.46875 -17.050781 1.65625 -17.554688 2.03125 -17.890625 C 2.414062 -18.222656 3.023438 -18.390625 3.859375 -18.390625 C 4.703125 -18.390625 5.316406 -18.21875 5.703125 -17.875 C 6.085938 -17.539062 6.28125 -17.039062 6.28125 -16.375 C 6.28125 -15.050781 5.472656 -14.390625 3.859375 -14.390625 C 2.265625 -14.390625 1.46875 -15.050781 1.46875 -16.375 Z M 1.46875 -16.375 "/></g></g></g><g fill="#000000" fill-opacity="1"><g transform="translate(194.999924, 30.195737)"><g><path d="M 9.578125 -9.71875 L 6.78125 -9.71875 L 6.78125 0 L 2.25 0 L 2.25 -9.71875 L 0.515625 -9.71875 L 0.515625 -11.9375 L 2.34375 -13.0625 L 2.34375 -13.28125 C 2.34375 -15.007812 2.695312 -16.25 3.40625 -17 C 4.113281 -17.757812 5.25 -18.140625 6.8125 -18.140625 C 7.40625 -18.140625 7.96875 -18.09375 8.5 -18 C 9.039062 -17.90625 9.664062 -17.742188 10.375 -17.515625 L 9.40625 -14.578125 C 8.851562 -14.734375 8.3125 -14.8125 7.78125 -14.8125 C 7.425781 -14.8125 7.171875 -14.703125 7.015625 -14.484375 C 6.859375 -14.273438 6.78125 -13.929688 6.78125 -13.453125 L 6.78125 -13.109375 L 9.578125 -13.109375 Z M 9.578125 -9.71875 "/></g></g></g><g fill="#000000" fill-opacity="1"><g transform="translate(204.788123, 30.195737)"><g><path d="M 6.109375 0 L 1.578125 0 L 1.578125 -13.109375 L 6.109375 -13.109375 Z M 1.46875 -16.375 C 1.46875 -17.050781 1.65625 -17.554688 2.03125 -17.890625 C 2.414062 -18.222656 3.023438 -18.390625 3.859375 -18.390625 C 4.703125 -18.390625 5.316406 -18.21875 5.703125 -17.875 C 6.085938 -17.539062 6.28125 -17.039062 6.28125 -16.375 C 6.28125 -15.050781 5.472656 -14.390625 3.859375 -14.390625 C 2.265625 -14.390625 1.46875 -15.050781 1.46875 -16.375 Z M 1.46875 -16.375 "/></g></g></g><g fill="#000000" fill-opacity="1"><g transform="translate(212.493727, 30.195737)"><g><path d="M 7.890625 0.234375 C 5.710938 0.234375 4.019531 -0.34375 2.8125 -1.5 C 1.601562 -2.664062 1 -4.320312 1 -6.46875 C 1 -8.6875 1.554688 -10.382812 2.671875 -11.5625 C 3.796875 -12.75 5.394531 -13.34375 7.46875 -13.34375 C 9.4375 -13.34375 10.957031 -12.828125 12.03125 -11.796875 C 13.113281 -10.765625 13.65625 -9.28125 13.65625 -7.34375 L 13.65625 -5.328125 L 5.5625 -5.328125 C 5.59375 -4.597656 5.859375 -4.023438 6.359375 -3.609375 C 6.867188 -3.191406 7.5625 -2.984375 8.4375 -2.984375 C 9.226562 -2.984375 9.957031 -3.054688 10.625 -3.203125 C 11.289062 -3.359375 12.015625 -3.617188 12.796875 -3.984375 L 12.796875 -0.734375 C 12.085938 -0.367188 11.351562 -0.117188 10.59375 0.015625 C 9.84375 0.160156 8.941406 0.234375 7.890625 0.234375 Z M 7.625 -10.265625 C 7.09375 -10.265625 6.644531 -10.097656 6.28125 -9.765625 C 5.925781 -9.429688 5.71875 -8.90625 5.65625 -8.1875 L 9.546875 -8.1875 C 9.535156 -8.8125 9.359375 -9.3125 9.015625 -9.6875 C 8.671875 -10.070312 8.207031 -10.265625 7.625 -10.265625 Z M 7.625 -10.265625 "/></g></g></g><g fill="#000000" fill-opacity="1"><g transform="translate(227.141317, 30.195737)"><g><path d="M 5.640625 0.234375 C 4.703125 0.234375 3.882812 -0.03125 3.1875 -0.5625 C 2.488281 -1.09375 1.945312 -1.875 1.5625 -2.90625 C 1.1875 -3.945312 1 -5.160156 1 -6.546875 C 1 -8.671875 1.425781 -10.332031 2.28125 -11.53125 C 3.132812 -12.738281 4.3125 -13.34375 5.8125 -13.34375 C 6.539062 -13.34375 7.179688 -13.195312 7.734375 -12.90625 C 8.285156 -12.613281 8.789062 -12.117188 9.25 -11.421875 L 9.34375 -11.421875 C 9.195312 -12.453125 9.125 -13.476562 9.125 -14.5 L 9.125 -18.015625 L 13.6875 -18.015625 L 13.6875 0 L 10.265625 0 L 9.296875 -1.65625 L 9.125 -1.65625 C 8.34375 -0.394531 7.179688 0.234375 5.640625 0.234375 Z M 7.484375 -3.34375 C 8.210938 -3.34375 8.722656 -3.566406 9.015625 -4.015625 C 9.316406 -4.472656 9.476562 -5.179688 9.5 -6.140625 L 9.5 -6.5 C 9.5 -7.65625 9.332031 -8.476562 9 -8.96875 C 8.664062 -9.457031 8.144531 -9.703125 7.4375 -9.703125 C 6.84375 -9.703125 6.378906 -9.421875 6.046875 -8.859375 C 5.722656 -8.296875 5.5625 -7.5 5.5625 -6.46875 C 5.5625 -5.445312 5.726562 -4.671875 6.0625 -4.140625 C 6.394531 -3.609375 6.867188 -3.34375 7.484375 -3.34375 Z M 7.484375 -3.34375 "/></g></g></g><g fill="#000000" fill-opacity="1"><g transform="translate(242.373562, 30.195737)"><g/></g></g></svg>