<svg xmlns="http://www.w3.org/2000/svg" xmlns:xlink="http://www.w3.org/1999/xlink" width="600" zoomAndPan="magnify" viewBox="0 0 450 74.999997" height="100" preserveAspectRatio="xMidYMid meet" version="1.0"><defs><g><g id="id1"/><g id="id2"/><g id="id3"/></g><clipPath id="id4"><path d="M 308 9 L 314 9 L 314 32 L 308 32 Z M 308 9 " clip-rule="nonzero"/></clipPath><clipPath id="id5"><path d="M 322.867188 20.953125 L 311.199219 32.621094 L 299.53125 20.953125 L 311.199219 9.289062 Z M 322.867188 20.953125 " clip-rule="nonzero"/></clipPath><clipPath id="id6"><path d="M 323.957031 19.863281 L 311.230469 32.589844 L 298.5 19.863281 L 311.230469 7.136719 Z M 323.957031 19.863281 " clip-rule="nonzero"/></clipPath><clipPath id="id7"><path d="M 118 0.953125 L 141 0.953125 L 141 24 L 118 24 Z M 118 0.953125 " clip-rule="nonzero"/></clipPath><clipPath id="id8"><path d="M 111.824219 25 L 137 25 L 137 34.703125 L 111.824219 34.703125 Z M 111.824219 25 " clip-rule="nonzero"/></clipPath><clipPath id="id9"><path d="M 140 22 L 146.324219 22 L 146.324219 34.703125 L 140 34.703125 Z M 140 22 " clip-rule="nonzero"/></clipPath></defs><g fill="rgb(0%, 0%, 0%)" fill-opacity="1"><g transform="translate(249.487693, 30.604856)"><g><path d="M 12.1875 0 L 11.359375 -3.171875 L 5.875 -3.171875 L 5.015625 0 L 0 0 L 5.515625 -16.96875 L 11.609375 -16.96875 L 17.1875 0 Z M 10.421875 -6.90625 L 9.6875 -9.6875 C 9.519531 -10.300781 9.3125 -11.097656 9.0625 -12.078125 C 8.820312 -13.054688 8.664062 -13.757812 8.59375 -14.1875 C 8.519531 -13.789062 8.378906 -13.140625 8.171875 -12.234375 C 7.972656 -11.335938 7.519531 -9.5625 6.8125 -6.90625 Z M 10.421875 -6.90625 "/></g></g></g><g fill="rgb(0%, 0%, 0%)" fill-opacity="1"><g transform="translate(267.570093, 30.604856)"><g><path d="M 5.625 0.234375 C 4.695312 0.234375 3.882812 -0.03125 3.1875 -0.5625 C 2.488281 -1.09375 1.945312 -1.875 1.5625 -2.90625 C 1.1875 -3.945312 1 -5.15625 1 -6.53125 C 1 -8.65625 1.425781 -10.316406 2.28125 -11.515625 C 3.132812 -12.722656 4.304688 -13.328125 5.796875 -13.328125 C 6.535156 -13.328125 7.175781 -13.179688 7.71875 -12.890625 C 8.269531 -12.597656 8.773438 -12.101562 9.234375 -11.40625 L 9.328125 -11.40625 C 9.179688 -12.4375 9.109375 -13.460938 9.109375 -14.484375 L 9.109375 -17.984375 L 13.65625 -17.984375 L 13.65625 0 L 10.25 0 L 9.28125 -1.65625 L 9.109375 -1.65625 C 8.328125 -0.394531 7.164062 0.234375 5.625 0.234375 Z M 7.484375 -3.34375 C 8.203125 -3.34375 8.707031 -3.566406 9 -4.015625 C 9.300781 -4.472656 9.460938 -5.175781 9.484375 -6.125 L 9.484375 -6.484375 C 9.484375 -7.640625 9.316406 -8.460938 8.984375 -8.953125 C 8.660156 -9.441406 8.144531 -9.6875 7.4375 -9.6875 C 6.84375 -9.6875 6.378906 -9.40625 6.046875 -8.84375 C 5.722656 -8.289062 5.5625 -7.5 5.5625 -6.46875 C 5.5625 -5.445312 5.722656 -4.671875 6.046875 -4.140625 C 6.378906 -3.609375 6.859375 -3.34375 7.484375 -3.34375 Z M 7.484375 -3.34375 "/></g></g></g><g fill="rgb(0%, 0%, 0%)" fill-opacity="1"><g transform="translate(283.688059, 30.604856)"><g><path d="M 17.640625 0 L 17.640625 -7.125 C 17.640625 -8.007812 17.515625 -8.671875 17.265625 -9.109375 C 17.023438 -9.554688 16.644531 -9.78125 16.125 -9.78125 C 15.425781 -9.78125 14.914062 -9.484375 14.59375 -8.890625 C 14.269531 -8.296875 14.109375 -7.367188 14.109375 -6.109375 L 14.109375 0 L 9.578125 0 L 9.578125 -7.125 C 9.578125 -8.007812 9.460938 -8.671875 9.234375 -9.109375 C 9.003906 -9.554688 8.628906 -9.78125 8.109375 -9.78125 C 7.398438 -9.78125 6.882812 -9.460938 6.5625 -8.828125 C 6.238281 -8.203125 6.078125 -7.171875 6.078125 -5.734375 L 6.078125 0 L 1.5625 0 L 1.5625 -13.09375 L 4.96875 -13.09375 L 5.53125 -11.484375 L 5.796875 -11.484375 C 6.148438 -12.078125 6.65625 -12.53125 7.3125 -12.84375 C 7.96875 -13.164062 8.71875 -13.328125 9.5625 -13.328125 C 11.445312 -13.328125 12.769531 -12.753906 13.53125 -11.609375 L 13.890625 -11.609375 C 14.265625 -12.140625 14.78125 -12.554688 15.4375 -12.859375 C 16.09375 -13.171875 16.816406 -13.328125 17.609375 -13.328125 C 19.160156 -13.328125 20.304688 -12.929688 21.046875 -12.140625 C 21.785156 -11.347656 22.15625 -10.140625 22.15625 -8.515625 L 22.15625 0 Z M 17.640625 0 "/></g></g></g><g fill="rgb(0%, 0%, 0%)" fill-opacity="1"><g transform="translate(308.253091, 30.604856)"><g/></g></g><g fill="rgb(0%, 0%, 0%)" fill-opacity="1"><g transform="translate(315.299995, 30.604856)"><g><path d="M 9.828125 0 L 9.828125 -7.140625 C 9.828125 -8.015625 9.703125 -8.671875 9.453125 -9.109375 C 9.203125 -9.554688 8.796875 -9.78125 8.234375 -9.78125 C 7.472656 -9.78125 6.921875 -9.472656 6.578125 -8.859375 C 6.242188 -8.253906 6.078125 -7.210938 6.078125 -5.734375 L 6.078125 0 L 1.5625 0 L 1.5625 -13.09375 L 4.96875 -13.09375 L 5.53125 -11.484375 L 5.796875 -11.484375 C 6.179688 -12.097656 6.710938 -12.554688 7.390625 -12.859375 C 8.078125 -13.171875 8.863281 -13.328125 9.75 -13.328125 C 11.195312 -13.328125 12.320312 -12.90625 13.125 -12.0625 C 13.9375 -11.226562 14.34375 -10.046875 14.34375 -8.515625 L 14.34375 0 Z M 9.828125 0 "/></g></g></g><g fill="rgb(0%, 0%, 0%)" fill-opacity="1"><g transform="translate(153.929411, 30.320872)"><g><path d="M 16.1875 -16.90625 L 16.1875 -6.734375 C 16.1875 -4.515625 15.5625 -2.796875 14.3125 -1.578125 C 13.0625 -0.367188 11.257812 0.234375 8.90625 0.234375 C 6.59375 0.234375 4.816406 -0.351562 3.578125 -1.53125 C 2.347656 -2.71875 1.734375 -4.414062 1.734375 -6.625 L 1.734375 -16.90625 L 6.328125 -16.90625 L 6.328125 -6.984375 C 6.328125 -5.785156 6.546875 -4.914062 6.984375 -4.375 C 7.429688 -3.84375 8.09375 -3.578125 8.96875 -3.578125 C 9.90625 -3.578125 10.582031 -3.84375 11 -4.375 C 11.414062 -4.90625 11.625 -5.78125 11.625 -7 L 11.625 -16.90625 Z M 16.1875 -16.90625 "/></g></g></g><g fill="rgb(0%, 0%, 0%)" fill-opacity="1"><g transform="translate(171.841659, 30.320872)"><g><path d="M 9.828125 0 L 9.828125 -7.140625 C 9.828125 -8.015625 9.703125 -8.671875 9.453125 -9.109375 C 9.203125 -9.554688 8.796875 -9.78125 8.234375 -9.78125 C 7.472656 -9.78125 6.921875 -9.472656 6.578125 -8.859375 C 6.242188 -8.253906 6.078125 -7.210938 6.078125 -5.734375 L 6.078125 0 L 1.5625 0 L 1.5625 -13.09375 L 4.96875 -13.09375 L 5.53125 -11.484375 L 5.796875 -11.484375 C 6.179688 -12.097656 6.710938 -12.554688 7.390625 -12.859375 C 8.078125 -13.171875 8.863281 -13.328125 9.75 -13.328125 C 11.195312 -13.328125 12.320312 -12.90625 13.125 -12.0625 C 13.9375 -11.226562 14.34375 -10.046875 14.34375 -8.515625 L 14.34375 0 Z M 9.828125 0 "/></g></g></g><g fill="rgb(0%, 0%, 0%)" fill-opacity="1"><g transform="translate(187.696889, 30.320872)"><g><path d="M 6.109375 0 L 1.578125 0 L 1.578125 -13.09375 L 6.109375 -13.09375 Z M 1.46875 -16.359375 C 1.46875 -17.035156 1.65625 -17.535156 2.03125 -17.859375 C 2.40625 -18.191406 3.015625 -18.359375 3.859375 -18.359375 C 4.703125 -18.359375 5.316406 -18.1875 5.703125 -17.84375 C 6.085938 -17.507812 6.28125 -17.015625 6.28125 -16.359375 C 6.28125 -15.035156 5.472656 -14.375 3.859375 -14.375 C 2.265625 -14.375 1.46875 -15.035156 1.46875 -16.359375 Z M 1.46875 -16.359375 "/></g></g></g><g fill="rgb(0%, 0%, 0%)" fill-opacity="1"><g transform="translate(195.393377, 30.320872)"><g><path d="M 9.5625 -9.703125 L 6.765625 -9.703125 L 6.765625 0 L 2.25 0 L 2.25 -9.703125 L 0.515625 -9.703125 L 0.515625 -11.921875 L 2.34375 -13.03125 L 2.34375 -13.25 C 2.34375 -14.976562 2.695312 -16.21875 3.40625 -16.96875 C 4.113281 -17.726562 5.242188 -18.109375 6.796875 -18.109375 C 7.398438 -18.109375 7.96875 -18.0625 8.5 -17.96875 C 9.03125 -17.875 9.65625 -17.710938 10.375 -17.484375 L 9.390625 -14.5625 C 8.835938 -14.71875 8.296875 -14.796875 7.765625 -14.796875 C 7.421875 -14.796875 7.164062 -14.6875 7 -14.46875 C 6.84375 -14.257812 6.765625 -13.914062 6.765625 -13.4375 L 6.765625 -13.09375 L 9.5625 -13.09375 Z M 9.5625 -9.703125 "/></g></g></g><g fill="rgb(0%, 0%, 0%)" fill-opacity="1"><g transform="translate(205.169998, 30.320872)"><g><path d="M 6.109375 0 L 1.578125 0 L 1.578125 -13.09375 L 6.109375 -13.09375 Z M 1.46875 -16.359375 C 1.46875 -17.035156 1.65625 -17.535156 2.03125 -17.859375 C 2.40625 -18.191406 3.015625 -18.359375 3.859375 -18.359375 C 4.703125 -18.359375 5.316406 -18.1875 5.703125 -17.84375 C 6.085938 -17.507812 6.28125 -17.015625 6.28125 -16.359375 C 6.28125 -15.035156 5.472656 -14.375 3.859375 -14.375 C 2.265625 -14.375 1.46875 -15.035156 1.46875 -16.359375 Z M 1.46875 -16.359375 "/></g></g></g><g fill="rgb(0%, 0%, 0%)" fill-opacity="1"><g transform="translate(212.866487, 30.320872)"><g><path d="M 7.890625 0.234375 C 5.703125 0.234375 4.003906 -0.34375 2.796875 -1.5 C 1.597656 -2.664062 1 -4.320312 1 -6.46875 C 1 -8.675781 1.554688 -10.367188 2.671875 -11.546875 C 3.785156 -12.734375 5.378906 -13.328125 7.453125 -13.328125 C 9.429688 -13.328125 10.957031 -12.8125 12.03125 -11.78125 C 13.101562 -10.75 13.640625 -9.269531 13.640625 -7.34375 L 13.640625 -5.328125 L 5.5625 -5.328125 C 5.59375 -4.597656 5.859375 -4.023438 6.359375 -3.609375 C 6.867188 -3.191406 7.554688 -2.984375 8.421875 -2.984375 C 9.210938 -2.984375 9.941406 -3.054688 10.609375 -3.203125 C 11.273438 -3.359375 12 -3.613281 12.78125 -3.96875 L 12.78125 -0.734375 C 12.070312 -0.367188 11.335938 -0.117188 10.578125 0.015625 C 9.828125 0.160156 8.929688 0.234375 7.890625 0.234375 Z M 7.609375 -10.25 C 7.078125 -10.25 6.632812 -10.082031 6.28125 -9.75 C 5.925781 -9.414062 5.71875 -8.890625 5.65625 -8.171875 L 9.53125 -8.171875 C 9.519531 -8.804688 9.34375 -9.3125 9 -9.6875 C 8.65625 -10.0625 8.191406 -10.25 7.609375 -10.25 Z M 7.609375 -10.25 "/></g></g></g><g fill="rgb(0%, 0%, 0%)" fill-opacity="1"><g transform="translate(227.496749, 30.320872)"><g><path d="M 5.625 0.234375 C 4.695312 0.234375 3.882812 -0.03125 3.1875 -0.5625 C 2.488281 -1.09375 1.945312 -1.875 1.5625 -2.90625 C 1.1875 -3.945312 1 -5.15625 1 -6.53125 C 1 -8.65625 1.425781 -10.316406 2.28125 -11.515625 C 3.132812 -12.722656 4.304688 -13.328125 5.796875 -13.328125 C 6.535156 -13.328125 7.175781 -13.179688 7.71875 -12.890625 C 8.269531 -12.597656 8.773438 -12.101562 9.234375 -11.40625 L 9.328125 -11.40625 C 9.179688 -12.4375 9.109375 -13.460938 9.109375 -14.484375 L 9.109375 -17.984375 L 13.65625 -17.984375 L 13.65625 0 L 10.25 0 L 9.28125 -1.65625 L 9.109375 -1.65625 C 8.328125 -0.394531 7.164062 0.234375 5.625 0.234375 Z M 7.484375 -3.34375 C 8.203125 -3.34375 8.707031 -3.566406 9 -4.015625 C 9.300781 -4.472656 9.460938 -5.175781 9.484375 -6.125 L 9.484375 -6.484375 C 9.484375 -7.640625 9.316406 -8.460938 8.984375 -8.953125 C 8.660156 -9.441406 8.144531 -9.6875 7.4375 -9.6875 C 6.84375 -9.6875 6.378906 -9.40625 6.046875 -8.84375 C 5.722656 -8.289062 5.5625 -7.5 5.5625 -6.46875 C 5.5625 -5.445312 5.722656 -4.671875 6.046875 -4.140625 C 6.378906 -3.609375 6.859375 -3.34375 7.484375 -3.34375 Z M 7.484375 -3.34375 "/></g></g></g><g fill="rgb(0%, 0%, 0%)" fill-opacity="1"><g transform="translate(242.712371, 30.320872)"><g/></g></g><g clip-path="url(#id4)"><g clip-path="url(#id5)"><g clip-path="url(#id6)"><path fill="rgb(1.568604%, 64.309692%, 93.728638%)" d="M 310.558594 31.269531 L 310.558594 31.5 L 311.84375 31.519531 L 311.84375 31.289062 L 312.496094 31.289062 L 312.496094 30.636719 L 311.765625 30.636719 L 311.765625 27.722656 L 313.875 27.722656 L 313.875 26.574219 L 312.339844 26.574219 C 312.339844 26.535156 312.359375 26.515625 312.339844 26.496094 L 312.324219 16.394531 C 312.324219 15.972656 312.074219 15.609375 311.691406 15.453125 L 311.691406 14.035156 L 311.304688 14.035156 L 311.289062 7.191406 L 311.078125 7.328125 L 311.078125 14.035156 L 310.691406 14.035156 L 310.691406 15.417969 C 310.328125 15.589844 310.058594 15.933594 310.058594 16.355469 L 310.078125 26.457031 C 310.078125 26.496094 310.078125 26.496094 310.078125 26.535156 L 308.546875 26.535156 L 308.546875 27.683594 L 310.65625 27.722656 L 310.65625 30.636719 L 309.925781 30.636719 L 309.925781 31.289062 Z M 310.558594 31.269531 " fill-opacity="1" fill-rule="nonzero"/></g></g></g><g fill="rgb(0%, 0%, 0%)" fill-opacity="1"><g transform="translate(114.321004, 65.348542)"><g><path d="M 24.140625 -19.734375 C 24.140625 -16.503906 23.179688 -14.007812 21.265625 -12.25 C 19.359375 -10.488281 16.648438 -9.609375 13.140625 -9.609375 L 10.953125 -9.609375 L 10.953125 0 L 3.125 0 L 3.125 -28.9375 L 13.140625 -28.9375 C 16.796875 -28.9375 19.539062 -28.140625 21.375 -26.546875 C 23.21875 -24.953125 24.140625 -22.679688 24.140625 -19.734375 Z M 10.953125 -15.984375 L 12.375 -15.984375 C 13.550781 -15.984375 14.484375 -16.3125 15.171875 -16.96875 C 15.867188 -17.625 16.21875 -18.535156 16.21875 -19.703125 C 16.21875 -21.648438 15.132812 -22.625 12.96875 -22.625 L 10.953125 -22.625 Z M 10.953125 -15.984375 "/></g></g></g><g fill="rgb(0%, 0%, 0%)" fill-opacity="1"><g transform="translate(141.965625, 65.348542)"><g><path d="M 17.296875 0 L 15.8125 -2.96875 L 15.65625 -2.96875 C 14.613281 -1.675781 13.550781 -0.789062 12.46875 -0.3125 C 11.382812 0.15625 9.988281 0.390625 8.28125 0.390625 C 6.164062 0.390625 4.5 -0.238281 3.28125 -1.5 C 2.070312 -2.769531 1.46875 -4.550781 1.46875 -6.84375 C 1.46875 -9.238281 2.296875 -11.019531 3.953125 -12.1875 C 5.617188 -13.351562 8.03125 -14.007812 11.1875 -14.15625 L 14.921875 -14.28125 L 14.921875 -14.59375 C 14.921875 -16.4375 14.015625 -17.359375 12.203125 -17.359375 C 10.554688 -17.359375 8.472656 -16.804688 5.953125 -15.703125 L 3.71875 -20.8125 C 6.332031 -22.15625 9.632812 -22.828125 13.625 -22.828125 C 16.5 -22.828125 18.722656 -22.113281 20.296875 -20.6875 C 21.878906 -19.257812 22.671875 -17.265625 22.671875 -14.703125 L 22.671875 0 Z M 11.5625 -5.0625 C 12.5 -5.0625 13.300781 -5.359375 13.96875 -5.953125 C 14.632812 -6.546875 14.96875 -7.320312 14.96875 -8.28125 L 14.96875 -10.015625 L 13.1875 -9.9375 C 10.632812 -9.84375 9.359375 -8.90625 9.359375 -7.125 C 9.359375 -5.75 10.09375 -5.0625 11.5625 -5.0625 Z M 11.5625 -5.0625 "/></g></g></g><g fill="rgb(0%, 0%, 0%)" fill-opacity="1"><g transform="translate(169.253901, 65.348542)"><g><path d="M -0.046875 -22.4375 L 8.125 -22.4375 L 11.921875 -9.5625 C 12.109375 -8.882812 12.234375 -8.070312 12.296875 -7.125 L 12.453125 -7.125 C 12.554688 -8.039062 12.710938 -8.835938 12.921875 -9.515625 L 16.828125 -22.4375 L 24.734375 -22.4375 L 15.859375 1.421875 C 14.722656 4.460938 13.328125 6.609375 11.671875 7.859375 C 10.015625 9.109375 7.851562 9.734375 5.1875 9.734375 C 4.15625 9.734375 3.097656 9.625 2.015625 9.40625 L 2.015625 3.328125 C 2.710938 3.484375 3.515625 3.5625 4.421875 3.5625 C 5.097656 3.5625 5.691406 3.425781 6.203125 3.15625 C 6.722656 2.894531 7.175781 2.523438 7.5625 2.046875 C 7.945312 1.566406 8.359375 0.78125 8.796875 -0.3125 Z M -0.046875 -22.4375 "/></g></g></g><g fill="rgb(0%, 0%, 0%)" fill-opacity="1"><g transform="translate(196.007669, 65.348542)"><g><path d="M 30.21875 0 L 30.21875 -12.203125 C 30.21875 -13.710938 30.007812 -14.847656 29.59375 -15.609375 C 29.175781 -16.367188 28.519531 -16.75 27.625 -16.75 C 26.4375 -16.75 25.5625 -16.238281 25 -15.21875 C 24.445312 -14.207031 24.171875 -12.617188 24.171875 -10.453125 L 24.171875 0 L 16.40625 0 L 16.40625 -12.203125 C 16.40625 -13.710938 16.207031 -14.847656 15.8125 -15.609375 C 15.414062 -16.367188 14.773438 -16.75 13.890625 -16.75 C 12.679688 -16.75 11.796875 -16.207031 11.234375 -15.125 C 10.679688 -14.039062 10.40625 -12.269531 10.40625 -9.8125 L 10.40625 0 L 2.671875 0 L 2.671875 -22.4375 L 8.515625 -22.4375 L 9.484375 -19.65625 L 9.9375 -19.65625 C 10.53125 -20.6875 11.390625 -21.472656 12.515625 -22.015625 C 13.648438 -22.554688 14.9375 -22.828125 16.375 -22.828125 C 19.601562 -22.828125 21.875 -21.84375 23.1875 -19.875 L 23.796875 -19.875 C 24.429688 -20.800781 25.3125 -21.523438 26.4375 -22.046875 C 27.570312 -22.566406 28.816406 -22.828125 30.171875 -22.828125 C 32.828125 -22.828125 34.785156 -22.144531 36.046875 -20.78125 C 37.316406 -19.425781 37.953125 -17.363281 37.953125 -14.59375 L 37.953125 0 Z M 30.21875 0 "/></g></g></g><g fill="rgb(0%, 0%, 0%)" fill-opacity="1"><g transform="translate(238.579139, 65.348542)"><g><path d="M 13.5 0.390625 C 9.769531 0.390625 6.867188 -0.597656 4.796875 -2.578125 C 2.734375 -4.566406 1.703125 -7.394531 1.703125 -11.0625 C 1.703125 -14.851562 2.65625 -17.757812 4.5625 -19.78125 C 6.476562 -21.8125 9.210938 -22.828125 12.765625 -22.828125 C 16.148438 -22.828125 18.757812 -21.945312 20.59375 -20.1875 C 22.4375 -18.425781 23.359375 -15.890625 23.359375 -12.578125 L 23.359375 -9.125 L 9.515625 -9.125 C 9.578125 -7.875 10.039062 -6.890625 10.90625 -6.171875 C 11.769531 -5.460938 12.945312 -5.109375 14.4375 -5.109375 C 15.789062 -5.109375 17.035156 -5.234375 18.171875 -5.484375 C 19.316406 -5.742188 20.554688 -6.1875 21.890625 -6.8125 L 21.890625 -1.25 C 20.679688 -0.625 19.425781 -0.195312 18.125 0.03125 C 16.832031 0.269531 15.289062 0.390625 13.5 0.390625 Z M 13.046875 -17.5625 C 12.140625 -17.5625 11.378906 -17.273438 10.765625 -16.703125 C 10.148438 -16.128906 9.789062 -15.226562 9.6875 -14 L 16.328125 -14 C 16.304688 -15.082031 16 -15.945312 15.40625 -16.59375 C 14.820312 -17.238281 14.035156 -17.5625 13.046875 -17.5625 Z M 13.046875 -17.5625 "/></g></g></g><g fill="rgb(0%, 0%, 0%)" fill-opacity="1"><g transform="translate(265.669446, 65.348542)"><g><path d="M 16.828125 0 L 16.828125 -12.234375 C 16.828125 -13.722656 16.613281 -14.847656 16.1875 -15.609375 C 15.757812 -16.367188 15.066406 -16.75 14.109375 -16.75 C 12.804688 -16.75 11.863281 -16.226562 11.28125 -15.1875 C 10.695312 -14.144531 10.40625 -12.351562 10.40625 -9.8125 L 10.40625 0 L 2.671875 0 L 2.671875 -22.4375 L 8.515625 -22.4375 L 9.484375 -19.65625 L 9.9375 -19.65625 C 10.59375 -20.71875 11.503906 -21.507812 12.671875 -22.03125 C 13.847656 -22.5625 15.191406 -22.828125 16.703125 -22.828125 C 19.191406 -22.828125 21.125 -22.109375 22.5 -20.671875 C 23.875 -19.234375 24.5625 -17.207031 24.5625 -14.59375 L 24.5625 0 Z M 16.828125 0 "/></g></g></g><g fill="rgb(0%, 0%, 0%)" fill-opacity="1"><g transform="translate(294.858224, 65.348542)"><g><path d="M 13.65625 -5.71875 C 14.695312 -5.71875 15.945312 -5.976562 17.40625 -6.5 L 17.40625 -0.84375 C 16.363281 -0.394531 15.367188 -0.078125 14.421875 0.109375 C 13.472656 0.296875 12.367188 0.390625 11.109375 0.390625 C 8.503906 0.390625 6.628906 -0.242188 5.484375 -1.515625 C 4.335938 -2.785156 3.765625 -4.742188 3.765625 -7.390625 L 3.765625 -16.625 L 1.046875 -16.625 L 1.046875 -19.78125 L 4.5 -22.21875 L 6.5 -26.921875 L 11.5625 -26.921875 L 11.5625 -22.4375 L 17.0625 -22.4375 L 17.0625 -16.625 L 11.5625 -16.625 L 11.5625 -7.90625 C 11.5625 -6.445312 12.257812 -5.71875 13.65625 -5.71875 Z M 13.65625 -5.71875 "/></g></g></g><g fill="rgb(0%, 0%, 0%)" fill-opacity="1"><g transform="translate(315.534342, 65.348542)"><g><path d="M 20 -6.890625 C 20 -4.484375 19.179688 -2.664062 17.546875 -1.4375 C 15.910156 -0.21875 13.5625 0.390625 10.5 0.390625 C 8.832031 0.390625 7.382812 0.300781 6.15625 0.125 C 4.925781 -0.0507812 3.671875 -0.375 2.390625 -0.84375 L 2.390625 -7.046875 C 3.597656 -6.515625 4.914062 -6.078125 6.34375 -5.734375 C 7.78125 -5.398438 9.054688 -5.234375 10.171875 -5.234375 C 11.847656 -5.234375 12.6875 -5.613281 12.6875 -6.375 C 12.6875 -6.769531 12.453125 -7.125 11.984375 -7.4375 C 11.515625 -7.75 10.15625 -8.351562 7.90625 -9.25 C 5.84375 -10.09375 4.398438 -11.050781 3.578125 -12.125 C 2.765625 -13.195312 2.359375 -14.5625 2.359375 -16.21875 C 2.359375 -18.300781 3.160156 -19.921875 4.765625 -21.078125 C 6.378906 -22.242188 8.660156 -22.828125 11.609375 -22.828125 C 13.078125 -22.828125 14.460938 -22.664062 15.765625 -22.34375 C 17.066406 -22.019531 18.414062 -21.546875 19.8125 -20.921875 L 17.71875 -15.9375 C 16.6875 -16.394531 15.597656 -16.785156 14.453125 -17.109375 C 13.304688 -17.429688 12.367188 -17.59375 11.640625 -17.59375 C 10.367188 -17.59375 9.734375 -17.285156 9.734375 -16.671875 C 9.734375 -16.285156 9.953125 -15.957031 10.390625 -15.6875 C 10.835938 -15.414062 12.117188 -14.863281 14.234375 -14.03125 C 15.804688 -13.382812 16.976562 -12.75 17.75 -12.125 C 18.519531 -11.507812 19.085938 -10.78125 19.453125 -9.9375 C 19.816406 -9.101562 20 -8.085938 20 -6.890625 Z M 20 -6.890625 "/></g></g></g><g clip-path="url(#id7)"><path fill="rgb(1.568604%, 64.309692%, 93.728638%)" d="M 124.242188 11.640625 L 124.242188 12.765625 L 123.113281 12.765625 L 123.113281 11.640625 Z M 132.082031 9.953125 L 133.269531 9.953125 L 133.269531 11.078125 L 132.082031 11.078125 C 131.820312 12.359375 130.683594 13.328125 129.320312 13.328125 L 126.65625 13.328125 C 126.570312 13.328125 126.5 13.398438 126.5 13.484375 C 126.5 13.539062 126.527344 13.589844 126.574219 13.617188 L 131.867188 16.785156 L 131.285156 17.746094 L 125.996094 14.582031 C 125.609375 14.351562 125.371094 13.929688 125.371094 13.484375 C 125.371094 12.777344 125.945312 12.203125 126.65625 12.203125 L 129.320312 12.203125 C 130.054688 12.203125 130.683594 11.734375 130.914062 11.078125 L 126.5 11.078125 L 126.5 9.953125 L 130.914062 9.953125 C 130.683594 9.296875 130.054688 8.828125 129.320312 8.828125 L 125.371094 8.828125 L 125.371094 7.703125 L 133.832031 7.703125 L 133.832031 8.828125 L 131.574219 8.828125 C 131.820312 9.15625 132 9.539062 132.082031 9.953125 Z M 135.523438 11.640625 L 135.523438 12.765625 L 134.398438 12.765625 L 134.398438 11.640625 Z M 136.957031 17.003906 L 136.003906 16.402344 C 136.796875 15.148438 137.21875 13.695312 137.21875 12.203125 C 137.21875 7.859375 133.675781 4.328125 129.320312 4.328125 C 124.964844 4.328125 121.421875 7.859375 121.421875 12.203125 C 121.421875 16.546875 124.964844 20.078125 129.320312 20.078125 C 131.5625 20.078125 133.710938 19.121094 135.207031 17.453125 L 136.046875 18.203125 C 134.335938 20.109375 131.882812 21.203125 129.320312 21.203125 C 124.34375 21.203125 120.292969 17.164062 120.292969 12.203125 C 120.292969 7.242188 124.34375 3.203125 129.320312 3.203125 C 134.296875 3.203125 138.347656 7.242188 138.347656 12.203125 C 138.347656 13.910156 137.867188 15.566406 136.957031 17.003906 Z M 129.320312 0.953125 C 123.089844 0.953125 118.035156 5.988281 118.035156 12.203125 C 118.035156 18.417969 123.089844 23.453125 129.320312 23.453125 C 135.550781 23.453125 140.601562 18.417969 140.601562 12.203125 C 140.601562 5.988281 135.550781 0.953125 129.320312 0.953125 " fill-opacity="1" fill-rule="nonzero"/></g><path fill="rgb(1.568604%, 64.309692%, 93.728638%)" d="M 143.988281 3.765625 L 142.859375 3.765625 L 142.859375 2.640625 L 143.988281 2.640625 L 143.988281 3.765625 " fill-opacity="1" fill-rule="nonzero"/><path fill="rgb(1.568604%, 64.309692%, 93.728638%)" d="M 143.988281 6.015625 L 142.859375 6.015625 L 142.859375 4.890625 L 143.988281 4.890625 L 143.988281 6.015625 " fill-opacity="1" fill-rule="nonzero"/><path fill="rgb(1.568604%, 64.309692%, 93.728638%)" d="M 142.859375 4.890625 L 141.730469 4.890625 L 141.730469 3.765625 L 142.859375 3.765625 L 142.859375 4.890625 " fill-opacity="1" fill-rule="nonzero"/><path fill="rgb(1.568604%, 64.309692%, 93.728638%)" d="M 145.117188 4.890625 L 143.988281 4.890625 L 143.988281 3.765625 L 145.117188 3.765625 L 145.117188 4.890625 " fill-opacity="1" fill-rule="nonzero"/><path fill="rgb(1.568604%, 64.309692%, 93.728638%)" d="M 115.78125 17.828125 L 114.652344 17.828125 L 114.652344 16.703125 L 115.78125 16.703125 L 115.78125 17.828125 " fill-opacity="1" fill-rule="nonzero"/><path fill="rgb(1.568604%, 64.309692%, 93.728638%)" d="M 115.78125 20.078125 L 114.652344 20.078125 L 114.652344 18.953125 L 115.78125 18.953125 L 115.78125 20.078125 " fill-opacity="1" fill-rule="nonzero"/><path fill="rgb(1.568604%, 64.309692%, 93.728638%)" d="M 114.652344 18.953125 L 113.523438 18.953125 L 113.523438 17.828125 L 114.652344 17.828125 L 114.652344 18.953125 " fill-opacity="1" fill-rule="nonzero"/><path fill="rgb(1.568604%, 64.309692%, 93.728638%)" d="M 116.910156 18.953125 L 115.78125 18.953125 L 115.78125 17.828125 L 116.910156 17.828125 L 116.910156 18.953125 " fill-opacity="1" fill-rule="nonzero"/><path fill="rgb(1.568604%, 64.309692%, 93.728638%)" d="M 137.21875 33.015625 L 139.472656 33.015625 L 139.472656 24.015625 L 137.21875 24.015625 L 137.21875 33.015625 " fill-opacity="1" fill-rule="nonzero"/><g clip-path="url(#id8)"><path fill="rgb(1.568604%, 64.309692%, 93.728638%)" d="M 136.089844 25.941406 C 134.761719 24.757812 132.714844 24.800781 131.4375 26.074219 L 130.679688 26.828125 L 127.910156 26.828125 C 126.820312 26.828125 125.933594 27.710938 125.933594 28.796875 L 125.933594 29.078125 L 132.703125 29.078125 L 132.703125 30.203125 L 124.804688 30.203125 L 124.804688 28.796875 C 124.804688 28.703125 124.8125 28.609375 124.820312 28.515625 L 123.679688 28.515625 L 120.859375 27.390625 L 119.164062 25.703125 L 116.578125 25.703125 L 119.480469 28.597656 L 122.09375 29.640625 L 123.113281 29.640625 L 123.113281 30.765625 L 121.984375 30.765625 C 121.914062 30.765625 121.84375 30.75 121.777344 30.726562 L 118.957031 29.601562 C 118.882812 29.570312 118.820312 29.53125 118.765625 29.476562 L 114.417969 25.140625 L 111.832031 25.140625 L 111.832031 25.703125 L 118.035156 31.890625 L 128.191406 34.703125 L 136.089844 32.601562 L 136.089844 25.941406 " fill-opacity="1" fill-rule="nonzero"/></g><g clip-path="url(#id9)"><path fill="rgb(1.568604%, 64.309692%, 93.728638%)" d="M 144.621094 32.453125 L 142.367188 32.453125 L 142.367188 31.328125 L 144.621094 31.328125 Z M 140.601562 22.890625 L 140.601562 34.070312 L 146.316406 34.070312 L 146.316406 22.890625 L 140.601562 22.890625 " fill-opacity="1" fill-rule="nonzero"/></g></svg>