<svg width="328" height="328" fill="none" xmlns="http://www.w3.org/2000/svg"><path fill="none" d="M0 0h328v328H0z"/><path d="M263.8 274.6s-11 1.7-11 5.6c.2 1.7 1.8 3 3.7 3l14.7-.3c1.4 0 2.6-.6 2.9-1.7l-.1-1.2-.6-4.7c0-1.4-.7-1-2.3-1l-7.3.3Z" fill="#fff"/><path fill-rule="evenodd" clip-rule="evenodd" d="M252.4 280.2c.2 2 2 3.4 4.1 3.4l14.7-.2c1.6 0 3-.9 3.3-2.1V280l-.6-4.7c0-.4 0-.9-.4-1.2-.4-.3-.9-.3-1.6-.2h-.8l-7.3.3h-.1c-.5.1-3 .5-5.5 1.3-4 1.3-5.8 2.9-5.8 4.7Zm6-3.8c2.6-.9 5.2-1.3 5.4-1.3l7.3-.3a42 42 0 0 0 1.8 0v.5l.7 4.8v1c-.2.8-1.2 1.4-2.4 1.4l-14.7.2c-1.7 0-3.1-1.1-3.2-2.5 0-1 .8-2.4 5.1-3.8Z" fill="#3B3B3B"/><path d="M265.7 274.6s-2.3 1.2-4.1 1.8c0 0-8.5 0-7.3 4.6 0 0 .8 2 7.5 1.2 6.8-.7 10.3-.4 11.1-1.4.4-1 0-4.6-.5-5.5-.5-.9-6.7-.7-6.7-.7Z" fill="#FFCCA9"/><path d="M266.6 281.8c-.3 0-.6-.1-.7-.4l-4-6.3c-1.3.3-3.2.9-4.8 1.6l3.4 6.5 11 .3c1.7 0 2.5-.3 3-.4.6 0 1-1.6-.2-1.6-2.5.1-5.6.1-7.7.3Z" fill="#3B3B3B"/><path d="m148.3 280.4 79.7-1.1a109.3 109.3 0 1 0-79.7 1Z" fill="#F9DED9"/><path d="m271.3 164 2.4-2c.8-.5 1.7 1.2-.6 3.4M274.3 165.6l2.8-2.4c1.5-1.3 1.8 2-1.5 4.1" fill="#FFCCA9"/><path d="M274.9 167.4s1.4-1.2 3-2.2c1.8-1.1 1.6 2.5-2 4.1" fill="#FFCCA9"/><path d="M274.4 170.4s1.9-1.5 3.6-2.6c1.7-1 1.6 2.2-2.6 4.6" fill="#FFCCA9"/><path d="M260.3 146.5s9.8 1 10 15.4l-5.7-2.2s.4-4.2-3.4-6.7c-2.9-2-.9-6.5-.9-6.5Z" fill="#fff"/><path d="M239.4 148.3s11.3-3.8 19.2-2.3c0 0 2.3 0 3.9 3 1 1.8.3 4-1.5 5.1" fill="#fff"/><path d="M263.2 153.3s1.2-1.5.4-4.3c0 0 5 1.6 5.7 10.6l-4.6-3.6s-1-2.2-1.5-2.7Z" fill="#FFCCA9"/><path d="M247.3 147.3s7-1.4 11.4-.3c0 0 5.3 2.3 1.9 6 0 0-6.4-4.6-13.3-5.7Z" fill="#FF8870"/><path d="m226.9 160.9 8 2-.4-11.8h-8.7l1 9.8ZM208.2 142.8c-1 .8-1.8 2-1.8 3.3-.2 1.8 0 4.5 1.8 6.6 3 3.6 0 8.8 2.2 8.8s3-.7 3-.7 0 2.2 1.4 2.2c0 0 0 1.4 2.2 1.4l8.1-5.8.7-7.4-.7-4.4-6.6-5.9H211l-2.9 2Z" fill="#fff"/><path d="M231.3 149.5s2.6 9 .6 15.5c0 0 13 4.4 15.1 18.3 2.1 13.9 1.4 29.5 1.4 29.5s21.4 2.1 26.6-.2l1.7-11.1 3.2 10.2s3.6-.3 5.4-2.8c0 0 2-28.7-14.3-47.5-16.3-18.7-27.4-17.3-39.7-12ZM201 170.2l-18.6 22.4c-.6.6-1.5.7-2.2 0l-11.7-10.3-5.7 7.2 16.8 14.3c.6.6 1.6.5 2.1 0l24.8-28.8-5.5-4.8Z" fill="#fff"/><path d="M172.2 178s-4.3 9.7-14.5 15.2l-16-15.4 14-13.8 16.5 14Z" fill="#fff"/><path d="m138.3 138.2 21 19.3s-3 15-22.2 22.8L115.9 160" fill="#fff"/><path d="M145.3 132.4s-14 24-34 32.8l-28.7-28.8 35.2-31.8 27.5 27.8Z" fill="#fff"/><path d="m122 110.8-.8 1a21.4 21.4 0 0 1-3.8 5.2c-2.2 2.5-4.6 4.7-7 7l-3.6 3.3a114.2 114.2 0 0 1-14.6 11.8l-1.8 1.2 21 21.2c18.1-8 30.8-29.8 30.8-29.8l-20.3-20.9Z" fill="#F8C4B9"/><path d="M233.2 118.4c-.6-5.2 0-8.1 1.8-10.8 1.8-2.6 4.3-3.6 6.5-4.6 1.9-.8 3.5-1.5 4.7-3 1.9-2.4 2.5-5.9 1.5-8.8a6.5 6.5 0 0 0-4.5-4.5c-3.4-.9-6.8-.2-9 1.9-1.3 1.2-2.7 3.4-1.9 7l-6.6.2c-1.2-5.1.2-8.7 3.8-12.2 4-3.7 9.9-5 15.5-3.4a13.3 13.3 0 0 1 9.2 8.9c.9 2.4 1 5.1.6 7.8-.5 2.7-1.6 5.3-3.3 7.4-2.2 2.8-5 4-7.3 5-1.9.8-3 1.3-3.6 2.2-.8 1.2-1 3.4-.6 6.6l-6.8.3Z" fill="#3B3B3B"/><path d="M233.1 175.4s-8.9 10.8-28 4.7c0 0-6.5-7.4-8-7-1.5.5-.9 1.1-2.4 2.1-1.6 1-1.6 2.6-1.6 2.6s-1.6 1.7-.8 3.3c1 1.6 8 4.7 9.4 4.9 1.5 0 26.2 8.5 36-4l1.2-2.2-5.8-4.4Z" fill="#fff"/><path d="M233.2 177.4s-6.4 9.7-28.8 4.5c0 0-5.5-7.5-7-7-1.1.4-2.6 1.9-2.8 3.3 0 0-2.5 3.1 1.7 4.2 0 0 30.3 13.2 40.7-2l-3.8-3Z" fill="#FFCCA9"/><path d="M237.3 156s1.8 10.7-5.3 19.4l6 6.8s10.8-6.5 12.9-21.9" fill="#fff"/><path d="M270.6 162.8s-17.5-22.7-37-12.9l.6 13.6 4 1.8c-.6 3.3-1.7 6.9-4 9.8l4.3 4.8s3.3-2.2 6.4-7c1.7 3 3.4 6.9 4 11.5 1.5 11.3 1.4 26.7 1.4 26.7s10.6 2 23.1.2l2.6-13c.1-.7 1-.8 1.2-.1l4 11.3 2.9-1.5s-.2-31-13.5-45.2Z" fill="#FF8870"/><path d="m124.6 97.5-.3-.2-33.5-35.5c-14 18-49.9 47.8-49.9 47.8l36 34c2.6 2.6 15.6-6.2 28.4-19 12.8-12.8 20.8-24.5 19.3-27.1Z" fill="#fff"/><path d="m94.7 54.2-.2-.5-.5-.5L77 36.3l-58 59.4L34.4 111c.8.8 1 1 1.5 1.3 5 2.4 19-6.7 35.3-23 15-15.1 25-30 23.6-35Z" fill="#fff"/><ellipse cx="47.8" cy="66" rx="41.8" ry="9.2" transform="rotate(-45 47.8 66)" fill="#fff"/><path fill-rule="evenodd" clip-rule="evenodd" d="M278 170.8a70.1 70.1 0 0 1 6.8 21.3c1.3 8.2 1.2 14.7 1.1 16.4V209.2c-1.9 2.6-5.5 3-6 3l-.4.1-.5-1.6c-.4 9.7-2.2 51.4-4.4 63.6-.2.5-.6 1-1 1l-9.6-.2a1 1 0 0 1-1-.8c-.9-3-2.3-15.3-7.2-60.4l-7.5-.5h-.5v-.7c0-1.5.6-16.2-1.3-29.3a22 22 0 0 0-2-6.5l-.3.3v.1l-.1.1c-3 3.6-5.7 5.2-5.8 5.3l-.4.2h-.2c-3.7 4.3-9.7 6.5-17.7 6.5h-.7a69.7 69.7 0 0 1-16.1-2.5h-.2l-1.3-.4a16 16 0 0 1-3.4-1.2L182 204.1a2 2 0 0 1-1.5.6c-.5 0-1-.1-1.4-.5l-16.4-14c-1.4 1.2-3 2.4-4.9 3.3l-.2.2-7-6.7-14 12.3 31.5 79.7c.2.5 0 1-.5 1.3a1 1 0 0 1-1.2-.5L135 200.5l-7 6.2-.7 76c0 .5-.5.9-1 .9a1 1 0 0 1-1-1l1-88.8h-1.8l-30.3 84.7a1 1 0 0 1-1.2.5 1 1 0 0 1-.6-1.2l30.7-85.8v-18l-2.5-2.5 4.1-2.3-7.1-6.8c-2 1.2-4 2.3-6.2 3.3l-.4.1-24.7-24.8c-3.6 2.3-6.4 3.5-8.2 3.5-.8 0-1.4-.2-1.8-.6l-33.8-32c-2.1 1-3.7 1.2-4.9 1.2-1 0-1.6-.1-2.1-.4-.6-.3-1-.6-1.7-1.4L19.3 96.7c-.6 0-1.1-.3-1.5-.7-2.5-2.5.8-9 4-14a145 145 0 0 1 19-23c8-7.9 16.1-14.6 23-19 5-3.2 11.4-6.5 14-4l.6 1 16 15.8.5.6.4.7c.5 1.9-.4 5-2.5 8.9l32 33.8.3.4c1 1.6-.7 5.3-4 10l25 25-.3.5s-1.8 3-4.9 7.2l6 5.6a36 36 0 0 0 1.8-3.8l8.4 7.7c-.5 1.4-1 2.6-1.7 3.9l4.4 4v.3c0 .2-.6 3-2.9 6.9l7.4 6.3h.6v.4l7.9 6.7-.2.3v.1l-1.6 2.8-.2.3v.2l-1 1.2 10.8 9.5c.2.2.4.3.7.3.3 0 .5-.1.7-.3l9.6-11.6c-.3-1.4.6-2.6 1-3 0-.6.3-2 1.8-2.9.6-.4.8-.7 1-1 .3-.5.6-.9 1.6-1.1.2-.1.5-.1 1 .2l3-3.6 6.1 5.6-2.9 3.4 1.2 1.3c9.6 3 16.5 1.6 20.6-.1 2.8-1.2 4.7-2.6 5.7-3.6l-.4-.5.2-.4a23 23 0 0 0 4.1-7.6c-2.2-1.4-3.8-2-3.9-2l-.5-.1.2-.5.5-2.2-2.5-.6c-.2 2.6-1.7 4-5.8 6.8-4.4 2.9-6.6-2.2-6.6-3a1.7 1.7 0 0 0-.4-1c-1.5 0-2.1-.8-2.3-1.4-.9-.3-1.3-1-1.5-1.8-.5.2-1.3.4-2.4.4-.5 0-.8-.2-1-.4-.6-.6-.5-1.5-.4-2.7 0-1.9.2-4.1-1.3-6-1.8-2.2-2-5-1.9-7 0-1 .4-1.9 1-2.6l-.8-1.4c-.8-1.8-.1-4 1.5-5.2 8.1-5.9 14.2-1.3 15.7 0 .3.3.6.5 1 .5 6.1.5 6.8 8.9 6.8 11l-.1.8h.3a31.3 31.3 0 0 1 17.6-3.3 31 31 0 0 1 9.8-.2c.3 0 .8.1 1.5.4h.3c.4.1 2.8.5 5.2 2.5 3.7 3 4.9 7.9 5.1 11.9l.4.4.3.3 1.2 1.5 1-.7c.3-.2.7-.2 1 .1.4.5.5 1.5-.4 2.7l.3.4 2.4-2c.5-.5.9-.5 1-.4.4.2.6.5.6 1 0 .2 0 .6-.2 1l.7.1c.3.2.4.5.4 1s-.3 1-.6 1.6h.1c.2.2.5.4.5.9 0 .7-.5 1.6-1.4 2.6Zm-55.3-16.5c-.2-.6-.1-1.2.3-1.7.7-.6 1.4-1.6 1.3-2.9 0-2.2-1.4-2.2-1.4-2.2s-1.5 0-1.5 2.2c0 1.9-.5 1.6-.7 1.5l-.2-.1c-4.2-2.2-4.2-5.8-4.2-6.6 0-.7-1.5-1.4-4.5-.7-2 .5-3.4.3-4 .1-.5.6-.9 1.4-.9 2.2 0 1.7.1 4.2 1.7 6.2 1.7 2.2 1.6 4.7 1.5 6.6v2h.3c1.9 0 2.5-.6 2.5-.6l1-1v.9c.7-.7 2.1-2 3.1-2.4.6-.3 1.5 0 2.4.5 1.5.6 3 1.3 3.5-.5.4-1.6.1-2.7-.2-3.5Zm56 13.7v.2c0 .4-.3 1.2-1 2h-.1l-.1-.3-.5-.8 1.2-1 .4-.1Zm0-2.3v-.4l-.5.1-2.4 1.7.8 1.3 1.2-.8c.6-.7 1-1.4 1-1.9Zm-1.4-2.2.4-.3.2.4c0 .4-.1 1-.5 1.6l-1.7 1.2-.2.2-.7-1 .2-.2.2-.2 2-1.7Zm-3.2-1.1s0-.1-.2 0l-1 .6.4.4.5.7c.5-.9.5-1.5.3-1.7Zm-4.6-3.5a64 64 0 0 0-6.6-6.2c.6-1.3.6-2.7 0-4a9 9 0 0 0-.8-1.1c2.4 1 6.5 3.8 7.4 11.3Zm-11-12.5a27 27 0 0 0-7.2-.2c3.6 1 7.3 3 11 6 .4-1 .3-2.1-.2-3-1.4-2.7-3.4-2.8-3.5-2.8Zm-27.7 3V149.6l.3 1h-1l.7-1.4Zm-1.3 11.6 2.5.6a36 36 0 0 0-.7-9.9h-1.8l-.9 1c-.3.5-.5 1-.3 1.5.3 1.5 1 4.6 1.2 6.8ZM201 171l4.6 4-2.2 2.6a44.6 44.6 0 0 0-4.5-4.2l2-2.4Zm-29.4 7.1-7-6v.1l-.1.2-.1.4 6.8 6 .4-.6v-.1Zm-7.5-4.4 6.7 5.9a49.8 49.8 0 0 0-.6 1l-6.4-6 .3-.9Zm5.5 7.8.1-.1v-.1l-6.2-5.8-.5 1.1 6 5.8.6-.9Zm-23.3-5.6 1.1-.9 8.1 7.7-1.2.8-8-7.6Zm6 8.7 1.2-.6-8-7.6-1 .7 7.8 7.5Zm-4.2-10 1-1 8.2 7.8-1 .9-8.2-7.8Zm2.7-2.5-1 1 8 7.7c.4-.3.8-.6 1-1l-8-7.7Zm.6-.6.9-.9 8 7.6-.9 1-8-7.7Zm10.4 4 .4-1.1-7.4-6.8-.6.7 7.6 7.2Zm-6.5-8.6.4-.6 7 6.2c0 .4 0 .7-.2 1l-7.2-6.6Zm5.4 10.5.7-1.1-7.7-7.3-.8 1 7.8 7.4Zm-.6 3.5 5.7 5.4-1 1-5.8-5.4.7-.6.4-.4Zm1.3-1.6-.8 1 5.7 5.4.3-.3.6-.6-5.8-5.5Zm.5-.7.5-1 .1-.2 6 5.7-.8 1-5.8-5.5Zm1.2-7.3v-.4l-6.7-5.7-.2.4 6.8 6v-.3Zm-8.3-17 3.7 3.4a27 27 0 0 1-3.7 8c-2.8 4.2-8.2 10-17.7 14l-3.5-3.4a55.8 55.8 0 0 0 21.2-22Zm-38.6-40.8 24.8 24 .7-1 .6-.9-24.5-24-1.6 2ZM97.2 133l1.4-1.3 25.2 24.8-1.5 1.2L97.2 133Zm22.6 26.5 1.5-1-25.1-24.7-.7.6-.7.6 25 24.5ZM99.6 131l.5-.5.6-.5 25.6 24.4-1.5 1.4-25.2-24.8Zm3.2-3-1.2 1.2 25.6 24.4 1.1-1-25.5-24.6Zm.9-.8 1.3-1.4 25.5 24.5-1.3 1.3-25.5-24.4Zm2.6-2.7c0 .2-.2.3-.4.4l25.5 24.5.7-.7.6-.6-25.6-24.4-.8.8Zm2.2-2.1.8-1 25.4 24.4-1.2 1.3-25.5-24.3.5-.4Zm3-3.4-1.3 1.5 25.3 24.3 1.2-1.4-25.1-24.4Zm1-1 1-1.2 25.1 24.1-1.1 1.5-25-24.3Zm2.7-3-.8.8 25 24.1a23.4 23.4 0 0 1 1-1.3l-25-24-.3.4Zm29.1 17.8-1.2 1.8-24.4-24 1.7-2.3 24 24.2v.3ZM22.7 82.6c-4 6.4-5.6 11-4.1 12.6 1.5 1.5 6.2-.1 12.6-4.2 6.7-4.3 14.8-11 22.7-19 7.9-7.8 14.6-15.9 19-22.6 4-6.4 5.5-11.1 4-12.6-.3-.4-1-.6-1.7-.6A25 25 0 0 0 64.4 41C57.6 45.3 49.5 52 41.7 60c-8 7.8-14.7 16-19 22.7Zm13.4 29.2-1.4-1.2L21 96.8c3.1-.3 7.3-2.6 10.9-4.9a144 144 0 0 0 22.9-19c7.9-8 14.7-16.1 19-23a28 28 0 0 0 5-11.1l15 14.8.3.5.2.2c.6 2.3-1.4 7.1-5.6 13.3-4.3 6.5-10.7 14-18 21.2-8 8-15.4 14.4-21.7 18.5-6 4-10.6 5.6-12.8 4.5Zm7.7-.3 33.4 31.6c1.9 1.8 13.2-4.6 27.7-19 6-6 11.4-12.2 15-17.2 3.7-5.4 4.5-8.2 4.1-9l-.1-.1-31.8-33.6a134 134 0 0 1-20.6 25.5c-8 8-15.7 14.5-22 18.6-2.2 1.4-4 2.5-5.7 3.2Zm67.6 53-23.9-24v-.1l1.2-.8.1-.1h.1l24.2 24-1.7 1ZM90 138.6l24.3 24.3 1.7-1-24.7-24.2-1.3 1Zm27.1 22.6L92.3 137l1.5-1.2 25 24.5-.8.5-.9.5Zm1.5.6 7.2 6.8c11-7 17.5-16.5 20.7-22.2l-6.2-5.7a84.4 84.4 0 0 1-21.6 21Zm9.6 42.8v-10.8h4.3l2 5.2-6.3 5.6Zm6-11.5 1.8 4.5 13.5-11.8-7.5-7.2-4.7 2.2h-.3l-3.6-3.3.9 15.6Zm16-7.8-7.5-7.2.6-.3.5-.3 7.7 7.3-1.2.5Zm1.3 1.3 6.3 6 1.1-.7-6.1-5.8h-.3l-1 .5Zm8.2 4.8-6-5.7.3-.2.8-.5 6 5.7-1.1.7Zm-4.1-6.8 5.9 5.6.5-.4.6-.5-5.8-5.5-1.2.8Zm2-1.3 1-.9 5.6 5.5-1 .8-5.7-5.4Zm22.4 20c.4.4 1 .3 1.3 0l16-18.5c-2.1-1-4.3-2.2-5.2-3.1l-9.3 11.2a2 2 0 0 1-1.4.7c-.6 0-1.1-.2-1.5-.6l-10.7-9.4c-1.4 1.8-3.2 3.9-5.5 5.9l16.3 13.8Zm23.3-17.6-1.5-.4c-1.5-.1-8.3-3.3-9-4.5-.7-1.3.7-2.6.7-2.7l.2-.1v-.2s0-1.4 1.3-2.2c.8-.5 1.1-1 1.3-1.3.3-.4.4-.5 1-.7.9 0 4.5 3.5 7.4 6.9h.1l.2.1c10 3.2 17.3 1.7 21.5 0 3-1.3 5-2.8 6-3.8l4.5 5c-5.7 7-17 8.2-33.7 3.9Zm77 25.3c.9-.2 3.2-.7 4.5-2.4 0-1.1.3-7.9-1-16.4-1-6.4-3.3-14.8-7.7-22.6v-.1a48.3 48.3 0 0 0-5.5-7.8c-7.4-8.6-14.3-13.4-21-14.8-6.4-1.3-12.2.5-17.6 2.8a34 34 0 0 1 .7 14.9c.6.2 1.8.8 3.3 1.7 1.5-5.5.8-10.2.8-10.2 0-.3.1-.6.4-.7.3 0 .6.2.7.5 0 .8 1.6 10.8-5.1 19.5l5.3 6c2-1.3 10.5-8 12.3-21.2 0-.3.3-.5.6-.5.2 0 .5.3.4.6-1 7-3.7 12.2-6.2 15.6 1.1 2 2 4.4 2.4 7.2 1.8 12.4 1.5 26.3 1.4 29.1 1.4.2 6 .5 10.8.7 7 .3 12 0 14.3-.7l.4-.4 2-12.8 3.7 12Z" fill="#3B3B3B"/><ellipse cx="46.9" cy="66.8" rx="32.8" ry="6.4" transform="rotate(-45 47 66.8)" fill="#F8C4B9"/><path fill="#3B3B3B" d="m53 110.7.6-.7 27.6 25.5-.7.8zM71.9 122.6l.6-.7 11.8 10.4-.7.8zM131.3 284H122a.8.8 0 0 1-.8-.8c0-.5.3-.9.8-.9h9.4c.5 0 .8.4.8.9 0 .4-.3.8-.8.8ZM170.3 280.5h-6.8a.8.8 0 0 1-.9-.8c0-.5.4-.8.9-.8h6.8a.8.8 0 1 1 0 1.6ZM96.6 279.8h-6.8a.8.8 0 0 1-.8-.8c0-.4.4-.8.8-.8h6.8a.8.8 0 1 1 0 1.6ZM201 168.8l1-1.3 6.7 5.9-1.1 1.2z"/><path d="M208 144.3s-1.8 4.1 1.7 8c0 0 .8.9 1 3.3.2 2.4-.9 6.1 2.1 4 3-2 3.7-2.8 5.2-2.4 1.5.3 4.7 2.7 4.5-1-.2-3.5-.6-3 .3-4 .8-1 1.5-3 .6-3.7-.9-.7-1.7 1-1.7 1.6 0 .7-.1 2.2-1.5 2.2-1.3 0-4-3.5-4.4-5.5-.2-2-.7-2.5-2-2.4H208Z" fill="#FFCCA9"/><path d="M209.6 150.7s.6.7 3.6.4Z" fill="#fff"/><path d="M211.8 151.7c-1.9 0-2.5-.5-2.6-.6l.8-.7s.6.4 3.2.2c.2 0 .5.1.5.5 0 .2-.1.5-.5.5h-1.4Z" fill="#3B3B3B"/><ellipse rx=".7" ry="1.5" transform="rotate(-64 229 -93)" fill="#3C2D42"/><path d="M231 152.4h-1.4s-1.8.7-.3 3c0 0 1.1 1.6.6 5l1.7.4s0-7-.5-8.4Z" fill="#FFCCA9"/><circle cx="237.4" cy="125.1" fill="#3B3B3B" r="4.2"/><path d="M28.7 82.3c-.3-.1-.3-.5-.2-.7 10.9-16 28-30 31-32.3.1-.2.5-.1.6.1.2.2.1.5 0 .7-2.9 2.2-20 16.2-30.7 32-.2.3-.5.4-.7.2ZM174.3 67.5a.3.3 0 0 1-.3-.3c0-.2 0-.3.2-.4.1 0 10-1.7 23.3-.2.1 0 .3.2.2.4 0 .2-.1.3-.3.3-13.2-1.6-23 .1-23 .2h-.1ZM164.9 71.2c-.2 0-.3 0-.3-.2s0-.3.2-.4c.2 0 16-3.6 33-1 .2 0 .4.2.3.4l-.3.2c-17-2.5-32.7 1-32.9 1ZM95.7 239.1l-.3-.1c-8.5-12.3-11.7-22.4-11.7-22.5 0-.2 0-.4.2-.4s.4 0 .4.2c0 0 3.2 10.2 11.7 22.3l-.1.5h-.2Z" fill="#3B3B3B"/><path d="m128.6 178.5-8-6.7a.3.3 0 0 1-.1-.4c0-.2.3-.2.4 0l7.8 6.4 5.2-2c.2 0 .4 0 .4.2l-.1.4-5.6 2ZM79.3 42.6S65.1 78 25.3 97.1L37 108.7s33-11.5 54.7-53.8L79.3 42.6ZM92.6 68.5s-10 22.3-42.5 42.9l29.3 28.8S107 126 121.2 98.9L92.6 68.5Z" fill="#F8C4B9"/><path d="m250.4 108.7-.3-.2c0-.2 0-.3.2-.4 6.5-3.7 6.3-13 6.3-13 0-.2.1-.4.3-.4.2 0 .3.2.3.3 0 .1.3 9.8-6.6 13.6h-.2Z" fill="#3B3B3B"/><path d="M270 275.8c-1.2 0-2.4-.1-3.3-.3-2.2-.4-3.8-1-4-1l-.4-2c0-.2.1-.3.3-.4.2 0 .3.1.4.3l.2 1.6c1 .3 6.6 2 10.8.5.2 0 .3 0 .4.2 0 .2 0 .4-.2.4-1.3.5-2.8.7-4.2.7Z" fill="#FFBCB1"/><path d="M253 280.5c-.2-.1-.2-.2-.2-.3 1-2.3 5.7-2.8 6-2.8l.2.2-.2.3s-4.6.4-5.6 2.4l-.2.2Z" fill="#3B3B3B"/><path d="M254.4 280.9a.2.2 0 0 1-.2-.2c0-.8.7-1.4 2.1-1.8l2-.4.2.2-.2.3c-1 0-3.6.5-3.7 1.7 0 0 0 .2-.2.2ZM256.1 281.6l-.2-.1c-.1-.4 0-.7.2-1 .7-.8 3.1-.8 3.4-.8a.2.2 0 0 1 0 .5c-.7 0-2.6 0-3 .7-.2.1-.2.3-.2.5l-.1.2h-.1ZM181 212.8h-.2v-.5l6.2-5.8h.5c.2.2.1.4 0 .5l-6.2 5.8h-.2ZM177.6 212.3l-.3-.1a.3.3 0 0 1 0-.5l5.4-5c.1-.2.4-.2.5 0v.5l-5.4 5-.2.1Z" fill="#3B3B3B"/></svg>