<svg width="327" height="327" viewBox="0 0 327 327" fill="none" xmlns="http://www.w3.org/2000/svg">
<path fill-rule="evenodd" clip-rule="evenodd" d="M75.8352 85.3657H46.095C42.3457 85.3657 39.2783 82.3415 39.2783 78.6458V48.9751C39.2783 45.2791 42.3457 42.2549 46.095 42.2549H75.8352C79.5844 42.2549 82.6522 45.2791 82.6522 48.9751V78.6458C82.6522 82.3415 79.5844 85.3657 75.8352 85.3657Z" fill="#E4EBF7"/>
<path fill-rule="evenodd" clip-rule="evenodd" d="M251.037 282.332C247.287 282.332 244.22 279.282 244.22 275.554V245.628C244.22 241.9 247.287 238.85 251.037 238.85H280.777C284.526 238.85 287.594 241.9 287.594 245.628V275.554C287.594 279.282 284.526 282.332 280.777 282.332H251.037Z" fill="#ADC6FF"/>
<path d="M263.706 39.917H129.312C119.712 39.917 111.93 47.6992 111.93 57.2991V192.117C111.93 201.717 119.712 209.499 129.312 209.499H263.706C273.306 209.499 281.088 201.717 281.088 192.117V57.2991C281.088 47.6992 273.306 39.917 263.706 39.917Z" fill="#597EF7"/>
<path fill-rule="evenodd" clip-rule="evenodd" d="M155.665 99.2513C154.866 99.2513 154.219 98.2314 154.219 96.9713V87.8512C154.219 86.5931 154.866 85.5732 155.665 85.5732H196.147C196.946 85.5732 197.593 86.5931 197.593 87.8512V96.9713C197.593 98.2314 196.946 99.2513 196.147 99.2513H155.665Z" fill="white"/>
<path fill-rule="evenodd" clip-rule="evenodd" d="M259.039 131.864H157.834C155.836 131.864 154.219 130.844 154.219 129.584V120.464C154.219 119.205 155.836 118.186 157.834 118.186H259.039C261.037 118.186 262.654 119.205 262.654 120.464V129.584C262.654 130.844 261.037 131.864 259.039 131.864Z" fill="white"/>
<path fill-rule="evenodd" clip-rule="evenodd" d="M157.111 164.476C155.513 164.476 154.219 163.456 154.219 162.196V153.076C154.219 151.818 155.513 150.798 157.111 150.798H238.075C239.674 150.798 240.967 151.818 240.967 153.076V162.196C240.967 163.456 239.674 164.476 238.075 164.476H157.111Z" fill="white"/>
<path d="M191.054 117.099H56.6604C47.0605 117.099 39.2783 124.881 39.2783 134.481V269.299C39.2783 278.898 47.0605 286.681 56.6604 286.681H191.054C200.654 286.681 208.437 278.898 208.437 269.299V134.481C208.437 124.881 200.654 117.099 191.054 117.099Z" fill="#ADC6FF"/>
<path d="M56.6604 117.099H191.054C200.654 117.099 208.437 124.881 208.437 134.481V157.051H39.2783V134.481C39.2783 124.881 47.0605 117.099 56.6604 117.099Z" fill="#253368"/>
<path d="M179.147 174.713H67.4836C63.8837 174.713 60.9653 177.631 60.9653 181.231V195.371C60.9653 198.971 63.8837 201.89 67.4836 201.89H179.147C182.747 201.89 185.665 198.971 185.665 195.371V181.231C185.665 177.631 182.747 174.713 179.147 174.713Z" fill="white"/>
<path d="M179.147 219.736H67.4836C63.8837 219.736 60.9653 222.655 60.9653 226.255V261.049C60.9653 264.649 63.8837 267.567 67.4836 267.567H179.147C182.747 267.567 185.665 264.649 185.665 261.049V226.255C185.665 222.655 182.747 219.736 179.147 219.736Z" fill="white"/>
</svg>
