<svg xmlns="http://www.w3.org/2000/svg" xmlns:xlink="http://www.w3.org/1999/xlink" width="600" zoomAndPan="magnify" viewBox="0 0 450 74.999997" height="100" preserveAspectRatio="xMidYMid meet" version="1.0"><defs><g><g id="id1"/><g id="id2"/><g id="id3"/></g><clipPath id="id4"><path d="M 110.789062 2.453125 L 146.789062 2.453125 L 146.789062 34.703125 L 110.789062 34.703125 Z M 110.789062 2.453125 " clip-rule="nonzero"/></clipPath><clipPath id="id5"><path d="M 308 11 L 314 11 L 314 34 L 308 34 Z M 308 11 " clip-rule="nonzero"/></clipPath><clipPath id="id6"><path d="M 322.539062 22.722656 L 310.871094 34.390625 L 299.207031 22.722656 L 310.871094 11.058594 Z M 322.539062 22.722656 " clip-rule="nonzero"/></clipPath><clipPath id="id7"><path d="M 323.632812 21.628906 L 310.90625 34.359375 L 298.179688 21.628906 L 310.90625 8.902344 Z M 323.632812 21.628906 " clip-rule="nonzero"/></clipPath></defs><g fill="rgb(0%, 0%, 0%)" fill-opacity="1"><g transform="translate(113.595336, 67.061545)"><g><path d="M 24.109375 -19.71875 C 24.109375 -16.488281 23.15625 -13.992188 21.25 -12.234375 C 19.34375 -10.472656 16.632812 -9.59375 13.125 -9.59375 L 10.9375 -9.59375 L 10.9375 0 L 3.125 0 L 3.125 -28.90625 L 13.125 -28.90625 C 16.78125 -28.90625 19.523438 -28.109375 21.359375 -26.515625 C 23.191406 -24.921875 24.109375 -22.65625 24.109375 -19.71875 Z M 10.9375 -15.953125 L 12.359375 -15.953125 C 13.535156 -15.953125 14.46875 -16.28125 15.15625 -16.9375 C 15.851562 -17.601562 16.203125 -18.515625 16.203125 -19.671875 C 16.203125 -21.628906 15.117188 -22.609375 12.953125 -22.609375 L 10.9375 -22.609375 Z M 10.9375 -15.953125 "/></g></g></g><g fill="rgb(0%, 0%, 0%)" fill-opacity="1"><g transform="translate(143.921819, 67.061545)"><g><path d="M 10.40625 0 L 2.671875 0 L 2.671875 -30.765625 L 10.40625 -30.765625 Z M 10.40625 0 "/></g></g></g><g fill="rgb(0%, 0%, 0%)" fill-opacity="1"><g transform="translate(161.751066, 67.061545)"><g><path d="M 17.28125 0 L 15.796875 -2.96875 L 15.640625 -2.96875 C 14.597656 -1.675781 13.535156 -0.789062 12.453125 -0.3125 C 11.378906 0.15625 9.984375 0.390625 8.265625 0.390625 C 6.160156 0.390625 4.5 -0.238281 3.28125 -1.5 C 2.070312 -2.769531 1.46875 -4.550781 1.46875 -6.84375 C 1.46875 -9.226562 2.296875 -11.003906 3.953125 -12.171875 C 5.617188 -13.335938 8.023438 -13.992188 11.171875 -14.140625 L 14.90625 -14.265625 L 14.90625 -14.578125 C 14.90625 -16.421875 14 -17.34375 12.1875 -17.34375 C 10.550781 -17.34375 8.472656 -16.789062 5.953125 -15.6875 L 3.71875 -20.78125 C 6.332031 -22.125 9.628906 -22.796875 13.609375 -22.796875 C 16.484375 -22.796875 18.707031 -22.082031 20.28125 -20.65625 C 21.851562 -19.238281 22.640625 -17.25 22.640625 -14.6875 L 22.640625 0 Z M 11.546875 -5.0625 C 12.484375 -5.0625 13.285156 -5.359375 13.953125 -5.953125 C 14.617188 -6.546875 14.953125 -7.316406 14.953125 -8.265625 L 14.953125 -10 L 13.171875 -9.921875 C 10.628906 -9.828125 9.359375 -8.894531 9.359375 -7.125 C 9.359375 -5.75 10.085938 -5.0625 11.546875 -5.0625 Z M 11.546875 -5.0625 "/></g></g></g><g fill="rgb(0%, 0%, 0%)" fill-opacity="1"><g transform="translate(191.721614, 67.061545)"><g><path d="M 13.640625 -5.71875 C 14.679688 -5.71875 15.925781 -5.972656 17.375 -6.484375 L 17.375 -0.84375 C 16.34375 -0.394531 15.351562 -0.078125 14.40625 0.109375 C 13.46875 0.296875 12.363281 0.390625 11.09375 0.390625 C 8.5 0.390625 6.625 -0.242188 5.46875 -1.515625 C 4.320312 -2.785156 3.75 -4.738281 3.75 -7.375 L 3.75 -16.609375 L 1.046875 -16.609375 L 1.046875 -19.75 L 4.484375 -22.1875 L 6.484375 -26.890625 L 11.546875 -26.890625 L 11.546875 -22.40625 L 17.046875 -22.40625 L 17.046875 -16.609375 L 11.546875 -16.609375 L 11.546875 -7.890625 C 11.546875 -6.441406 12.242188 -5.71875 13.640625 -5.71875 Z M 13.640625 -5.71875 "/></g></g></g><g fill="rgb(0%, 0%, 0%)" fill-opacity="1"><g transform="translate(215.087613, 67.061545)"><g><path d="M 16.359375 -16.609375 L 11.59375 -16.609375 L 11.59375 0 L 3.859375 0 L 3.859375 -16.609375 L 0.890625 -16.609375 L 0.890625 -20.40625 L 4.015625 -22.3125 L 4.015625 -22.6875 C 4.015625 -25.632812 4.617188 -27.753906 5.828125 -29.046875 C 7.035156 -30.335938 8.96875 -30.984375 11.625 -30.984375 C 12.65625 -30.984375 13.628906 -30.90625 14.546875 -30.75 C 15.460938 -30.59375 16.523438 -30.316406 17.734375 -29.921875 L 16.078125 -24.921875 C 15.128906 -25.179688 14.203125 -25.3125 13.296875 -25.3125 C 12.703125 -25.3125 12.269531 -25.128906 12 -24.765625 C 11.726562 -24.398438 11.59375 -23.8125 11.59375 -23 L 11.59375 -22.40625 L 16.359375 -22.40625 Z M 16.359375 -16.609375 "/></g></g></g><g fill="rgb(0%, 0%, 0%)" fill-opacity="1"><g transform="translate(236.555298, 67.061545)"><g><path d="M 24.0625 -11.25 C 24.0625 -7.582031 23.078125 -4.722656 21.109375 -2.671875 C 19.140625 -0.628906 16.378906 0.390625 12.828125 0.390625 C 9.429688 0.390625 6.726562 -0.65625 4.71875 -2.75 C 2.707031 -4.84375 1.703125 -7.675781 1.703125 -11.25 C 1.703125 -14.90625 2.6875 -17.742188 4.65625 -19.765625 C 6.625 -21.785156 9.390625 -22.796875 12.953125 -22.796875 C 15.148438 -22.796875 17.09375 -22.328125 18.78125 -21.390625 C 20.46875 -20.460938 21.769531 -19.125 22.6875 -17.375 C 23.601562 -15.625 24.0625 -13.582031 24.0625 -11.25 Z M 9.546875 -11.25 C 9.546875 -9.320312 9.800781 -7.851562 10.3125 -6.84375 C 10.832031 -5.84375 11.695312 -5.34375 12.90625 -5.34375 C 14.113281 -5.34375 14.960938 -5.84375 15.453125 -6.84375 C 15.953125 -7.851562 16.203125 -9.320312 16.203125 -11.25 C 16.203125 -13.164062 15.945312 -14.609375 15.4375 -15.578125 C 14.9375 -16.554688 14.082031 -17.046875 12.875 -17.046875 C 11.6875 -17.046875 10.832031 -16.5625 10.3125 -15.59375 C 9.800781 -14.625 9.546875 -13.175781 9.546875 -11.25 Z M 9.546875 -11.25 "/></g></g></g><g fill="rgb(0%, 0%, 0%)" fill-opacity="1"><g transform="translate(267.099299, 67.061545)"><g><path d="M 16.203125 -22.796875 C 16.867188 -22.796875 17.503906 -22.742188 18.109375 -22.640625 L 18.546875 -22.5625 L 17.859375 -15.265625 C 17.222656 -15.421875 16.347656 -15.5 15.234375 -15.5 C 13.546875 -15.5 12.316406 -15.113281 11.546875 -14.34375 C 10.785156 -13.570312 10.40625 -12.460938 10.40625 -11.015625 L 10.40625 0 L 2.671875 0 L 2.671875 -22.40625 L 8.421875 -22.40625 L 9.625 -18.828125 L 10 -18.828125 C 10.644531 -20.015625 11.546875 -20.972656 12.703125 -21.703125 C 13.859375 -22.429688 15.023438 -22.796875 16.203125 -22.796875 Z M 16.203125 -22.796875 "/></g></g></g><g fill="rgb(0%, 0%, 0%)" fill-opacity="1"><g transform="translate(290.841014, 67.061545)"><g><path d="M 30.171875 0 L 30.171875 -12.1875 C 30.171875 -13.695312 29.960938 -14.832031 29.546875 -15.59375 C 29.140625 -16.351562 28.488281 -16.734375 27.59375 -16.734375 C 26.40625 -16.734375 25.53125 -16.222656 24.96875 -15.203125 C 24.414062 -14.191406 24.140625 -12.601562 24.140625 -10.4375 L 24.140625 0 L 16.390625 0 L 16.390625 -12.1875 C 16.390625 -13.695312 16.191406 -14.832031 15.796875 -15.59375 C 15.398438 -16.351562 14.757812 -16.734375 13.875 -16.734375 C 12.664062 -16.734375 11.785156 -16.191406 11.234375 -15.109375 C 10.679688 -14.023438 10.40625 -12.257812 10.40625 -9.8125 L 10.40625 0 L 2.671875 0 L 2.671875 -22.40625 L 8.5 -22.40625 L 9.46875 -19.640625 L 9.921875 -19.640625 C 10.515625 -20.660156 11.375 -21.441406 12.5 -21.984375 C 13.632812 -22.523438 14.921875 -22.796875 16.359375 -22.796875 C 19.585938 -22.796875 21.851562 -21.816406 23.15625 -19.859375 L 23.765625 -19.859375 C 24.398438 -20.773438 25.28125 -21.492188 26.40625 -22.015625 C 27.53125 -22.535156 28.773438 -22.796875 30.140625 -22.796875 C 32.785156 -22.796875 34.738281 -22.117188 36 -20.765625 C 37.269531 -19.410156 37.90625 -17.347656 37.90625 -14.578125 L 37.90625 0 Z M 30.171875 0 "/></g></g></g><g clip-path="url(#id4)"><path fill="rgb(1.568604%, 64.309692%, 93.728638%)" d="M 110.789062 14.085938 L 128.789062 2.660156 L 146.789062 14.085938 L 128.789062 25.507812 Z M 110.789062 18.316406 L 113.160156 16.769531 L 128.789062 26.699219 L 144.257812 16.769531 L 146.789062 18.316406 L 128.789062 30.078125 Z M 110.789062 22.714844 L 113.160156 21.167969 L 128.789062 31.101562 L 144.257812 21.167969 L 146.789062 22.714844 L 128.789062 34.484375 L 110.789062 22.714844 " fill-opacity="1" fill-rule="nonzero"/></g><g fill="rgb(0%, 0%, 0%)" fill-opacity="1"><g transform="translate(248.935184, 32.408948)"><g><path d="M 12.21875 0 L 11.390625 -3.171875 L 5.890625 -3.171875 L 5.03125 0 L 0 0 L 5.53125 -17.015625 L 11.640625 -17.015625 L 17.234375 0 Z M 10.4375 -6.9375 L 9.71875 -9.71875 C 9.539062 -10.332031 9.328125 -11.128906 9.078125 -12.109375 C 8.835938 -13.085938 8.679688 -13.789062 8.609375 -14.21875 C 8.535156 -13.820312 8.394531 -13.171875 8.1875 -12.265625 C 7.988281 -11.367188 7.539062 -9.59375 6.84375 -6.9375 Z M 10.4375 -6.9375 "/></g></g></g><g fill="rgb(0%, 0%, 0%)" fill-opacity="1"><g transform="translate(267.071749, 32.408948)"><g><path d="M 5.640625 0.234375 C 4.703125 0.234375 3.882812 -0.03125 3.1875 -0.5625 C 2.488281 -1.101562 1.945312 -1.890625 1.5625 -2.921875 C 1.1875 -3.953125 1 -5.160156 1 -6.546875 C 1 -8.679688 1.425781 -10.347656 2.28125 -11.546875 C 3.132812 -12.753906 4.3125 -13.359375 5.8125 -13.359375 C 6.550781 -13.359375 7.195312 -13.210938 7.75 -12.921875 C 8.300781 -12.628906 8.804688 -12.132812 9.265625 -11.4375 L 9.359375 -11.4375 C 9.203125 -12.46875 9.125 -13.492188 9.125 -14.515625 L 9.125 -18.03125 L 13.703125 -18.03125 L 13.703125 0 L 10.28125 0 L 9.3125 -1.65625 L 9.125 -1.65625 C 8.351562 -0.394531 7.191406 0.234375 5.640625 0.234375 Z M 7.5 -3.34375 C 8.226562 -3.34375 8.738281 -3.570312 9.03125 -4.03125 C 9.332031 -4.488281 9.492188 -5.191406 9.515625 -6.140625 L 9.515625 -6.5 C 9.515625 -7.65625 9.347656 -8.476562 9.015625 -8.96875 C 8.679688 -9.46875 8.160156 -9.71875 7.453125 -9.71875 C 6.859375 -9.71875 6.394531 -9.4375 6.0625 -8.875 C 5.738281 -8.3125 5.578125 -7.515625 5.578125 -6.484375 C 5.578125 -5.460938 5.742188 -4.679688 6.078125 -4.140625 C 6.410156 -3.609375 6.882812 -3.34375 7.5 -3.34375 Z M 7.5 -3.34375 "/></g></g></g><g fill="rgb(0%, 0%, 0%)" fill-opacity="1"><g transform="translate(283.237996, 32.408948)"><g><path d="M 17.6875 0 L 17.6875 -7.140625 C 17.6875 -8.023438 17.5625 -8.6875 17.3125 -9.125 C 17.070312 -9.570312 16.691406 -9.796875 16.171875 -9.796875 C 15.472656 -9.796875 14.960938 -9.5 14.640625 -8.90625 C 14.316406 -8.3125 14.15625 -7.382812 14.15625 -6.125 L 14.15625 0 L 9.609375 0 L 9.609375 -7.140625 C 9.609375 -8.023438 9.488281 -8.6875 9.25 -9.125 C 9.019531 -9.570312 8.648438 -9.796875 8.140625 -9.796875 C 7.421875 -9.796875 6.898438 -9.476562 6.578125 -8.84375 C 6.253906 -8.21875 6.09375 -7.1875 6.09375 -5.75 L 6.09375 0 L 1.5625 0 L 1.5625 -13.125 L 4.984375 -13.125 L 5.546875 -11.515625 L 5.8125 -11.515625 C 6.164062 -12.109375 6.671875 -12.5625 7.328125 -12.875 C 7.992188 -13.195312 8.742188 -13.359375 9.578125 -13.359375 C 11.472656 -13.359375 12.804688 -12.785156 13.578125 -11.640625 L 13.9375 -11.640625 C 14.300781 -12.179688 14.8125 -12.601562 15.46875 -12.90625 C 16.132812 -13.207031 16.863281 -13.359375 17.65625 -13.359375 C 19.207031 -13.359375 20.351562 -12.957031 21.09375 -12.15625 C 21.84375 -11.363281 22.21875 -10.160156 22.21875 -8.546875 L 22.21875 0 Z M 17.6875 0 "/></g></g></g><g fill="rgb(0%, 0%, 0%)" fill-opacity="1"><g transform="translate(307.876611, 32.408948)"><g/></g></g><g fill="rgb(0%, 0%, 0%)" fill-opacity="1"><g transform="translate(314.944624, 32.408948)"><g><path d="M 9.84375 0 L 9.84375 -7.15625 C 9.84375 -8.03125 9.71875 -8.6875 9.46875 -9.125 C 9.21875 -9.570312 8.816406 -9.796875 8.265625 -9.796875 C 7.492188 -9.796875 6.9375 -9.488281 6.59375 -8.875 C 6.257812 -8.269531 6.09375 -7.226562 6.09375 -5.75 L 6.09375 0 L 1.5625 0 L 1.5625 -13.125 L 4.984375 -13.125 L 5.546875 -11.515625 L 5.8125 -11.515625 C 6.195312 -12.128906 6.734375 -12.585938 7.421875 -12.890625 C 8.109375 -13.203125 8.894531 -13.359375 9.78125 -13.359375 C 11.226562 -13.359375 12.351562 -12.9375 13.15625 -12.09375 C 13.96875 -11.25 14.375 -10.066406 14.375 -8.546875 L 14.375 0 Z M 9.84375 0 "/></g></g></g><g fill="rgb(0%, 0%, 0%)" fill-opacity="1"><g transform="translate(153.486851, 32.445743)"><g><path d="M 16.21875 -16.921875 L 16.21875 -6.734375 C 16.21875 -4.523438 15.585938 -2.8125 14.328125 -1.59375 C 13.078125 -0.375 11.269531 0.234375 8.90625 0.234375 C 6.601562 0.234375 4.832031 -0.351562 3.59375 -1.53125 C 2.351562 -2.71875 1.734375 -4.414062 1.734375 -6.625 L 1.734375 -16.921875 L 6.328125 -16.921875 L 6.328125 -6.984375 C 6.328125 -5.796875 6.550781 -4.929688 7 -4.390625 C 7.445312 -3.847656 8.109375 -3.578125 8.984375 -3.578125 C 9.910156 -3.578125 10.582031 -3.84375 11 -4.375 C 11.425781 -4.914062 11.640625 -5.796875 11.640625 -7.015625 L 11.640625 -16.921875 Z M 16.21875 -16.921875 "/></g></g></g><g fill="rgb(0%, 0%, 0%)" fill-opacity="1"><g transform="translate(171.420313, 32.445743)"><g><path d="M 9.84375 0 L 9.84375 -7.15625 C 9.84375 -8.019531 9.710938 -8.675781 9.453125 -9.125 C 9.203125 -9.570312 8.800781 -9.796875 8.25 -9.796875 C 7.488281 -9.796875 6.9375 -9.488281 6.59375 -8.875 C 6.257812 -8.269531 6.09375 -7.222656 6.09375 -5.734375 L 6.09375 0 L 1.5625 0 L 1.5625 -13.109375 L 4.984375 -13.109375 L 5.546875 -11.5 L 5.8125 -11.5 C 6.195312 -12.113281 6.726562 -12.570312 7.40625 -12.875 C 8.09375 -13.1875 8.878906 -13.34375 9.765625 -13.34375 C 11.210938 -13.34375 12.335938 -12.921875 13.140625 -12.078125 C 13.953125 -11.242188 14.359375 -10.0625 14.359375 -8.53125 L 14.359375 0 Z M 9.84375 0 "/></g></g></g><g fill="rgb(0%, 0%, 0%)" fill-opacity="1"><g transform="translate(187.29432, 32.445743)"><g><path d="M 6.109375 0 L 1.578125 0 L 1.578125 -13.109375 L 6.109375 -13.109375 Z M 1.46875 -16.375 C 1.46875 -17.050781 1.65625 -17.554688 2.03125 -17.890625 C 2.414062 -18.222656 3.023438 -18.390625 3.859375 -18.390625 C 4.703125 -18.390625 5.316406 -18.21875 5.703125 -17.875 C 6.085938 -17.539062 6.28125 -17.039062 6.28125 -16.375 C 6.28125 -15.050781 5.472656 -14.390625 3.859375 -14.390625 C 2.265625 -14.390625 1.46875 -15.050781 1.46875 -16.375 Z M 1.46875 -16.375 "/></g></g></g><g fill="rgb(0%, 0%, 0%)" fill-opacity="1"><g transform="translate(194.999924, 32.445743)"><g><path d="M 9.578125 -9.71875 L 6.78125 -9.71875 L 6.78125 0 L 2.25 0 L 2.25 -9.71875 L 0.515625 -9.71875 L 0.515625 -11.9375 L 2.34375 -13.0625 L 2.34375 -13.28125 C 2.34375 -15.007812 2.695312 -16.25 3.40625 -17 C 4.113281 -17.757812 5.25 -18.140625 6.8125 -18.140625 C 7.40625 -18.140625 7.96875 -18.09375 8.5 -18 C 9.039062 -17.90625 9.664062 -17.742188 10.375 -17.515625 L 9.40625 -14.578125 C 8.851562 -14.734375 8.3125 -14.8125 7.78125 -14.8125 C 7.425781 -14.8125 7.171875 -14.703125 7.015625 -14.484375 C 6.859375 -14.273438 6.78125 -13.929688 6.78125 -13.453125 L 6.78125 -13.109375 L 9.578125 -13.109375 Z M 9.578125 -9.71875 "/></g></g></g><g fill="rgb(0%, 0%, 0%)" fill-opacity="1"><g transform="translate(204.788123, 32.445743)"><g><path d="M 6.109375 0 L 1.578125 0 L 1.578125 -13.109375 L 6.109375 -13.109375 Z M 1.46875 -16.375 C 1.46875 -17.050781 1.65625 -17.554688 2.03125 -17.890625 C 2.414062 -18.222656 3.023438 -18.390625 3.859375 -18.390625 C 4.703125 -18.390625 5.316406 -18.21875 5.703125 -17.875 C 6.085938 -17.539062 6.28125 -17.039062 6.28125 -16.375 C 6.28125 -15.050781 5.472656 -14.390625 3.859375 -14.390625 C 2.265625 -14.390625 1.46875 -15.050781 1.46875 -16.375 Z M 1.46875 -16.375 "/></g></g></g><g fill="rgb(0%, 0%, 0%)" fill-opacity="1"><g transform="translate(212.493727, 32.445743)"><g><path d="M 7.890625 0.234375 C 5.710938 0.234375 4.019531 -0.34375 2.8125 -1.5 C 1.601562 -2.664062 1 -4.320312 1 -6.46875 C 1 -8.6875 1.554688 -10.382812 2.671875 -11.5625 C 3.796875 -12.75 5.394531 -13.34375 7.46875 -13.34375 C 9.4375 -13.34375 10.957031 -12.828125 12.03125 -11.796875 C 13.113281 -10.765625 13.65625 -9.28125 13.65625 -7.34375 L 13.65625 -5.328125 L 5.5625 -5.328125 C 5.59375 -4.597656 5.859375 -4.023438 6.359375 -3.609375 C 6.867188 -3.191406 7.5625 -2.984375 8.4375 -2.984375 C 9.226562 -2.984375 9.957031 -3.054688 10.625 -3.203125 C 11.289062 -3.359375 12.015625 -3.617188 12.796875 -3.984375 L 12.796875 -0.734375 C 12.085938 -0.367188 11.351562 -0.117188 10.59375 0.015625 C 9.84375 0.160156 8.941406 0.234375 7.890625 0.234375 Z M 7.625 -10.265625 C 7.09375 -10.265625 6.644531 -10.097656 6.28125 -9.765625 C 5.925781 -9.429688 5.71875 -8.90625 5.65625 -8.1875 L 9.546875 -8.1875 C 9.535156 -8.8125 9.359375 -9.3125 9.015625 -9.6875 C 8.671875 -10.070312 8.207031 -10.265625 7.625 -10.265625 Z M 7.625 -10.265625 "/></g></g></g><g fill="rgb(0%, 0%, 0%)" fill-opacity="1"><g transform="translate(227.141317, 32.445743)"><g><path d="M 5.640625 0.234375 C 4.703125 0.234375 3.882812 -0.03125 3.1875 -0.5625 C 2.488281 -1.09375 1.945312 -1.875 1.5625 -2.90625 C 1.1875 -3.945312 1 -5.160156 1 -6.546875 C 1 -8.671875 1.425781 -10.332031 2.28125 -11.53125 C 3.132812 -12.738281 4.3125 -13.34375 5.8125 -13.34375 C 6.539062 -13.34375 7.179688 -13.195312 7.734375 -12.90625 C 8.285156 -12.613281 8.789062 -12.117188 9.25 -11.421875 L 9.34375 -11.421875 C 9.195312 -12.453125 9.125 -13.476562 9.125 -14.5 L 9.125 -18.015625 L 13.6875 -18.015625 L 13.6875 0 L 10.265625 0 L 9.296875 -1.65625 L 9.125 -1.65625 C 8.34375 -0.394531 7.179688 0.234375 5.640625 0.234375 Z M 7.484375 -3.34375 C 8.210938 -3.34375 8.722656 -3.566406 9.015625 -4.015625 C 9.316406 -4.472656 9.476562 -5.179688 9.5 -6.140625 L 9.5 -6.5 C 9.5 -7.65625 9.332031 -8.476562 9 -8.96875 C 8.664062 -9.457031 8.144531 -9.703125 7.4375 -9.703125 C 6.84375 -9.703125 6.378906 -9.421875 6.046875 -8.859375 C 5.722656 -8.296875 5.5625 -7.5 5.5625 -6.46875 C 5.5625 -5.445312 5.726562 -4.671875 6.0625 -4.140625 C 6.394531 -3.609375 6.867188 -3.34375 7.484375 -3.34375 Z M 7.484375 -3.34375 "/></g></g></g><g fill="rgb(0%, 0%, 0%)" fill-opacity="1"><g transform="translate(242.373562, 32.445743)"><g/></g></g><g clip-path="url(#id5)"><g clip-path="url(#id6)"><g clip-path="url(#id7)"><path fill="rgb(1.568604%, 64.309692%, 93.728638%)" d="M 310.234375 33.035156 L 310.234375 33.265625 L 311.519531 33.285156 L 311.519531 33.054688 L 312.171875 33.054688 L 312.171875 32.402344 L 311.441406 32.402344 L 311.441406 29.488281 L 313.550781 29.488281 L 313.550781 28.339844 L 312.019531 28.339844 C 312.019531 28.300781 312.039062 28.28125 312.019531 28.261719 L 312 18.160156 C 312 17.738281 311.75 17.375 311.367188 17.222656 L 311.367188 15.800781 L 310.984375 15.800781 L 310.964844 8.960938 L 310.753906 9.09375 L 310.753906 15.800781 L 310.371094 15.800781 L 310.371094 17.183594 C 310.003906 17.355469 309.738281 17.699219 309.738281 18.121094 L 309.757812 28.222656 C 309.757812 28.261719 309.757812 28.261719 309.757812 28.300781 L 308.222656 28.300781 L 308.222656 29.449219 L 310.332031 29.488281 L 310.332031 32.402344 L 309.601562 32.402344 L 309.601562 33.054688 Z M 310.234375 33.035156 " fill-opacity="1" fill-rule="nonzero"/></g></g></g></svg>