<svg version="1.0"
 width="800.000000pt" height="800.000000pt" viewBox="0 0 800.000000 800.000000"
 preserveAspectRatio="xMidYMid meet">

<g transform="translate(0.000000,800.000000) scale(0.100000,-0.100000)"
fill="#000000" stroke="none">
<path d="M0 4000 l0 -4000 4000 0 4000 0 0 4000 0 4000 -4000 0 -4000 0 0
-4000z m2945 2511 c84 -28 147 -84 164 -146 8 -28 11 -322 11 -977 l0 -938
1015 0 1015 0 0 938 c0 655 3 949 11 977 18 64 81 119 169 147 72 22 87 23
400 23 314 0 328 -1 396 -23 81 -27 140 -70 160 -118 21 -50 21 -4918 0 -4968
-20 -48 -79 -91 -160 -118 -68 -22 -82 -23 -396 -23 -311 0 -328 1 -398 23
-87 27 -154 84 -171 147 -8 28 -11 341 -11 1028 l0 987 -1015 0 -1015 0 0
-987 c0 -687 -3 -1000 -11 -1028 -17 -63 -84 -120 -171 -147 -70 -22 -87 -23
-398 -23 -308 0 -329 1 -395 22 -79 25 -141 71 -161 119 -21 49 -21 4918 0
4967 16 39 64 81 115 103 89 38 147 43 466 41 293 -3 314 -4 380 -26z"/>
</g>
</svg>
