<svg xmlns="http://www.w3.org/2000/svg" xmlns:xlink="http://www.w3.org/1999/xlink" width="600" zoomAndPan="magnify" viewBox="0 0 450 74.999997" height="100" preserveAspectRatio="xMidYMid meet" version="1.0"><defs><g><g id="id1"/><g id="id2"/><g id="id3"/></g><clipPath id="id4"><path d="M 57 9 L 85.1875 9 L 85.1875 32.839844 L 57 32.839844 Z M 57 9 " clip-rule="nonzero"/></clipPath><clipPath id="id5"><path d="M 46.1875 3.589844 L 74 3.589844 L 74 27 L 46.1875 27 Z M 46.1875 3.589844 " clip-rule="nonzero"/></clipPath><clipPath id="id6"><path d="M 246 6 L 252 6 L 252 29 L 246 29 Z M 246 6 " clip-rule="nonzero"/></clipPath><clipPath id="id7"><path d="M 260.394531 18.332031 L 248.726562 30 L 237.058594 18.332031 L 248.726562 6.664062 Z M 260.394531 18.332031 " clip-rule="nonzero"/></clipPath><clipPath id="id8"><path d="M 261.484375 17.242188 L 248.757812 29.96875 L 236.027344 17.242188 L 248.757812 4.511719 Z M 261.484375 17.242188 " clip-rule="nonzero"/></clipPath></defs><g fill="rgb(0%, 0%, 0%)" fill-opacity="1"><g transform="translate(52.651327, 62.730754)"><g><path d="M 15.984375 -22.890625 C 14.117188 -22.890625 12.664062 -22.128906 11.625 -20.609375 C 10.59375 -19.085938 10.078125 -16.992188 10.078125 -14.328125 C 10.078125 -8.765625 12.191406 -5.984375 16.421875 -5.984375 C 17.691406 -5.984375 18.925781 -6.160156 20.125 -6.515625 C 21.320312 -6.867188 22.53125 -7.296875 23.75 -7.796875 L 23.75 -1.203125 C 21.332031 -0.140625 18.601562 0.390625 15.5625 0.390625 C 11.207031 0.390625 7.863281 -0.867188 5.53125 -3.390625 C 3.207031 -5.921875 2.046875 -9.578125 2.046875 -14.359375 C 2.046875 -17.347656 2.609375 -19.972656 3.734375 -22.234375 C 4.867188 -24.503906 6.488281 -26.25 8.59375 -27.46875 C 10.707031 -28.6875 13.195312 -29.296875 16.0625 -29.296875 C 19.175781 -29.296875 22.15625 -28.617188 25 -27.265625 L 22.609375 -21.109375 C 21.546875 -21.609375 20.476562 -22.03125 19.40625 -22.375 C 18.34375 -22.71875 17.203125 -22.890625 15.984375 -22.890625 Z M 15.984375 -22.890625 "/></g></g></g><g fill="rgb(0%, 0%, 0%)" fill-opacity="1"><g transform="translate(80.115735, 62.730754)"><g><path d="M 24.03125 -11.234375 C 24.03125 -7.578125 23.046875 -4.722656 21.078125 -2.671875 C 19.109375 -0.628906 16.351562 0.390625 12.8125 0.390625 C 9.414062 0.390625 6.710938 -0.65625 4.703125 -2.75 C 2.703125 -4.84375 1.703125 -7.671875 1.703125 -11.234375 C 1.703125 -14.878906 2.6875 -17.710938 4.65625 -19.734375 C 6.625 -21.765625 9.382812 -22.78125 12.9375 -22.78125 C 15.132812 -22.78125 17.078125 -22.3125 18.765625 -21.375 C 20.453125 -20.4375 21.75 -19.09375 22.65625 -17.34375 C 23.570312 -15.601562 24.03125 -13.566406 24.03125 -11.234375 Z M 9.546875 -11.234375 C 9.546875 -9.316406 9.800781 -7.851562 10.3125 -6.84375 C 10.820312 -5.832031 11.679688 -5.328125 12.890625 -5.328125 C 14.097656 -5.328125 14.945312 -5.832031 15.4375 -6.84375 C 15.925781 -7.851562 16.171875 -9.316406 16.171875 -11.234375 C 16.171875 -13.148438 15.921875 -14.59375 15.421875 -15.5625 C 14.921875 -16.539062 14.066406 -17.03125 12.859375 -17.03125 C 11.671875 -17.03125 10.820312 -16.546875 10.3125 -15.578125 C 9.800781 -14.609375 9.546875 -13.160156 9.546875 -11.234375 Z M 9.546875 -11.234375 "/></g></g></g><g fill="rgb(0%, 0%, 0%)" fill-opacity="1"><g transform="translate(107.106091, 62.730754)"><g><path d="M 30.140625 0 L 30.140625 -12.171875 C 30.140625 -13.679688 29.929688 -14.8125 29.515625 -15.5625 C 29.097656 -16.320312 28.445312 -16.703125 27.5625 -16.703125 C 26.375 -16.703125 25.503906 -16.195312 24.953125 -15.1875 C 24.398438 -14.175781 24.125 -12.585938 24.125 -10.421875 L 24.125 0 L 16.375 0 L 16.375 -12.171875 C 16.375 -13.679688 16.175781 -14.8125 15.78125 -15.5625 C 15.382812 -16.320312 14.742188 -16.703125 13.859375 -16.703125 C 12.648438 -16.703125 11.769531 -16.160156 11.21875 -15.078125 C 10.664062 -14.003906 10.390625 -12.242188 10.390625 -9.796875 L 10.390625 0 L 2.671875 0 L 2.671875 -22.375 L 8.5 -22.375 L 9.46875 -19.609375 L 9.921875 -19.609375 C 10.503906 -20.640625 11.359375 -21.425781 12.484375 -21.96875 C 13.617188 -22.507812 14.898438 -22.78125 16.328125 -22.78125 C 19.554688 -22.78125 21.820312 -21.796875 23.125 -19.828125 L 23.75 -19.828125 C 24.375 -20.753906 25.25 -21.476562 26.375 -22 C 27.5 -22.519531 28.742188 -22.78125 30.109375 -22.78125 C 32.753906 -22.78125 34.707031 -22.097656 35.96875 -20.734375 C 37.226562 -19.378906 37.859375 -17.320312 37.859375 -14.5625 L 37.859375 0 Z M 30.140625 0 "/></g></g></g><g fill="rgb(0%, 0%, 0%)" fill-opacity="1"><g transform="translate(148.772326, 62.730754)"><g><path d="M 30.140625 0 L 30.140625 -12.171875 C 30.140625 -13.679688 29.929688 -14.8125 29.515625 -15.5625 C 29.097656 -16.320312 28.445312 -16.703125 27.5625 -16.703125 C 26.375 -16.703125 25.503906 -16.195312 24.953125 -15.1875 C 24.398438 -14.175781 24.125 -12.585938 24.125 -10.421875 L 24.125 0 L 16.375 0 L 16.375 -12.171875 C 16.375 -13.679688 16.175781 -14.8125 15.78125 -15.5625 C 15.382812 -16.320312 14.742188 -16.703125 13.859375 -16.703125 C 12.648438 -16.703125 11.769531 -16.160156 11.21875 -15.078125 C 10.664062 -14.003906 10.390625 -12.242188 10.390625 -9.796875 L 10.390625 0 L 2.671875 0 L 2.671875 -22.375 L 8.5 -22.375 L 9.46875 -19.609375 L 9.921875 -19.609375 C 10.503906 -20.640625 11.359375 -21.425781 12.484375 -21.96875 C 13.617188 -22.507812 14.898438 -22.78125 16.328125 -22.78125 C 19.554688 -22.78125 21.820312 -21.796875 23.125 -19.828125 L 23.75 -19.828125 C 24.375 -20.753906 25.25 -21.476562 26.375 -22 C 27.5 -22.519531 28.742188 -22.78125 30.109375 -22.78125 C 32.753906 -22.78125 34.707031 -22.097656 35.96875 -20.734375 C 37.226562 -19.378906 37.859375 -17.320312 37.859375 -14.5625 L 37.859375 0 Z M 30.140625 0 "/></g></g></g><g fill="rgb(0%, 0%, 0%)" fill-opacity="1"><g transform="translate(190.438548, 62.730754)"><g><path d="M 18.609375 0 L 17.640625 -2.78125 L 17.1875 -2.78125 C 16.539062 -1.757812 15.640625 -0.972656 14.484375 -0.421875 C 13.335938 0.117188 11.984375 0.390625 10.421875 0.390625 C 7.960938 0.390625 6.046875 -0.320312 4.671875 -1.75 C 3.304688 -3.175781 2.625 -5.191406 2.625 -7.796875 L 2.625 -22.375 L 10.34375 -22.375 L 10.34375 -10.15625 C 10.34375 -8.6875 10.550781 -7.578125 10.96875 -6.828125 C 11.382812 -6.078125 12.066406 -5.703125 13.015625 -5.703125 C 14.347656 -5.703125 15.296875 -6.222656 15.859375 -7.265625 C 16.421875 -8.316406 16.703125 -10.085938 16.703125 -12.578125 L 16.703125 -22.375 L 24.4375 -22.375 L 24.4375 0 Z M 18.609375 0 "/></g></g></g><g fill="rgb(0%, 0%, 0%)" fill-opacity="1"><g transform="translate(218.752299, 62.730754)"><g><path d="M 16.796875 0 L 16.796875 -12.203125 C 16.796875 -13.691406 16.578125 -14.8125 16.140625 -15.5625 C 15.710938 -16.320312 15.023438 -16.703125 14.078125 -16.703125 C 12.773438 -16.703125 11.832031 -16.179688 11.25 -15.140625 C 10.675781 -14.109375 10.390625 -12.328125 10.390625 -9.796875 L 10.390625 0 L 2.671875 0 L 2.671875 -22.375 L 8.5 -22.375 L 9.46875 -19.609375 L 9.921875 -19.609375 C 10.578125 -20.660156 11.488281 -21.453125 12.65625 -21.984375 C 13.820312 -22.515625 15.160156 -22.78125 16.671875 -22.78125 C 19.148438 -22.78125 21.078125 -22.0625 22.453125 -20.625 C 23.828125 -19.1875 24.515625 -17.164062 24.515625 -14.5625 L 24.515625 0 Z M 16.796875 0 "/></g></g></g><g fill="rgb(0%, 0%, 0%)" fill-opacity="1"><g transform="translate(247.06605, 62.730754)"><g><path d="M 10.421875 0 L 2.703125 0 L 2.703125 -22.375 L 10.421875 -22.375 Z M 2.515625 -27.953125 C 2.515625 -29.109375 2.832031 -29.96875 3.46875 -30.53125 C 4.113281 -31.101562 5.15625 -31.390625 6.59375 -31.390625 C 8.03125 -31.390625 9.078125 -31.097656 9.734375 -30.515625 C 10.390625 -29.941406 10.71875 -29.085938 10.71875 -27.953125 C 10.71875 -25.679688 9.34375 -24.546875 6.59375 -24.546875 C 3.875 -24.546875 2.515625 -25.679688 2.515625 -27.953125 Z M 2.515625 -27.953125 "/></g></g></g><g fill="rgb(0%, 0%, 0%)" fill-opacity="1"><g transform="translate(261.434748, 62.730754)"><g><path d="M 12.859375 0.390625 C 9.203125 0.390625 6.425781 -0.59375 4.53125 -2.5625 C 2.644531 -4.539062 1.703125 -7.378906 1.703125 -11.078125 C 1.703125 -14.796875 2.722656 -17.675781 4.765625 -19.71875 C 6.804688 -21.757812 9.707031 -22.78125 13.46875 -22.78125 C 16.0625 -22.78125 18.503906 -22.210938 20.796875 -21.078125 L 18.53125 -15.375 C 17.59375 -15.78125 16.726562 -16.101562 15.9375 -16.34375 C 15.144531 -16.582031 14.320312 -16.703125 13.46875 -16.703125 C 12.21875 -16.703125 11.25 -16.210938 10.5625 -15.234375 C 9.882812 -14.265625 9.546875 -12.894531 9.546875 -11.125 C 9.546875 -7.539062 10.867188 -5.75 13.515625 -5.75 C 15.773438 -5.75 17.945312 -6.40625 20.03125 -7.71875 L 20.03125 -1.578125 C 18.039062 -0.265625 15.648438 0.390625 12.859375 0.390625 Z M 12.859375 0.390625 "/></g></g></g><g fill="rgb(0%, 0%, 0%)" fill-opacity="1"><g transform="translate(284.45491, 62.730754)"><g><path d="M 17.265625 0 L 15.78125 -2.96875 L 15.625 -2.96875 C 14.582031 -1.675781 13.519531 -0.789062 12.4375 -0.3125 C 11.363281 0.15625 9.96875 0.390625 8.25 0.390625 C 6.144531 0.390625 4.488281 -0.238281 3.28125 -1.5 C 2.070312 -2.757812 1.46875 -4.535156 1.46875 -6.828125 C 1.46875 -9.210938 2.296875 -10.988281 3.953125 -12.15625 C 5.609375 -13.320312 8.007812 -13.976562 11.15625 -14.125 L 14.890625 -14.234375 L 14.890625 -14.5625 C 14.890625 -16.40625 13.984375 -17.328125 12.171875 -17.328125 C 10.535156 -17.328125 8.460938 -16.769531 5.953125 -15.65625 L 3.71875 -20.765625 C 6.320312 -22.109375 9.613281 -22.78125 13.59375 -22.78125 C 16.457031 -22.78125 18.675781 -22.066406 20.25 -20.640625 C 21.820312 -19.222656 22.609375 -17.234375 22.609375 -14.671875 L 22.609375 0 Z M 11.53125 -5.0625 C 12.46875 -5.0625 13.269531 -5.351562 13.9375 -5.9375 C 14.601562 -6.53125 14.9375 -7.300781 14.9375 -8.25 L 14.9375 -10 L 13.15625 -9.921875 C 10.613281 -9.828125 9.34375 -8.890625 9.34375 -7.109375 C 9.34375 -5.742188 10.070312 -5.0625 11.53125 -5.0625 Z M 11.53125 -5.0625 "/></g></g></g><g fill="rgb(0%, 0%, 0%)" fill-opacity="1"><g transform="translate(310.872451, 62.730754)"><g><path d="M 13.625 -5.703125 C 14.664062 -5.703125 15.910156 -5.960938 17.359375 -6.484375 L 17.359375 -0.84375 C 16.316406 -0.394531 15.328125 -0.078125 14.390625 0.109375 C 13.453125 0.296875 12.347656 0.390625 11.078125 0.390625 C 8.484375 0.390625 6.613281 -0.242188 5.46875 -1.515625 C 4.320312 -2.785156 3.75 -4.738281 3.75 -7.375 L 3.75 -16.59375 L 1.046875 -16.59375 L 1.046875 -19.734375 L 4.484375 -22.15625 L 6.484375 -26.859375 L 11.53125 -26.859375 L 11.53125 -22.375 L 17.03125 -22.375 L 17.03125 -16.59375 L 11.53125 -16.59375 L 11.53125 -7.875 C 11.53125 -6.425781 12.226562 -5.703125 13.625 -5.703125 Z M 13.625 -5.703125 "/></g></g></g><g fill="rgb(0%, 0%, 0%)" fill-opacity="1"><g transform="translate(330.692757, 62.730754)"><g><path d="M 10.421875 0 L 2.703125 0 L 2.703125 -22.375 L 10.421875 -22.375 Z M 2.515625 -27.953125 C 2.515625 -29.109375 2.832031 -29.96875 3.46875 -30.53125 C 4.113281 -31.101562 5.15625 -31.390625 6.59375 -31.390625 C 8.03125 -31.390625 9.078125 -31.097656 9.734375 -30.515625 C 10.390625 -29.941406 10.71875 -29.085938 10.71875 -27.953125 C 10.71875 -25.679688 9.34375 -24.546875 6.59375 -24.546875 C 3.875 -24.546875 2.515625 -25.679688 2.515625 -27.953125 Z M 2.515625 -27.953125 "/></g></g></g><g fill="rgb(0%, 0%, 0%)" fill-opacity="1"><g transform="translate(345.061455, 62.730754)"><g><path d="M 24.03125 -11.234375 C 24.03125 -7.578125 23.046875 -4.722656 21.078125 -2.671875 C 19.109375 -0.628906 16.351562 0.390625 12.8125 0.390625 C 9.414062 0.390625 6.710938 -0.65625 4.703125 -2.75 C 2.703125 -4.84375 1.703125 -7.671875 1.703125 -11.234375 C 1.703125 -14.878906 2.6875 -17.710938 4.65625 -19.734375 C 6.625 -21.765625 9.382812 -22.78125 12.9375 -22.78125 C 15.132812 -22.78125 17.078125 -22.3125 18.765625 -21.375 C 20.453125 -20.4375 21.75 -19.09375 22.65625 -17.34375 C 23.570312 -15.601562 24.03125 -13.566406 24.03125 -11.234375 Z M 9.546875 -11.234375 C 9.546875 -9.316406 9.800781 -7.851562 10.3125 -6.84375 C 10.820312 -5.832031 11.679688 -5.328125 12.890625 -5.328125 C 14.097656 -5.328125 14.945312 -5.832031 15.4375 -6.84375 C 15.925781 -7.851562 16.171875 -9.316406 16.171875 -11.234375 C 16.171875 -13.148438 15.921875 -14.59375 15.421875 -15.5625 C 14.921875 -16.539062 14.066406 -17.03125 12.859375 -17.03125 C 11.671875 -17.03125 10.820312 -16.546875 10.3125 -15.578125 C 9.800781 -14.609375 9.546875 -13.160156 9.546875 -11.234375 Z M 9.546875 -11.234375 "/></g></g></g><g fill="rgb(0%, 0%, 0%)" fill-opacity="1"><g transform="translate(372.051816, 62.730754)"><g><path d="M 16.796875 0 L 16.796875 -12.203125 C 16.796875 -13.691406 16.578125 -14.8125 16.140625 -15.5625 C 15.710938 -16.320312 15.023438 -16.703125 14.078125 -16.703125 C 12.773438 -16.703125 11.832031 -16.179688 11.25 -15.140625 C 10.675781 -14.109375 10.390625 -12.328125 10.390625 -9.796875 L 10.390625 0 L 2.671875 0 L 2.671875 -22.375 L 8.5 -22.375 L 9.46875 -19.609375 L 9.921875 -19.609375 C 10.578125 -20.660156 11.488281 -21.453125 12.65625 -21.984375 C 13.820312 -22.515625 15.160156 -22.78125 16.671875 -22.78125 C 19.148438 -22.78125 21.078125 -22.0625 22.453125 -20.625 C 23.828125 -19.1875 24.515625 -17.164062 24.515625 -14.5625 L 24.515625 0 Z M 16.796875 0 "/></g></g></g><g clip-path="url(#id4)"><path fill="rgb(1.568604%, 64.309692%, 93.728638%)" d="M 82.023438 9.132812 L 74.902344 9.132812 L 74.902344 18.976562 C 74.902344 21.023438 73.488281 22.679688 71.746094 22.679688 L 57.5 22.679688 L 57.421875 22.738281 L 57.421875 23.550781 C 57.421875 25.597656 58.835938 27.253906 60.578125 27.253906 L 74.824219 27.253906 L 81.847656 32.175781 C 81.847656 32.175781 82.636719 32.835938 83.378906 32.242188 C 84.019531 31.730469 83.496094 30.800781 83.496094 30.800781 L 81.296875 27.253906 L 82.023438 27.253906 C 83.769531 27.253906 85.179688 25.597656 85.179688 23.550781 L 85.179688 12.835938 C 85.179688 10.789062 83.769531 9.132812 82.023438 9.132812 Z M 82.023438 9.132812 " fill-opacity="1" fill-rule="nonzero"/></g><g clip-path="url(#id5)"><path fill="rgb(1.568604%, 64.309692%, 93.728638%)" d="M 70.800781 3.589844 L 49.351562 3.589844 C 47.609375 3.589844 46.195312 5.246094 46.195312 7.292969 L 46.195312 18.007812 C 46.195312 20.054688 47.609375 21.710938 49.351562 21.710938 L 50.078125 21.710938 L 47.878906 25.257812 C 47.878906 25.257812 47.355469 26.1875 47.996094 26.699219 C 48.742188 27.292969 49.53125 26.632812 49.53125 26.632812 L 56.554688 21.710938 L 70.800781 21.710938 C 72.542969 21.710938 73.957031 20.054688 73.957031 18.007812 L 73.957031 7.292969 C 73.957031 5.246094 72.542969 3.589844 70.800781 3.589844 Z M 54.242188 14.777344 C 53.117188 14.777344 52.203125 14.085938 52.203125 13.226562 C 52.203125 12.371094 53.117188 11.675781 54.242188 11.675781 C 55.371094 11.675781 56.28125 12.371094 56.28125 13.226562 C 56.28125 14.085938 55.371094 14.777344 54.242188 14.777344 Z M 59.867188 14.777344 C 58.738281 14.777344 57.828125 14.085938 57.828125 13.226562 C 57.828125 12.371094 58.738281 11.675781 59.867188 11.675781 C 60.992188 11.675781 61.90625 12.371094 61.90625 13.226562 C 61.90625 14.085938 60.992188 14.777344 59.867188 14.777344 Z M 65.675781 14.777344 C 64.546875 14.777344 63.636719 14.085938 63.636719 13.226562 C 63.636719 12.371094 64.550781 11.675781 65.675781 11.675781 C 66.800781 11.675781 67.714844 12.371094 67.714844 13.226562 C 67.714844 14.085938 66.800781 14.777344 65.675781 14.777344 Z M 65.675781 14.777344 " fill-opacity="1" fill-rule="nonzero"/></g><g fill="rgb(0%, 0%, 0%)" fill-opacity="1"><g transform="translate(187.026162, 27.977268)"><g><path d="M 12.1875 0 L 11.359375 -3.171875 L 5.875 -3.171875 L 5.015625 0 L 0 0 L 5.515625 -16.953125 L 11.59375 -16.953125 L 17.171875 0 Z M 10.40625 -6.90625 L 9.671875 -9.671875 C 9.503906 -10.296875 9.300781 -11.09375 9.0625 -12.0625 C 8.820312 -13.039062 8.660156 -13.742188 8.578125 -14.171875 C 8.515625 -13.773438 8.378906 -13.125 8.171875 -12.21875 C 7.960938 -11.320312 7.507812 -9.550781 6.8125 -6.90625 Z M 10.40625 -6.90625 "/></g></g></g><g fill="rgb(0%, 0%, 0%)" fill-opacity="1"><g transform="translate(205.104493, 27.977268)"><g><path d="M 5.625 0.234375 C 4.695312 0.234375 3.882812 -0.03125 3.1875 -0.5625 C 2.488281 -1.09375 1.945312 -1.875 1.5625 -2.90625 C 1.1875 -3.9375 1 -5.144531 1 -6.53125 C 1 -8.65625 1.425781 -10.316406 2.28125 -11.515625 C 3.132812 -12.710938 4.304688 -13.3125 5.796875 -13.3125 C 6.523438 -13.3125 7.164062 -13.164062 7.71875 -12.875 C 8.269531 -12.582031 8.773438 -12.09375 9.234375 -11.40625 L 9.328125 -11.40625 C 9.179688 -12.425781 9.109375 -13.445312 9.109375 -14.46875 L 9.109375 -17.96875 L 13.65625 -17.96875 L 13.65625 0 L 10.25 0 L 9.28125 -1.65625 L 9.109375 -1.65625 C 8.328125 -0.394531 7.164062 0.234375 5.625 0.234375 Z M 7.46875 -3.34375 C 8.195312 -3.34375 8.707031 -3.566406 9 -4.015625 C 9.300781 -4.472656 9.460938 -5.175781 9.484375 -6.125 L 9.484375 -6.484375 C 9.484375 -7.640625 9.316406 -8.457031 8.984375 -8.9375 C 8.648438 -9.425781 8.128906 -9.671875 7.421875 -9.671875 C 6.828125 -9.671875 6.367188 -9.390625 6.046875 -8.828125 C 5.722656 -8.273438 5.5625 -7.484375 5.5625 -6.453125 C 5.5625 -5.441406 5.722656 -4.671875 6.046875 -4.140625 C 6.378906 -3.609375 6.851562 -3.34375 7.46875 -3.34375 Z M 7.46875 -3.34375 "/></g></g></g><g fill="rgb(0%, 0%, 0%)" fill-opacity="1"><g transform="translate(221.218832, 27.977268)"><g><path d="M 17.625 0 L 17.625 -7.109375 C 17.625 -7.992188 17.503906 -8.65625 17.265625 -9.09375 C 17.023438 -9.539062 16.640625 -9.765625 16.109375 -9.765625 C 15.421875 -9.765625 14.914062 -9.46875 14.59375 -8.875 C 14.269531 -8.289062 14.109375 -7.363281 14.109375 -6.09375 L 14.109375 0 L 9.578125 0 L 9.578125 -7.109375 C 9.578125 -7.992188 9.457031 -8.65625 9.21875 -9.09375 C 8.988281 -9.539062 8.617188 -9.765625 8.109375 -9.765625 C 7.398438 -9.765625 6.882812 -9.445312 6.5625 -8.8125 C 6.238281 -8.1875 6.078125 -7.160156 6.078125 -5.734375 L 6.078125 0 L 1.5625 0 L 1.5625 -13.09375 L 4.96875 -13.09375 L 5.53125 -11.46875 L 5.796875 -11.46875 C 6.140625 -12.070312 6.640625 -12.53125 7.296875 -12.84375 C 7.960938 -13.15625 8.710938 -13.3125 9.546875 -13.3125 C 11.429688 -13.3125 12.757812 -12.738281 13.53125 -11.59375 L 13.890625 -11.59375 C 14.253906 -12.132812 14.765625 -12.554688 15.421875 -12.859375 C 16.078125 -13.160156 16.804688 -13.3125 17.609375 -13.3125 C 19.148438 -13.3125 20.289062 -12.914062 21.03125 -12.125 C 21.769531 -11.332031 22.140625 -10.128906 22.140625 -8.515625 L 22.140625 0 Z M 17.625 0 "/></g></g></g><g fill="rgb(0%, 0%, 0%)" fill-opacity="1"><g transform="translate(245.778336, 27.977268)"><g/></g></g><g fill="rgb(0%, 0%, 0%)" fill-opacity="1"><g transform="translate(252.823654, 27.977268)"><g><path d="M 9.8125 0 L 9.8125 -7.140625 C 9.8125 -8.003906 9.6875 -8.65625 9.4375 -9.09375 C 9.1875 -9.539062 8.785156 -9.765625 8.234375 -9.765625 C 7.472656 -9.765625 6.921875 -9.460938 6.578125 -8.859375 C 6.242188 -8.253906 6.078125 -7.210938 6.078125 -5.734375 L 6.078125 0 L 1.5625 0 L 1.5625 -13.09375 L 4.96875 -13.09375 L 5.53125 -11.46875 L 5.796875 -11.46875 C 6.179688 -12.082031 6.710938 -12.539062 7.390625 -12.84375 C 8.078125 -13.15625 8.863281 -13.3125 9.75 -13.3125 C 11.195312 -13.3125 12.320312 -12.890625 13.125 -12.046875 C 13.925781 -11.210938 14.328125 -10.035156 14.328125 -8.515625 L 14.328125 0 Z M 9.8125 0 "/></g></g></g><g fill="rgb(0%, 0%, 0%)" fill-opacity="1"><g transform="translate(91.683568, 28.028888)"><g><path d="M 16.21875 -16.921875 L 16.21875 -6.734375 C 16.21875 -4.523438 15.585938 -2.8125 14.328125 -1.59375 C 13.078125 -0.375 11.269531 0.234375 8.90625 0.234375 C 6.601562 0.234375 4.832031 -0.351562 3.59375 -1.53125 C 2.351562 -2.71875 1.734375 -4.414062 1.734375 -6.625 L 1.734375 -16.921875 L 6.328125 -16.921875 L 6.328125 -6.984375 C 6.328125 -5.796875 6.550781 -4.929688 7 -4.390625 C 7.445312 -3.847656 8.109375 -3.578125 8.984375 -3.578125 C 9.910156 -3.578125 10.582031 -3.84375 11 -4.375 C 11.425781 -4.914062 11.640625 -5.796875 11.640625 -7.015625 L 11.640625 -16.921875 Z M 16.21875 -16.921875 "/></g></g></g><g fill="rgb(0%, 0%, 0%)" fill-opacity="1"><g transform="translate(109.61703, 28.028888)"><g><path d="M 9.84375 0 L 9.84375 -7.15625 C 9.84375 -8.019531 9.710938 -8.675781 9.453125 -9.125 C 9.203125 -9.570312 8.800781 -9.796875 8.25 -9.796875 C 7.488281 -9.796875 6.9375 -9.488281 6.59375 -8.875 C 6.257812 -8.269531 6.09375 -7.222656 6.09375 -5.734375 L 6.09375 0 L 1.5625 0 L 1.5625 -13.109375 L 4.984375 -13.109375 L 5.546875 -11.5 L 5.8125 -11.5 C 6.195312 -12.113281 6.726562 -12.570312 7.40625 -12.875 C 8.09375 -13.1875 8.878906 -13.34375 9.765625 -13.34375 C 11.210938 -13.34375 12.335938 -12.921875 13.140625 -12.078125 C 13.953125 -11.242188 14.359375 -10.0625 14.359375 -8.53125 L 14.359375 0 Z M 9.84375 0 "/></g></g></g><g fill="rgb(0%, 0%, 0%)" fill-opacity="1"><g transform="translate(125.491037, 28.028888)"><g><path d="M 6.109375 0 L 1.578125 0 L 1.578125 -13.109375 L 6.109375 -13.109375 Z M 1.46875 -16.375 C 1.46875 -17.050781 1.65625 -17.554688 2.03125 -17.890625 C 2.414062 -18.222656 3.023438 -18.390625 3.859375 -18.390625 C 4.703125 -18.390625 5.316406 -18.21875 5.703125 -17.875 C 6.085938 -17.539062 6.28125 -17.039062 6.28125 -16.375 C 6.28125 -15.050781 5.472656 -14.390625 3.859375 -14.390625 C 2.265625 -14.390625 1.46875 -15.050781 1.46875 -16.375 Z M 1.46875 -16.375 "/></g></g></g><g fill="rgb(0%, 0%, 0%)" fill-opacity="1"><g transform="translate(133.196641, 28.028888)"><g><path d="M 9.578125 -9.71875 L 6.78125 -9.71875 L 6.78125 0 L 2.25 0 L 2.25 -9.71875 L 0.515625 -9.71875 L 0.515625 -11.9375 L 2.34375 -13.0625 L 2.34375 -13.28125 C 2.34375 -15.007812 2.695312 -16.25 3.40625 -17 C 4.113281 -17.757812 5.25 -18.140625 6.8125 -18.140625 C 7.40625 -18.140625 7.96875 -18.09375 8.5 -18 C 9.039062 -17.90625 9.664062 -17.742188 10.375 -17.515625 L 9.40625 -14.578125 C 8.851562 -14.734375 8.3125 -14.8125 7.78125 -14.8125 C 7.425781 -14.8125 7.171875 -14.703125 7.015625 -14.484375 C 6.859375 -14.273438 6.78125 -13.929688 6.78125 -13.453125 L 6.78125 -13.109375 L 9.578125 -13.109375 Z M 9.578125 -9.71875 "/></g></g></g><g fill="rgb(0%, 0%, 0%)" fill-opacity="1"><g transform="translate(142.98484, 28.028888)"><g><path d="M 6.109375 0 L 1.578125 0 L 1.578125 -13.109375 L 6.109375 -13.109375 Z M 1.46875 -16.375 C 1.46875 -17.050781 1.65625 -17.554688 2.03125 -17.890625 C 2.414062 -18.222656 3.023438 -18.390625 3.859375 -18.390625 C 4.703125 -18.390625 5.316406 -18.21875 5.703125 -17.875 C 6.085938 -17.539062 6.28125 -17.039062 6.28125 -16.375 C 6.28125 -15.050781 5.472656 -14.390625 3.859375 -14.390625 C 2.265625 -14.390625 1.46875 -15.050781 1.46875 -16.375 Z M 1.46875 -16.375 "/></g></g></g><g fill="rgb(0%, 0%, 0%)" fill-opacity="1"><g transform="translate(150.690444, 28.028888)"><g><path d="M 7.890625 0.234375 C 5.710938 0.234375 4.019531 -0.34375 2.8125 -1.5 C 1.601562 -2.664062 1 -4.320312 1 -6.46875 C 1 -8.6875 1.554688 -10.382812 2.671875 -11.5625 C 3.796875 -12.75 5.394531 -13.34375 7.46875 -13.34375 C 9.4375 -13.34375 10.957031 -12.828125 12.03125 -11.796875 C 13.113281 -10.765625 13.65625 -9.28125 13.65625 -7.34375 L 13.65625 -5.328125 L 5.5625 -5.328125 C 5.59375 -4.597656 5.859375 -4.023438 6.359375 -3.609375 C 6.867188 -3.191406 7.5625 -2.984375 8.4375 -2.984375 C 9.226562 -2.984375 9.957031 -3.054688 10.625 -3.203125 C 11.289062 -3.359375 12.015625 -3.617188 12.796875 -3.984375 L 12.796875 -0.734375 C 12.085938 -0.367188 11.351562 -0.117188 10.59375 0.015625 C 9.84375 0.160156 8.941406 0.234375 7.890625 0.234375 Z M 7.625 -10.265625 C 7.09375 -10.265625 6.644531 -10.097656 6.28125 -9.765625 C 5.925781 -9.429688 5.71875 -8.90625 5.65625 -8.1875 L 9.546875 -8.1875 C 9.535156 -8.8125 9.359375 -9.3125 9.015625 -9.6875 C 8.671875 -10.070312 8.207031 -10.265625 7.625 -10.265625 Z M 7.625 -10.265625 "/></g></g></g><g fill="rgb(0%, 0%, 0%)" fill-opacity="1"><g transform="translate(165.338034, 28.028888)"><g><path d="M 5.640625 0.234375 C 4.703125 0.234375 3.882812 -0.03125 3.1875 -0.5625 C 2.488281 -1.09375 1.945312 -1.875 1.5625 -2.90625 C 1.1875 -3.945312 1 -5.160156 1 -6.546875 C 1 -8.671875 1.425781 -10.332031 2.28125 -11.53125 C 3.132812 -12.738281 4.3125 -13.34375 5.8125 -13.34375 C 6.539062 -13.34375 7.179688 -13.195312 7.734375 -12.90625 C 8.285156 -12.613281 8.789062 -12.117188 9.25 -11.421875 L 9.34375 -11.421875 C 9.195312 -12.453125 9.125 -13.476562 9.125 -14.5 L 9.125 -18.015625 L 13.6875 -18.015625 L 13.6875 0 L 10.265625 0 L 9.296875 -1.65625 L 9.125 -1.65625 C 8.34375 -0.394531 7.179688 0.234375 5.640625 0.234375 Z M 7.484375 -3.34375 C 8.210938 -3.34375 8.722656 -3.566406 9.015625 -4.015625 C 9.316406 -4.472656 9.476562 -5.179688 9.5 -6.140625 L 9.5 -6.5 C 9.5 -7.65625 9.332031 -8.476562 9 -8.96875 C 8.664062 -9.457031 8.144531 -9.703125 7.4375 -9.703125 C 6.84375 -9.703125 6.378906 -9.421875 6.046875 -8.859375 C 5.722656 -8.296875 5.5625 -7.5 5.5625 -6.46875 C 5.5625 -5.445312 5.726562 -4.671875 6.0625 -4.140625 C 6.394531 -3.609375 6.867188 -3.34375 7.484375 -3.34375 Z M 7.484375 -3.34375 "/></g></g></g><g fill="rgb(0%, 0%, 0%)" fill-opacity="1"><g transform="translate(180.570279, 28.028888)"><g/></g></g><g clip-path="url(#id6)"><g clip-path="url(#id7)"><g clip-path="url(#id8)"><path fill="rgb(1.568604%, 64.309692%, 93.728638%)" d="M 248.085938 28.644531 L 248.085938 28.875 L 249.371094 28.894531 L 249.371094 28.664062 L 250.019531 28.664062 L 250.019531 28.011719 L 249.292969 28.011719 L 249.292969 25.097656 L 251.402344 25.097656 L 251.402344 23.949219 L 249.867188 23.949219 C 249.867188 23.910156 249.886719 23.890625 249.867188 23.871094 L 249.847656 13.769531 C 249.847656 13.347656 249.597656 12.984375 249.214844 12.832031 L 249.214844 11.414062 L 248.832031 11.414062 L 248.8125 4.570312 L 248.601562 4.703125 L 248.601562 11.414062 L 248.21875 11.414062 L 248.21875 12.792969 C 247.855469 12.964844 247.585938 13.3125 247.585938 13.734375 L 247.605469 23.835938 C 247.605469 23.871094 247.605469 23.871094 247.605469 23.910156 L 246.074219 23.910156 L 246.074219 25.0625 L 248.179688 25.097656 L 248.179688 28.011719 L 247.453125 28.011719 L 247.453125 28.664062 Z M 248.085938 28.644531 " fill-opacity="1" fill-rule="nonzero"/></g></g></g></svg>