<svg xmlns="http://www.w3.org/2000/svg" xmlns:xlink="http://www.w3.org/1999/xlink" width="600" zoomAndPan="magnify" viewBox="0 0 450 74.999997" height="100" preserveAspectRatio="xMidYMid meet" version="1.0"><defs><g/><clipPath id="id1"><path d="M 21.789062 0.65625 L 54.039062 0.65625 L 54.039062 32.90625 L 21.789062 32.90625 Z M 21.789062 0.65625 " clip-rule="nonzero"/></clipPath><clipPath id="id2"><path d="M 213 9 L 220 9 L 220 32 L 213 32 Z M 213 9 " clip-rule="nonzero"/></clipPath><clipPath id="id3"><path d="M 228.148438 20.808594 L 216.484375 32.476562 L 204.816406 20.808594 L 216.484375 9.140625 Z M 228.148438 20.808594 " clip-rule="nonzero"/></clipPath><clipPath id="id4"><path d="M 229.242188 19.71875 L 216.511719 32.445312 L 203.785156 19.71875 L 216.511719 6.992188 Z M 229.242188 19.71875 " clip-rule="nonzero"/></clipPath></defs><g fill="#000000" fill-opacity="1"><g transform="translate(22.668869, 65.640909)"><g><path d="M 27.671875 -28.875 L 27.671875 -11.5 C 27.671875 -7.71875 26.597656 -4.789062 24.453125 -2.71875 C 22.316406 -0.644531 19.234375 0.390625 15.203125 0.390625 C 11.265625 0.390625 8.238281 -0.613281 6.125 -2.625 C 4.019531 -4.644531 2.96875 -7.539062 2.96875 -11.3125 L 2.96875 -28.875 L 10.796875 -28.875 L 10.796875 -11.9375 C 10.796875 -9.894531 11.175781 -8.410156 11.9375 -7.484375 C 12.707031 -6.566406 13.835938 -6.109375 15.328125 -6.109375 C 16.921875 -6.109375 18.078125 -6.5625 18.796875 -7.46875 C 19.515625 -8.382812 19.875 -9.882812 19.875 -11.96875 L 19.875 -28.875 Z M 27.671875 -28.875 "/></g></g></g><g fill="#000000" fill-opacity="1"><g transform="translate(54.094396, 65.640909)"><g><path d="M 19.953125 -6.875 C 19.953125 -4.476562 19.132812 -2.664062 17.5 -1.4375 C 15.863281 -0.21875 13.519531 0.390625 10.46875 0.390625 C 8.8125 0.390625 7.367188 0.300781 6.140625 0.125 C 4.921875 -0.0507812 3.671875 -0.375 2.390625 -0.84375 L 2.390625 -7.03125 C 3.585938 -6.5 4.898438 -6.0625 6.328125 -5.71875 C 7.753906 -5.382812 9.03125 -5.21875 10.15625 -5.21875 C 11.820312 -5.21875 12.65625 -5.597656 12.65625 -6.359375 C 12.65625 -6.753906 12.421875 -7.101562 11.953125 -7.40625 C 11.492188 -7.71875 10.132812 -8.320312 7.875 -9.21875 C 5.820312 -10.0625 4.382812 -11.019531 3.5625 -12.09375 C 2.75 -13.164062 2.34375 -14.523438 2.34375 -16.171875 C 2.34375 -18.253906 3.144531 -19.875 4.75 -21.03125 C 6.363281 -22.195312 8.640625 -22.78125 11.578125 -22.78125 C 13.046875 -22.78125 14.425781 -22.617188 15.71875 -22.296875 C 17.019531 -21.972656 18.367188 -21.5 19.765625 -20.875 L 17.671875 -15.90625 C 16.648438 -16.363281 15.566406 -16.753906 14.421875 -17.078125 C 13.273438 -17.398438 12.335938 -17.5625 11.609375 -17.5625 C 10.347656 -17.5625 9.71875 -17.25 9.71875 -16.625 C 9.71875 -16.25 9.9375 -15.925781 10.375 -15.65625 C 10.820312 -15.382812 12.097656 -14.832031 14.203125 -14 C 15.765625 -13.351562 16.929688 -12.722656 17.703125 -12.109375 C 18.472656 -11.492188 19.039062 -10.765625 19.40625 -9.921875 C 19.769531 -9.085938 19.953125 -8.070312 19.953125 -6.875 Z M 19.953125 -6.875 "/></g></g></g><g fill="#000000" fill-opacity="1"><g transform="translate(76.473279, 65.640909)"><g><path d="M 13.46875 0.390625 C 9.738281 0.390625 6.84375 -0.597656 4.78125 -2.578125 C 2.726562 -4.554688 1.703125 -7.378906 1.703125 -11.046875 C 1.703125 -14.816406 2.65625 -17.710938 4.5625 -19.734375 C 6.46875 -21.765625 9.191406 -22.78125 12.734375 -22.78125 C 16.109375 -22.78125 18.710938 -21.898438 20.546875 -20.140625 C 22.390625 -18.378906 23.3125 -15.847656 23.3125 -12.546875 L 23.3125 -9.109375 L 9.5 -9.109375 C 9.550781 -7.859375 10.007812 -6.875 10.875 -6.15625 C 11.738281 -5.445312 12.914062 -5.09375 14.40625 -5.09375 C 15.757812 -5.09375 17.003906 -5.21875 18.140625 -5.46875 C 19.273438 -5.726562 20.507812 -6.171875 21.84375 -6.796875 L 21.84375 -1.25 C 20.632812 -0.625 19.382812 -0.195312 18.09375 0.03125 C 16.800781 0.269531 15.257812 0.390625 13.46875 0.390625 Z M 13.015625 -17.515625 C 12.109375 -17.515625 11.347656 -17.226562 10.734375 -16.65625 C 10.117188 -16.082031 9.757812 -15.1875 9.65625 -13.96875 L 16.296875 -13.96875 C 16.265625 -15.039062 15.957031 -15.898438 15.375 -16.546875 C 14.789062 -17.191406 14.003906 -17.515625 13.015625 -17.515625 Z M 13.015625 -17.515625 "/></g></g></g><g fill="#000000" fill-opacity="1"><g transform="translate(102.289093, 65.640909)"><g><path d="M 16.171875 -22.78125 C 16.847656 -22.78125 17.488281 -22.722656 18.09375 -22.609375 L 18.53125 -22.53125 L 17.84375 -15.25 C 17.207031 -15.40625 16.328125 -15.484375 15.203125 -15.484375 C 13.523438 -15.484375 12.300781 -15.097656 11.53125 -14.328125 C 10.769531 -13.554688 10.390625 -12.445312 10.390625 -11 L 10.390625 0 L 2.671875 0 L 2.671875 -22.375 L 8.421875 -22.375 L 9.625 -18.796875 L 10 -18.796875 C 10.644531 -19.984375 11.539062 -20.941406 12.6875 -21.671875 C 13.84375 -22.410156 15.003906 -22.78125 16.171875 -22.78125 Z M 16.171875 -22.78125 "/></g></g></g><g fill="#000000" fill-opacity="1"><g transform="translate(122.080401, 65.640909)"><g/></g></g><g fill="#000000" fill-opacity="1"><g transform="translate(133.397886, 65.640909)"><g><path d="M 15.703125 0 L 9.796875 -20.796875 L 9.625 -20.796875 C 9.894531 -17.253906 10.03125 -14.503906 10.03125 -12.546875 L 10.03125 0 L 3.125 0 L 3.125 -28.875 L 13.515625 -28.875 L 19.53125 -8.375 L 19.6875 -8.375 L 25.59375 -28.875 L 36.015625 -28.875 L 36.015625 0 L 28.84375 0 L 28.84375 -12.65625 C 28.84375 -13.320312 28.847656 -14.054688 28.859375 -14.859375 C 28.878906 -15.660156 28.972656 -17.628906 29.140625 -20.765625 L 28.953125 -20.765625 L 23.125 0 Z M 15.703125 0 "/></g></g></g><g fill="#000000" fill-opacity="1"><g transform="translate(173.316992, 65.640909)"><g><path d="M 17.265625 0 L 15.78125 -2.96875 L 15.625 -2.96875 C 14.582031 -1.675781 13.519531 -0.789062 12.4375 -0.3125 C 11.363281 0.15625 9.96875 0.390625 8.25 0.390625 C 6.144531 0.390625 4.488281 -0.238281 3.28125 -1.5 C 2.070312 -2.757812 1.46875 -4.535156 1.46875 -6.828125 C 1.46875 -9.210938 2.296875 -10.988281 3.953125 -12.15625 C 5.609375 -13.320312 8.007812 -13.976562 11.15625 -14.125 L 14.890625 -14.234375 L 14.890625 -14.5625 C 14.890625 -16.40625 13.984375 -17.328125 12.171875 -17.328125 C 10.535156 -17.328125 8.460938 -16.769531 5.953125 -15.65625 L 3.71875 -20.765625 C 6.320312 -22.109375 9.613281 -22.78125 13.59375 -22.78125 C 16.457031 -22.78125 18.675781 -22.066406 20.25 -20.640625 C 21.820312 -19.222656 22.609375 -17.234375 22.609375 -14.671875 L 22.609375 0 Z M 11.53125 -5.0625 C 12.46875 -5.0625 13.269531 -5.351562 13.9375 -5.9375 C 14.601562 -6.53125 14.9375 -7.300781 14.9375 -8.25 L 14.9375 -10 L 13.15625 -9.921875 C 10.613281 -9.828125 9.34375 -8.890625 9.34375 -7.109375 C 9.34375 -5.742188 10.070312 -5.0625 11.53125 -5.0625 Z M 11.53125 -5.0625 "/></g></g></g><g fill="#000000" fill-opacity="1"><g transform="translate(199.330337, 65.640909)"><g><path d="M 16.796875 0 L 16.796875 -12.203125 C 16.796875 -13.691406 16.578125 -14.8125 16.140625 -15.5625 C 15.710938 -16.320312 15.023438 -16.703125 14.078125 -16.703125 C 12.773438 -16.703125 11.832031 -16.179688 11.25 -15.140625 C 10.675781 -14.109375 10.390625 -12.328125 10.390625 -9.796875 L 10.390625 0 L 2.671875 0 L 2.671875 -22.375 L 8.5 -22.375 L 9.46875 -19.609375 L 9.921875 -19.609375 C 10.578125 -20.660156 11.488281 -21.453125 12.65625 -21.984375 C 13.820312 -22.515625 15.160156 -22.78125 16.671875 -22.78125 C 19.148438 -22.78125 21.078125 -22.0625 22.453125 -20.625 C 23.828125 -19.1875 24.515625 -17.164062 24.515625 -14.5625 L 24.515625 0 Z M 16.796875 0 "/></g></g></g><g fill="#000000" fill-opacity="1"><g transform="translate(227.239912, 65.640909)"><g><path d="M 17.265625 0 L 15.78125 -2.96875 L 15.625 -2.96875 C 14.582031 -1.675781 13.519531 -0.789062 12.4375 -0.3125 C 11.363281 0.15625 9.96875 0.390625 8.25 0.390625 C 6.144531 0.390625 4.488281 -0.238281 3.28125 -1.5 C 2.070312 -2.757812 1.46875 -4.535156 1.46875 -6.828125 C 1.46875 -9.210938 2.296875 -10.988281 3.953125 -12.15625 C 5.609375 -13.320312 8.007812 -13.976562 11.15625 -14.125 L 14.890625 -14.234375 L 14.890625 -14.5625 C 14.890625 -16.40625 13.984375 -17.328125 12.171875 -17.328125 C 10.535156 -17.328125 8.460938 -16.769531 5.953125 -15.65625 L 3.71875 -20.765625 C 6.320312 -22.109375 9.613281 -22.78125 13.59375 -22.78125 C 16.457031 -22.78125 18.675781 -22.066406 20.25 -20.640625 C 21.820312 -19.222656 22.609375 -17.234375 22.609375 -14.671875 L 22.609375 0 Z M 11.53125 -5.0625 C 12.46875 -5.0625 13.269531 -5.351562 13.9375 -5.9375 C 14.601562 -6.53125 14.9375 -7.300781 14.9375 -8.25 L 14.9375 -10 L 13.15625 -9.921875 C 10.613281 -9.828125 9.34375 -8.890625 9.34375 -7.109375 C 9.34375 -5.742188 10.070312 -5.0625 11.53125 -5.0625 Z M 11.53125 -5.0625 "/></g></g></g><g fill="#000000" fill-opacity="1"><g transform="translate(253.253246, 65.640909)"><g><path d="M 23.78125 -22.375 L 23.78125 -18.640625 L 20.71875 -17.515625 C 21.144531 -16.753906 21.359375 -15.867188 21.359375 -14.859375 C 21.359375 -12.441406 20.507812 -10.566406 18.8125 -9.234375 C 17.125 -7.910156 14.597656 -7.25 11.234375 -7.25 C 10.410156 -7.25 9.753906 -7.300781 9.265625 -7.40625 C 9.078125 -7.0625 8.984375 -6.738281 8.984375 -6.4375 C 8.984375 -6.050781 9.289062 -5.753906 9.90625 -5.546875 C 10.53125 -5.347656 11.34375 -5.25 12.34375 -5.25 L 16.0625 -5.25 C 21.070312 -5.25 23.578125 -3.132812 23.578125 1.09375 C 23.578125 3.8125 22.414062 5.925781 20.09375 7.4375 C 17.769531 8.957031 14.507812 9.71875 10.3125 9.71875 C 7.132812 9.71875 4.6875 9.1875 2.96875 8.125 C 1.25 7.0625 0.390625 5.539062 0.390625 3.5625 C 0.390625 0.882812 2.050781 -0.84375 5.375 -1.625 C 4.6875 -1.90625 4.085938 -2.367188 3.578125 -3.015625 C 3.078125 -3.660156 2.828125 -4.300781 2.828125 -4.9375 C 2.828125 -5.632812 3.015625 -6.25 3.390625 -6.78125 C 3.773438 -7.3125 4.570312 -7.945312 5.78125 -8.6875 C 4.625 -9.207031 3.710938 -10.007812 3.046875 -11.09375 C 2.378906 -12.1875 2.046875 -13.519531 2.046875 -15.09375 C 2.046875 -17.53125 2.875 -19.421875 4.53125 -20.765625 C 6.195312 -22.109375 8.570312 -22.78125 11.65625 -22.78125 C 12.0625 -22.78125 12.765625 -22.734375 13.765625 -22.640625 C 14.765625 -22.546875 15.503906 -22.457031 15.984375 -22.375 Z M 6.90625 2.78125 C 6.90625 3.414062 7.25 3.925781 7.9375 4.3125 C 8.625 4.707031 9.539062 4.90625 10.6875 4.90625 C 12.550781 4.90625 14.046875 4.671875 15.171875 4.203125 C 16.304688 3.734375 16.875 3.128906 16.875 2.390625 C 16.875 1.796875 16.53125 1.375 15.84375 1.125 C 15.15625 0.882812 14.171875 0.765625 12.890625 0.765625 L 9.875 0.765625 C 9.039062 0.765625 8.335938 0.957031 7.765625 1.34375 C 7.191406 1.738281 6.90625 2.21875 6.90625 2.78125 Z M 9.34375 -15.046875 C 9.34375 -12.753906 10.140625 -11.609375 11.734375 -11.609375 C 12.472656 -11.609375 13.039062 -11.890625 13.4375 -12.453125 C 13.84375 -13.023438 14.046875 -13.878906 14.046875 -15.015625 C 14.046875 -17.328125 13.273438 -18.484375 11.734375 -18.484375 C 10.140625 -18.484375 9.34375 -17.335938 9.34375 -15.046875 Z M 9.34375 -15.046875 "/></g></g></g><g fill="#000000" fill-opacity="1"><g transform="translate(278.575242, 65.640909)"><g><path d="M 13.46875 0.390625 C 9.738281 0.390625 6.84375 -0.597656 4.78125 -2.578125 C 2.726562 -4.554688 1.703125 -7.378906 1.703125 -11.046875 C 1.703125 -14.816406 2.65625 -17.710938 4.5625 -19.734375 C 6.46875 -21.765625 9.191406 -22.78125 12.734375 -22.78125 C 16.109375 -22.78125 18.710938 -21.898438 20.546875 -20.140625 C 22.390625 -18.378906 23.3125 -15.847656 23.3125 -12.546875 L 23.3125 -9.109375 L 9.5 -9.109375 C 9.550781 -7.859375 10.007812 -6.875 10.875 -6.15625 C 11.738281 -5.445312 12.914062 -5.09375 14.40625 -5.09375 C 15.757812 -5.09375 17.003906 -5.21875 18.140625 -5.46875 C 19.273438 -5.726562 20.507812 -6.171875 21.84375 -6.796875 L 21.84375 -1.25 C 20.632812 -0.625 19.382812 -0.195312 18.09375 0.03125 C 16.800781 0.269531 15.257812 0.390625 13.46875 0.390625 Z M 13.015625 -17.515625 C 12.109375 -17.515625 11.347656 -17.226562 10.734375 -16.65625 C 10.117188 -16.082031 9.757812 -15.1875 9.65625 -13.96875 L 16.296875 -13.96875 C 16.265625 -15.039062 15.957031 -15.898438 15.375 -16.546875 C 14.789062 -17.191406 14.003906 -17.515625 13.015625 -17.515625 Z M 13.015625 -17.515625 "/></g></g></g><g fill="#000000" fill-opacity="1"><g transform="translate(304.391052, 65.640909)"><g><path d="M 30.140625 0 L 30.140625 -12.171875 C 30.140625 -13.679688 29.929688 -14.8125 29.515625 -15.5625 C 29.097656 -16.320312 28.445312 -16.703125 27.5625 -16.703125 C 26.375 -16.703125 25.503906 -16.195312 24.953125 -15.1875 C 24.398438 -14.175781 24.125 -12.585938 24.125 -10.421875 L 24.125 0 L 16.375 0 L 16.375 -12.171875 C 16.375 -13.679688 16.175781 -14.8125 15.78125 -15.5625 C 15.382812 -16.320312 14.742188 -16.703125 13.859375 -16.703125 C 12.648438 -16.703125 11.769531 -16.160156 11.21875 -15.078125 C 10.664062 -14.003906 10.390625 -12.242188 10.390625 -9.796875 L 10.390625 0 L 2.671875 0 L 2.671875 -22.375 L 8.5 -22.375 L 9.46875 -19.609375 L 9.921875 -19.609375 C 10.503906 -20.640625 11.359375 -21.425781 12.484375 -21.96875 C 13.617188 -22.507812 14.898438 -22.78125 16.328125 -22.78125 C 19.554688 -22.78125 21.820312 -21.796875 23.125 -19.828125 L 23.75 -19.828125 C 24.375 -20.753906 25.25 -21.476562 26.375 -22 C 27.5 -22.519531 28.742188 -22.78125 30.109375 -22.78125 C 32.753906 -22.78125 34.707031 -22.097656 35.96875 -20.734375 C 37.226562 -19.378906 37.859375 -17.320312 37.859375 -14.5625 L 37.859375 0 Z M 30.140625 0 "/></g></g></g><g fill="#000000" fill-opacity="1"><g transform="translate(345.653316, 65.640909)"><g><path d="M 13.46875 0.390625 C 9.738281 0.390625 6.84375 -0.597656 4.78125 -2.578125 C 2.726562 -4.554688 1.703125 -7.378906 1.703125 -11.046875 C 1.703125 -14.816406 2.65625 -17.710938 4.5625 -19.734375 C 6.46875 -21.765625 9.191406 -22.78125 12.734375 -22.78125 C 16.109375 -22.78125 18.710938 -21.898438 20.546875 -20.140625 C 22.390625 -18.378906 23.3125 -15.847656 23.3125 -12.546875 L 23.3125 -9.109375 L 9.5 -9.109375 C 9.550781 -7.859375 10.007812 -6.875 10.875 -6.15625 C 11.738281 -5.445312 12.914062 -5.09375 14.40625 -5.09375 C 15.757812 -5.09375 17.003906 -5.21875 18.140625 -5.46875 C 19.273438 -5.726562 20.507812 -6.171875 21.84375 -6.796875 L 21.84375 -1.25 C 20.632812 -0.625 19.382812 -0.195312 18.09375 0.03125 C 16.800781 0.269531 15.257812 0.390625 13.46875 0.390625 Z M 13.015625 -17.515625 C 12.109375 -17.515625 11.347656 -17.226562 10.734375 -16.65625 C 10.117188 -16.082031 9.757812 -15.1875 9.65625 -13.96875 L 16.296875 -13.96875 C 16.265625 -15.039062 15.957031 -15.898438 15.375 -16.546875 C 14.789062 -17.191406 14.003906 -17.515625 13.015625 -17.515625 Z M 13.015625 -17.515625 "/></g></g></g><g fill="#000000" fill-opacity="1"><g transform="translate(371.469126, 65.640909)"><g><path d="M 16.796875 0 L 16.796875 -12.203125 C 16.796875 -13.691406 16.578125 -14.8125 16.140625 -15.5625 C 15.710938 -16.320312 15.023438 -16.703125 14.078125 -16.703125 C 12.773438 -16.703125 11.832031 -16.179688 11.25 -15.140625 C 10.675781 -14.109375 10.390625 -12.328125 10.390625 -9.796875 L 10.390625 0 L 2.671875 0 L 2.671875 -22.375 L 8.5 -22.375 L 9.46875 -19.609375 L 9.921875 -19.609375 C 10.578125 -20.660156 11.488281 -21.453125 12.65625 -21.984375 C 13.820312 -22.515625 15.160156 -22.78125 16.671875 -22.78125 C 19.148438 -22.78125 21.078125 -22.0625 22.453125 -20.625 C 23.828125 -19.1875 24.515625 -17.164062 24.515625 -14.5625 L 24.515625 0 Z M 16.796875 0 "/></g></g></g><g fill="#000000" fill-opacity="1"><g transform="translate(399.3787, 65.640909)"><g><path d="M 13.625 -5.703125 C 14.664062 -5.703125 15.910156 -5.960938 17.359375 -6.484375 L 17.359375 -0.84375 C 16.316406 -0.394531 15.328125 -0.078125 14.390625 0.109375 C 13.453125 0.296875 12.347656 0.390625 11.078125 0.390625 C 8.484375 0.390625 6.613281 -0.242188 5.46875 -1.515625 C 4.320312 -2.785156 3.75 -4.738281 3.75 -7.375 L 3.75 -16.59375 L 1.046875 -16.59375 L 1.046875 -19.734375 L 4.484375 -22.15625 L 6.484375 -26.859375 L 11.53125 -26.859375 L 11.53125 -22.375 L 17.03125 -22.375 L 17.03125 -16.59375 L 11.53125 -16.59375 L 11.53125 -7.875 C 11.53125 -6.425781 12.226562 -5.703125 13.625 -5.703125 Z M 13.625 -5.703125 "/></g></g></g><g clip-path="url(#id1)"><path fill="#04a4ef" d="M 37.914062 0.65625 C 29.007812 0.65625 21.789062 7.875 21.789062 16.78125 C 21.789062 25.683594 29.007812 32.90625 37.914062 32.90625 C 46.820312 32.90625 54.039062 25.683594 54.039062 16.78125 C 54.039062 7.875 46.820312 0.65625 37.914062 0.65625 Z M 37.914062 6.324219 C 40.246094 6.324219 42.136719 8.558594 42.136719 11.3125 C 42.136719 14.070312 40.246094 16.304688 37.914062 16.304688 C 35.582031 16.304688 33.691406 14.070312 33.691406 11.3125 C 33.691406 8.558594 35.582031 6.324219 37.914062 6.324219 Z M 45.0625 25.976562 L 30.769531 25.976562 C 30.050781 25.976562 29.472656 25.394531 29.472656 24.679688 C 29.472656 21.324219 33.25 18.605469 37.914062 18.605469 C 42.578125 18.605469 46.359375 21.324219 46.359375 24.679688 C 46.359375 25.394531 45.777344 25.976562 45.0625 25.976562 Z M 45.0625 25.976562 " fill-opacity="1" fill-rule="nonzero"/></g><g fill="#000000" fill-opacity="1"><g transform="translate(154.78299, 30.45519)"><g><path d="M 12.1875 0 L 11.359375 -3.171875 L 5.875 -3.171875 L 5.015625 0 L 0 0 L 5.515625 -16.953125 L 11.59375 -16.953125 L 17.171875 0 Z M 10.40625 -6.90625 L 9.671875 -9.671875 C 9.503906 -10.296875 9.300781 -11.09375 9.0625 -12.0625 C 8.820312 -13.039062 8.660156 -13.742188 8.578125 -14.171875 C 8.515625 -13.773438 8.378906 -13.125 8.171875 -12.21875 C 7.960938 -11.320312 7.507812 -9.550781 6.8125 -6.90625 Z M 10.40625 -6.90625 "/></g></g></g><g fill="#000000" fill-opacity="1"><g transform="translate(172.861321, 30.45519)"><g><path d="M 5.625 0.234375 C 4.695312 0.234375 3.882812 -0.03125 3.1875 -0.5625 C 2.488281 -1.09375 1.945312 -1.875 1.5625 -2.90625 C 1.1875 -3.9375 1 -5.144531 1 -6.53125 C 1 -8.65625 1.425781 -10.316406 2.28125 -11.515625 C 3.132812 -12.710938 4.304688 -13.3125 5.796875 -13.3125 C 6.523438 -13.3125 7.164062 -13.164062 7.71875 -12.875 C 8.269531 -12.582031 8.773438 -12.09375 9.234375 -11.40625 L 9.328125 -11.40625 C 9.179688 -12.425781 9.109375 -13.445312 9.109375 -14.46875 L 9.109375 -17.96875 L 13.65625 -17.96875 L 13.65625 0 L 10.25 0 L 9.28125 -1.65625 L 9.109375 -1.65625 C 8.328125 -0.394531 7.164062 0.234375 5.625 0.234375 Z M 7.46875 -3.34375 C 8.195312 -3.34375 8.707031 -3.566406 9 -4.015625 C 9.300781 -4.472656 9.460938 -5.175781 9.484375 -6.125 L 9.484375 -6.484375 C 9.484375 -7.640625 9.316406 -8.457031 8.984375 -8.9375 C 8.648438 -9.425781 8.128906 -9.671875 7.421875 -9.671875 C 6.828125 -9.671875 6.367188 -9.390625 6.046875 -8.828125 C 5.722656 -8.273438 5.5625 -7.484375 5.5625 -6.453125 C 5.5625 -5.441406 5.722656 -4.671875 6.046875 -4.140625 C 6.378906 -3.609375 6.851562 -3.34375 7.46875 -3.34375 Z M 7.46875 -3.34375 "/></g></g></g><g fill="#000000" fill-opacity="1"><g transform="translate(188.97566, 30.45519)"><g><path d="M 17.625 0 L 17.625 -7.109375 C 17.625 -7.992188 17.503906 -8.65625 17.265625 -9.09375 C 17.023438 -9.539062 16.640625 -9.765625 16.109375 -9.765625 C 15.421875 -9.765625 14.914062 -9.46875 14.59375 -8.875 C 14.269531 -8.289062 14.109375 -7.363281 14.109375 -6.09375 L 14.109375 0 L 9.578125 0 L 9.578125 -7.109375 C 9.578125 -7.992188 9.457031 -8.65625 9.21875 -9.09375 C 8.988281 -9.539062 8.617188 -9.765625 8.109375 -9.765625 C 7.398438 -9.765625 6.882812 -9.445312 6.5625 -8.8125 C 6.238281 -8.1875 6.078125 -7.160156 6.078125 -5.734375 L 6.078125 0 L 1.5625 0 L 1.5625 -13.09375 L 4.96875 -13.09375 L 5.53125 -11.46875 L 5.796875 -11.46875 C 6.140625 -12.070312 6.640625 -12.53125 7.296875 -12.84375 C 7.960938 -13.15625 8.710938 -13.3125 9.546875 -13.3125 C 11.429688 -13.3125 12.757812 -12.738281 13.53125 -11.59375 L 13.890625 -11.59375 C 14.253906 -12.132812 14.765625 -12.554688 15.421875 -12.859375 C 16.078125 -13.160156 16.804688 -13.3125 17.609375 -13.3125 C 19.148438 -13.3125 20.289062 -12.914062 21.03125 -12.125 C 21.769531 -11.332031 22.140625 -10.128906 22.140625 -8.515625 L 22.140625 0 Z M 17.625 0 "/></g></g></g><g fill="#000000" fill-opacity="1"><g transform="translate(213.535164, 30.45519)"><g/></g></g><g fill="#000000" fill-opacity="1"><g transform="translate(220.580482, 30.45519)"><g><path d="M 9.8125 0 L 9.8125 -7.140625 C 9.8125 -8.003906 9.6875 -8.65625 9.4375 -9.09375 C 9.1875 -9.539062 8.785156 -9.765625 8.234375 -9.765625 C 7.472656 -9.765625 6.921875 -9.460938 6.578125 -8.859375 C 6.242188 -8.253906 6.078125 -7.210938 6.078125 -5.734375 L 6.078125 0 L 1.5625 0 L 1.5625 -13.09375 L 4.96875 -13.09375 L 5.53125 -11.46875 L 5.796875 -11.46875 C 6.179688 -12.082031 6.710938 -12.539062 7.390625 -12.84375 C 8.078125 -13.15625 8.863281 -13.3125 9.75 -13.3125 C 11.195312 -13.3125 12.320312 -12.890625 13.125 -12.046875 C 13.925781 -11.210938 14.328125 -10.035156 14.328125 -8.515625 L 14.328125 0 Z M 9.8125 0 "/></g></g></g><g fill="#000000" fill-opacity="1"><g transform="translate(59.440394, 30.506806)"><g><path d="M 16.21875 -16.921875 L 16.21875 -6.734375 C 16.21875 -4.523438 15.585938 -2.8125 14.328125 -1.59375 C 13.078125 -0.375 11.269531 0.234375 8.90625 0.234375 C 6.601562 0.234375 4.832031 -0.351562 3.59375 -1.53125 C 2.351562 -2.71875 1.734375 -4.414062 1.734375 -6.625 L 1.734375 -16.921875 L 6.328125 -16.921875 L 6.328125 -6.984375 C 6.328125 -5.796875 6.550781 -4.929688 7 -4.390625 C 7.445312 -3.847656 8.109375 -3.578125 8.984375 -3.578125 C 9.910156 -3.578125 10.582031 -3.84375 11 -4.375 C 11.425781 -4.914062 11.640625 -5.796875 11.640625 -7.015625 L 11.640625 -16.921875 Z M 16.21875 -16.921875 "/></g></g></g><g fill="#000000" fill-opacity="1"><g transform="translate(77.373856, 30.506806)"><g><path d="M 9.84375 0 L 9.84375 -7.15625 C 9.84375 -8.019531 9.710938 -8.675781 9.453125 -9.125 C 9.203125 -9.570312 8.800781 -9.796875 8.25 -9.796875 C 7.488281 -9.796875 6.9375 -9.488281 6.59375 -8.875 C 6.257812 -8.269531 6.09375 -7.222656 6.09375 -5.734375 L 6.09375 0 L 1.5625 0 L 1.5625 -13.109375 L 4.984375 -13.109375 L 5.546875 -11.5 L 5.8125 -11.5 C 6.195312 -12.113281 6.726562 -12.570312 7.40625 -12.875 C 8.09375 -13.1875 8.878906 -13.34375 9.765625 -13.34375 C 11.210938 -13.34375 12.335938 -12.921875 13.140625 -12.078125 C 13.953125 -11.242188 14.359375 -10.0625 14.359375 -8.53125 L 14.359375 0 Z M 9.84375 0 "/></g></g></g><g fill="#000000" fill-opacity="1"><g transform="translate(93.247863, 30.506806)"><g><path d="M 6.109375 0 L 1.578125 0 L 1.578125 -13.109375 L 6.109375 -13.109375 Z M 1.46875 -16.375 C 1.46875 -17.050781 1.65625 -17.554688 2.03125 -17.890625 C 2.414062 -18.222656 3.023438 -18.390625 3.859375 -18.390625 C 4.703125 -18.390625 5.316406 -18.21875 5.703125 -17.875 C 6.085938 -17.539062 6.28125 -17.039062 6.28125 -16.375 C 6.28125 -15.050781 5.472656 -14.390625 3.859375 -14.390625 C 2.265625 -14.390625 1.46875 -15.050781 1.46875 -16.375 Z M 1.46875 -16.375 "/></g></g></g><g fill="#000000" fill-opacity="1"><g transform="translate(100.953467, 30.506806)"><g><path d="M 9.578125 -9.71875 L 6.78125 -9.71875 L 6.78125 0 L 2.25 0 L 2.25 -9.71875 L 0.515625 -9.71875 L 0.515625 -11.9375 L 2.34375 -13.0625 L 2.34375 -13.28125 C 2.34375 -15.007812 2.695312 -16.25 3.40625 -17 C 4.113281 -17.757812 5.25 -18.140625 6.8125 -18.140625 C 7.40625 -18.140625 7.96875 -18.09375 8.5 -18 C 9.039062 -17.90625 9.664062 -17.742188 10.375 -17.515625 L 9.40625 -14.578125 C 8.851562 -14.734375 8.3125 -14.8125 7.78125 -14.8125 C 7.425781 -14.8125 7.171875 -14.703125 7.015625 -14.484375 C 6.859375 -14.273438 6.78125 -13.929688 6.78125 -13.453125 L 6.78125 -13.109375 L 9.578125 -13.109375 Z M 9.578125 -9.71875 "/></g></g></g><g fill="#000000" fill-opacity="1"><g transform="translate(110.741666, 30.506806)"><g><path d="M 6.109375 0 L 1.578125 0 L 1.578125 -13.109375 L 6.109375 -13.109375 Z M 1.46875 -16.375 C 1.46875 -17.050781 1.65625 -17.554688 2.03125 -17.890625 C 2.414062 -18.222656 3.023438 -18.390625 3.859375 -18.390625 C 4.703125 -18.390625 5.316406 -18.21875 5.703125 -17.875 C 6.085938 -17.539062 6.28125 -17.039062 6.28125 -16.375 C 6.28125 -15.050781 5.472656 -14.390625 3.859375 -14.390625 C 2.265625 -14.390625 1.46875 -15.050781 1.46875 -16.375 Z M 1.46875 -16.375 "/></g></g></g><g fill="#000000" fill-opacity="1"><g transform="translate(118.44727, 30.506806)"><g><path d="M 7.890625 0.234375 C 5.710938 0.234375 4.019531 -0.34375 2.8125 -1.5 C 1.601562 -2.664062 1 -4.320312 1 -6.46875 C 1 -8.6875 1.554688 -10.382812 2.671875 -11.5625 C 3.796875 -12.75 5.394531 -13.34375 7.46875 -13.34375 C 9.4375 -13.34375 10.957031 -12.828125 12.03125 -11.796875 C 13.113281 -10.765625 13.65625 -9.28125 13.65625 -7.34375 L 13.65625 -5.328125 L 5.5625 -5.328125 C 5.59375 -4.597656 5.859375 -4.023438 6.359375 -3.609375 C 6.867188 -3.191406 7.5625 -2.984375 8.4375 -2.984375 C 9.226562 -2.984375 9.957031 -3.054688 10.625 -3.203125 C 11.289062 -3.359375 12.015625 -3.617188 12.796875 -3.984375 L 12.796875 -0.734375 C 12.085938 -0.367188 11.351562 -0.117188 10.59375 0.015625 C 9.84375 0.160156 8.941406 0.234375 7.890625 0.234375 Z M 7.625 -10.265625 C 7.09375 -10.265625 6.644531 -10.097656 6.28125 -9.765625 C 5.925781 -9.429688 5.71875 -8.90625 5.65625 -8.1875 L 9.546875 -8.1875 C 9.535156 -8.8125 9.359375 -9.3125 9.015625 -9.6875 C 8.671875 -10.070312 8.207031 -10.265625 7.625 -10.265625 Z M 7.625 -10.265625 "/></g></g></g><g fill="#000000" fill-opacity="1"><g transform="translate(133.09486, 30.506806)"><g><path d="M 5.640625 0.234375 C 4.703125 0.234375 3.882812 -0.03125 3.1875 -0.5625 C 2.488281 -1.09375 1.945312 -1.875 1.5625 -2.90625 C 1.1875 -3.945312 1 -5.160156 1 -6.546875 C 1 -8.671875 1.425781 -10.332031 2.28125 -11.53125 C 3.132812 -12.738281 4.3125 -13.34375 5.8125 -13.34375 C 6.539062 -13.34375 7.179688 -13.195312 7.734375 -12.90625 C 8.285156 -12.613281 8.789062 -12.117188 9.25 -11.421875 L 9.34375 -11.421875 C 9.195312 -12.453125 9.125 -13.476562 9.125 -14.5 L 9.125 -18.015625 L 13.6875 -18.015625 L 13.6875 0 L 10.265625 0 L 9.296875 -1.65625 L 9.125 -1.65625 C 8.34375 -0.394531 7.179688 0.234375 5.640625 0.234375 Z M 7.484375 -3.34375 C 8.210938 -3.34375 8.722656 -3.566406 9.015625 -4.015625 C 9.316406 -4.472656 9.476562 -5.179688 9.5 -6.140625 L 9.5 -6.5 C 9.5 -7.65625 9.332031 -8.476562 9 -8.96875 C 8.664062 -9.457031 8.144531 -9.703125 7.4375 -9.703125 C 6.84375 -9.703125 6.378906 -9.421875 6.046875 -8.859375 C 5.722656 -8.296875 5.5625 -7.5 5.5625 -6.46875 C 5.5625 -5.445312 5.726562 -4.671875 6.0625 -4.140625 C 6.394531 -3.609375 6.867188 -3.34375 7.484375 -3.34375 Z M 7.484375 -3.34375 "/></g></g></g><g fill="#000000" fill-opacity="1"><g transform="translate(148.327105, 30.506806)"><g/></g></g><g clip-path="url(#id2)"><g clip-path="url(#id3)"><g clip-path="url(#id4)"><path fill="#04a4ef" d="M 215.84375 31.125 L 215.84375 31.355469 L 217.125 31.371094 L 217.125 31.144531 L 217.777344 31.144531 L 217.777344 30.492188 L 217.050781 30.492188 L 217.050781 27.578125 L 219.15625 27.578125 L 219.15625 26.425781 L 217.625 26.425781 C 217.625 26.390625 217.644531 26.371094 217.625 26.351562 L 217.605469 16.25 C 217.605469 15.828125 217.355469 15.460938 216.972656 15.308594 L 216.972656 13.890625 L 216.589844 13.890625 L 216.570312 7.046875 L 216.359375 7.183594 L 216.359375 13.890625 L 215.976562 13.890625 L 215.976562 15.269531 C 215.613281 15.445312 215.34375 15.789062 215.34375 16.210938 L 215.363281 26.3125 C 215.363281 26.351562 215.363281 26.351562 215.363281 26.390625 L 213.828125 26.390625 L 213.828125 27.539062 L 215.9375 27.578125 L 215.9375 30.492188 L 215.210938 30.492188 L 215.210938 31.144531 Z M 215.84375 31.125 " fill-opacity="1" fill-rule="nonzero"/></g></g></g></svg>